<?xml version="1.0" encoding="utf-8"?>
<!-- Generator: Adobe Illustrator 27.3.1, SVG Export Plug-In . SVG Version: 6.00 Build 0)  -->
<svg version="1.1" id="Layer_1" xmlns="http://www.w3.org/2000/svg" xmlns:xlink="http://www.w3.org/1999/xlink" x="0px" y="0px"
	 viewBox="0 0 772.1 704.7" style="enable-background:new 0 0 772.1 704.7;" xml:space="preserve">
<style type="text/css">
	.st0{fill:#FFFFFF;}
	.st1{stroke:#FFFFFF;stroke-width:2;stroke-miterlimit:10;}
</style>
<g>
	<path d="M543.8,376.6c1.9-1.1,3.8-2.2,5.6-3.3c14.8-9.5,23.8-26.8,19.1-42.2c-3.3-10.9-6.2-22-9.5-32.9
		c-3.6-12.1-13.3-19.3-24.8-23.5c0.4-1.1,0.4-1.8,0.7-2.1c19-14.5,21.4-32.5,11.6-53.3c-0.8-1.8-1.3-4.3-0.6-6
		c3.2-8.4-0.3-14.6-5.9-20.4c-1.4-1.5-2.5-3.4-3.8-5c-3.5-4.4-7.1-8.9-10.7-13.3c-1-1.2-2.7-2.1-3-3.4c-2.3-13-10.1-23-17.8-33.2
		c-9.1-12.1-16.8-15.4-31.4-10.9c-5.7,1.8-11.1,4.6-17.1,7.2c-2.9-24-14.4-42.1-34.5-54.6c-5.4-3.3-11.6-5.4-11.8-13.6
		c0-2.1-3.2-4-5-6.1c-4.9-6-9.8-12.1-9.5-20.5c0.3-9.2-7.6-19.7-16.5-21.7c-6.9-1.6-15.8,4.1-19.3,13c-1.2,2.9-1.2,6.3-1.6,9.5
		c-0.2,1.8,0.3,4-0.5,5.4c-3.7,6-7.9,11.6-11.8,17.5c-1.1,1.8-1.4,4.1-2.5,5.9c-1.8,2.9-3.3,6.5-6,8.1
		c-19.5,11.3-32.7,27.1-37.3,49.6c-0.6,3.1-1.8,6-2.1,6.9c-11.6-1.6-22.2-4.8-32.5-4c-16.5,1.2-22.7,16.5-13.7,30.5
		c1.7,2.6,2.9,5.5,4.4,8.4c-3.6,1.7-6.4,2.7-8.9,4.3c-8.3,5-15.9,10.8-17.6,21.1c-2,12.3-17,14.6-19.7,26.2c0,0.1-0.5,0.1-0.7,0.3
		c-7.3,3.9-9.4,9.2-8,17.5c0.6,3.3,0.1,7.3-1.5,10.2c-6.6,12.4-7.9,24.6-0.6,37c2.1,3.5-0.6,17.1-4,18.7c-9.9,4.5-10.7,13-9.6,21.9
		c2.6,20.3,11.4,37.5,27.2,51.2c-1.2,1.5-2.2,2.8-3.3,4c-29.8,33.8-12.2,89.9,31.6,102.6c12.5,3.6,23.9,10.9,35.8,16.6
		c0.9,0.4,1.5,1.5,2,2.5c4,8.6,11.6,10.5,20,11.4c6,0.7,11.9,1.8,17.8,2.7c-0.3,1.9-0.6,3.7-0.9,5.5c1.2,2,2,4.4,2.2,6.8
		c1.5,1.6,2.7,3.5,3.8,5.5c1.3,0.6,2.4,1.5,3.4,2.4c0.4-0.1,0.8-0.1,1.2-0.1c1.9,0,3.4,0.5,4.7,1.4c11.7,0.3,23.4,0.4,35.1,0.4
		c7.1,0,14.1,0.1,21.2,0.1c13.1-0.8,26.1-2.3,39.2-3.7c4.3-4,7.6-9.2,9.6-16.1c0.2-3.3,0.3-6.7,0.5-10.2c6.3-1.1,13.2-1.5,19.7-3.5
		c6-1.8,11.5-5.2,17.1-8.1c1.9-0.9,3.4-2.6,5.4-3.3c13.1-4.8,26.4-9.2,39.5-14.1c4.5-1.7,8.9-4.1,12.7-7
		c29.5-22.1,35.4-64.1,13.3-93.3C544.2,378.4,544.1,377.5,543.8,376.6z M552.6,330.6c0.3-2.3,1.7-4.5,2.6-6.8
		c1.7,1.8,4.8,3.7,4.8,5.5c-0.1,7.9-0.6,15.9-2.1,23.6c-0.3,1.7-5.1,2.8-7.9,3.8c-3.2,1.1-6.5,2.5-9.7,2.5c-8,0-15.9-0.7-23.9-1.2
		c-0.5,0-1.2-0.4-1.6-0.2c-12.2,5.6-10.4-2.9-10.9-10.2c-0.4-6.7-2.4-13.3-3.3-19.9c-0.3-2.2,0.7-4.6,1.2-6.9
		c1.6,2.1,4.1,3.9,4.6,6.2c1.5,6.5,2,13.3,3.4,19.9c0.5,2.3,2.1,4.4,3.2,6.5c0.8-0.2,1.6-0.4,2.4-0.6c0-2.6,0.1-5.2,0-7.9
		c-0.2-7-1.2-14-0.4-20.9c0.3-2.9,4.2-5.4,6.4-8.1c1.6,2.8,4.2,5.4,4.7,8.3c1,7.5,1,15.1,1.6,22.6c0.2,2.4,0.8,4.8,1.2,7.1
		c0.9,0,1.8,0.1,2.7,0.2c0.7-2.5,1.9-5,2-7.5c0.2-8.1-0.2-16.2,0.2-24.3c0.1-2.3,2.2-4.4,3.3-6.7c2.5,1.7,6.9,3.1,7.1,5.1
		c1,8.2,0.6,16.5,1,24.8c0.1,2.5,1,5.1,1.5,7.6c1.6-2.2,4.2-4.1,4.7-6.5C552.2,341.5,551.9,336,552.6,330.6z M548.4,298.3
		c-3.8-2.1-7.8-4.3-13.5-7.5c1.3,6.6,2.2,10.9,3.3,16.2c-14.4,2.4-28.3,4.8-42.3,7.1c-5.5-8,0.4-21.4,12.4-28
		C523.2,277.8,541.7,283.5,548.4,298.3z M538,254.7c-5.4,4.3-11.4,8-17.1,11.9c-1.2-0.2-2.4-0.4-3.6-0.6c-3-11-6.4-22-8.6-33.2
		c-0.5-2.7,3.1-6.4,5.1-9.5c0.7-1,2.3-1.6,3.5-1.9c6.7-1.4,14.6-10.7,19.9-2.1C547.1,235.4,547.4,247.3,538,254.7z M540,207.7
		c-8.4,2.5-16.5,5.1-24.8,7.2c-2.7,0.7-6.1,0.6-8.6-0.6c-3.9-1.8-5.3-5.6-0.8-7.9c7.7-3.8,15.7-7.3,23.9-9.5
		C536.4,195.2,539.7,199.7,540,207.7z M529.7,189.1c-7.1,2.6-13.7,5.7-20.6,7.3c-2.5,0.6-5.8-2.3-8.7-3.5c1.3-2,2.2-4.8,4.1-5.9
		c4.4-2.4,9.1-4.5,14-5.8C524.9,179.3,528.3,182.7,529.7,189.1z M505.5,153c13,16.7,12,22.3-5.1,26.4
		C502.1,170.5,503.6,162.7,505.5,153z M447.5,226.4c10.6,6.3,19.8,11.9,29.1,17.4c0.4-0.6,0.7-1.2,1.1-1.7c-7.9-9-15.9-18-23.8-27.1
		c0.4-0.5,0.7-1.1,1.1-1.6c6.4,2.7,12.7,5.4,19.1,8.1c0.2-0.4,0.4-0.8,0.6-1.2c-5.7-5.7-11.3-11.5-17.1-17c-3.9-3.7-3.8-6.5,0.6-9.8
		c5.6-4.1,10.9-8.7,15.9-14.4c-5,0.7-10,1.3-15.1,2c-0.4-0.5-0.8-1-1.3-1.5c7.2-8.6,14.3-17.2,21.5-25.8c-0.4-0.5-0.7-1-1.1-1.5
		c-4.9,2.1-9.9,4.2-15.2,6.5c-0.5-5.5-0.9-10-1.3-14.5c-0.1-0.8-0.1-2.1,0.2-2.3c7.3-3.2,14.4-7.2,22-8.9c6.4-1.5,11.5,3,13.6,9.1
		c1.1,3.1,1.3,7.4-0.1,10.1c-9.7,18.2-8,37.5-4.6,56.4c3.1,17.5,8.4,34.6,12.7,51.9c0.3,1.3,0.5,2.5,0.8,4.8
		c-23.9-0.9-43.6-9.8-59.4-26.6C445,236.9,447.2,230.8,447.5,226.4z M491,279c-17.9,5.7-23.7,4.2-35.4-9.3
		C467.3,272.7,478.7,275.7,491,279z M436.2,146.6c-6,0.4-8.7-1.9-8.2-8.4c0.5-5.8,0.1-11.7,0.1-17.4
		C436.2,123.2,439.1,131.9,436.2,146.6z M434,113.6c-14.9-3.7-11.7-19.6-20.7-26.4C423.9,89.5,433.3,101.3,434,113.6z M410.9,116.4
		c9.4,0.1,13.2,8.9,9.6,23.5c-6.2,0.7-10.5-0.3-9.7-8.3C411.3,126.5,410.9,121.4,410.9,116.4z M415.9,107.9
		c-6.1-0.8-10.6-1.1-15-2.2c-1.9-0.5-4.3-2.4-4.8-4.1c-2.1-7.1-3.5-14.5-5.5-23.2C403.3,85.1,410.4,94.8,415.9,107.9z M403.2,135.5
		c0,0.7-5.3,1.9-7.9,1.5c-1.5-0.2-3.8-3-3.9-4.7c-0.5-6.1-0.2-12.2-0.2-20.6c4.2,1.7,10.3,2.5,11,4.9
		C404,122.5,403.6,129.2,403.2,135.5z M376.8,25.4c3.2,3.2,6.4,6.4,9.7,9.6c-3.3,2.6-6.6,5.2-11.2,8.9c-3.8-3.7-6.1-6-8.5-8.3
		C370.2,32.2,373.5,28.8,376.8,25.4z M393.2,52.8h-31.3C369.1,46,382.5,45.6,393.2,52.8z M357.7,62.8c13.2-4.1,26.4-4.2,39.5,0.1
		c0.1,0.9,0.1,1.9,0.2,2.8c-3.5,0.6-7,1.5-10.5,1.8c-9.1,0.7-18.3,1.3-27.4,1.6c-2,0-4-1.4-6-2.2C354.9,65.4,356,63.3,357.7,62.8z
		 M367,104.2c1.9-10.3,2.8-20.2,9.9-27.9c1.1-0.1,2.1-0.3,3.2-0.5c3,9,6,18,9.4,28.4H367z M384.8,125.3c0,9.2-2.8,12.3-10.3,11
		c-2.2-0.4-4.9-3.4-5.7-5.8c-0.9-2.9-0.3-6.4,0-9.6c0.5-4.7,1.1-8.7,7.7-8.8c6.7-0.1,7.3,4,7.9,8.6
		C384.7,122.6,384.8,124.4,384.8,125.3z M364.7,78.4c-2,8.6-3.5,16-5.6,23.1c-0.4,1.6-2.6,3.3-4.3,3.7c-4.4,1-9,1.3-15.2,2
		C345.4,94.1,352.4,84.8,364.7,78.4z M362.1,130.3c0.4,6-3.3,6.5-7.5,7c-5.3,0.6-5.5-3-5.5-6.7c0-2.2-0.1-4.3,0.1-6.5
		c0.8-10.2,2.7-11.7,13.6-10.5C362.5,119.6,361.8,125,362.1,130.3z M342.8,135.3c0.1,6.7-4.5,6.8-9.2,7.1
		c-5.1-14.1-1.1-25.6,9.2-26.9C342.8,122.5,342.8,128.9,342.8,135.3z M340.8,87.7c-7.8,7.3-4.6,23.2-19.8,24.7
		C317.9,103.7,325.7,93.4,340.8,87.7z M318.6,125.2c0.5-2.8,2.5-5.2,3.8-7.9c1.2,1,2.4,2.1,3.6,3.1c0,7.8,0.4,15.6-0.3,23.4
		c-0.2,2.2-3.4,4.1-5.2,6.1c-1.4-1.9-4-3.8-4-5.6C316.6,138,317.4,131.5,318.6,125.2z M324.3,158.1c35.2-15.5,70.8-15.7,106.5-1.8
		c8.3,3.2,12.3,9.2,12.6,18.7c0.8,23.1-4.2,44.5-15.8,64.5c-3.9,6.8-8.4,14.1-0.1,20.8c-7,4.9-13.5,9.1-19.6,14
		c-1.6,1.3-1.8,4.3-2.6,6.6c2.3-0.6,5.1-0.5,6.8-1.9c7.2-6.2,14.6-11.8,26.9-11.5c-6.1,4.6-11,7.7-15,11.6c-2,2-2.5,5.6-3.6,8.5
		c2.6-1.3,5.6-2,7.7-3.8c5.7-5,11.4-9.2,21-8.1c-5.6,4.9-10,8.2-13.7,12.2c-1.2,1.3-0.7,4.2-1,6.3c2-0.8,4.1-1.3,5.9-2.3
		c4.1-2.5,7.8-5.6,12-7.7c1.5-0.8,4.5-0.3,5.9,0.9c22.6,18.8,38.7,41,36.8,72.2c-1.2,18.8-12.3,31.9-28.3,39.5
		c-18.1,8.6-36.4,5.4-51.7-7.5c-14.2-12.1-18.3-28.4-14.2-46.4c3.1-13.7,12.5-22.4,24.4-28.8c5.1-2.7,15.2,2.8,20.6,12.1
		c-8.7-0.8-16-1.5-24.5-2.3c1.7,2.6,2.9,4.5,3.2,5c-2.4,8.4-5.7,15.8-6.3,23.3c-1.2,15.8,10.8,26.6,27.4,25.9
		c16-0.7,26.3-12.3,24.6-27.9c-1.7-16.4-9.4-29.6-23.5-37.9c-11.6-6.8-24.2-11.8-36.4-17.6c-15.6-7.4-32.3-13.2-46.7-22.5
		c-34.2-22.1-49.9-55-50.9-95.3C312.6,167.7,316.3,161.6,324.3,158.1z M407.1,448.6c-28.3,10.5-57.2,12-84.6-3.2
		c-8.5-4.7-15.2-12.7-22.3-19.7c-1-1,0.2-5,1.2-7.3c10.2-24.8,27.4-43.9,49.4-58.7c13.8-9.3,28-18,42.9-27.5c-0.6,2.6-1.3,4.8-1.5,7
		c-0.6,7.2-2.6,14.8-1.1,21.6c4.9,22.2,14.4,42.3,32.3,57.1c5,4.2,6.6,8.8,3,13.1C420.7,437.8,414.7,445.8,407.1,448.6z
		 M427.5,496.2c-6.8,1.6-17.3-6.7-21-17.9c-2.5-7.3-0.6-11.3,5.6-14.1C417.2,474.8,422.3,485.4,427.5,496.2z M290.2,406.5
		c11.2-25.8,28.7-46.5,53-60.8c16.9-10,33.3-20.2,44.8-36.7c1.1-1.6,4.9-1.2,7.5-1.7c-0.2,2.3,0.3,5.1-0.7,7
		c-5.6,9.7-13.1,17.6-23,23.4c-11,6.4-21.8,13.2-32,20.6c-19.7,14.2-34.7,32.5-44.5,54.8c-0.8,1.9-1.9,3.7-2.9,5.5
		c-1-0.1-1.9-0.2-2.9-0.3C289.6,414.4,288.7,409.9,290.2,406.5z M337.8,263.3c3.9,3.5,7.7,6.9,12.3,11c-9.4,11-20.3,15-34.3,14.2
		c9.2-7.1,17.5-13.4,25.8-19.8C340.4,266.9,339.1,265.1,337.8,263.3z M314,276.8c-2.5,3.8-5.7,8.6-5.1,12.4c0.4,2.9,6.4,4.9,9.8,7.4
		c13.4,10,26.4,3.2,39.7-0.3c8.7-2.3,16.5,0.5,22.6,7.1c-5.5,15.3-23.7,18.8-49.3,21.5c1.6-8.4,1.1-8.7-7.1-6.4
		c-2.9,0.8-6.1,0.1-10.1,0.1c0.9,2.5,1.7,4.6,2.5,6.7c-14.6,3.8-24.3-3.2-25-18.2c-0.7-15.6,12.1-32.6,30.6-38.6
		C319.7,271.3,316.2,273.6,314,276.8z M318.7,333.4c10-3.5,21.1-3.5,32.6-3.8c-28.9,17.8-53,39.6-67.3,71.2
		c-10.5-13.7-8.4-38.7,5.6-51.1C297.8,342.5,308.3,337,318.7,333.4z M457.2,360.1c0.8,7.4-5.8,7.1-10.4,8.6c-1,0.3-2.1,0.2-4,0.4
		c-1.9-0.5-4.6-0.9-7-2.1c-4.8-2.4-9.8-6.3-7.1-11.7c1.5-2.9,7.9-3.5,12.1-4.8c1.4-0.4,3.3,1,4.7,0.5
		C454,348.4,456.4,353.8,457.2,360.1z M309.3,128.6v24.4C305.5,144.9,303.6,138,309.3,128.6z M264.4,173.2c-0.6-5.9-3-12-5.9-17.3
		c-5.6-10.1-2.6-18.2,9-18.9c6.7-0.4,13.8,1.3,20.3,3.5c7.5,2.5,10.9,8.4,8.9,16.8h-17.2c8.2,7.6,15.6,14.7,23.1,21.7
		c-0.3,0.9-0.6,1.8-0.9,2.7c-5.9,0.5-11.7,1-19.9,1.8c8.3,5.3,15,9.5,23,14.6c-8.2,6.1-15.7,11.8-23.3,17.4l0.5,1.2
		c7.3-1.3,14.7-2.6,22-3.9c0.6,0.6,1.2,1.2,1.7,1.7c-7.5,8.2-15,16.5-22.5,24.7c0.4,0.7,0.8,1.4,1.2,2.2c9.5-5,19-10,28.8-15.1
		c4.5,4.5,3.4,8.9-2.4,13.7c-16.3,13.7-34.9,21.1-57.3,22.3c0.8-3.3,1.3-5.8,1.9-8.2C263.3,227.6,267.5,200.7,264.4,173.2z
		 M235.6,196.5c2.4-8.9,7.9-14.3,16-18.7c4.6,5.5,5.9,10.5,2.3,16.2c-1.1,1.8-1.6,4-1.9,6.1c-0.8,4.6-1.7,8.9-7.9,7.5
		C238.3,206.3,233.4,204.7,235.6,196.5z M220.8,215.9c1.5-2.4,4.4-5.7,6.6-5.6c9.8,0.6,18.6,4,27.2,13.5c-5,1.2-8.4,3-11.5,2.5
		c-6.6-1-13.1-2.9-19.4-5.1C222.1,220.7,220.2,216.8,220.8,215.9z M216.3,226.5c12.1,2,23.2,6.7,31.7,15.9c0.1,1.1,0.2,2.2,0.3,3.3
		c-4.3,0.6-8.7,2.3-12.7,1.5c-7.6-1.4-15.3-3.7-22.3-6.8c-2.7-1.2-4.9-6-5.1-9.2C208.2,229.7,213.8,226.1,216.3,226.5z M208.1,250.3
		c1.3-1.6,5-2.7,6.8-2c9.2,3.8,18.3,7.9,27.1,12.6c1.6,0.9,1.6,4.8,2.7,8.3c2.8,0.4,6.8,0.8,10.7,1.3c-0.3,0.6-0.6,1.3-0.8,2
		c2.5,1.4,5,4,7.6,4.1c10.4,0.5,20.9,0.2,30.8,0.2c-2.8,6-5.8,12.9-9.3,19.4c-0.9,1.6-3.7,2.7-5.7,2.9c-2.9,0.2-5.8-0.7-9.3-1.2
		c-5.5-13.1-9.6-15.4-22.1-12.6c-10.7-12.7-17.1-12.8-27.2-0.1C201.8,280.6,196.4,264.1,208.1,250.3z M243.8,321.5
		c-5,1-8.5,1.7-13.3,2.6c-1.2-11.1-2.8-21.5-3.2-31.9c-0.1-2.8,3.4-5.7,5.3-8.5c2.1,2.5,5.3,4.6,6,7.4
		C240.8,300.8,242,310.7,243.8,321.5z M224.3,325.8c-3.6,1.1-6.3,2-10.9,3.5c-2.6-9.7-5.5-18.8-7.3-28.1c-0.4-2.2,2.7-5.1,4.2-7.8
		c2.3,1.9,5.7,3.4,6.6,5.8C219.7,307.6,221.7,316.3,224.3,325.8z M193.4,321c-0.2-3.4,2.4-7,3.8-10.6c1,0.2,2,0.4,3,0.6
		c2.5,6.6,5,13.3,7.6,20.1c-1.5,1-2.9,1.5-3.6,2.5c-1.1,1.5-1.8,3.3-2.6,5c1.9,0.2,4,1,5.7,0.5c8.8-2.7,17.3-6,26.2-8.5
		c5.4-1.5,11.2-1.8,16.7-2.9c1.6-0.3,3-1.7,4.5-2.5c-0.8-1.2-2.3-2.4-2.4-3.7c-0.7-9.3-1.2-18.5-1.4-27.8c0-0.4,3-1.7,4-1.3
		c1.8,0.9,4.3,2.8,4.3,4.2c-0.1,11.8-0.3,23.7-1.7,35.4c-0.4,2.8-6.6,4.5-8.8,7.6c-5.9,8.6-13.8,9.2-23,7.6
		c-2.6-0.5-5.6,1.1-8.3,1.8c0,0.7,0.1,1.4,0.2,2.1c8.4,1.6,16.9,3.2,24.4,4.6c6.1-5.3,13.2-9.8,18-16.1c3.6-4.7,4.3-11.7,6.2-17.7
		c1.3-4.3,2.3-8.7,4-12.8c0.5-1.2,3.3-2.3,4.6-1.9c1.3,0.4,2.9,2.6,3,4.1c0.6,10,1.3,20,1,29.9c-0.3,12.1-8,20.3-16.7,27.5
		c-1.4,1.2-4.7,1.4-6.4,0.6c-10.1-4.5-19.8-3.6-29.9,0.1c-2.9,1-7.8,0.6-9.9-1.3C201.7,355.5,194.3,339.5,193.4,321z M204.4,433.8
		c-7.3-15.6-1.6-36.6,13.7-50.6c14.3-13.1,32.6-12.5,45.1,2.2c12,14,20.3,30,21.2,47.3c-1.2,22.7-6.3,28.6-27.2,32.4
		C236.3,468.8,214.2,455,204.4,433.8z M284.6,488c-10.4-4-12.1-9.2-5.6-18.1c9.2-12.7,11.5-18.7,13.8-37.3c0.7-0.6,1.5-1.1,2.2-1.7
		c7,7.6,14.4,14.9,20.7,23c1.7,2.1,1.3,7.2-0.1,10c-3.6,7.1-7.9,14-12.7,20.3C298.2,490.3,291.7,490.8,284.6,488z M317.8,495.5
		c-3.6,1.5-8.1,0.8-12.5,1.2c8-13.2,14.8-24.4,22.1-36.4c7.1,0.6,10,4.3,7.8,12.1C332.3,482.3,328,491.4,317.8,495.5z M326.5,503.8
		c6.5-11.3,13.1-22.7,20.3-35.2c3.8,0.1,6.8,2.2,5.6,8.8C349.7,492.1,338.3,503.6,326.5,503.8z M343.1,530
		c-5.4-0.8-10.1-3.8-9.4-9.2c0.5-4.1,3.7-8.9,7.2-11.1c4.1-2.6,9.7-2.6,14.6-3.8c1.9-0.5,3.7-1,5.6-1.5c0-0.8,0-1.5,0-2.3
		c-2.4-1.5-4.8-2.9-7.4-4.5c2.2-6.3,4-12.4,6.6-18.3c0.6-1.4,4.9-2.9,5.5-2.3c2.9,2.8,7.4,6.5,7.1,9.5c-1.1,10.6-2.7,21.4-6.4,31.3
		C362.8,527.4,352.5,531.5,343.1,530z M369.6,530.4c1.8-3.4,3.3-6.4,5.5-10.6c2.7,4,4.6,6.8,7.2,10.6H369.6z M421.6,527.1
		c-20.1,7-41.7-8.5-41.2-29.5c0.1-4.3-0.7-9.2,1.1-12.7c1.9-3.7,6-7.1,9.9-8.8c4.6-2,7.3,1.6,8.3,6.2c0.2,0.8,0.6,1.5,0.9,2.2
		c1.7,3.6,5.1,7.6,4.5,10.7c-0.6,2.7-6,4.3-9.1,6.5c-0.7,0.5-1,1.7-2.9,4.8c5.4-0.6,8.7-1,12-1.4c8.6-1.2,16.2,0.5,21.3,8.1
		C430.5,519.2,428.5,524.8,421.6,527.1z M439.5,491.2c-8.6-3.2-16.9-15.4-16.7-24.9c0.1-6.1,2.2-11,10.4-12.8
		c-0.3,15,5.9,26.2,17.7,34.5C447.7,493.4,443.7,492.8,439.5,491.2z M474.2,478.6c-7.7,5.6-17.4,5-24.5-1.6
		c-8.1-7.5-13-24.9-3.2-36.1c6.2-7,11.9-14.4,17.9-21.6c0.7,0.3,1.4,0.6,2.1,1c0.6,19.5,3.2,38.4,16.6,53.2
		C479.9,475.3,476.8,476.6,474.2,478.6z M546.1,430.3c-11.2,15.6-25.6,26.3-44.8,29.6c-15.5,2.6-21.3-1.5-24.5-16.8
		c-1.4-6.6-1.9-13.3-2.8-19.3c1.1-21.9,11.6-37.1,29.8-46.7c12.5-6.6,26.2-3.3,35,7.6c4,5,7.6,10.6,10.2,16.4
		C553.4,411.1,552.8,421.1,546.1,430.3z"/>
	<path class="st0" d="M458.2,285c-1.3-1.1-4.4-1.6-5.9-0.9c-4.2,2.2-7.9,5.3-12,7.7c-1.8,1.1-3.9,1.6-5.9,2.3c0.3-2.2-0.2-5.1,1-6.3
		c3.8-4,8.1-7.3,13.7-12.2c-9.6-1.1-15.4,3-21,8.1c-2.1,1.8-5.1,2.6-7.7,3.8c1.2-2.9,1.6-6.5,3.6-8.5c4-3.9,8.9-7,15-11.6
		c-12.3-0.3-19.7,5.3-26.9,11.5c-1.6,1.4-4.5,1.3-6.8,1.9c0.8-2.2,1-5.3,2.6-6.6c6.1-4.8,12.6-9.1,19.6-14c-8.3-6.7-3.8-14,0.1-20.8
		c11.5-20,16.6-41.4,15.8-64.5c-0.3-9.5-4.3-15.5-12.6-18.7c-35.7-13.9-71.2-13.8-106.5,1.8c-8,3.5-11.7,9.6-11.5,18.6
		c1,40.4,16.7,73.2,50.9,95.3c14.4,9.3,31,15.1,46.7,22.5c12.2,5.8,24.8,10.8,36.4,17.6c14.1,8.3,21.8,21.4,23.5,37.9
		c1.6,15.6-8.6,27.2-24.6,27.9c-16.5,0.7-28.6-10.1-27.4-25.9c0.6-7.5,3.9-14.9,6.3-23.3c-0.3-0.5-1.5-2.3-3.2-5
		c8.4,0.8,15.8,1.5,24.5,2.3c-5.4-9.2-15.6-14.7-20.6-12.1c-11.9,6.3-21.3,15.1-24.4,28.8c-4.1,18-0.1,34.3,14.2,46.4
		c15.3,12.9,33.6,16.1,51.7,7.5c15.9-7.6,27.1-20.7,28.3-39.5C496.9,326,480.7,303.8,458.2,285z M373.4,156.3
		c0.1-1.6,2.8-3.1,4.3-4.7c1.4,1.6,3.9,3.1,4.2,4.9c0.6,4.2,0.2,8.6,0.2,12.9H382c0,4.6,0.3,9.2-0.2,13.7c-0.2,1.6-2.5,2.9-3.8,4.3
		c-1.6-1.5-4.4-2.9-4.5-4.4C373,174.1,373,165.2,373.4,156.3z M359.5,227c-4.2-1.1-8.5-2.7-12.9-3.2c-6.9-0.7-11.8-3.7-13.9-10.4
		c-1.9-6.1-0.1-10.8,5.3-14.7c1.5-1.1,2-5.9,0.9-7.9c-2.7-4.8-6.6-8.9-10.1-13.3C345,178.8,360.9,201.2,359.5,227z M377.7,202.4
		c-9.7,0.1-18-6.9-18.7-16.7c-0.6-8.6-0.4-17.3,0-26c0.1-1.7,2.5-3.3,3.9-5c1.2,1.8,3.4,3.5,3.5,5.4c0.4,7.3,0.1,14.6,0.2,21.9
		c0.2,8,4.1,12.4,10.8,12.4c6.7,0,10.8-4.4,11-12.3c0.2-7.3-0.2-14.6,0.3-21.9c0.1-1.9,2.7-3.7,4.2-5.5c1.1,1.9,3,3.6,3.2,5.6
		c0.5,4.3,0.1,8.6,0.1,13h-0.1c0,4.1,0.3,8.1-0.1,12.2C395.3,195.3,387.5,202.3,377.7,202.4z M426.8,176.9c-3.9,4.9-7.9,9.1-10.7,14
		c-1.1,1.9-0.5,6.6,1,7.8c5.1,4,7.3,8.6,5.2,14.8c-2.2,6.6-7.1,9.6-14,10.2c-4.1,0.4-8.1,2.1-12.6,3.3
		C394.3,202.8,406.6,182.3,426.8,176.9z"/>
	<path class="st0" d="M423.4,418.1c-17.9-14.8-27.4-35-32.3-57.1c-1.5-6.8,0.5-14.4,1.1-21.6c0.2-2.2,0.9-4.4,1.5-7
		c-14.9,9.5-29.1,18.2-42.9,27.5c-22.1,14.8-39.3,33.8-49.4,58.7c-1,2.3-2.2,6.3-1.2,7.3c7.1,7,13.8,15,22.3,19.7
		c27.3,15.2,56.3,13.7,84.6,3.2c7.6-2.8,13.7-10.8,19.3-17.4C430,426.9,428.4,422.3,423.4,418.1z M382.9,442.1
		c-6.1-4.8-10.8-4.5-13.2,3.2c-4.9-3.8-5.7-8.6-2.1-12.1c2.3-2.3,7.8-4,10.4-2.8c3,1.4,4.5,6.2,6.6,9.6
		C384.1,440.7,383.5,441.4,382.9,442.1z"/>
	<path class="st0" d="M284.4,432.6c-1.2,22.7-6.3,28.6-27.2,32.4c-20.8,3.8-42.9-10-52.8-31.2c-7.3-15.6-1.6-36.6,13.7-50.6
		c14.3-13.1,32.6-12.5,45.1,2.2C275.2,399.4,283.5,415.3,284.4,432.6z"/>
	<path class="st0" d="M474.1,423.8c1.1-21.9,11.6-37.1,29.8-46.7c12.5-6.6,26.2-3.3,35,7.6c4,5,7.6,10.6,10.2,16.4
		c4.4,10,3.7,19.9-2.9,29.2c-11.2,15.6-25.6,26.3-44.8,29.6c-15.5,2.6-21.3-1.5-24.5-16.8C475.5,436.5,474.9,429.7,474.1,423.8z"/>
	<path class="st0" d="M282,183.5c8.3,5.3,15,9.5,23,14.6c-8.2,6.1-15.7,11.8-23.3,17.4c0.2,0.4,0.4,0.8,0.5,1.2
		c7.3-1.3,14.7-2.6,22-3.9c0.6,0.6,1.2,1.1,1.7,1.7c-7.5,8.2-15,16.5-22.5,24.7c0.4,0.7,0.8,1.4,1.2,2.2c9.5-5,19-10,28.8-15.1
		c4.6,4.5,3.4,8.9-2.4,13.7c-16.3,13.7-34.9,21.1-57.3,22.3c0.8-3.3,1.3-5.8,1.9-8.2c7.5-26.5,11.7-53.4,8.6-80.9
		c-0.7-5.9-3-12-5.9-17.3c-5.6-10.1-2.6-18.2,9-18.9c6.7-0.4,13.8,1.3,20.3,3.5c7.5,2.5,10.9,8.4,8.9,16.8c-5.4,0-10.9,0-17.2,0
		c8.1,7.6,15.6,14.7,23.1,21.7c-0.3,0.9-0.6,1.8-0.9,2.7C296,182.2,290.2,182.8,282,183.5z"/>
	<path class="st0" d="M447.5,226.4c10.5,6.3,19.8,11.9,29.1,17.4c0.4-0.6,0.7-1.2,1.1-1.7c-7.9-9-15.9-18-23.8-27.1
		c0.4-0.5,0.7-1.1,1.1-1.6c6.4,2.7,12.7,5.4,19.1,8.1c0.2-0.4,0.4-0.8,0.6-1.2c-5.7-5.7-11.3-11.5-17.1-17c-3.9-3.7-3.8-6.5,0.6-9.8
		c5.6-4.1,11-8.6,15.9-14.4c-5,0.7-10,1.3-15.1,2c-0.4-0.5-0.8-1-1.3-1.5c7.2-8.6,14.3-17.2,21.5-25.8c-0.4-0.5-0.7-1-1.1-1.5
		c-4.9,2.1-9.9,4.2-15.2,6.5c-0.5-5.4-0.9-10-1.3-14.5c-0.1-0.8-0.1-2.1,0.3-2.3c7.3-3.2,14.3-7.2,21.9-8.9c6.4-1.5,11.5,3,13.6,9.1
		c1,3.1,1.3,7.5-0.1,10.1c-9.7,18.2-8,37.4-4.6,56.4c3.1,17.5,8.4,34.6,12.7,51.9c0.3,1.2,0.5,2.5,0.8,4.8
		c-23.9-0.9-43.6-9.8-59.4-26.6C445,236.9,447.2,230.8,447.5,226.4z"/>
	<path class="st0" d="M217.5,350.9c8.4,1.6,16.9,3.2,24.4,4.6c6.1-5.3,13.2-9.8,18-16.1c3.6-4.7,4.3-11.7,6.1-17.7
		c1.3-4.3,2.3-8.7,4-12.8c0.5-1.2,3.3-2.3,4.6-1.9c1.3,0.4,2.9,2.6,3,4.1c0.6,10,1.3,20,1,29.9c-0.3,12.1-8,20.3-16.7,27.5
		c-1.4,1.2-4.7,1.4-6.4,0.6c-10.1-4.5-19.8-3.6-29.9,0.1c-2.9,1-7.8,0.6-9.9-1.3c-13.9-12.4-21.3-28.3-22.3-46.9
		c-0.2-3.4,2.4-7,3.8-10.5c1,0.2,2,0.4,3,0.5c2.5,6.6,5,13.3,7.6,20.2c-1.5,1-2.9,1.5-3.6,2.4c-1.1,1.5-1.8,3.3-2.6,5
		c1.9,0.2,4,1,5.7,0.5c8.8-2.7,17.3-6,26.2-8.5c5.4-1.5,11.2-1.8,16.7-2.9c1.6-0.3,3-1.7,4.5-2.6c-0.8-1.2-2.3-2.4-2.4-3.7
		c-0.7-9.2-1.2-18.5-1.4-27.8c0-0.4,3-1.7,4-1.3c1.8,0.9,4.3,2.8,4.3,4.2c-0.1,11.8-0.2,23.7-1.7,35.4c-0.4,2.8-6.6,4.5-8.8,7.6
		c-5.9,8.6-13.8,9.2-23,7.6c-2.6-0.5-5.6,1.1-8.3,1.8C217.3,349.5,217.4,350.2,217.5,350.9z"/>
	<path class="st0" d="M381,303.5c-5.5,15.3-23.7,18.8-49.2,21.5c1.6-8.4,1-8.7-7.1-6.4c-2.9,0.8-6.1,0.1-10.1,0.1
		c0.9,2.5,1.7,4.6,2.5,6.7c-14.6,3.8-24.3-3.2-25-18.2c-0.8-15.6,12.1-32.6,30.6-38.6c-2.9,2.7-6.5,5-8.7,8.2
		c-2.5,3.8-5.7,8.6-5.1,12.4c0.4,2.9,6.4,4.9,9.8,7.4c13.4,10,26.4,3.2,39.7-0.3C367.1,294.1,374.9,296.9,381,303.5z"/>
	<path class="st0" d="M268.5,297.8c-5.5-13.1-9.6-15.4-22.1-12.6c-10.7-12.7-17.1-12.8-27.2-0.1c-17.4-4.6-22.7-21.1-11-34.8
		c1.3-1.6,5-2.7,6.8-2c9.2,3.8,18.3,7.9,27.1,12.6c1.6,0.9,1.6,4.7,2.7,8.3c2.8,0.4,6.8,0.8,10.7,1.3c-0.3,0.7-0.6,1.3-0.8,2
		c2.5,1.4,5,4,7.6,4.1c10.4,0.5,20.9,0.2,30.8,0.2c-2.8,6-5.8,12.9-9.3,19.4c-0.9,1.6-3.7,2.7-5.7,2.8
		C275,299.2,272,298.3,268.5,297.8z"/>
	<path class="st0" d="M284,400.8c-10.5-13.7-8.4-38.7,5.6-51.1c8.2-7.3,18.7-12.7,29.1-16.3c10-3.5,21.1-3.5,32.6-3.8
		C322.4,347.4,298.3,369.2,284,400.8z"/>
	<path class="st0" d="M515.3,352.9c0-2.6,0.1-5.2,0-7.9c-0.2-7-1.2-14-0.5-20.9c0.3-2.9,4.2-5.4,6.4-8.1c1.6,2.8,4.2,5.4,4.7,8.3
		c1,7.5,1,15.1,1.6,22.6c0.2,2.4,0.8,4.8,1.2,7.1c0.9,0,1.8,0.1,2.7,0.1c0.7-2.5,1.9-5,2-7.5c0.2-8.1-0.2-16.2,0.2-24.3
		c0.1-2.3,2.2-4.4,3.3-6.7c2.5,1.7,6.9,3.1,7.1,5.1c1,8.2,0.6,16.5,1,24.8c0.1,2.5,1,5,1.5,7.6c1.6-2.2,4.2-4.1,4.7-6.5
		c1-5.2,0.8-10.7,1.5-16.1c0.3-2.3,1.7-4.5,2.6-6.8c1.7,1.8,4.8,3.7,4.8,5.5c-0.1,7.9-0.6,15.9-2.1,23.6c-0.3,1.7-5.1,2.8-7.9,3.8
		c-3.2,1.1-6.5,2.5-9.7,2.5c-8,0-15.9-0.7-23.9-1.2c-0.5,0-1.2-0.4-1.6-0.2c-12.2,5.6-10.4-2.9-10.9-10.3
		c-0.5-6.7-2.4-13.2-3.3-19.9c-0.3-2.2,0.7-4.6,1.2-6.9c1.6,2.1,4.1,3.9,4.6,6.2c1.5,6.5,2,13.3,3.4,19.9c0.5,2.3,2.1,4.4,3.2,6.5
		C513.7,353.3,514.5,353.1,515.3,352.9z"/>
	<path class="st0" d="M466.5,420.2c0.6,19.5,3.1,38.4,16.6,53.2c-3.3,1.9-6.3,3.3-9,5.2c-7.7,5.6-17.4,5-24.5-1.6
		c-8.1-7.5-13-24.9-3.2-36.1c6.2-7,11.9-14.4,17.9-21.6C465.1,419.6,465.8,419.9,466.5,420.2z"/>
	<path class="st0" d="M393.1,506.4c5.4-0.6,8.7-1,12-1.4c8.6-1.2,16.2,0.5,21.3,8.1c4.1,6.1,2.1,11.7-4.8,14
		c-20.1,6.9-41.7-8.5-41.2-29.5c0.1-4.3-0.7-9.2,1.1-12.7c1.9-3.7,6-7.1,9.9-8.8c4.6-2,7.3,1.6,8.3,6.2c0.2,0.8,0.6,1.5,0.9,2.2
		c1.7,3.6,5.2,7.6,4.5,10.7c-0.6,2.7-6,4.3-9.1,6.5C395.2,502.2,394.9,503.3,393.1,506.4z"/>
	<path class="st0" d="M295,431c7,7.6,14.4,14.9,20.7,23c1.6,2.1,1.3,7.2-0.1,10c-3.6,7.1-7.9,14-12.7,20.3
		c-4.7,6.1-11.2,6.5-18.3,3.8c-10.4-4-12.1-9.2-5.6-18.1c9.2-12.7,11.5-18.7,13.8-37.3C293.5,432.1,294.3,431.6,295,431z"/>
	<path class="st0" d="M517.3,265.9c-3-11-6.4-22-8.6-33.2c-0.5-2.7,3.1-6.4,5.1-9.5c0.7-1,2.3-1.6,3.5-1.9
		c6.7-1.4,14.6-10.7,19.9-2.1c9.9,16.1,10.1,28,0.7,35.4c-5.4,4.3-11.4,8-17.1,11.9C519.7,266.4,518.5,266.2,517.3,265.9z"/>
	<path class="st0" d="M289.4,418.4c0.2-4-0.7-8.4,0.8-11.8c11.2-25.8,28.7-46.5,53-60.8c16.9-10,33.3-20.2,44.8-36.7
		c1.1-1.6,4.9-1.2,7.5-1.7c-0.2,2.3,0.3,5.1-0.7,7c-5.6,9.7-13.1,17.6-23,23.4c-11,6.4-21.8,13.2-32,20.6
		c-19.7,14.2-34.7,32.5-44.5,54.8c-0.8,1.9-1.9,3.7-2.9,5.5C291.3,418.6,290.3,418.5,289.4,418.4z"/>
	<path class="st0" d="M548.4,298.3c-3.8-2.1-7.8-4.3-13.5-7.5c1.3,6.6,2.2,10.9,3.3,16.2c-14.4,2.4-28.4,4.8-42.3,7.1
		c-5.5-8,0.4-21.4,12.4-28C523.2,277.8,541.7,283.5,548.4,298.3z"/>
	<path class="st0" d="M361.1,502c-2.4-1.5-4.8-2.9-7.4-4.5c2.2-6.3,4-12.4,6.6-18.3c0.6-1.4,4.9-2.9,5.5-2.3
		c2.9,2.8,7.4,6.5,7.1,9.5c-1.1,10.6-2.7,21.4-6.4,31.3c-3.6,9.6-13.8,13.7-23.3,12.2c-5.4-0.8-10.1-3.8-9.4-9.2
		c0.5-4,3.7-8.9,7.2-11.1c4.1-2.6,9.7-2.6,14.7-3.8c1.9-0.4,3.7-1,5.5-1.5C361.1,503.6,361.1,502.8,361.1,502z"/>
	<path class="st0" d="M248.3,245.8c-4.3,0.6-8.7,2.3-12.8,1.5c-7.6-1.4-15.3-3.6-22.3-6.8c-2.7-1.2-4.9-6-5-9.2
		c-0.1-1.6,5.5-5.2,8-4.7c12.1,2,23.2,6.7,31.7,15.9C248.1,243.6,248.2,244.7,248.3,245.8z"/>
	<path class="st0" d="M327.3,460.2c7.1,0.7,10,4.3,7.8,12.1c-2.8,9.9-7.1,19-17.3,23.1c-3.6,1.5-8.1,0.8-12.5,1.2
		C313.2,483.5,320.1,472.2,327.3,460.2z"/>
	<path class="st0" d="M243.8,321.5c-5,1-8.5,1.7-13.3,2.6c-1.2-11.2-2.8-21.5-3.3-31.9c-0.1-2.7,3.4-5.6,5.3-8.5
		c2.1,2.4,5.3,4.6,6,7.4C240.8,300.8,242,310.7,243.8,321.5z"/>
	<path class="st0" d="M433.1,453.5c-0.3,15,5.9,26.2,17.7,34.5c-3.1,5.4-7.1,4.8-11.3,3.2c-8.6-3.3-16.9-15.4-16.7-24.9
		C422.9,460.2,425,455.3,433.1,453.5z"/>
	<path class="st0" d="M442.7,369.1c-1.9-0.5-4.6-0.9-7-2.1c-4.8-2.4-9.8-6.3-7.1-11.7c1.5-2.9,7.9-3.5,12.1-4.8
		c1.4-0.4,3.3,1,4.7,0.5c8.4-2.7,10.9,2.6,11.7,9c0.8,7.4-5.8,7.1-10.4,8.6C445.7,369,444.6,368.9,442.7,369.1z"/>
	<path class="st0" d="M540,207.7c-8.4,2.5-16.5,5.1-24.8,7.2c-2.7,0.7-6.1,0.6-8.6-0.6c-4-1.8-5.3-5.6-0.8-7.9
		c7.7-3.8,15.7-7.3,23.9-9.4C536.4,195.2,539.7,199.7,540,207.7z"/>
	<path class="st0" d="M251.6,177.7c4.6,5.5,5.9,10.5,2.3,16.2c-1.1,1.8-1.6,4-1.9,6.1c-0.8,4.6-1.7,8.9-7.9,7.5
		c-5.8-1.3-10.7-2.9-8.5-11.1C238,187.6,243.5,182.2,251.6,177.7z"/>
	<path class="st0" d="M389.5,104.2c-8.7,0-15.1,0-22.5,0c1.9-10.3,2.8-20.2,9.9-27.9c1.1-0.2,2.1-0.3,3.2-0.5
		C383,84.8,386,93.8,389.5,104.2z"/>
	<path class="st0" d="M350.2,274.4c-9.4,11-20.3,15-34.3,14.2c9.2-7.1,17.5-13.4,25.8-19.8c-1.3-1.8-2.6-3.6-3.9-5.4
		C341.7,266.8,345.6,270.3,350.2,274.4z"/>
	<path class="st0" d="M224.3,325.8c-3.6,1.1-6.3,2-10.9,3.5c-2.6-9.7-5.5-18.8-7.3-28.1c-0.4-2.2,2.7-5.1,4.2-7.8
		c2.3,1.9,5.8,3.4,6.6,5.8C219.7,307.6,221.7,316.3,224.3,325.8z"/>
	<path class="st0" d="M326.5,503.8c6.5-11.3,13.1-22.7,20.3-35.3c3.8,0.1,6.8,2.2,5.6,8.8C349.7,492.1,338.3,503.6,326.5,503.8z"/>
	<path class="st0" d="M384.8,125.3c0.1,9.2-2.8,12.3-10.3,11c-2.2-0.4-4.9-3.4-5.7-5.8c-1-2.9-0.3-6.4,0-9.6
		c0.5-4.7,1.1-8.7,7.8-8.8c6.7-0.1,7.3,4,7.9,8.6C384.7,122.6,384.8,124.4,384.8,125.3z"/>
	<path class="st0" d="M254.5,223.8c-5,1.2-8.5,3-11.5,2.6c-6.6-1-13.1-2.9-19.4-5.1c-1.5-0.5-3.4-4.5-2.8-5.4
		c1.5-2.4,4.4-5.7,6.6-5.6C237.2,210.9,246,214.3,254.5,223.8z"/>
	<path class="st0" d="M415.9,107.9c-6.1-0.8-10.6-1.1-15-2.2c-1.9-0.5-4.3-2.4-4.8-4.1c-2.1-7.1-3.5-14.4-5.5-23.2
		C403.3,85.1,410.4,94.8,415.9,107.9z"/>
	<path class="st0" d="M427.5,496.2c-6.8,1.6-17.3-6.7-21-17.9c-2.4-7.3-0.6-11.3,5.6-14.1C417.2,474.8,422.3,485.4,427.5,496.2z"/>
	<path class="st0" d="M339.6,107.3c5.8-13.2,12.7-22.5,25.1-28.9c-2,8.6-3.5,16-5.6,23.1c-0.4,1.6-2.6,3.3-4.3,3.7
		C350.5,106.2,345.9,106.5,339.6,107.3z"/>
	<path class="st0" d="M529.7,189.1c-7.1,2.6-13.7,5.7-20.6,7.3c-2.5,0.6-5.8-2.3-8.7-3.5c1.3-2,2.2-4.8,4.1-5.9
		c4.4-2.4,9.1-4.5,14-5.8C524.9,179.3,528.3,182.7,529.7,189.1z"/>
	<path class="st0" d="M391.2,111.7c4.2,1.7,10.3,2.5,11,4.9c1.8,5.9,1.3,12.6,1,18.9c0,0.7-5.3,1.9-7.9,1.5c-1.5-0.2-3.8-3-3.9-4.7
		C390.9,126.2,391.2,120.1,391.2,111.7z"/>
	<path class="st0" d="M362.8,113.6c-0.3,5.9-1,11.3-0.7,16.7c0.4,6-3.3,6.5-7.5,7c-5.3,0.6-5.5-3-5.5-6.7c0-2.2-0.1-4.3,0.1-6.5
		C350,113.9,351.9,112.4,362.8,113.6z"/>
	<path class="st0" d="M397.4,65.7c-3.5,0.6-7,1.5-10.5,1.7c-9.1,0.7-18.3,1.3-27.4,1.6c-2,0.1-4-1.4-6-2.2c1.4-1.4,2.6-3.6,4.3-4.1
		c13.2-4.1,26.4-4.2,39.5,0.1C397.3,63.8,397.4,64.7,397.4,65.7z"/>
	<path class="st0" d="M342.8,115.5c0,7,0,13.4,0,19.8c0.1,6.7-4.6,6.8-9.2,7.1C328.5,128.2,332.5,116.8,342.8,115.5z"/>
	<path class="st0" d="M410.9,116.4c9.4,0.1,13.2,8.9,9.6,23.5c-6.2,0.7-10.5-0.3-9.7-8.3C411.3,126.5,410.9,121.4,410.9,116.4z"/>
	<path class="st0" d="M375.3,43.9c-3.8-3.7-6.1-6-8.5-8.2c3.3-3.4,6.7-6.8,10-10.2c3.2,3.2,6.4,6.4,9.7,9.6
		C383.2,37.6,379.9,40.2,375.3,43.9z"/>
	<path class="st0" d="M325.9,120.5c0,7.8,0.4,15.6-0.3,23.4c-0.2,2.2-3.4,4.1-5.3,6.1c-1.4-1.9-4-3.8-4-5.6c0.2-6.4,1-12.8,2.2-19.1
		c0.5-2.8,2.5-5.2,3.8-7.9C323.6,118.4,324.8,119.4,325.9,120.5z"/>
	<path class="st0" d="M340.8,87.7c-7.8,7.3-4.6,23.2-19.8,24.7C317.9,103.7,325.7,93.4,340.8,87.7z"/>
	<path class="st0" d="M500.4,179.4c1.7-8.9,3.3-16.7,5.1-26.4C518.5,169.7,517.5,175.3,500.4,179.4z"/>
	<path class="st0" d="M434,113.6c-14.9-3.7-11.7-19.6-20.7-26.4C423.9,89.5,433.3,101.3,434,113.6z"/>
	<path class="st0" d="M428.2,120.9c8,2.3,10.9,11,8.1,25.7c-6,0.4-8.7-1.9-8.2-8.4C428.6,132.5,428.2,126.6,428.2,120.9z"/>
	<path class="st0" d="M491,278.9c-18,5.7-23.7,4.2-35.4-9.3C467.3,272.7,478.7,275.7,491,278.9z"/>
	<path class="st0" d="M361.9,52.8c7.2-6.8,20.6-7.2,31.3,0C381.7,52.8,372,52.8,361.9,52.8z"/>
	<path class="st0" d="M309.4,153.1c-3.8-8.2-5.8-15.1,0-24.4C309.4,137.7,309.4,144.7,309.4,153.1z"/>
	<path class="st0" d="M375,519.8c2.7,4,4.6,6.8,7.2,10.6c-4.4,0-7.9,0-12.7,0C371.3,527,372.8,524,375,519.8z"/>
	<path d="M396.3,173.3c0,4.1,0.3,8.1-0.1,12.2c-0.9,9.8-8.7,16.8-18.5,16.9c-9.7,0.1-18-6.9-18.7-16.7c-0.6-8.6-0.4-17.3,0-25.9
		c0.1-1.7,2.5-3.3,3.9-5c1.2,1.8,3.4,3.5,3.5,5.4c0.4,7.3,0.1,14.6,0.2,21.9c0.2,8,4.1,12.4,10.8,12.4c6.7,0,10.8-4.4,11-12.3
		c0.2-7.3-0.2-14.6,0.3-21.9c0.1-1.9,2.7-3.7,4.2-5.5c1.1,1.8,3,3.6,3.2,5.6c0.5,4.3,0.2,8.6,0.2,13
		C396.4,173.3,396.3,173.3,396.3,173.3z"/>
	<path d="M395.7,227c-1.4-24.2,10.9-44.7,31.1-50.1c-3.9,4.9-7.9,9.1-10.7,14c-1.1,1.9-0.5,6.6,1,7.8c5.1,4,7.3,8.6,5.2,14.8
		c-2.2,6.6-7.1,9.6-14,10.3C404.2,224.1,400.2,225.8,395.7,227z"/>
	<path d="M328.9,177.5c16.1,1.3,32.1,23.7,30.7,49.4c-4.2-1.1-8.5-2.7-12.9-3.2c-6.9-0.7-11.8-3.7-13.9-10.4
		c-1.9-6.1-0.1-10.8,5.3-14.7c1.5-1.1,2-6,0.9-7.9C336.3,186,332.3,181.9,328.9,177.5z"/>
	<path d="M382,169.4c0,4.6,0.3,9.2-0.2,13.7c-0.2,1.6-2.5,2.9-3.9,4.3c-1.6-1.5-4.4-2.9-4.5-4.5c-0.4-8.9-0.5-17.7,0-26.6
		c0.1-1.6,2.8-3.1,4.3-4.7c1.5,1.6,3.9,3.1,4.2,4.9C382.5,160.7,382.1,165.1,382,169.4C382,169.4,382,169.4,382,169.4z"/>
	<path d="M382.9,442.1c-6.1-4.8-10.8-4.5-13.2,3.2c-4.9-3.8-5.7-8.6-2.1-12.2c2.3-2.3,7.8-4,10.4-2.8c3,1.4,4.5,6.2,6.7,9.6
		C384.1,440.7,383.5,441.4,382.9,442.1z"/>
</g>
<g>
	<path class="st1" d="M30.2,612.6l17.2-1.1c0.4,2.8,1.1,4.9,2.3,6.4c1.9,2.4,4.5,3.5,8,3.5c2.6,0,4.6-0.6,6-1.8
		c1.4-1.2,2.1-2.6,2.1-4.2c0-1.5-0.7-2.9-2-4.1c-1.3-1.2-4.4-2.3-9.2-3.4c-7.9-1.8-13.6-4.1-16.9-7.1c-3.4-2.9-5.1-6.7-5.1-11.3
		c0-3,0.9-5.8,2.6-8.5c1.7-2.7,4.4-4.8,7.8-6.3c3.5-1.5,8.3-2.3,14.4-2.3c7.5,0,13.1,1.4,17.1,4.2c3.9,2.8,6.2,7.2,7,13.2l-17,1
		c-0.5-2.6-1.4-4.5-2.8-5.7c-1.4-1.2-3.4-1.8-6-1.8c-2.1,0-3.7,0.4-4.7,1.3c-1.1,0.9-1.6,2-1.6,3.2c0,0.9,0.4,1.8,1.3,2.5
		c0.8,0.8,2.9,1.5,6.1,2.2c7.9,1.7,13.5,3.4,16.9,5.2c3.4,1.7,5.9,3.9,7.4,6.5c1.6,2.6,2.3,5.5,2.3,8.6c0,3.7-1,7.2-3.1,10.4
		c-2.1,3.2-5,5.6-8.7,7.2c-3.7,1.6-8.4,2.4-14.1,2.4c-9.9,0-16.8-1.9-20.6-5.7C32.8,623.4,30.7,618.5,30.2,612.6z"/>
	<path class="st1" d="M92.5,573.5h18V594h19.7v-20.4h18.1v58.4h-18.1v-23.6h-19.7v23.6h-18V573.5z"/>
	<path class="st1" d="M160.9,631.9v-58.4h30.1c5.6,0,9.8,0.5,12.8,1.4c2.9,1,5.3,2.7,7.1,5.3c1.8,2.6,2.7,5.7,2.7,9.5
		c0,3.2-0.7,6-2.1,8.4c-1.4,2.3-3.3,4.3-5.7,5.7c-1.5,0.9-3.7,1.7-6.3,2.3c2.1,0.7,3.7,1.4,4.7,2.2c0.7,0.5,1.6,1.5,2.9,3.1
		c1.3,1.6,2.1,2.8,2.5,3.6l8.7,16.9h-20.4l-9.6-17.8c-1.2-2.3-2.3-3.8-3.3-4.5c-1.3-0.9-2.8-1.4-4.4-1.4H179v23.7H160.9z M179,597.2
		h7.6c0.8,0,2.4-0.3,4.8-0.8c1.2-0.2,2.2-0.8,2.9-1.8c0.8-1,1.1-2.1,1.1-3.4c0-1.9-0.6-3.3-1.8-4.3c-1.2-1-3.4-1.5-6.7-1.5H179
		V597.2z"/>
	<path class="st1" d="M224.3,573.5h48.3V586h-30.3v9.3h28.1v11.9h-28.1v11.5h31.1v13.2h-49.2V573.5z"/>
	<path class="st1" d="M283.4,573.5h48.3V586h-30.3v9.3h28.1v11.9h-28.1v11.5h31.1v13.2h-49.2V573.5z"/>
	<path class="st1" d="M399.4,610.8v-12.1h27.9v24.9c-5.3,3.6-10.1,6.1-14.2,7.4c-4.1,1.3-9,2-14.6,2c-6.9,0-12.6-1.2-16.9-3.5
		c-4.4-2.4-7.8-5.9-10.2-10.6c-2.4-4.7-3.6-10-3.6-16.1c0-6.4,1.3-11.9,3.9-16.6c2.6-4.7,6.5-8.3,11.5-10.7c4-1.9,9.3-2.8,16-2.8
		c6.5,0,11.3,0.6,14.5,1.8c3.2,1.2,5.9,3,8,5.4c2.1,2.5,3.7,5.6,4.8,9.3l-17.4,3.1c-0.7-2.2-1.9-3.9-3.6-5.1
		c-1.7-1.2-3.9-1.8-6.6-1.8c-4,0-7.1,1.4-9.5,4.1c-2.3,2.7-3.5,7.1-3.5,13c0,6.3,1.2,10.8,3.6,13.5c2.4,2.7,5.7,4.1,9.9,4.1
		c2,0,3.9-0.3,5.8-0.9c1.8-0.6,3.9-1.6,6.3-3v-5.5H399.4z"/>
	<path class="st1" d="M474.2,622.3h-20.5l-2.8,9.6h-18.4l21.9-58.4H474l21.9,58.4h-18.9L474.2,622.3z M470.4,609.7l-6.4-21l-6.4,21
		H470.4z"/>
	<path class="st1" d="M502.1,573.5h16.8l22,32.3v-32.3h17v58.4h-17L519,599.9v32.1h-17V573.5z"/>
	<path class="st1" d="M570.1,573.5h48.3V586h-30.3v9.3h28.1v11.9h-28.1v11.5h31.1v13.2h-49.2V573.5z"/>
	<path class="st1" d="M626.1,612.6l17.2-1.1c0.4,2.8,1.1,4.9,2.3,6.4c1.9,2.4,4.5,3.5,8,3.5c2.6,0,4.6-0.6,6-1.8
		c1.4-1.2,2.1-2.6,2.1-4.2c0-1.5-0.7-2.9-2-4.1c-1.3-1.2-4.4-2.3-9.2-3.4c-7.9-1.8-13.6-4.1-16.9-7.1c-3.4-2.9-5.1-6.7-5.1-11.3
		c0-3,0.9-5.8,2.6-8.5c1.7-2.7,4.4-4.8,7.8-6.3c3.5-1.5,8.3-2.3,14.4-2.3c7.5,0,13.1,1.4,17.1,4.2c3.9,2.8,6.2,7.2,7,13.2l-17,1
		c-0.5-2.6-1.4-4.5-2.8-5.7c-1.4-1.2-3.4-1.8-6-1.8c-2.1,0-3.7,0.4-4.7,1.3c-1.1,0.9-1.6,2-1.6,3.2c0,0.9,0.4,1.8,1.3,2.5
		c0.8,0.8,2.9,1.5,6.1,2.2c7.9,1.7,13.5,3.4,16.9,5.2c3.4,1.7,5.9,3.9,7.4,6.5c1.6,2.6,2.3,5.5,2.3,8.6c0,3.7-1,7.2-3.1,10.4
		c-2.1,3.2-5,5.6-8.7,7.2c-3.7,1.6-8.4,2.4-14.1,2.4c-9.9,0-16.8-1.9-20.6-5.7C628.8,623.4,626.6,618.5,626.1,612.6z"/>
	<path class="st1" d="M688.5,573.5h18V594h19.7v-20.4h18.1v58.4h-18.1v-23.6h-19.7v23.6h-18V573.5z"/>
</g>
<g>
	<path class="st1" d="M49.5,663.5l5.9,1.8c-0.4,1.7-1,3.1-1.9,4.2c-0.9,1.1-1.9,2-3.2,2.5c-1.3,0.6-2.9,0.9-4.8,0.9
		c-2.4,0-4.3-0.3-5.8-1c-1.5-0.7-2.8-1.9-3.9-3.6c-1.1-1.7-1.6-4-1.6-6.7c0-3.6,1-6.4,2.9-8.4c1.9-1.9,4.7-2.9,8.2-2.9
		c2.8,0,4.9,0.6,6.5,1.7c1.6,1.1,2.8,2.8,3.5,5.1l-6,1.3c-0.2-0.7-0.4-1.2-0.7-1.5c-0.4-0.5-0.8-0.9-1.4-1.2
		c-0.5-0.3-1.2-0.4-1.8-0.4c-1.5,0-2.7,0.6-3.5,1.8c-0.6,0.9-0.9,2.4-0.9,4.3c0,2.4,0.4,4.1,1.1,5s1.8,1.3,3.1,1.3
		c1.3,0,2.3-0.4,2.9-1.1C48.7,666,49.2,664.9,49.5,663.5z"/>
	<path class="st1" d="M58.8,664.6c0-2.4,0.8-4.4,2.4-6c1.6-1.6,3.8-2.4,6.6-2.4c3.2,0,5.6,0.9,7.2,2.8c1.3,1.5,2,3.3,2,5.5
		c0,2.4-0.8,4.4-2.4,6c-1.6,1.6-3.9,2.3-6.7,2.3c-2.5,0-4.6-0.6-6.2-1.9C59.7,669.3,58.8,667.2,58.8,664.6z M64.9,664.6
		c0,1.4,0.3,2.5,0.9,3.1s1.3,1,2.2,1c0.9,0,1.6-0.3,2.2-1c0.6-0.7,0.8-1.7,0.8-3.2c0-1.4-0.3-2.4-0.9-3.1c-0.6-0.7-1.3-1-2.1-1
		c-0.9,0-1.6,0.3-2.2,1C65.1,662.2,64.9,663.2,64.9,664.6z"/>
	<path class="st1" d="M79.9,662.2h8.8v4.7h-8.8V662.2z"/>
	<path class="st1" d="M91.7,664.6c0-2.4,0.8-4.4,2.4-6s3.8-2.4,6.6-2.4c3.2,0,5.6,0.9,7.2,2.8c1.3,1.5,2,3.3,2,5.5
		c0,2.4-0.8,4.4-2.4,6s-3.9,2.3-6.7,2.3c-2.5,0-4.6-0.6-6.2-1.9C92.7,669.3,91.7,667.2,91.7,664.6z M97.8,664.6
		c0,1.4,0.3,2.5,0.9,3.1c0.6,0.7,1.3,1,2.2,1c0.9,0,1.6-0.3,2.2-1c0.6-0.7,0.8-1.7,0.8-3.2c0-1.4-0.3-2.4-0.9-3.1
		c-0.6-0.7-1.3-1-2.1-1c-0.9,0-1.6,0.3-2.2,1C98.1,662.2,97.8,663.2,97.8,664.6z"/>
	<path class="st1" d="M114.1,678.5v-21.9h5.7v2.3c0.8-1,1.5-1.7,2.2-2c0.9-0.5,1.9-0.7,2.9-0.7c2.1,0,3.8,0.8,4.9,2.4
		c1.2,1.6,1.7,3.6,1.7,6c0,2.6-0.6,4.7-1.9,6c-1.3,1.4-2.9,2.1-4.8,2.1c-0.9,0-1.8-0.2-2.6-0.5c-0.8-0.3-1.5-0.8-2.1-1.4v7.6H114.1z
		 M120.2,664.6c0,1.3,0.3,2.2,0.8,2.8s1.2,0.9,2,0.9c0.7,0,1.3-0.3,1.8-0.9c0.5-0.6,0.7-1.6,0.7-3c0-1.3-0.2-2.2-0.7-2.8
		c-0.5-0.6-1.1-0.9-1.8-0.9c-0.8,0-1.4,0.3-1.9,0.9C120.5,662.3,120.2,663.3,120.2,664.6z"/>
	<path class="st1" d="M153.3,666.1h-12.2c0.1,1,0.4,1.7,0.8,2.2c0.6,0.7,1.4,1,2.3,1c0.6,0,1.2-0.1,1.7-0.4c0.3-0.2,0.7-0.5,1.1-1
		l6,0.6c-0.9,1.6-2,2.7-3.3,3.4c-1.3,0.7-3.2,1-5.6,1c-2.1,0-3.8-0.3-5-0.9c-1.2-0.6-2.2-1.5-3-2.8c-0.8-1.3-1.2-2.8-1.2-4.5
		c0-2.5,0.8-4.5,2.4-6c1.6-1.5,3.8-2.3,6.6-2.3c2.3,0,4.1,0.3,5.4,1c1.3,0.7,2.3,1.7,3,3c0.7,1.3,1,3,1,5.1V666.1z M147.1,663.2
		c-0.1-1.2-0.4-2-0.9-2.5c-0.5-0.5-1.2-0.8-2-0.8c-1,0-1.7,0.4-2.3,1.2c-0.4,0.5-0.6,1.2-0.7,2.1H147.1z"/>
	<path class="st1" d="M157.3,656.6h5.7v2.6c0.5-1.1,1.1-1.9,1.7-2.3c0.6-0.4,1.3-0.6,2.2-0.6c0.9,0,1.9,0.3,2.9,0.8l-1.9,4.3
		c-0.7-0.3-1.3-0.4-1.7-0.4c-0.8,0-1.4,0.3-1.9,1c-0.6,0.9-0.9,2.7-0.9,5.2v5.3h-6.1V656.6z"/>
	<path class="st1" d="M178.1,661.8l-5.8-0.6c0.2-1,0.5-1.8,0.9-2.4c0.4-0.6,1-1.1,1.8-1.5c0.6-0.3,1.3-0.5,2.3-0.7
		c1-0.2,2-0.3,3.2-0.3c1.8,0,3.3,0.1,4.4,0.3c1.1,0.2,2,0.6,2.8,1.3c0.5,0.4,0.9,1.1,1.2,1.9c0.3,0.8,0.4,1.6,0.4,2.4v7
		c0,0.7,0,1.3,0.1,1.8c0.1,0.4,0.3,1,0.6,1.6h-5.7c-0.2-0.4-0.4-0.7-0.4-0.9s-0.1-0.5-0.2-1c-0.8,0.8-1.6,1.3-2.4,1.6
		c-1.1,0.4-2.3,0.7-3.7,0.7c-1.9,0-3.3-0.4-4.3-1.3c-1-0.9-1.5-2-1.5-3.2c0-1.2,0.4-2.2,1.1-3c0.7-0.8,2-1.4,3.9-1.7
		c2.3-0.5,3.8-0.8,4.4-1c0.7-0.2,1.4-0.4,2.2-0.7c0-0.7-0.2-1.3-0.5-1.6c-0.3-0.3-0.9-0.4-1.6-0.4c-1,0-1.7,0.2-2.2,0.5
		C178.7,660.6,178.3,661.1,178.1,661.8z M183.4,665c-0.8,0.3-1.7,0.6-2.6,0.8c-1.2,0.3-2,0.7-2.3,1c-0.3,0.3-0.5,0.7-0.5,1.1
		c0,0.5,0.2,0.9,0.5,1.2c0.3,0.3,0.8,0.5,1.5,0.5c0.7,0,1.3-0.2,1.9-0.5c0.6-0.3,1-0.7,1.2-1.2c0.2-0.5,0.4-1.1,0.4-1.8V665z"/>
	<path class="st1" d="M201,650.6v6h3.3v4.5H201v5.6c0,0.7,0.1,1.1,0.2,1.3c0.2,0.3,0.5,0.5,1,0.5c0.4,0,1.1-0.1,1.9-0.4l0.4,4.2
		c-1.5,0.3-2.9,0.5-4.2,0.5c-1.5,0-2.6-0.2-3.3-0.6s-1.2-1-1.6-1.8c-0.3-0.8-0.5-2.1-0.5-3.8v-5.6h-2.2v-4.5h2.2v-2.9L201,650.6z"/>
	<path class="st1" d="M208.6,650.6h6.1v4.1h-6.1V650.6z M208.6,656.6h6.1v15.9h-6.1V656.6z"/>
	<path class="st1" d="M218,656.6h6.3l3.1,10.1l3.2-10.1h6.1l-6.7,15.9h-5.4L218,656.6z"/>
	<path class="st1" d="M256.5,666.1h-12.2c0.1,1,0.4,1.7,0.8,2.2c0.6,0.7,1.4,1,2.3,1c0.6,0,1.2-0.1,1.7-0.4c0.3-0.2,0.7-0.5,1.1-1
		l6,0.6c-0.9,1.6-2,2.7-3.3,3.4c-1.3,0.7-3.2,1-5.6,1c-2.1,0-3.8-0.3-5-0.9c-1.2-0.6-2.2-1.5-3-2.8c-0.8-1.3-1.2-2.8-1.2-4.5
		c0-2.5,0.8-4.5,2.4-6c1.6-1.5,3.8-2.3,6.6-2.3c2.3,0,4.1,0.3,5.4,1c1.3,0.7,2.3,1.7,3,3c0.7,1.3,1,3,1,5.1V666.1z M250.3,663.2
		c-0.1-1.2-0.4-2-0.9-2.5c-0.5-0.5-1.2-0.8-2-0.8c-1,0-1.7,0.4-2.3,1.2c-0.4,0.5-0.6,1.2-0.7,2.1H250.3z"/>
	<path class="st1" d="M283.3,664.6V660h10.5v9.3c-2,1.4-3.8,2.3-5.3,2.8c-1.5,0.5-3.4,0.7-5.5,0.7c-2.6,0-4.7-0.4-6.4-1.3
		c-1.6-0.9-2.9-2.2-3.8-4c-0.9-1.8-1.4-3.8-1.4-6c0-2.4,0.5-4.5,1.5-6.2c1-1.8,2.4-3.1,4.3-4c1.5-0.7,3.5-1.1,6-1.1
		c2.4,0,4.2,0.2,5.4,0.7c1.2,0.4,2.2,1.1,3,2c0.8,0.9,1.4,2.1,1.8,3.5l-6.5,1.2c-0.3-0.8-0.7-1.5-1.4-1.9c-0.6-0.4-1.5-0.7-2.5-0.7
		c-1.5,0-2.7,0.5-3.5,1.5c-0.9,1-1.3,2.7-1.3,4.9c0,2.4,0.4,4.1,1.3,5.1c0.9,1,2.1,1.5,3.7,1.5c0.8,0,1.5-0.1,2.2-0.3
		c0.7-0.2,1.5-0.6,2.4-1.1v-2.1H283.3z"/>
	<path class="st1" d="M298.6,656.6h5.7v2.6c0.5-1.1,1.1-1.9,1.7-2.3c0.6-0.4,1.3-0.6,2.2-0.6c0.9,0,1.9,0.3,2.9,0.8l-1.9,4.3
		c-0.7-0.3-1.3-0.4-1.7-0.4c-0.8,0-1.4,0.3-1.9,1c-0.6,0.9-0.9,2.7-0.9,5.2v5.3h-6.1V656.6z"/>
	<path class="st1" d="M313,664.6c0-2.4,0.8-4.4,2.4-6c1.6-1.6,3.8-2.4,6.6-2.4c3.2,0,5.6,0.9,7.2,2.8c1.3,1.5,2,3.3,2,5.5
		c0,2.4-0.8,4.4-2.4,6c-1.6,1.6-3.9,2.3-6.7,2.3c-2.5,0-4.6-0.6-6.2-1.9C314,669.3,313,667.2,313,664.6z M319.1,664.6
		c0,1.4,0.3,2.5,0.9,3.1s1.3,1,2.2,1c0.9,0,1.6-0.3,2.2-1c0.6-0.7,0.8-1.7,0.8-3.2c0-1.4-0.3-2.4-0.9-3.1c-0.6-0.7-1.3-1-2.1-1
		c-0.9,0-1.6,0.3-2.2,1C319.4,662.2,319.1,663.2,319.1,664.6z"/>
	<path class="st1" d="M352.1,672.5h-5.7v-2.6c-0.8,1.1-1.7,1.8-2.6,2.3c-0.9,0.4-1.9,0.7-3.2,0.7c-1.7,0-3-0.5-3.9-1.5
		c-1-1-1.4-2.5-1.4-4.6v-10.1h6.1v8.7c0,1,0.2,1.7,0.6,2.1c0.4,0.4,0.9,0.6,1.6,0.6c0.7,0,1.3-0.3,1.8-0.8c0.5-0.6,0.7-1.6,0.7-3
		v-7.6h6.1V672.5z"/>
	<path class="st1" d="M357,678.5v-21.9h5.7v2.3c0.8-1,1.5-1.7,2.2-2c0.9-0.5,1.9-0.7,2.9-0.7c2.1,0,3.8,0.8,4.9,2.4
		c1.2,1.6,1.7,3.6,1.7,6c0,2.6-0.6,4.7-1.9,6c-1.3,1.4-2.9,2.1-4.8,2.1c-0.9,0-1.8-0.2-2.6-0.5c-0.8-0.3-1.5-0.8-2.1-1.4v7.6H357z
		 M363.1,664.6c0,1.3,0.3,2.2,0.8,2.8c0.5,0.6,1.2,0.9,2,0.9c0.7,0,1.3-0.3,1.8-0.9c0.5-0.6,0.7-1.6,0.7-3c0-1.3-0.2-2.2-0.7-2.8
		c-0.5-0.6-1.1-0.9-1.8-0.9c-0.8,0-1.4,0.3-1.9,0.9C363.4,662.3,363.1,663.3,363.1,664.6z"/>
	<path class="st1" d="M390.4,650.6h6.8v7.7h7.4v-7.7h6.8v21.9h-6.8v-8.9h-7.4v8.9h-6.8V650.6z"/>
	<path class="st1" d="M415.9,664.6c0-2.4,0.8-4.4,2.4-6c1.6-1.6,3.8-2.4,6.6-2.4c3.2,0,5.6,0.9,7.2,2.8c1.3,1.5,2,3.3,2,5.5
		c0,2.4-0.8,4.4-2.4,6c-1.6,1.6-3.9,2.3-6.7,2.3c-2.5,0-4.6-0.6-6.2-1.9C416.9,669.3,415.9,667.2,415.9,664.6z M422,664.6
		c0,1.4,0.3,2.5,0.9,3.1s1.3,1,2.2,1c0.9,0,1.6-0.3,2.2-1c0.6-0.7,0.8-1.7,0.8-3.2c0-1.4-0.3-2.4-0.9-3.1c-0.6-0.7-1.3-1-2.1-1
		c-0.9,0-1.6,0.3-2.2,1C422.3,662.2,422,663.2,422,664.6z"/>
	<path class="st1" d="M454.9,672.5h-5.7v-2.6c-0.8,1.1-1.7,1.8-2.6,2.3s-1.9,0.7-3.2,0.7c-1.7,0-3-0.5-3.9-1.5c-1-1-1.4-2.5-1.4-4.6
		v-10.1h6.1v8.7c0,1,0.2,1.7,0.6,2.1c0.4,0.4,0.9,0.6,1.6,0.6c0.7,0,1.3-0.3,1.8-0.8c0.5-0.6,0.7-1.6,0.7-3v-7.6h6.1V672.5z"/>
	<path class="st1" d="M458.7,668.1l6-0.6c0.2,0.7,0.6,1.2,1,1.5c0.4,0.3,1,0.5,1.8,0.5c0.8,0,1.4-0.2,1.9-0.5c0.3-0.3,0.5-0.6,0.5-1
		c0-0.4-0.2-0.8-0.7-1c-0.3-0.2-1.2-0.4-2.6-0.6c-2.1-0.4-3.6-0.7-4.4-1c-0.8-0.3-1.5-0.8-2.1-1.6c-0.6-0.7-0.8-1.6-0.8-2.6
		c0-1,0.3-1.9,0.9-2.7c0.6-0.8,1.4-1.3,2.5-1.7c1.1-0.4,2.5-0.6,4.3-0.6c1.9,0,3.3,0.1,4.2,0.4c0.9,0.3,1.7,0.7,2.3,1.3
		s1.1,1.4,1.5,2.5l-5.8,0.6c-0.1-0.5-0.4-0.9-0.7-1.1c-0.5-0.3-1.1-0.5-1.7-0.5c-0.7,0-1.2,0.1-1.5,0.4c-0.3,0.2-0.5,0.5-0.5,0.9
		c0,0.4,0.2,0.7,0.6,0.9c0.4,0.2,1.3,0.4,2.6,0.5c2,0.2,3.5,0.5,4.5,1c1,0.4,1.7,1,2.3,1.7c0.5,0.8,0.8,1.6,0.8,2.5
		c0,0.9-0.3,1.8-0.8,2.7c-0.6,0.9-1.4,1.6-2.6,2.1c-1.2,0.5-2.8,0.8-4.9,0.8c-2.9,0-5-0.4-6.2-1.2
		C459.9,670.8,459.1,669.6,458.7,668.1z"/>
	<path class="st1" d="M479.9,650.6h6.1v4.1h-6.1V650.6z M479.9,656.6h6.1v15.9h-6.1V656.6z"/>
	<path class="st1" d="M491.1,656.6h5.7v2.6c0.8-1.1,1.7-1.8,2.6-2.3c0.9-0.5,1.9-0.7,3.2-0.7c1.7,0,3,0.5,4,1.5c1,1,1.4,2.5,1.4,4.6
		v10.1h-6.1v-8.7c0-1-0.2-1.7-0.6-2.1c-0.4-0.4-0.9-0.6-1.6-0.6c-0.7,0-1.3,0.3-1.8,0.8c-0.5,0.6-0.7,1.6-0.7,3v7.6h-6.1V656.6z"/>
	<path class="st1" d="M523.7,656.6h5.7v15l0,0.7c0,1-0.2,1.9-0.6,2.8c-0.4,0.9-1,1.6-1.7,2.2c-0.7,0.6-1.6,1-2.7,1.2
		c-1.1,0.2-2.3,0.4-3.7,0.4c-3.2,0-5.4-0.5-6.6-1.4c-1.2-1-1.8-2.2-1.8-3.8c0-0.2,0-0.5,0-0.8l5.9,0.7c0.1,0.5,0.4,0.9,0.7,1.1
		c0.4,0.3,1,0.5,1.7,0.5c0.9,0,1.5-0.2,2-0.7c0.4-0.5,0.6-1.3,0.6-2.4v-2.4c-0.6,0.7-1.2,1.2-1.8,1.5c-0.9,0.5-1.9,0.7-3,0.7
		c-2.1,0-3.8-0.9-5.1-2.8c-0.9-1.3-1.4-3.1-1.4-5.2c0-2.5,0.6-4.4,1.8-5.6c1.2-1.3,2.8-1.9,4.7-1.9c1.2,0,2.3,0.2,3.1,0.6
		c0.8,0.4,1.6,1.1,2.2,2.1V656.6z M518,664.3c0,1.1,0.2,2,0.7,2.5c0.5,0.6,1.1,0.8,1.9,0.8c0.8,0,1.4-0.3,1.9-0.9
		c0.5-0.6,0.8-1.4,0.8-2.6c0-1.2-0.3-2-0.8-2.7c-0.5-0.6-1.2-0.9-2-0.9s-1.4,0.3-1.9,0.8C518.2,662.1,518,663,518,664.3z"/>
	<path class="st1" d="M544.9,665.3l6.4-0.4c0.1,1,0.4,1.8,0.9,2.4c0.7,0.9,1.7,1.3,3,1.3c1,0,1.7-0.2,2.2-0.7c0.5-0.5,0.8-1,0.8-1.6
		c0-0.6-0.2-1.1-0.7-1.5c-0.5-0.4-1.7-0.9-3.5-1.3c-3-0.7-5.1-1.6-6.3-2.7c-1.3-1.1-1.9-2.5-1.9-4.2c0-1.1,0.3-2.2,1-3.2
		c0.7-1,1.6-1.8,2.9-2.4c1.3-0.6,3.1-0.9,5.4-0.9c2.8,0,4.9,0.5,6.4,1.6c1.5,1,2.3,2.7,2.6,5l-6.4,0.4c-0.2-1-0.5-1.7-1.1-2.2
		c-0.5-0.4-1.3-0.7-2.2-0.7c-0.8,0-1.4,0.2-1.8,0.5c-0.4,0.3-0.6,0.7-0.6,1.2c0,0.3,0.2,0.7,0.5,0.9c0.3,0.3,1.1,0.6,2.3,0.8
		c3,0.6,5.1,1.3,6.4,1.9c1.3,0.7,2.2,1.5,2.8,2.4c0.6,1,0.9,2,0.9,3.2c0,1.4-0.4,2.7-1.2,3.9c-0.8,1.2-1.9,2.1-3.3,2.7
		c-1.4,0.6-3.2,0.9-5.3,0.9c-3.7,0-6.3-0.7-7.7-2.2C545.9,669.3,545.1,667.5,544.9,665.3z"/>
	<path class="st1" d="M568.2,664.6c0-2.4,0.8-4.4,2.4-6c1.6-1.6,3.8-2.4,6.6-2.4c3.2,0,5.6,0.9,7.2,2.8c1.3,1.5,2,3.3,2,5.5
		c0,2.4-0.8,4.4-2.4,6s-3.9,2.3-6.7,2.3c-2.5,0-4.6-0.6-6.2-1.9C569.2,669.3,568.2,667.2,568.2,664.6z M574.3,664.6
		c0,1.4,0.3,2.5,0.9,3.1c0.6,0.7,1.3,1,2.2,1c0.9,0,1.6-0.3,2.2-1c0.6-0.7,0.8-1.7,0.8-3.2c0-1.4-0.3-2.4-0.9-3.1
		c-0.6-0.7-1.3-1-2.1-1c-0.9,0-1.6,0.3-2.2,1C574.6,662.2,574.3,663.2,574.3,664.6z"/>
	<path class="st1" d="M602.4,666.3l5.8,0.7c-0.3,1.2-0.8,2.2-1.6,3.1c-0.7,0.9-1.7,1.6-2.8,2.1c-1.1,0.5-2.6,0.7-4.3,0.7
		c-1.7,0-3.1-0.2-4.2-0.5c-1.1-0.3-2.1-0.8-2.9-1.5c-0.8-0.7-1.4-1.5-1.9-2.5c-0.5-0.9-0.7-2.2-0.7-3.8c0-1.6,0.3-3,0.8-4.1
		c0.4-0.8,1-1.5,1.7-2.1c0.7-0.6,1.4-1.1,2.2-1.4c1.2-0.5,2.7-0.7,4.6-0.7c2.6,0,4.6,0.5,5.9,1.4c1.4,0.9,2.3,2.3,2.9,4.1l-5.7,0.8
		c-0.2-0.7-0.5-1.2-1-1.5c-0.5-0.3-1.1-0.5-1.9-0.5c-1,0-1.8,0.4-2.4,1.1c-0.6,0.7-0.9,1.8-0.9,3.3c0,1.3,0.3,2.3,0.9,3
		c0.6,0.7,1.4,1,2.4,1c0.8,0,1.5-0.2,2-0.6C601.7,667.8,602.1,667.1,602.4,666.3z"/>
	<path class="st1" d="M612.4,650.6h6.1v4.1h-6.1V650.6z M612.4,656.6h6.1v15.9h-6.1V656.6z"/>
	<path class="st1" d="M641.1,666.1h-12.2c0.1,1,0.4,1.7,0.8,2.2c0.6,0.7,1.4,1,2.3,1c0.6,0,1.2-0.1,1.7-0.4c0.3-0.2,0.7-0.5,1.1-1
		l6,0.6c-0.9,1.6-2,2.7-3.3,3.4c-1.3,0.7-3.2,1-5.6,1c-2.1,0-3.8-0.3-5-0.9c-1.2-0.6-2.2-1.5-3-2.8c-0.8-1.3-1.2-2.8-1.2-4.5
		c0-2.5,0.8-4.5,2.4-6c1.6-1.5,3.8-2.3,6.6-2.3c2.3,0,4.1,0.3,5.4,1c1.3,0.7,2.3,1.7,3,3c0.7,1.3,1,3,1,5.1V666.1z M634.9,663.2
		c-0.1-1.2-0.4-2-0.9-2.5c-0.5-0.5-1.2-0.8-2-0.8c-1,0-1.7,0.4-2.3,1.2c-0.4,0.5-0.6,1.2-0.7,2.1H634.9z"/>
	<path class="st1" d="M652.4,650.6v6h3.3v4.5h-3.3v5.6c0,0.7,0.1,1.1,0.2,1.3c0.2,0.3,0.5,0.5,1,0.5c0.4,0,1.1-0.1,1.9-0.4l0.4,4.2
		c-1.5,0.3-2.9,0.5-4.2,0.5c-1.5,0-2.6-0.2-3.3-0.6c-0.7-0.4-1.2-1-1.6-1.8c-0.3-0.8-0.5-2.1-0.5-3.8v-5.6h-2.2v-4.5h2.2v-2.9
		L652.4,650.6z"/>
	<path class="st1" d="M658.1,656.6h6.4l3.3,10.6l3-10.6h6l-6.3,16.9c-0.7,1.9-1.4,3.2-2.2,3.9c-1.1,1-2.7,1.4-4.8,1.4
		c-0.9,0-2.2-0.1-4.1-0.4l-0.5-4.2c0.9,0.3,1.9,0.4,2.9,0.4c0.7,0,1.3-0.2,1.7-0.5c0.4-0.3,0.8-0.9,1.1-1.8L658.1,656.6z"/>
	<path class="st1" d="M691.5,650.6h6.8v16.5h10.6v5.4h-17.3V650.6z"/>
	<path class="st1" d="M720.1,650.6v6h3.3v4.5h-3.3v5.6c0,0.7,0.1,1.1,0.2,1.3c0.2,0.3,0.5,0.5,1,0.5c0.4,0,1.1-0.1,1.9-0.4l0.4,4.2
		c-1.5,0.3-2.9,0.5-4.2,0.5c-1.5,0-2.6-0.2-3.3-0.6c-0.7-0.4-1.2-1-1.6-1.8c-0.3-0.8-0.5-2.1-0.5-3.8v-5.6h-2.2v-4.5h2.2v-2.9
		L720.1,650.6z"/>
	<path class="st1" d="M744.2,650.6v21.9h-5.7v-2.3c-0.8,1-1.5,1.7-2.2,2c-0.9,0.5-1.9,0.7-2.9,0.7c-2.2,0-3.8-0.8-5-2.5
		c-1.1-1.6-1.7-3.6-1.7-6c0-2.6,0.6-4.6,1.9-6c1.3-1.4,2.9-2.1,4.8-2.1c0.9,0,1.8,0.2,2.6,0.5c0.8,0.3,1.5,0.8,2.1,1.4v-7.6H744.2z
		 M738.1,664.5c0-1.2-0.3-2.2-0.8-2.8s-1.2-0.9-2-0.9c-0.7,0-1.3,0.3-1.8,0.9c-0.5,0.6-0.7,1.6-0.7,3c0,1.3,0.2,2.2,0.7,2.8
		c0.5,0.6,1.1,0.9,1.8,0.9c0.8,0,1.4-0.3,1.9-0.9C737.8,666.9,738.1,665.9,738.1,664.5z"/>
</g>
</svg>
