<?xml version="1.0" encoding="utf-8"?>
<!-- Generator: Adobe Illustrator 27.3.1, SVG Export Plug-In . SVG Version: 6.00 Build 0)  -->
<svg version="1.1" id="Layer_1" xmlns="http://www.w3.org/2000/svg" xmlns:xlink="http://www.w3.org/1999/xlink" x="0px" y="0px"
	 viewBox="0 0 553.39 140.33" style="enable-background:new 0 0 553.39 140.33;" xml:space="preserve">
<style type="text/css">
	.st0{fill:#1E3464;}
	.st1{fill:url(#SVGID_1_);}
	.st2{fill:url(#SVGID_00000088092277501356975500000012053235868371328953_);}
	.st3{fill:url(#SVGID_00000091694422074226355900000015218594557764707488_);}
	.st4{fill:url(#SVGID_00000018951612555211623230000014195373945504105406_);}
	.st5{fill:url(#SVGID_00000033358767412164781840000002363580926430321568_);}
	.st6{fill:url(#SVGID_00000150074138974619156860000001217860861385770649_);}
	.st7{fill:url(#SVGID_00000067213095415782295390000007200051493941913019_);}
	.st8{fill:url(#SVGID_00000176034842527434582950000013323658507777942717_);}
	.st9{fill:url(#SVGID_00000096756360394614524630000006393652002443493267_);}
	.st10{fill:url(#SVGID_00000067228099649353553680000000365525863499154597_);}
	.st11{fill:url(#SVGID_00000009558760974608922250000012065313238701074054_);}
</style>
<g>
	<g>
		<path class="st0" d="M29.74,130.63c0.08,1.44,0.18,2.88,0.28,4.32c0.02,0.26-0.12,0.43-0.32,0.56c-0.98,0.62-2.03,1.1-2.97,1.79
			c-0.26,0.19-0.41,0.07-0.41-0.26c0.01-0.78,0-1.55,0-2.33h-0.01c0-0.74,0.01-1.49,0-2.23c-0.01-0.32,0.11-0.54,0.38-0.68
			c0.88-0.47,1.76-0.95,2.64-1.42C29.59,130.25,29.72,130.29,29.74,130.63z"/>
		<path class="st0" d="M38.81,130.58c-1.68,0.97-3.36,1.93-5.04,2.91c-0.48,0.27-0.92,0.6-1.41,0.88c-0.46,0.26-0.58,0.19-0.58-0.34
			c0-0.76,0.03-2.28,0.03-2.28c0-0.79,0-1.59,0-2.38c0-0.39,0.16-0.66,0.49-0.86c2.24-1.35,4.47-2.71,6.71-4.06
			c0.51-0.3,0.57-0.26,0.56,0.35c-0.03,1.61-0.07,3.21-0.09,4.81C39.48,130.11,39.19,130.37,38.81,130.58z"/>
		
			<linearGradient id="SVGID_1_" gradientUnits="userSpaceOnUse" x1="100.0157" y1="174.5526" x2="102.4378" y2="167.898" gradientTransform="matrix(1 0 0 -1 0 184.8135)">
			<stop  offset="0" style="stop-color:#3262AE"/>
			<stop  offset="0.2577" style="stop-color:#3161AE"/>
			<stop  offset="0.4475" style="stop-color:#2D5DAB"/>
			<stop  offset="0.6156" style="stop-color:#2054A5"/>
			<stop  offset="0.7711" style="stop-color:#164995"/>
			<stop  offset="0.9166" style="stop-color:#213E78"/>
			<stop  offset="1" style="stop-color:#1E3464"/>
		</linearGradient>
		<path class="st1" d="M97.94,12.49c2.25-1.3,4.49-2.58,6.72-3.9c0.38-0.23,0.43-0.11,0.43,0.26c-0.01,0.83,0,1.66,0,2.49
			c0,0-0.03,1.66,0,2.49c0.01,0.34-0.13,0.5-0.4,0.66c-2.07,1.21-4.14,2.44-6.2,3.66c-0.24,0.14-0.46,0.3-0.7,0.45
			c-0.3,0.19-0.43,0.08-0.45-0.26c-0.05-0.85,0.03-1.7,0.09-2.54c0.06-0.83,0.04-1.66,0.06-2.49
			C97.49,12.91,97.62,12.67,97.94,12.49z"/>
		
			<linearGradient id="SVGID_00000165222535176120335680000011980268085814065577_" gradientUnits="userSpaceOnUse" x1="107.885" y1="178.2328" x2="109.7926" y2="172.9917" gradientTransform="matrix(1 0 0 -1 0 184.8135)">
			<stop  offset="0" style="stop-color:#3262AE"/>
			<stop  offset="0.2577" style="stop-color:#3161AE"/>
			<stop  offset="0.4475" style="stop-color:#2D5DAB"/>
			<stop  offset="0.6156" style="stop-color:#2054A5"/>
			<stop  offset="0.7711" style="stop-color:#164995"/>
			<stop  offset="0.9166" style="stop-color:#213E78"/>
			<stop  offset="1" style="stop-color:#1E3464"/>
		</linearGradient>
		<path style="fill:url(#SVGID_00000165222535176120335680000011980268085814065577_);" d="M107.15,12.2
			c-0.01-1.36-0.18-2.7-0.23-4.05c-0.01-0.36,0.1-0.57,0.43-0.75c0.88-0.47,1.78-0.92,2.59-1.51c0.43-0.3,0.58-0.23,0.6,0.3
			c0.02,0.6,0,1.2,0,1.8c0.07,0.78-0.01,1.55,0.14,2.32c0.1,0.47-0.09,0.79-0.53,1c-0.81,0.39-1.59,0.83-2.39,1.23
			C107.28,12.78,107.16,12.73,107.15,12.2z"/>
		<g>
			
				<linearGradient id="SVGID_00000134928152265376567690000006899558222128047489_" gradientUnits="userSpaceOnUse" x1="45.8708" y1="162.559" x2="69.2606" y2="98.2962" gradientTransform="matrix(1 0 0 -1 0 184.8135)">
				<stop  offset="0" style="stop-color:#3262AE"/>
				<stop  offset="0.2577" style="stop-color:#3161AE"/>
				<stop  offset="0.4475" style="stop-color:#2D5DAB"/>
				<stop  offset="0.6156" style="stop-color:#2054A5"/>
				<stop  offset="0.7711" style="stop-color:#164995"/>
				<stop  offset="0.9166" style="stop-color:#213E78"/>
				<stop  offset="1" style="stop-color:#1E3464"/>
			</linearGradient>
			<path style="fill:url(#SVGID_00000134928152265376567690000006899558222128047489_);" d="M25.09,99.32
				c-2.08-0.27-4.11-0.85-6.02-1.82c-3.51-1.78-6.33-4.74-8.62-7.99c-2.72-3.86-4.83-8.29-5.28-13.04
				c-0.72-7.58,2.91-15.05,8.04-20.55c5.14-5.5,11.68-9.35,18.12-13.13C54.18,29.4,77.03,16,99.89,2.59c0.38,2.79-0.97,5.6-2.91,7.6
				c-1.94,2-4.42,3.34-6.84,4.67C69.89,25.96,50.37,38.38,30.4,49.99c-7.33,4.26-15.22,8.96-18.55,16.91
				c-2.45,5.84-1.88,12.92,1.46,18.27s9.37,8.84,15.56,9c5.06,0.13,9.93-1.8,14.48-4.07c5.43-2.71,10.61-5.96,15.44-9.67
				c0.03,1.62,0.7,4.92-0.04,6.34c-0.83,1.58-4.25,3.13-5.72,4.05c-3.91,2.45-8.07,4.5-12.38,6.1
				C35.7,98.77,30.22,99.99,25.09,99.32z"/>
			<path class="st0" d="M58.92,103.97c0.28,2.08,0.38,3.7-0.94,5.21c-1.48,1.7-4.68,2.93-6.6,4.11c-1.56,0.96-12.69,6.29-12.77,7.69
				c0.06-1.15,0.12-2.31,0.19-3.46c0.03-0.49,0.06-1.02,0.33-1.43c0.22-0.34,0.57-0.56,0.91-0.77c6.27-3.93,12.56-7.87,18.83-11.81
				C58.88,103.67,58.9,103.83,58.92,103.97z"/>
			<path class="st0" d="M42.01,123.68c-0.05-0.88,0.33-1.39,1.04-1.81c1.92-1.13,3.81-2.3,5.7-3.47c2.54-1.56,5.07-3.14,7.61-4.71
				c0.63-0.39,1.28-0.74,1.92-1.13c0.34-0.21,0.52-0.11,0.52,0.27c0.01,1.06,0.2,2.11,0.29,3.16c0.03,0.3,0,0.61,0.07,0.89
				c0.2,0.81-0.16,1.26-0.82,1.65c-2.2,1.31-4.37,2.67-6.57,4.01c-2.83,1.72-5.69,3.44-8.53,5.16c-0.28,0.17-0.53,0.39-0.81,0.57
				c-0.44,0.28-0.53,0.24-0.55-0.28C41.89,127.66,42.08,124.77,42.01,123.68z"/>
			
				<linearGradient id="SVGID_00000039114784931261727070000014125966517851168138_" gradientUnits="userSpaceOnUse" x1="84.9755" y1="166.7758" x2="88.1528" y2="158.0463" gradientTransform="matrix(1 0 0 -1 0 184.8135)">
				<stop  offset="0" style="stop-color:#3262AE"/>
				<stop  offset="0.2577" style="stop-color:#3161AE"/>
				<stop  offset="0.4475" style="stop-color:#2D5DAB"/>
				<stop  offset="0.6156" style="stop-color:#2054A5"/>
				<stop  offset="0.7711" style="stop-color:#164995"/>
				<stop  offset="0.9166" style="stop-color:#213E78"/>
				<stop  offset="1" style="stop-color:#1E3464"/>
			</linearGradient>
			<path style="fill:url(#SVGID_00000039114784931261727070000014125966517851168138_);" d="M95.1,16.68
				c0.08,1.31,0.06,2.73-0.36,3.52c-0.76,1.41-3.52,2.42-4.88,3.24c-3.71,2.24-7.41,4.48-11.12,6.72c-0.18,0.11-0.41,0.21-0.56,0.06
				c-0.09-0.08-0.11-0.22-0.12-0.35c-0.11-1.29-0.2-2.57-0.31-3.86c-0.03-0.33-0.05-0.68,0.08-0.97c0.16-0.35,0.5-0.57,0.82-0.76
				c5.42-3.29,10.85-6.59,16.27-9.88C94.97,14.99,95.06,15.82,95.1,16.68z"/>
			
				<linearGradient id="SVGID_00000145025995946169878420000017688821446426934662_" gradientUnits="userSpaceOnUse" x1="60.544" y1="145.8951" x2="90.3139" y2="64.1029" gradientTransform="matrix(1 0 0 -1 0 184.8135)">
				<stop  offset="0" style="stop-color:#3262AE"/>
				<stop  offset="0.2577" style="stop-color:#3161AE"/>
				<stop  offset="0.4475" style="stop-color:#2D5DAB"/>
				<stop  offset="0.6156" style="stop-color:#2054A5"/>
				<stop  offset="0.7711" style="stop-color:#164995"/>
				<stop  offset="0.9166" style="stop-color:#213E78"/>
				<stop  offset="1" style="stop-color:#1E3464"/>
			</linearGradient>
			<path style="fill:url(#SVGID_00000145025995946169878420000017688821446426934662_);" d="M130.8,69.42
				c0.15-5.57-1.58-11.16-4.97-16.05c-2.53-3.66-5.86-6.86-9.93-8.53c-5.87-2.42-12.57-1.41-18.59,0.57
				c-6.46,2.11-12.6,5.26-18.11,9.32c-0.55,0.4-1.1,0.83-1.43,1.44c-0.36,0.68-0.39,1.49-0.4,2.25
				c-0.34,16.47-0.68,32.93-1.01,49.39c-0.02,0.98-0.06,2.02-0.61,2.8c-0.41,0.58-1.05,0.95-1.66,1.29
				c-2.38,1.33-4.77,2.67-7.15,4.01c-0.04-18.13-0.09-36.26-0.13-54.39c-7.99,4.67-15.97,9.33-23.96,14
				c-1.8,1.05-3.66,2.13-5.71,2.38c-2.05,0.26-4.37-0.48-5.39-2.34c-1-1.83-0.45-4.23,0.8-5.89c1.25-1.67,3.07-2.76,4.84-3.81
				c17.83-10.6,35.65-21.2,53.48-31.8c3.02-1.8,6.53-4.75,5.46-8.17C75.82,38.03,55.31,50.17,34.81,62.32
				c-2.4,1.42-4.88,2.91-6.46,5.25c-1.86,2.73-2.21,6.45-0.92,9.5c1.3,3.05,4.21,5.3,7.42,5.74c4.35,0.6,8.46-1.89,12.17-4.27
				c5.32-3.42,10.64-6.83,15.96-10.25c0.09,15.86,0.17,31.71,0.26,47.58c0,0.79,0,1.61-0.37,2.31c-0.42,0.78-1.21,1.24-1.96,1.66
				c-5.39,3.04-10.77,6.08-16.16,9.11c-2.19,1.23-4.42,2.5-6.11,4.38c-1.7,1.88-2.79,4.53-2.23,7.03
				c23.1-13.58,46.2-27.15,69.29-40.72c8.14-4.79,17.05-10.05,21.88-18.66C129.66,77.27,130.7,73.35,130.8,69.42z M125.13,73.56
				c-2.89,8.48-11.93,15.25-19.67,19.78c-8.16,4.76-16.31,9.52-24.46,14.29c0-4.33-0.01-8.68-0.01-13.01c0-0.74,0.01-1.52,0.38-2.15
				c0.34-0.57,0.92-0.94,1.47-1.29c3.2-1.99,6.4-3.97,9.61-5.96c2.38-1.48,4.81-2.99,6.64-5.14c2.07-2.43,3.29-5.68,3-8.9
				c-0.28-3.21-2.15-6.3-4.97-7.72c-1.57-0.78-3.38-1.04-5.12-0.88c-2,0.19-4.01,0.98-5.37,2.49c-1.36,1.52-1.93,3.85-1.11,5.73
				c1.63-1.08,3.29-2.16,5.15-2.66c1.87-0.5,4.02-0.31,5.5,0.97c1.79,1.54,2.12,4.5,0.9,6.55c-0.8,1.35-2.12,2.27-3.4,3.13
				c-4.02,2.69-8.14,5.21-12.35,7.55c-0.08-8.27-0.02-16.53,0.2-24.8c0.02-0.65,0.04-1.31,0.35-1.88c0.3-0.56,0.84-0.93,1.36-1.29
				c3.75-2.52,7.71-4.69,11.83-6.49c3.86-1.68,7.94-3.06,12.13-3c6.39,0.08,12.64,3.73,15.97,9.33
				C126.44,63.79,126.7,68.93,125.13,73.56z"/>
			
				<linearGradient id="SVGID_00000159470496707047813670000011513477784286661797_" gradientUnits="userSpaceOnUse" x1="81.3466" y1="116.731" x2="81.3514" y2="116.7178" gradientTransform="matrix(1 0 0 -1 0 184.8135)">
				<stop  offset="0" style="stop-color:#3262AE"/>
				<stop  offset="0.2577" style="stop-color:#3161AE"/>
				<stop  offset="0.4475" style="stop-color:#2D5DAB"/>
				<stop  offset="0.6156" style="stop-color:#2054A5"/>
				<stop  offset="0.7711" style="stop-color:#164995"/>
				<stop  offset="0.9166" style="stop-color:#213E78"/>
				<stop  offset="1" style="stop-color:#1E3464"/>
			</linearGradient>
			<path style="fill:url(#SVGID_00000159470496707047813670000011513477784286661797_);" d="M81.35,68.09
				C81.35,68.1,81.34,68.1,81.35,68.09C81.34,68.09,81.34,68.09,81.35,68.09C81.34,68.09,81.34,68.09,81.35,68.09z"/>
			
				<linearGradient id="SVGID_00000103950442540844412790000010480411551162048401_" gradientUnits="userSpaceOnUse" x1="80.9037" y1="100.6247" x2="81.3768" y2="99.325" gradientTransform="matrix(1 0 0 -1 0 184.8135)">
				<stop  offset="0" style="stop-color:#3262AE"/>
				<stop  offset="0.2577" style="stop-color:#3161AE"/>
				<stop  offset="0.4475" style="stop-color:#2D5DAB"/>
				<stop  offset="0.6156" style="stop-color:#2054A5"/>
				<stop  offset="0.7711" style="stop-color:#164995"/>
				<stop  offset="0.9166" style="stop-color:#213E78"/>
				<stop  offset="1" style="stop-color:#1E3464"/>
			</linearGradient>
			<path style="fill:url(#SVGID_00000103950442540844412790000010480411551162048401_);" d="M81.14,85.57
				c-0.09-0.49-0.08-0.98,0-1.47C81.14,84.6,81.14,85.09,81.14,85.57z"/>
			
				<linearGradient id="SVGID_00000070104514853321936900000004853018366641450384_" gradientUnits="userSpaceOnUse" x1="81.1367" y1="99.1142" x2="81.3928" y2="98.4106" gradientTransform="matrix(1 0 0 -1 0 184.8135)">
				<stop  offset="0" style="stop-color:#3262AE"/>
				<stop  offset="0.2577" style="stop-color:#3161AE"/>
				<stop  offset="0.4475" style="stop-color:#2D5DAB"/>
				<stop  offset="0.6156" style="stop-color:#2054A5"/>
				<stop  offset="0.7711" style="stop-color:#164995"/>
				<stop  offset="0.9166" style="stop-color:#213E78"/>
				<stop  offset="1" style="stop-color:#1E3464"/>
			</linearGradient>
			<path style="fill:url(#SVGID_00000070104514853321936900000004853018366641450384_);" d="M81.14,85.7
				c0.04,0.04,0.04,0.09,0.05,0.15l0,0c0.01,0.08,0,0.16,0,0.25l0,0c0,0.16,0.05,0.28,0.35,0.26l0,0l0,0
				C80.97,86.41,81.18,85.98,81.14,85.7z"/>
			
				<linearGradient id="SVGID_00000129166201887773597550000009060923560653852549_" gradientUnits="userSpaceOnUse" x1="95.6123" y1="107.6049" x2="95.7716" y2="107.1673" gradientTransform="matrix(1 0 0 -1 0 184.8135)">
				<stop  offset="0" style="stop-color:#3262AE"/>
				<stop  offset="0.2577" style="stop-color:#3161AE"/>
				<stop  offset="0.4475" style="stop-color:#2D5DAB"/>
				<stop  offset="0.6156" style="stop-color:#2054A5"/>
				<stop  offset="0.7711" style="stop-color:#164995"/>
				<stop  offset="0.9166" style="stop-color:#213E78"/>
				<stop  offset="1" style="stop-color:#1E3464"/>
			</linearGradient>
			<path style="fill:url(#SVGID_00000129166201887773597550000009060923560653852549_);" d="M95.85,77.24
				c0.09-0.07,0.18-0.15,0.27-0.22c-0.28,0.27-0.5,0.61-0.84,0.8c0.06-0.07,0.12-0.15,0.19-0.21l0,0
				C95.58,77.48,95.71,77.36,95.85,77.24z"/>
			
				<linearGradient id="SVGID_00000140735256137769982740000009891294234473752966_" gradientUnits="userSpaceOnUse" x1="101.6929" y1="113.1509" x2="102.333" y2="111.3922" gradientTransform="matrix(1 0 0 -1 0 184.8135)">
				<stop  offset="0" style="stop-color:#3262AE"/>
				<stop  offset="0.2577" style="stop-color:#3161AE"/>
				<stop  offset="0.4475" style="stop-color:#2D5DAB"/>
				<stop  offset="0.6156" style="stop-color:#2054A5"/>
				<stop  offset="0.7711" style="stop-color:#164995"/>
				<stop  offset="0.9166" style="stop-color:#213E78"/>
				<stop  offset="1" style="stop-color:#1E3464"/>
			</linearGradient>
			<path style="fill:url(#SVGID_00000140735256137769982740000009891294234473752966_);" d="M102.01,73.54
				c0.06-0.67,0.06-1.33,0-1.99C102.17,72.21,102.15,72.87,102.01,73.54z"/>
			
				<linearGradient id="SVGID_00000052092779059890835890000007358550032991992213_" gradientUnits="userSpaceOnUse" x1="117.5534" y1="134.0246" x2="119.05" y2="129.9128" gradientTransform="matrix(1 0 0 -1 0 184.8135)">
				<stop  offset="0" style="stop-color:#3262AE"/>
				<stop  offset="0.2577" style="stop-color:#3161AE"/>
				<stop  offset="0.4475" style="stop-color:#2D5DAB"/>
				<stop  offset="0.6156" style="stop-color:#2054A5"/>
				<stop  offset="0.7711" style="stop-color:#164995"/>
				<stop  offset="0.9166" style="stop-color:#213E78"/>
				<stop  offset="1" style="stop-color:#1E3464"/>
			</linearGradient>
			<path style="fill:url(#SVGID_00000052092779059890835890000007358550032991992213_);" d="M120.06,54.53
				c-0.08-0.08-0.15-0.16-0.23-0.23c0,0,0,0,0-0.01c-0.6-0.62-1.21-1.24-1.81-1.86l0,0c-0.05-0.05-0.11-0.1-0.17-0.16
				c-0.04-0.03-0.06-0.06-0.09-0.1c-0.22-0.12-0.39-0.31-0.57-0.49c-0.08-0.05-0.17-0.1-0.25-0.16c-0.16-0.1-0.35-0.16-0.4-0.38
				c0.13,0.1,0.28,0.19,0.41,0.29c0.24,0.14,0.44,0.33,0.62,0.53c0.02,0.01,0.03,0.03,0.04,0.05l0.01,0.01
				c0.02,0.02,0.04,0.04,0.05,0.06l0,0c0.04,0.04,0.06,0.06,0.1,0.1C118.61,52.9,119.38,53.69,120.06,54.53z"/>
		</g>
	</g>
	<g>
		<path d="M164.65,92.21c-2.63,0-4.66-0.73-6.09-2.2c-1.43-1.46-2.15-3.51-2.15-6.14V41.69h-14.06c-2.21,0-3.9-0.58-5.06-1.75
			s-1.75-2.82-1.75-4.97c0-2.21,0.58-3.88,1.75-5.02c1.16-1.13,2.85-1.7,5.06-1.7h44.61c2.21,0,3.9,0.57,5.06,1.7
			c1.16,1.14,1.75,2.81,1.75,5.02c0,2.15-0.58,3.81-1.75,4.97s-2.85,1.75-5.06,1.75h-14.06v42.19c0,2.63-0.69,4.67-2.06,6.14
			C169.46,91.48,167.4,92.21,164.65,92.21z"/>
		<path d="M215.08,92.39c-5.37,0-10.02-0.94-13.93-2.82c-3.91-1.88-6.91-4.55-9-8.02c-2.09-3.46-3.14-7.55-3.14-12.27
			c0-4.54,1-8.52,3-11.96c2-3.43,4.75-6.12,8.24-8.06c3.49-1.94,7.48-2.91,11.96-2.91c3.28,0,6.27,0.52,8.96,1.57
			c2.69,1.05,4.99,2.57,6.9,4.57c1.91,2,3.36,4.4,4.34,7.21c0.99,2.81,1.48,5.94,1.48,9.41c0,1.2-0.33,2.08-0.99,2.64
			c-0.66,0.57-1.7,0.85-3.14,0.85h-27.41v-7.52h19.89l-1.43,1.16c0-2.21-0.3-4-0.9-5.37c-0.6-1.37-1.48-2.42-2.64-3.14
			c-1.16-0.72-2.61-1.08-4.34-1.08c-1.85,0-3.45,0.43-4.79,1.3c-1.34,0.87-2.37,2.14-3.09,3.81c-0.72,1.67-1.07,3.76-1.07,6.27v0.81
			c0,4.24,0.94,7.27,2.82,9.09c1.88,1.82,4.79,2.73,8.73,2.73c1.31,0,2.82-0.16,4.52-0.49c1.7-0.33,3.33-0.79,4.88-1.39
			c1.55-0.6,2.9-0.7,4.03-0.31c1.13,0.39,2.02,1.05,2.64,1.97s0.97,1.97,1.03,3.13c0.06,1.16-0.21,2.3-0.81,3.4
			c-0.6,1.11-1.58,1.96-2.96,2.55c-2.09,0.96-4.32,1.67-6.67,2.15C219.85,92.15,217.47,92.39,215.08,92.39z"/>
		<path d="M263.28,92.39c-4.96,0-9.27-0.93-12.94-2.78c-3.67-1.85-6.52-4.52-8.55-8.02c-2.03-3.49-3.05-7.6-3.05-12.32
			c0-3.58,0.57-6.79,1.7-9.63c1.13-2.84,2.79-5.24,4.97-7.21c2.18-1.97,4.78-3.48,7.79-4.52c3.01-1.04,6.37-1.57,10.08-1.57
			c1.73,0,3.55,0.17,5.46,0.49c1.91,0.33,3.88,0.94,5.91,1.84c1.43,0.54,2.43,1.36,3,2.46c0.57,1.11,0.81,2.28,0.72,3.54
			c-0.09,1.25-0.45,2.39-1.07,3.4c-0.63,1.02-1.49,1.7-2.6,2.06c-1.11,0.36-2.34,0.21-3.72-0.45c-0.96-0.48-1.96-0.82-3-1.03
			c-1.05-0.21-2.05-0.31-3-0.31c-1.61,0-3.03,0.24-4.25,0.72c-1.22,0.48-2.25,1.18-3.09,2.1c-0.84,0.93-1.48,2.08-1.93,3.45
			c-0.45,1.37-0.67,2.93-0.67,4.66c0,3.46,0.86,6.18,2.6,8.15c1.73,1.97,4.18,2.96,7.35,2.96c0.95,0,1.94-0.1,2.96-0.31
			c1.01-0.21,2.03-0.55,3.05-1.03c1.37-0.66,2.6-0.79,3.67-0.4c1.07,0.39,1.94,1.09,2.6,2.11c0.66,1.02,1.01,2.14,1.07,3.36
			c0.06,1.22-0.21,2.39-0.81,3.49c-0.6,1.11-1.61,1.93-3.05,2.46c-1.97,0.9-3.9,1.51-5.78,1.84
			C266.81,92.23,265.01,92.39,263.28,92.39z"/>
		<path d="M292.03,92.21c-2.51,0-4.45-0.69-5.82-2.06c-1.38-1.37-2.06-3.37-2.06-6V35.51c0-2.63,0.69-4.63,2.06-6
			c1.37-1.37,3.31-2.06,5.82-2.06c2.57,0,4.55,0.69,5.96,2.06c1.4,1.37,2.11,3.37,2.11,6v19.53h-1.43c1.43-2.81,3.48-4.96,6.14-6.45
			c2.66-1.49,5.69-2.24,9.09-2.24c3.52,0,6.42,0.67,8.69,2.02s3.97,3.43,5.11,6.27c1.13,2.84,1.7,6.4,1.7,10.7v18.81
			c0,2.63-0.69,4.63-2.06,6c-1.38,1.37-3.34,2.06-5.91,2.06s-4.54-0.69-5.91-2.06s-2.06-3.37-2.06-6V65.97
			c0-2.69-0.46-4.6-1.39-5.73c-0.93-1.13-2.29-1.7-4.08-1.7c-2.39,0-4.3,0.76-5.73,2.28c-1.43,1.52-2.15,3.57-2.15,6.14v17.2
			C300.09,89.53,297.4,92.21,292.03,92.21z"/>
		<path d="M362.97,92.39c-2.39,0-4.88-0.17-7.48-0.49s-5.06-0.82-7.39-1.48c-2.33-0.66-4.42-1.43-6.27-2.33
			c-1.61-0.78-2.75-1.81-3.4-3.09c-0.66-1.28-0.9-2.64-0.72-4.08c0.18-1.43,0.69-2.7,1.52-3.81c0.84-1.1,1.94-1.85,3.31-2.24
			c1.37-0.39,2.93-0.19,4.66,0.58c2.27,1.08,4.84,1.91,7.7,2.51c2.87,0.6,5.55,0.9,8.06,0.9c3.94,0,6.7-0.52,8.29-1.57
			c1.58-1.04,2.37-2.34,2.37-3.9c0-1.37-0.55-2.48-1.66-3.31c-1.11-0.84-3.06-1.55-5.87-2.15l-10.48-2.24
			c-5.73-1.19-10-3.28-12.81-6.27c-2.81-2.99-4.21-6.84-4.21-11.56c0-3.1,0.64-5.93,1.93-8.46c1.29-2.54,3.11-4.7,5.46-6.49
			c2.36-1.79,5.16-3.18,8.42-4.17c3.25-0.99,6.88-1.48,10.88-1.48c3.1,0,6.25,0.34,9.45,1.03c3.19,0.69,5.96,1.72,8.29,3.09
			c1.37,0.72,2.36,1.7,2.96,2.96c0.6,1.25,0.84,2.55,0.72,3.9c-0.12,1.34-0.58,2.52-1.39,3.54c-0.81,1.02-1.88,1.69-3.22,2.02
			c-1.34,0.33-2.94,0.1-4.79-0.67c-1.73-0.78-3.69-1.36-5.87-1.75c-2.18-0.39-4.29-0.58-6.31-0.58c-2.21,0-4.09,0.25-5.64,0.76
			c-1.55,0.51-2.73,1.24-3.54,2.19c-0.81,0.96-1.21,2.06-1.21,3.31c0,1.25,0.52,2.31,1.57,3.18c1.04,0.87,2.97,1.6,5.78,2.19
			l10.39,2.24c5.79,1.25,10.12,3.31,12.99,6.18c2.87,2.87,4.3,6.6,4.3,11.2c0,3.11-0.63,5.91-1.88,8.42
			c-1.25,2.51-3.04,4.64-5.38,6.41c-2.33,1.76-5.14,3.12-8.42,4.08C370.79,91.91,367.09,92.39,362.97,92.39z"/>
		<path d="M419.05,92.39c-4.9,0-9.17-0.93-12.81-2.78c-3.64-1.85-6.48-4.51-8.51-7.97c-2.03-3.46-3.05-7.55-3.05-12.27
			c0-3.58,0.57-6.79,1.7-9.63c1.13-2.84,2.78-5.25,4.93-7.26c2.15-2,4.72-3.52,7.7-4.57c2.99-1.04,6.33-1.57,10.03-1.57
			c4.9,0,9.17,0.93,12.81,2.78c3.64,1.85,6.46,4.49,8.46,7.93c2,3.43,3,7.54,3,12.32c0,3.52-0.57,6.72-1.7,9.58
			c-1.14,2.87-2.76,5.3-4.88,7.3c-2.12,2-4.69,3.52-7.7,4.57C426.02,91.87,422.69,92.39,419.05,92.39z M419.05,80.66
			c1.61,0,3.04-0.4,4.3-1.21c1.25-0.81,2.22-2.03,2.91-3.67c0.69-1.64,1.03-3.78,1.03-6.4c0-4-0.78-6.88-2.33-8.64
			c-1.55-1.76-3.52-2.64-5.91-2.64c-1.61,0-3.04,0.39-4.3,1.16c-1.25,0.78-2.24,1.99-2.96,3.63c-0.72,1.64-1.07,3.81-1.07,6.49
			c0,3.94,0.78,6.81,2.33,8.6C414.6,79.76,416.6,80.66,419.05,80.66z"/>
		<path d="M473.15,92.39c-4.96,0-9.27-0.93-12.94-2.78c-3.67-1.85-6.53-4.52-8.55-8.02c-2.03-3.49-3.05-7.6-3.05-12.32
			c0-3.58,0.57-6.79,1.7-9.63c1.13-2.84,2.79-5.24,4.97-7.21s4.78-3.48,7.79-4.52c3.02-1.04,6.38-1.57,10.08-1.57
			c1.73,0,3.55,0.17,5.46,0.49c1.91,0.33,3.88,0.94,5.91,1.84c1.43,0.54,2.43,1.36,3,2.46c0.57,1.11,0.81,2.28,0.72,3.54
			c-0.09,1.25-0.45,2.39-1.08,3.4c-0.63,1.02-1.49,1.7-2.6,2.06s-2.34,0.21-3.72-0.45c-0.96-0.48-1.96-0.82-3-1.03
			c-1.05-0.21-2.05-0.31-3-0.31c-1.61,0-3.03,0.24-4.25,0.72c-1.22,0.48-2.26,1.18-3.09,2.1c-0.84,0.93-1.48,2.08-1.93,3.45
			c-0.45,1.37-0.67,2.93-0.67,4.66c0,3.46,0.87,6.18,2.6,8.15c1.73,1.97,4.18,2.96,7.35,2.96c0.96,0,1.94-0.1,2.96-0.31
			c1.01-0.21,2.03-0.55,3.04-1.03c1.37-0.66,2.6-0.79,3.67-0.4c1.08,0.39,1.94,1.09,2.6,2.11c0.66,1.02,1.02,2.14,1.08,3.36
			c0.06,1.22-0.21,2.39-0.81,3.49c-0.6,1.11-1.61,1.93-3.04,2.46c-1.97,0.9-3.9,1.51-5.78,1.84
			C476.69,92.23,474.88,92.39,473.15,92.39z"/>
		<path d="M501.9,92.21c-2.51,0-4.45-0.69-5.82-2.06s-2.06-3.37-2.06-6V35.51c0-2.63,0.69-4.63,2.06-6
			c1.37-1.37,3.31-2.06,5.82-2.06c2.57,0,4.55,0.69,5.96,2.06c1.4,1.37,2.1,3.37,2.1,6v19.53h-1.43c1.43-2.81,3.48-4.96,6.14-6.45
			c2.66-1.49,5.69-2.24,9.09-2.24c3.52,0,6.42,0.67,8.69,2.02s3.97,3.43,5.11,6.27c1.13,2.84,1.7,6.4,1.7,10.7v18.81
			c0,2.63-0.69,4.63-2.06,6c-1.38,1.37-3.35,2.06-5.91,2.06c-2.57,0-4.54-0.69-5.91-2.06c-1.38-1.37-2.06-3.37-2.06-6V65.97
			c0-2.69-0.46-4.6-1.39-5.73c-0.93-1.13-2.28-1.7-4.08-1.7c-2.39,0-4.3,0.76-5.73,2.28s-2.15,3.57-2.15,6.14v17.2
			C509.96,89.53,507.28,92.21,501.9,92.21z"/>
	</g>
	<g>
		<path d="M161.11,122.53c-0.94,0-1.86-0.08-2.76-0.24c-0.9-0.16-1.74-0.39-2.5-0.69c-0.77-0.3-1.47-0.68-2.08-1.14
			c-0.24-0.18-0.41-0.39-0.5-0.62s-0.11-0.46-0.06-0.69c0.05-0.23,0.15-0.42,0.3-0.58c0.15-0.16,0.33-0.25,0.55-0.27
			c0.22-0.02,0.46,0.05,0.72,0.21c0.9,0.64,1.86,1.11,2.88,1.39c1.02,0.29,2.17,0.44,3.45,0.44c1.8,0,3.13-0.33,4-1
			s1.3-1.56,1.3-2.66c0-0.9-0.31-1.61-0.94-2.12s-1.69-0.92-3.17-1.21l-3.12-0.63c-1.88-0.4-3.28-1.05-4.21-1.96s-1.4-2.12-1.4-3.65
			c0-0.94,0.19-1.79,0.57-2.56c0.38-0.77,0.91-1.43,1.59-1.98c0.68-0.55,1.49-0.97,2.43-1.28c0.94-0.3,1.98-0.45,3.12-0.45
			c1.26,0,2.43,0.17,3.52,0.52c1.09,0.35,2.07,0.88,2.96,1.58c0.22,0.18,0.37,0.39,0.45,0.62c0.08,0.23,0.09,0.45,0.03,0.66
			s-0.17,0.38-0.31,0.52c-0.15,0.14-0.34,0.22-0.57,0.24c-0.23,0.02-0.49-0.06-0.77-0.24c-0.8-0.6-1.63-1.04-2.49-1.3
			c-0.86-0.27-1.81-0.41-2.85-0.41c-1.06,0-1.98,0.16-2.75,0.48c-0.77,0.32-1.37,0.79-1.8,1.39c-0.43,0.61-0.65,1.32-0.65,2.12
			c0,0.96,0.29,1.72,0.88,2.28s1.55,0.97,2.9,1.23l3.12,0.66c2.02,0.42,3.51,1.06,4.48,1.91c0.97,0.85,1.46,2,1.46,3.46
			c0,0.88-0.18,1.69-0.54,2.43c-0.36,0.74-0.88,1.38-1.56,1.91c-0.68,0.53-1.5,0.94-2.46,1.21
			C163.39,122.39,162.31,122.53,161.11,122.53z"/>
		<path d="M179.98,122.53c-1.42,0-2.65-0.31-3.69-0.93c-1.04-0.62-1.84-1.5-2.42-2.62c-0.57-1.13-0.85-2.46-0.85-4
			c0-1.16,0.16-2.21,0.48-3.13c0.32-0.93,0.79-1.73,1.41-2.39c0.62-0.66,1.35-1.16,2.21-1.51c0.85-0.35,1.8-0.53,2.86-0.53
			c1.42,0,2.65,0.31,3.69,0.93s1.85,1.5,2.42,2.62c0.57,1.13,0.85,2.46,0.85,4c0,1.16-0.16,2.2-0.48,3.12s-0.79,1.71-1.41,2.38
			c-0.62,0.67-1.36,1.18-2.21,1.53C182,122.36,181.04,122.53,179.98,122.53z M179.98,120.58c0.9,0,1.69-0.22,2.37-0.66
			c0.68-0.44,1.2-1.08,1.58-1.92c0.37-0.84,0.55-1.85,0.55-3.03c0-1.82-0.4-3.21-1.21-4.17s-1.9-1.44-3.29-1.44
			c-0.92,0-1.71,0.21-2.38,0.65c-0.67,0.43-1.19,1.06-1.56,1.89c-0.37,0.83-0.56,1.86-0.56,3.08c0,1.8,0.41,3.18,1.23,4.16
			C177.53,120.1,178.62,120.58,179.98,120.58z"/>
		<path d="M193.96,122.47c-0.38,0-0.67-0.11-0.88-0.33s-0.31-0.53-0.31-0.93v-11.64h-1.92c-0.32,0-0.58-0.08-0.77-0.25
			c-0.19-0.17-0.29-0.41-0.29-0.71s0.09-0.53,0.29-0.69c0.19-0.16,0.44-0.24,0.77-0.24h2.58l-0.66,0.63v-1.14
			c0-1.9,0.46-3.35,1.4-4.35c0.93-1,2.29-1.58,4.09-1.74l0.87-0.09c0.28-0.02,0.5,0.03,0.68,0.15c0.17,0.12,0.28,0.27,0.33,0.45
			c0.05,0.18,0.06,0.37,0.02,0.55c-0.04,0.19-0.13,0.36-0.27,0.5c-0.14,0.14-0.31,0.22-0.51,0.24l-0.69,0.06
			c-1.22,0.1-2.11,0.47-2.66,1.11c-0.55,0.64-0.82,1.58-0.82,2.82v1.26l-0.36-0.45h3.6c0.34,0,0.6,0.08,0.78,0.24
			c0.18,0.16,0.27,0.39,0.27,0.69s-0.09,0.54-0.27,0.71c-0.18,0.17-0.44,0.25-0.78,0.25h-3.24v11.64
			C195.19,122.05,194.78,122.47,193.96,122.47z"/>
		<path d="M208.63,122.53c-1.14,0-2.1-0.21-2.86-0.62c-0.77-0.41-1.35-1.01-1.73-1.8c-0.38-0.79-0.57-1.75-0.57-2.89v-7.65h-2.01
			c-0.34,0-0.6-0.08-0.78-0.25c-0.18-0.17-0.27-0.41-0.27-0.71s0.09-0.53,0.27-0.69c0.18-0.16,0.44-0.24,0.78-0.24h2.01v-3.45
			c0-0.4,0.11-0.71,0.33-0.92s0.52-0.31,0.9-0.31c0.38,0,0.67,0.1,0.88,0.31s0.31,0.52,0.31,0.92v3.45h3.78
			c0.34,0,0.6,0.08,0.78,0.24s0.27,0.39,0.27,0.69s-0.09,0.54-0.27,0.71s-0.44,0.25-0.78,0.25h-3.78v7.41c0,1.14,0.24,2,0.72,2.59
			c0.48,0.59,1.26,0.89,2.34,0.89c0.38,0,0.71-0.04,0.98-0.12s0.5-0.12,0.67-0.12c0.18-0.02,0.33,0.04,0.45,0.18
			c0.12,0.14,0.18,0.38,0.18,0.72c0,0.24-0.05,0.46-0.14,0.66c-0.09,0.2-0.25,0.34-0.46,0.42c-0.24,0.08-0.56,0.16-0.95,0.23
			C209.31,122.5,208.95,122.53,208.63,122.53z"/>
		<path d="M220.03,122.47c-0.34,0-0.64-0.09-0.9-0.27c-0.26-0.18-0.47-0.47-0.63-0.87l-4.47-12.15c-0.12-0.34-0.15-0.64-0.1-0.9
			c0.05-0.26,0.17-0.46,0.38-0.6c0.2-0.14,0.45-0.21,0.75-0.21c0.3,0,0.54,0.07,0.74,0.21c0.19,0.14,0.34,0.4,0.46,0.78l4.2,12
			h-0.72l4.32-12c0.14-0.36,0.31-0.62,0.53-0.77c0.21-0.15,0.48-0.22,0.82-0.22c0.32,0,0.59,0.08,0.81,0.24
			c0.22,0.16,0.39,0.41,0.51,0.75l4.23,12h-0.69l4.26-12.06c0.14-0.36,0.31-0.6,0.51-0.74c0.2-0.13,0.44-0.19,0.72-0.19
			c0.32,0,0.56,0.08,0.73,0.24s0.27,0.37,0.29,0.63c0.02,0.26-0.03,0.54-0.15,0.84l-4.47,12.15c-0.14,0.38-0.34,0.67-0.61,0.86
			s-0.58,0.29-0.92,0.29c-0.34,0-0.64-0.1-0.9-0.29s-0.46-0.47-0.6-0.86l-4.44-12.18h1.29l-4.41,12.18
			c-0.14,0.38-0.34,0.67-0.6,0.86C220.7,122.38,220.39,122.47,220.03,122.47z"/>
		<path d="M246.04,122.53c-1,0-1.9-0.19-2.69-0.58c-0.79-0.39-1.42-0.92-1.88-1.6c-0.46-0.68-0.69-1.44-0.69-2.28
			c0-1.08,0.27-1.93,0.82-2.55c0.55-0.62,1.46-1.06,2.73-1.32s3-0.39,5.21-0.39h1.35v1.59h-1.32c-1.62,0-2.9,0.08-3.83,0.22
			c-0.93,0.15-1.58,0.41-1.95,0.77c-0.37,0.36-0.55,0.87-0.55,1.53c0,0.82,0.29,1.49,0.85,2.01c0.57,0.52,1.34,0.78,2.32,0.78
			c0.8,0,1.5-0.19,2.12-0.57c0.61-0.38,1.09-0.9,1.44-1.56c0.35-0.66,0.52-1.42,0.52-2.28v-3.42c0-1.24-0.25-2.13-0.75-2.68
			s-1.32-0.83-2.46-0.83c-0.7,0-1.4,0.09-2.1,0.27c-0.7,0.18-1.44,0.47-2.22,0.87c-0.28,0.14-0.52,0.18-0.72,0.13
			c-0.2-0.05-0.36-0.16-0.48-0.32c-0.12-0.16-0.19-0.34-0.21-0.55s0.02-0.42,0.14-0.62c0.11-0.2,0.28-0.36,0.52-0.48
			c0.88-0.44,1.75-0.76,2.61-0.96s1.68-0.3,2.46-0.3c1.26,0,2.3,0.21,3.12,0.62c0.82,0.41,1.43,1.03,1.83,1.86
			c0.4,0.83,0.6,1.89,0.6,3.19v8.13c0,0.4-0.1,0.71-0.29,0.93c-0.19,0.22-0.46,0.33-0.83,0.33c-0.38,0-0.67-0.11-0.87-0.33
			c-0.2-0.22-0.3-0.53-0.3-0.93v-2.34h0.27c-0.16,0.76-0.46,1.41-0.92,1.95c-0.45,0.54-1,0.96-1.67,1.26
			C247.6,122.38,246.86,122.53,246.04,122.53z"/>
		<path d="M260.11,122.47c-0.4,0-0.7-0.11-0.91-0.33c-0.21-0.22-0.32-0.53-0.32-0.93V108.7c0-0.4,0.1-0.71,0.3-0.92
			c0.2-0.21,0.49-0.31,0.87-0.31c0.38,0,0.67,0.1,0.88,0.31s0.31,0.52,0.31,0.92v2.43h-0.3c0.32-1.18,0.93-2.09,1.83-2.73
			c0.9-0.64,2.01-0.98,3.33-1.02c0.3-0.02,0.54,0.04,0.72,0.19c0.18,0.15,0.28,0.41,0.3,0.77c0.02,0.34-0.06,0.61-0.24,0.81
			c-0.18,0.2-0.46,0.32-0.84,0.36l-0.48,0.06c-1.36,0.12-2.41,0.56-3.14,1.31c-0.73,0.75-1.09,1.77-1.09,3.07v7.26
			c0,0.4-0.11,0.71-0.32,0.93S260.51,122.47,260.11,122.47z"/>
		<path d="M277.54,122.53c-1.54,0-2.86-0.3-3.97-0.92c-1.11-0.61-1.97-1.47-2.58-2.59s-0.92-2.46-0.92-4.02
			c0-1.52,0.3-2.85,0.9-3.98c0.6-1.13,1.42-2.01,2.47-2.66c1.05-0.64,2.26-0.96,3.65-0.96c0.98,0,1.86,0.17,2.64,0.5
			s1.44,0.81,2,1.42c0.55,0.62,0.97,1.37,1.26,2.25c0.29,0.88,0.44,1.87,0.44,2.97c0,0.32-0.09,0.55-0.27,0.71
			c-0.18,0.15-0.44,0.22-0.78,0.22h-10.44v-1.59h9.87l-0.48,0.39c0-1.08-0.16-2-0.48-2.75c-0.32-0.75-0.79-1.32-1.4-1.72
			c-0.61-0.4-1.38-0.6-2.29-0.6c-1.02,0-1.89,0.24-2.59,0.7c-0.71,0.47-1.25,1.12-1.61,1.95c-0.36,0.83-0.54,1.8-0.54,2.9v0.18
			c0,1.84,0.45,3.24,1.33,4.2s2.16,1.44,3.79,1.44c0.68,0,1.36-0.09,2.03-0.27s1.32-0.48,1.97-0.9c0.28-0.18,0.54-0.26,0.77-0.25
			c0.23,0.01,0.41,0.08,0.55,0.21c0.14,0.13,0.23,0.29,0.29,0.48c0.05,0.19,0.03,0.39-0.06,0.62c-0.09,0.22-0.27,0.41-0.53,0.57
			c-0.66,0.48-1.44,0.85-2.34,1.11C279.31,122.4,278.42,122.53,277.54,122.53z"/>
		<path d="M304.9,122.53c-0.94,0-1.86-0.08-2.76-0.24c-0.9-0.16-1.73-0.39-2.51-0.69c-0.77-0.3-1.46-0.68-2.08-1.14
			c-0.24-0.18-0.4-0.39-0.49-0.62c-0.09-0.23-0.11-0.46-0.06-0.69c0.05-0.23,0.15-0.42,0.3-0.58c0.15-0.16,0.34-0.25,0.56-0.27
			c0.22-0.02,0.46,0.05,0.72,0.21c0.9,0.64,1.86,1.11,2.88,1.39c1.02,0.29,2.17,0.44,3.45,0.44c1.8,0,3.13-0.33,4.01-1
			c0.87-0.67,1.3-1.56,1.3-2.66c0-0.9-0.31-1.61-0.95-2.12s-1.69-0.92-3.16-1.21l-3.12-0.63c-1.88-0.4-3.29-1.05-4.21-1.96
			s-1.39-2.12-1.39-3.65c0-0.94,0.19-1.79,0.57-2.56c0.38-0.77,0.91-1.43,1.59-1.98c0.68-0.55,1.49-0.97,2.43-1.28
			c0.94-0.3,1.98-0.45,3.12-0.45c1.26,0,2.44,0.17,3.53,0.52c1.09,0.35,2.07,0.88,2.96,1.58c0.22,0.18,0.37,0.39,0.45,0.62
			c0.08,0.23,0.09,0.45,0.03,0.66s-0.17,0.38-0.31,0.52c-0.15,0.14-0.34,0.22-0.57,0.24c-0.23,0.02-0.49-0.06-0.77-0.24
			c-0.8-0.6-1.63-1.04-2.49-1.3c-0.86-0.27-1.81-0.41-2.85-0.41c-1.06,0-1.97,0.16-2.74,0.48c-0.77,0.32-1.37,0.79-1.8,1.39
			c-0.43,0.61-0.64,1.32-0.64,2.12c0,0.96,0.29,1.72,0.88,2.28s1.55,0.97,2.89,1.23l3.12,0.66c2.02,0.42,3.52,1.06,4.49,1.91
			c0.97,0.85,1.46,2,1.46,3.46c0,0.88-0.18,1.69-0.54,2.43c-0.36,0.74-0.88,1.38-1.56,1.91c-0.68,0.53-1.5,0.94-2.46,1.21
			C307.18,122.39,306.1,122.53,304.9,122.53z"/>
		<path d="M323.77,122.53c-1.42,0-2.65-0.31-3.69-0.93c-1.04-0.62-1.85-1.5-2.41-2.62c-0.57-1.13-0.86-2.46-0.86-4
			c0-1.16,0.16-2.21,0.48-3.13c0.32-0.93,0.79-1.73,1.41-2.39c0.62-0.66,1.36-1.16,2.21-1.51c0.85-0.35,1.8-0.53,2.87-0.53
			c1.42,0,2.65,0.31,3.69,0.93c1.04,0.62,1.84,1.5,2.41,2.62s0.86,2.46,0.86,4c0,1.16-0.16,2.2-0.48,3.12s-0.79,1.71-1.41,2.38
			s-1.36,1.18-2.21,1.53S324.83,122.53,323.77,122.53z M323.77,120.58c0.9,0,1.69-0.22,2.37-0.66c0.68-0.44,1.21-1.08,1.57-1.92
			c0.37-0.84,0.55-1.85,0.55-3.03c0-1.82-0.4-3.21-1.21-4.17c-0.81-0.96-1.9-1.44-3.29-1.44c-0.92,0-1.71,0.21-2.38,0.65
			c-0.67,0.43-1.19,1.06-1.56,1.89c-0.37,0.83-0.55,1.86-0.55,3.08c0,1.8,0.41,3.18,1.23,4.16
			C321.32,120.1,322.41,120.58,323.77,120.58z"/>
		<path d="M340.36,122.53c-1.44,0-2.54-0.44-3.3-1.32s-1.14-2.14-1.14-3.78v-15.3c0-0.4,0.1-0.71,0.3-0.92
			c0.2-0.21,0.5-0.32,0.9-0.32c0.38,0,0.68,0.11,0.9,0.32c0.22,0.21,0.33,0.51,0.33,0.92v15.12c0,1.08,0.21,1.88,0.65,2.41
			c0.43,0.53,1.06,0.8,1.9,0.8c0.18,0,0.34-0.01,0.48-0.03c0.14-0.02,0.28-0.03,0.42-0.03c0.22-0.02,0.38,0.03,0.46,0.15
			s0.13,0.36,0.13,0.72s-0.08,0.63-0.24,0.81c-0.16,0.18-0.42,0.3-0.78,0.36c-0.16,0.02-0.33,0.04-0.51,0.06
			C340.69,122.52,340.52,122.53,340.36,122.53z"/>
		<path d="M351.49,122.53c-1.18,0-2.15-0.21-2.93-0.64c-0.77-0.43-1.35-1.08-1.74-1.94c-0.39-0.86-0.59-1.93-0.59-3.21v-8.04
			c0-0.42,0.11-0.73,0.31-0.93c0.21-0.2,0.51-0.3,0.88-0.3c0.4,0,0.71,0.1,0.92,0.3c0.21,0.2,0.31,0.51,0.31,0.93v8.01
			c0,1.28,0.27,2.23,0.79,2.86s1.37,0.95,2.51,0.95c1.24,0,2.25-0.42,3.03-1.26c0.78-0.84,1.17-1.94,1.17-3.3v-7.26
			c0-0.42,0.11-0.73,0.31-0.93c0.21-0.2,0.52-0.3,0.92-0.3c0.38,0,0.68,0.1,0.88,0.3c0.21,0.2,0.31,0.51,0.31,0.93v12.51
			c0,0.84-0.39,1.26-1.17,1.26c-0.38,0-0.67-0.11-0.88-0.33c-0.21-0.22-0.31-0.53-0.31-0.93v-2.73l0.39,0.42
			c-0.4,1.18-1.06,2.08-1.96,2.7C353.74,122.22,352.69,122.53,351.49,122.53z"/>
		<path d="M370.54,122.53c-1.14,0-2.09-0.21-2.87-0.62c-0.77-0.41-1.34-1.01-1.72-1.8c-0.38-0.79-0.57-1.75-0.57-2.89v-7.65h-2.01
			c-0.34,0-0.6-0.08-0.78-0.25s-0.27-0.41-0.27-0.71s0.09-0.53,0.27-0.69s0.44-0.24,0.78-0.24h2.01v-3.45c0-0.4,0.11-0.71,0.33-0.92
			c0.22-0.21,0.52-0.31,0.9-0.31c0.38,0,0.68,0.1,0.88,0.31c0.21,0.21,0.32,0.52,0.32,0.92v3.45h3.78c0.34,0,0.6,0.08,0.78,0.24
			s0.27,0.39,0.27,0.69s-0.09,0.54-0.27,0.71s-0.44,0.25-0.78,0.25h-3.78v7.41c0,1.14,0.24,2,0.72,2.59
			c0.48,0.59,1.26,0.89,2.34,0.89c0.38,0,0.71-0.04,0.97-0.12c0.27-0.08,0.5-0.12,0.68-0.12c0.18-0.02,0.33,0.04,0.45,0.18
			c0.12,0.14,0.18,0.38,0.18,0.72c0,0.24-0.04,0.46-0.13,0.66c-0.09,0.2-0.25,0.34-0.47,0.42c-0.24,0.08-0.55,0.16-0.94,0.23
			C371.21,122.5,370.86,122.53,370.54,122.53z"/>
		<path d="M378.1,104.17c-0.5,0-0.89-0.14-1.17-0.41c-0.28-0.27-0.42-0.63-0.42-1.09c0-0.48,0.14-0.84,0.42-1.1
			c0.28-0.25,0.67-0.38,1.17-0.38c0.52,0,0.91,0.12,1.19,0.38c0.27,0.25,0.4,0.62,0.4,1.1c0,0.46-0.13,0.82-0.4,1.09
			C379.01,104.04,378.62,104.17,378.1,104.17z M378.1,122.41c-0.4,0-0.7-0.12-0.9-0.34s-0.3-0.55-0.3-0.97v-12.27
			c0-0.42,0.1-0.74,0.3-0.96c0.2-0.22,0.5-0.33,0.9-0.33c0.38,0,0.68,0.11,0.9,0.33c0.22,0.22,0.33,0.54,0.33,0.96v12.27
			c0,0.42-0.11,0.75-0.32,0.97C378.8,122.3,378.5,122.41,378.1,122.41z"/>
		<path d="M391.45,122.53c-1.42,0-2.65-0.31-3.69-0.93c-1.04-0.62-1.85-1.5-2.42-2.62s-0.86-2.46-0.86-4c0-1.16,0.16-2.21,0.48-3.13
			c0.32-0.93,0.79-1.73,1.41-2.39c0.62-0.66,1.36-1.16,2.21-1.51c0.85-0.35,1.8-0.53,2.87-0.53c1.42,0,2.65,0.31,3.69,0.93
			s1.85,1.5,2.42,2.62c0.57,1.13,0.85,2.46,0.85,4c0,1.16-0.16,2.2-0.48,3.12c-0.32,0.92-0.79,1.71-1.41,2.38
			c-0.62,0.67-1.36,1.18-2.21,1.53C393.46,122.36,392.51,122.53,391.45,122.53z M391.45,120.58c0.9,0,1.69-0.22,2.37-0.66
			c0.68-0.44,1.21-1.08,1.58-1.92c0.37-0.84,0.55-1.85,0.55-3.03c0-1.82-0.41-3.21-1.21-4.17c-0.81-0.96-1.91-1.44-3.29-1.44
			c-0.92,0-1.71,0.21-2.38,0.65c-0.67,0.43-1.19,1.06-1.56,1.89c-0.37,0.83-0.55,1.86-0.55,3.08c0,1.8,0.41,3.18,1.23,4.16
			C389,120.1,390.09,120.58,391.45,120.58z"/>
		<path d="M404.8,122.47c-0.4,0-0.7-0.11-0.9-0.33s-0.3-0.53-0.3-0.93V108.7c0-0.4,0.1-0.71,0.3-0.92s0.49-0.31,0.87-0.31
			c0.38,0,0.67,0.1,0.88,0.31c0.21,0.21,0.31,0.52,0.31,0.92v2.58l-0.33-0.36c0.42-1.16,1.11-2.04,2.05-2.62s2.04-0.89,3.29-0.89
			c1.16,0,2.12,0.21,2.89,0.63c0.77,0.42,1.35,1.06,1.73,1.91c0.38,0.85,0.57,1.93,0.57,3.23v8.04c0,0.4-0.1,0.71-0.31,0.93
			c-0.21,0.22-0.51,0.33-0.88,0.33c-0.4,0-0.71-0.11-0.91-0.33c-0.21-0.22-0.32-0.53-0.32-0.93v-7.89c0-1.36-0.27-2.35-0.79-2.98
			c-0.53-0.63-1.38-0.95-2.54-0.95c-1.34,0-2.4,0.42-3.2,1.25c-0.79,0.83-1.18,1.93-1.18,3.31v7.26
			C406.03,122.05,405.62,122.47,404.8,122.47z"/>
		<path d="M433,122.47c-0.4,0-0.71-0.12-0.91-0.34c-0.21-0.23-0.31-0.54-0.31-0.95v-18.81c0-0.42,0.11-0.73,0.33-0.94
			c0.22-0.21,0.53-0.32,0.93-0.32h7.11c2.26,0,4,0.55,5.22,1.67c1.22,1.11,1.83,2.67,1.83,4.7c0,2-0.61,3.56-1.83,4.68
			c-1.22,1.12-2.96,1.68-5.22,1.68h-5.91v7.35c0,0.4-0.1,0.71-0.3,0.95C433.73,122.36,433.42,122.47,433,122.47z M434.23,111.76
			h5.61c1.62,0,2.85-0.37,3.68-1.1c0.83-0.73,1.24-1.79,1.24-3.19c0-1.42-0.41-2.5-1.24-3.23c-0.83-0.73-2.05-1.09-3.68-1.09h-5.61
			V111.76z"/>
		<path d="M457.39,122.47c-0.34,0-0.64-0.1-0.9-0.29s-0.48-0.48-0.66-0.88l-5.19-12.12c-0.14-0.3-0.19-0.58-0.15-0.84
			c0.04-0.26,0.16-0.47,0.36-0.63c0.2-0.16,0.48-0.24,0.84-0.24c0.32,0,0.57,0.07,0.75,0.21s0.34,0.39,0.48,0.75l4.92,12.03h-0.81
			l5.01-12.03c0.14-0.36,0.3-0.61,0.48-0.75s0.44-0.21,0.78-0.21c0.32,0,0.56,0.08,0.74,0.24c0.17,0.16,0.27,0.36,0.3,0.61
			c0.03,0.25-0.02,0.53-0.13,0.83l-5.25,12.15c-0.14,0.4-0.35,0.7-0.62,0.88S457.75,122.47,457.39,122.47z"/>
		<path d="M475.09,122.53c-1.14,0-2.09-0.21-2.87-0.62c-0.77-0.41-1.34-1.01-1.72-1.8c-0.38-0.79-0.57-1.75-0.57-2.89v-7.65h-2.01
			c-0.34,0-0.6-0.08-0.78-0.25s-0.27-0.41-0.27-0.71s0.09-0.53,0.27-0.69s0.44-0.24,0.78-0.24h2.01v-3.45c0-0.4,0.11-0.71,0.33-0.92
			c0.22-0.21,0.52-0.31,0.9-0.31c0.38,0,0.68,0.1,0.88,0.31c0.21,0.21,0.32,0.52,0.32,0.92v3.45h3.78c0.34,0,0.6,0.08,0.78,0.24
			s0.27,0.39,0.27,0.69s-0.09,0.54-0.27,0.71s-0.44,0.25-0.78,0.25h-3.78v7.41c0,1.14,0.24,2,0.72,2.59
			c0.48,0.59,1.26,0.89,2.34,0.89c0.38,0,0.71-0.04,0.97-0.12c0.27-0.08,0.5-0.12,0.68-0.12c0.18-0.02,0.33,0.04,0.45,0.18
			c0.12,0.14,0.18,0.38,0.18,0.72c0,0.24-0.04,0.46-0.13,0.66c-0.09,0.2-0.25,0.34-0.47,0.42c-0.24,0.08-0.55,0.16-0.94,0.23
			C475.76,122.5,475.41,122.53,475.09,122.53z"/>
		<path d="M482.86,122.38c-0.5,0-0.9-0.16-1.2-0.47c-0.3-0.31-0.45-0.7-0.45-1.18c0-0.48,0.15-0.88,0.45-1.18
			c0.3-0.31,0.7-0.47,1.2-0.47s0.89,0.16,1.19,0.47c0.29,0.31,0.44,0.71,0.44,1.18c0,0.48-0.15,0.88-0.44,1.18
			C483.75,122.23,483.36,122.38,482.86,122.38z"/>
		<path d="M500.92,122.26c-0.4,0-0.71-0.12-0.93-0.35c-0.22-0.23-0.33-0.54-0.33-0.94v-18.72c0-0.42,0.11-0.74,0.31-0.96
			c0.21-0.22,0.52-0.33,0.92-0.33s0.71,0.11,0.91,0.33c0.21,0.22,0.32,0.54,0.32,0.96v17.85h9.84c0.36,0,0.64,0.09,0.84,0.29
			c0.2,0.19,0.3,0.46,0.3,0.79s-0.1,0.61-0.3,0.79c-0.2,0.19-0.48,0.29-0.84,0.29H500.92z"/>
		<path d="M522.25,122.53c-1.14,0-2.1-0.21-2.87-0.62c-0.77-0.41-1.35-1.01-1.72-1.8c-0.38-0.79-0.57-1.75-0.57-2.89v-7.65h-2.01
			c-0.34,0-0.6-0.08-0.78-0.25c-0.18-0.17-0.27-0.41-0.27-0.71s0.09-0.53,0.27-0.69c0.18-0.16,0.44-0.24,0.78-0.24h2.01v-3.45
			c0-0.4,0.11-0.71,0.33-0.92c0.22-0.21,0.52-0.31,0.9-0.31c0.38,0,0.67,0.1,0.88,0.31c0.21,0.21,0.31,0.52,0.31,0.92v3.45h3.78
			c0.34,0,0.6,0.08,0.78,0.24s0.27,0.39,0.27,0.69s-0.09,0.54-0.27,0.71s-0.44,0.25-0.78,0.25h-3.78v7.41c0,1.14,0.24,2,0.72,2.59
			c0.48,0.59,1.26,0.89,2.34,0.89c0.38,0,0.71-0.04,0.97-0.12s0.49-0.12,0.68-0.12c0.18-0.02,0.33,0.04,0.45,0.18
			c0.12,0.14,0.18,0.38,0.18,0.72c0,0.24-0.04,0.46-0.13,0.66c-0.09,0.2-0.25,0.34-0.46,0.42c-0.24,0.08-0.55,0.16-0.95,0.23
			C522.92,122.5,522.57,122.53,522.25,122.53z"/>
		<path d="M533.83,122.53c-1.3,0-2.44-0.31-3.41-0.93c-0.97-0.62-1.72-1.5-2.25-2.62c-0.53-1.13-0.79-2.46-0.79-4
			c0-1.56,0.27-2.91,0.79-4.04c0.53-1.13,1.28-2,2.25-2.61c0.97-0.61,2.11-0.92,3.41-0.92c1.32,0,2.45,0.33,3.39,0.99
			c0.94,0.66,1.57,1.55,1.89,2.67h-0.33v-8.94c0-0.4,0.11-0.71,0.31-0.92c0.21-0.21,0.52-0.32,0.92-0.32c0.38,0,0.67,0.11,0.88,0.32
			s0.31,0.51,0.31,0.92v19.08c0,0.4-0.1,0.71-0.3,0.93c-0.2,0.22-0.5,0.33-0.9,0.33c-0.38,0-0.68-0.11-0.88-0.33
			c-0.21-0.22-0.32-0.53-0.32-0.93v-2.85l0.33,0.42c-0.32,1.14-0.96,2.05-1.9,2.73S535.15,122.53,533.83,122.53z M534.34,120.58
			c0.9,0,1.69-0.22,2.37-0.66c0.68-0.44,1.21-1.08,1.58-1.92c0.37-0.84,0.55-1.85,0.55-3.03c0-1.82-0.41-3.21-1.21-4.17
			c-0.81-0.96-1.91-1.44-3.29-1.44c-0.92,0-1.71,0.21-2.38,0.65c-0.67,0.43-1.19,1.06-1.56,1.89c-0.37,0.83-0.55,1.86-0.55,3.08
			c0,1.8,0.41,3.18,1.23,4.16C531.89,120.1,532.98,120.58,534.34,120.58z"/>
		<path d="M548.47,122.38c-0.5,0-0.9-0.16-1.2-0.47c-0.3-0.31-0.45-0.7-0.45-1.18c0-0.48,0.15-0.88,0.45-1.18
			c0.3-0.31,0.7-0.47,1.2-0.47c0.5,0,0.89,0.16,1.18,0.47c0.29,0.31,0.44,0.71,0.44,1.18c0,0.48-0.14,0.88-0.44,1.18
			C549.36,122.23,548.97,122.38,548.47,122.38z"/>
	</g>
</g>
</svg>
