<?xml version="1.0" encoding="utf-8"?>
<!-- Generator: Adobe Illustrator 27.3.1, SVG Export Plug-In . SVG Version: 6.00 Build 0)  -->
<svg version="1.1" id="Layer_1" xmlns="http://www.w3.org/2000/svg" xmlns:xlink="http://www.w3.org/1999/xlink" x="0px" y="0px"
	 viewBox="0 0 948.3 178.5" style="enable-background:new 0 0 948.3 178.5;" xml:space="preserve">
<style type="text/css">
	.st0{fill:#FFFFFF;}
	.st1{stroke:#FFFFFF;stroke-miterlimit:10;}
	.st2{font-family:'Arial-Black';}
	.st3{font-size:88px;}
	.st4{font-size:33px;}
	.st5{letter-spacing:1;}
</style>
<g>
	<path d="M129.9,115.5c0.6-0.4,1.2-0.7,1.8-1c4.7-3,7.5-8.5,6-13.3c-1-3.4-2-6.9-3-10.4c-1.1-3.8-4.2-6.1-7.8-7.4
		c0.1-0.4,0.1-0.6,0.2-0.7c6-4.6,6.7-10.2,3.7-16.8c-0.3-0.6-0.4-1.4-0.2-1.9c1-2.6-0.1-4.6-1.8-6.4c-0.5-0.5-0.8-1.1-1.2-1.6
		c-1.1-1.4-2.2-2.8-3.4-4.2c-0.3-0.4-0.9-0.7-0.9-1.1c-0.7-4.1-3.2-7.2-5.6-10.5c-2.9-3.8-5.3-4.9-9.9-3.4c-1.8,0.6-3.5,1.5-5.4,2.3
		c-0.9-7.6-4.5-13.3-10.9-17.2c-1.7-1.1-3.7-1.7-3.7-4.3c0-0.6-1-1.3-1.6-1.9c-1.6-1.9-3.1-3.8-3-6.5c0.1-2.9-2.4-6.2-5.2-6.8
		c-2.2-0.5-5,1.3-6.1,4.1c-0.4,0.9-0.4,2-0.5,3c-0.1,0.6,0.1,1.3-0.2,1.7c-1.2,1.9-2.5,3.7-3.7,5.5c-0.4,0.6-0.4,1.3-0.8,1.8
		c-0.6,0.9-1,2.1-1.9,2.5c-6.1,3.6-10.3,8.5-11.8,15.6c-0.2,1-0.6,1.9-0.6,2.2c-3.7-0.5-7-1.5-10.2-1.3c-5.2,0.4-7.1,5.2-4.3,9.6
		c0.5,0.8,0.9,1.7,1.4,2.7c-1.1,0.5-2,0.9-2.8,1.3c-2.6,1.6-5,3.4-5.5,6.6c-0.6,3.9-5.3,4.6-6.2,8.2c0,0-0.2,0-0.2,0.1
		c-2.3,1.2-3,2.9-2.5,5.5c0.2,1,0,2.3-0.5,3.2c-2.1,3.9-2.5,7.7-0.2,11.7c0.6,1.1-0.2,5.4-1.3,5.9c-3.1,1.4-3.4,4.1-3,6.9
		c0.8,6.4,3.6,11.8,8.6,16.1c-0.4,0.5-0.7,0.9-1,1.2c-9.4,10.7-3.8,28.3,9.9,32.3c3.9,1.1,7.5,3.4,11.3,5.2c0.3,0.1,0.5,0.5,0.6,0.8
		c1.3,2.7,3.7,3.3,6.3,3.6c1.9,0.2,3.7,0.6,5.6,0.9c-0.1,0.6-0.2,1.2-0.3,1.7c0.4,0.6,0.6,1.4,0.7,2.1c0.5,0.5,0.9,1.1,1.2,1.7
		c0.4,0.2,0.8,0.5,1.1,0.8c0.1,0,0.3,0,0.4,0c0.6,0,1.1,0.2,1.5,0.4c3.7,0.1,7.4,0.1,11,0.1c2.2,0,4.4,0,6.7,0
		c4.1-0.3,8.2-0.7,12.4-1.2c1.4-1.3,2.4-2.9,3-5.1c0-1,0.1-2.1,0.2-3.2c2-0.3,4.2-0.5,6.2-1.1c1.9-0.6,3.6-1.6,5.4-2.5
		c0.6-0.3,1.1-0.8,1.7-1.1c4.1-1.5,8.3-2.9,12.4-4.5c1.4-0.5,2.8-1.3,4-2.2c9.3-7,11.1-20.2,4.2-29.4
		C130,116.1,130,115.8,129.9,115.5z M132.7,101c0.1-0.7,0.5-1.4,0.8-2.1c0.5,0.6,1.5,1.2,1.5,1.7c0,2.5-0.2,5-0.7,7.4
		c-0.1,0.5-1.6,0.9-2.5,1.2c-1,0.3-2,0.8-3.1,0.8c-2.5,0-5-0.2-7.5-0.4c-0.2,0-0.4-0.1-0.5-0.1c-3.9,1.8-3.3-0.9-3.4-3.2
		c-0.1-2.1-0.8-4.2-1-6.3c-0.1-0.7,0.2-1.5,0.4-2.2c0.5,0.6,1.3,1.2,1.5,2c0.5,2.1,0.6,4.2,1.1,6.3c0.1,0.7,0.7,1.4,1,2.1
		c0.3-0.1,0.5-0.1,0.8-0.2c0-0.8,0-1.7,0-2.5c-0.1-2.2-0.4-4.4-0.1-6.6c0.1-0.9,1.3-1.7,2-2.5c0.5,0.9,1.3,1.7,1.5,2.6
		c0.3,2.4,0.3,4.8,0.5,7.1c0.1,0.8,0.2,1.5,0.4,2.3c0.3,0,0.6,0,0.8,0.1c0.2-0.8,0.6-1.6,0.6-2.4c0.1-2.6-0.1-5.1,0.1-7.7
		c0-0.7,0.7-1.4,1-2.1c0.8,0.5,2.2,1,2.2,1.6c0.3,2.6,0.2,5.2,0.3,7.8c0,0.8,0.3,1.6,0.5,2.4c0.5-0.7,1.3-1.3,1.5-2
		C132.5,104.4,132.4,102.7,132.7,101z M131.3,90.8c-1.2-0.7-2.5-1.4-4.3-2.4c0.4,2.1,0.7,3.4,1,5.1c-4.5,0.8-8.9,1.5-13.3,2.2
		c-1.7-2.5,0.1-6.7,3.9-8.8C123.4,84.4,129.2,86.2,131.3,90.8z M128.1,77.1c-1.7,1.3-3.6,2.5-5.4,3.7c-0.4-0.1-0.8-0.1-1.1-0.2
		c-0.9-3.5-2-6.9-2.7-10.5c-0.2-0.9,1-2,1.6-3c0.2-0.3,0.7-0.5,1.1-0.6c2.1-0.5,4.6-3.4,6.3-0.7C130.9,71,131,74.8,128.1,77.1z
		 M128.7,62.3c-2.6,0.8-5.2,1.6-7.8,2.3c-0.9,0.2-1.9,0.2-2.7-0.2c-1.2-0.6-1.7-1.8-0.2-2.5c2.4-1.2,4.9-2.3,7.5-3
		C127.6,58.4,128.6,59.8,128.7,62.3z M125.4,56.4c-2.2,0.8-4.3,1.8-6.5,2.3c-0.8,0.2-1.8-0.7-2.7-1.1c0.4-0.6,0.7-1.5,1.3-1.8
		c1.4-0.8,2.9-1.4,4.4-1.8C123.9,53.4,125,54.4,125.4,56.4z M117.8,45.1c4.1,5.3,3.8,7-1.6,8.3C116.7,50.6,117.2,48.1,117.8,45.1z
		 M99.6,68.2c3.3,2,6.2,3.7,9.2,5.5c0.1-0.2,0.2-0.4,0.3-0.5c-2.5-2.8-5-5.7-7.5-8.5c0.1-0.2,0.2-0.3,0.3-0.5c2,0.8,4,1.7,6,2.6
		c0.1-0.1,0.1-0.3,0.2-0.4c-1.8-1.8-3.6-3.6-5.4-5.4c-1.2-1.2-1.2-2.1,0.2-3.1c1.8-1.3,3.4-2.7,5-4.5c-1.6,0.2-3.2,0.4-4.7,0.6
		c-0.1-0.2-0.3-0.3-0.4-0.5c2.3-2.7,4.5-5.4,6.8-8.1c-0.1-0.2-0.2-0.3-0.3-0.5c-1.6,0.7-3.1,1.3-4.8,2.1c-0.2-1.7-0.3-3.1-0.4-4.6
		c0-0.2,0-0.7,0.1-0.7c2.3-1,4.5-2.3,6.9-2.8c2-0.5,3.6,0.9,4.3,2.9c0.3,1,0.4,2.3,0,3.2c-3.1,5.7-2.5,11.8-1.4,17.8
		c1,5.5,2.7,10.9,4,16.4c0.1,0.4,0.1,0.8,0.3,1.5c-7.5-0.3-13.7-3.1-18.7-8.4C98.8,71.5,99.5,69.6,99.6,68.2z M113.3,84.7
		c-5.7,1.8-7.5,1.3-11.1-2.9C105.8,82.8,109.4,83.7,113.3,84.7z M96,43.1c-1.9,0.1-2.7-0.6-2.6-2.6c0.2-1.8,0-3.7,0-5.5
		C96,35.7,96.9,38.4,96,43.1z M95.3,32.7c-4.7-1.2-3.7-6.2-6.5-8.3C92.1,25.1,95.1,28.8,95.3,32.7z M88,33.5c3,0,4.1,2.8,3,7.4
		c-1.9,0.2-3.3-0.1-3.1-2.6C88.2,36.7,88,35.1,88,33.5z M89.6,30.9c-1.9-0.3-3.4-0.3-4.7-0.7c-0.6-0.1-1.3-0.8-1.5-1.3
		c-0.7-2.2-1.1-4.6-1.7-7.3C85.6,23.7,87.9,26.7,89.6,30.9z M85.6,39.6c0,0.2-1.7,0.6-2.5,0.5c-0.5-0.1-1.2-0.9-1.2-1.5
		c-0.2-1.9-0.1-3.9-0.1-6.5c1.3,0.5,3.2,0.8,3.5,1.6C85.9,35.5,85.7,37.6,85.6,39.6z M77.3,4.9c1,1,2,2,3,3c-1,0.8-2.1,1.6-3.5,2.8
		c-1.2-1.2-1.9-1.9-2.7-2.6C75.2,7,76.2,6,77.3,4.9z M82.4,13.5h-9.9C74.9,11.4,79.1,11.3,82.4,13.5z M71.3,16.6
		c4.2-1.3,8.3-1.3,12.4,0c0,0.3,0,0.6,0.1,0.9c-1.1,0.2-2.2,0.5-3.3,0.6c-2.9,0.2-5.8,0.4-8.6,0.5c-0.6,0-1.3-0.4-1.9-0.7
		C70.4,17.5,70.7,16.8,71.3,16.6z M74.2,29.7c0.6-3.2,0.9-6.4,3.1-8.8c0.3,0,0.7-0.1,1-0.1c0.9,2.8,1.9,5.7,3,8.9H74.2z M79.8,36.3
		c0,2.9-0.9,3.9-3.3,3.5c-0.7-0.1-1.5-1.1-1.8-1.8c-0.3-0.9-0.1-2,0-3c0.1-1.5,0.3-2.7,2.4-2.8c2.1,0,2.3,1.3,2.5,2.7
		C79.8,35.5,79.8,36.1,79.8,36.3z M73.5,21.6c-0.6,2.7-1.1,5-1.8,7.3c-0.1,0.5-0.8,1-1.3,1.2c-1.4,0.3-2.8,0.4-4.8,0.6
		C67.4,26.5,69.6,23.6,73.5,21.6z M72.7,37.9c0.1,1.9-1,2-2.4,2.2c-1.7,0.2-1.7-0.9-1.7-2.1c0-0.7,0-1.4,0-2
		c0.3-3.2,0.9-3.7,4.3-3.3C72.8,34.5,72.5,36.2,72.7,37.9z M66.6,39.5c0,2.1-1.4,2.1-2.9,2.2c-1.6-4.5-0.4-8.1,2.9-8.5
		C66.6,35.5,66.6,37.5,66.6,39.5z M65.9,24.5c-2.4,2.3-1.5,7.3-6.2,7.8C58.7,29.5,61.2,26.3,65.9,24.5z M59,36.3
		c0.2-0.9,0.8-1.7,1.2-2.5c0.4,0.3,0.8,0.7,1.1,1c0,2.5,0.1,4.9-0.1,7.4c-0.1,0.7-1.1,1.3-1.7,1.9c-0.4-0.6-1.3-1.2-1.3-1.8
		C58.3,40.3,58.6,38.3,59,36.3z M60.7,46.7c11.1-4.9,22.3-4.9,33.5-0.6c2.6,1,3.9,2.9,4,5.9c0.3,7.3-1.3,14-5,20.3
		c-1.2,2.1-2.6,4.4,0,6.5c-2.2,1.5-4.3,2.9-6.2,4.4c-0.5,0.4-0.6,1.4-0.8,2.1c0.7-0.2,1.6-0.2,2.1-0.6c2.3-2,4.6-3.7,8.5-3.6
		c-1.9,1.5-3.5,2.4-4.7,3.7c-0.6,0.6-0.8,1.8-1.1,2.7c0.8-0.4,1.8-0.6,2.4-1.2c1.8-1.6,3.6-2.9,6.6-2.5c-1.8,1.5-3.1,2.6-4.3,3.8
		c-0.4,0.4-0.2,1.3-0.3,2c0.6-0.2,1.3-0.4,1.9-0.7c1.3-0.8,2.5-1.7,3.8-2.4c0.5-0.2,1.4-0.1,1.9,0.3c7.1,5.9,12.2,12.9,11.6,22.7
		c-0.4,5.9-3.9,10.1-8.9,12.4c-5.7,2.7-11.5,1.7-16.3-2.4c-4.5-3.8-5.8-8.9-4.5-14.6c1-4.3,3.9-7.1,7.7-9.1c1.6-0.8,4.8,0.9,6.5,3.8
		c-2.7-0.3-5.1-0.5-7.7-0.7c0.5,0.8,0.9,1.4,1,1.6c-0.7,2.7-1.8,5-2,7.3c-0.4,5,3.4,8.4,8.6,8.1c5-0.2,8.3-3.9,7.8-8.8
		c-0.5-5.2-3-9.3-7.4-11.9c-3.7-2.1-7.6-3.7-11.5-5.5c-4.9-2.3-10.2-4.2-14.7-7.1c-10.8-7-15.7-17.3-16-30
		C57.1,49.7,58.2,47.8,60.7,46.7z M86.8,138.2c-8.9,3.3-18,3.8-26.6-1c-2.7-1.5-4.8-4-7-6.2c-0.3-0.3,0.1-1.6,0.4-2.3
		c3.2-7.8,8.6-13.8,15.6-18.5c4.4-2.9,8.8-5.7,13.5-8.7c-0.2,0.8-0.4,1.5-0.5,2.2c-0.2,2.3-0.8,4.7-0.4,6.8c1.5,7,4.5,13.3,10.2,18
		c1.6,1.3,2.1,2.8,0.9,4.1C91.1,134.8,89.2,137.3,86.8,138.2z M93.3,153.2c-2.1,0.5-5.4-2.1-6.6-5.6c-0.8-2.3-0.2-3.6,1.8-4.4
		C90,146.4,91.6,149.8,93.3,153.2z M50,124.9c3.5-8.1,9-14.7,16.7-19.1c5.3-3.1,10.5-6.4,14.1-11.5c0.3-0.5,1.6-0.4,2.4-0.5
		c-0.1,0.7,0.1,1.6-0.2,2.2c-1.8,3.1-4.1,5.6-7.3,7.4c-3.5,2-6.9,4.2-10.1,6.5c-6.2,4.5-10.9,10.2-14,17.3c-0.3,0.6-0.6,1.2-0.9,1.7
		c-0.3,0-0.6-0.1-0.9-0.1C49.8,127.4,49.5,126,50,124.9z M65,79.8c1.2,1.1,2.4,2.2,3.9,3.5c-3,3.5-6.4,4.7-10.8,4.5
		c2.9-2.2,5.5-4.2,8.1-6.2C65.8,81,65.4,80.4,65,79.8z M57.5,84.1c-0.8,1.2-1.8,2.7-1.6,3.9c0.1,0.9,2,1.5,3.1,2.3
		c4.2,3.1,8.3,1,12.5-0.1c2.7-0.7,5.2,0.1,7.1,2.2c-1.7,4.8-7.5,5.9-15.5,6.8c0.5-2.6,0.3-2.7-2.2-2c-0.9,0.3-1.9,0-3.2,0
		c0.3,0.8,0.5,1.5,0.8,2.1c-4.6,1.2-7.7-1-7.9-5.7c-0.2-4.9,3.8-10.3,9.6-12.2C59.3,82.3,58.2,83.1,57.5,84.1z M59,101.9
		c3.1-1.1,6.7-1.1,10.3-1.2c-9.1,5.6-16.7,12.5-21.2,22.4c-3.3-4.3-2.6-12.2,1.8-16.1C52.4,104.8,55.7,103,59,101.9z M102.6,110.3
		c0.3,2.3-1.8,2.2-3.3,2.7c-0.3,0.1-0.7,0.1-1.3,0.1c-0.6-0.2-1.5-0.3-2.2-0.7c-1.5-0.8-3.1-2-2.2-3.7c0.5-0.9,2.5-1.1,3.8-1.5
		c0.4-0.1,1.1,0.3,1.5,0.2C101.6,106.6,102.4,108.3,102.6,110.3z M56,37.4v7.7C54.8,42.5,54.2,40.3,56,37.4z M41.9,51.4
		c-0.2-1.9-0.9-3.8-1.9-5.4c-1.8-3.2-0.8-5.7,2.8-6c2.1-0.1,4.4,0.4,6.4,1.1c2.3,0.8,3.4,2.6,2.8,5.3h-5.4c2.6,2.4,4.9,4.6,7.3,6.8
		c-0.1,0.3-0.2,0.6-0.3,0.9c-1.8,0.2-3.7,0.3-6.3,0.6c2.6,1.7,4.7,3,7.2,4.6c-2.6,1.9-5,3.7-7.3,5.5l0.2,0.4
		c2.3-0.4,4.6-0.8,6.9-1.2c0.2,0.2,0.4,0.4,0.5,0.5c-2.4,2.6-4.7,5.2-7.1,7.8c0.1,0.2,0.3,0.5,0.4,0.7c3-1.6,6-3.1,9.1-4.8
		c1.4,1.4,1.1,2.8-0.8,4.3c-5.1,4.3-11,6.7-18,7c0.2-1,0.4-1.8,0.6-2.6C41.5,68.6,42.9,60.1,41.9,51.4z M32.8,58.8
		c0.8-2.8,2.5-4.5,5-5.9c1.5,1.7,1.8,3.3,0.7,5.1c-0.3,0.6-0.5,1.3-0.6,1.9c-0.2,1.4-0.5,2.8-2.5,2.4C33.7,61.9,32.1,61.4,32.8,58.8
		z M28.1,64.9c0.5-0.8,1.4-1.8,2.1-1.8c3.1,0.2,5.9,1.3,8.6,4.3c-1.6,0.4-2.7,1-3.6,0.8c-2.1-0.3-4.1-0.9-6.1-1.6
		C28.6,66.4,28,65.2,28.1,64.9z M26.7,68.2c3.8,0.6,7.3,2.1,10,5c0,0.3,0.1,0.7,0.1,1c-1.3,0.2-2.8,0.7-4,0.5
		c-2.4-0.5-4.8-1.2-7-2.2c-0.8-0.4-1.6-1.9-1.6-2.9C24.2,69.2,25.9,68.1,26.7,68.2z M24.1,75.7c0.4-0.5,1.6-0.9,2.1-0.6
		c2.9,1.2,5.8,2.5,8.5,4c0.5,0.3,0.5,1.5,0.8,2.6c0.9,0.1,2.1,0.3,3.4,0.4c-0.1,0.2-0.2,0.4-0.3,0.6c0.8,0.5,1.6,1.3,2.4,1.3
		c3.3,0.1,6.6,0.1,9.7,0.1C50,86,49,88.1,47.9,90.2c-0.3,0.5-1.2,0.8-1.8,0.9c-0.9,0.1-1.8-0.2-2.9-0.4c-1.7-4.1-3-4.9-7-4
		c-3.4-4-5.4-4-8.6,0C22.2,85.3,20.5,80.1,24.1,75.7z M35.4,98.2c-1.6,0.3-2.7,0.5-4.2,0.8c-0.4-3.5-0.9-6.8-1-10
		c0-0.9,1.1-1.8,1.7-2.7c0.6,0.8,1.7,1.5,1.9,2.3C34.4,91.6,34.8,94.7,35.4,98.2z M29.3,99.5c-1.1,0.4-2,0.6-3.4,1.1
		c-0.8-3-1.7-5.9-2.3-8.9c-0.1-0.7,0.8-1.6,1.3-2.4c0.7,0.6,1.8,1.1,2.1,1.8C27.8,93.8,28.4,96.5,29.3,99.5z M19.5,98
		c-0.1-1.1,0.8-2.2,1.2-3.3c0.3,0.1,0.6,0.1,1,0.2c0.8,2.1,1.6,4.2,2.4,6.3c-0.5,0.3-0.9,0.5-1.1,0.8c-0.4,0.5-0.6,1-0.8,1.6
		c0.6,0.1,1.3,0.3,1.8,0.2c2.8-0.8,5.5-1.9,8.2-2.7c1.7-0.5,3.5-0.6,5.3-0.9c0.5-0.1,1-0.5,1.4-0.8c-0.3-0.4-0.7-0.8-0.8-1.2
		c-0.2-2.9-0.4-5.8-0.5-8.8c0-0.1,1-0.5,1.3-0.4c0.6,0.3,1.4,0.9,1.4,1.3c0,3.7-0.1,7.5-0.5,11.1c-0.1,0.9-2.1,1.4-2.8,2.4
		c-1.9,2.7-4.3,2.9-7.2,2.4c-0.8-0.1-1.7,0.4-2.6,0.6c0,0.2,0,0.4,0.1,0.7c2.7,0.5,5.3,1,7.7,1.5c1.9-1.7,4.2-3.1,5.7-5.1
		c1.1-1.5,1.3-3.7,1.9-5.6c0.4-1.4,0.7-2.7,1.3-4c0.2-0.4,1-0.7,1.4-0.6c0.4,0.1,0.9,0.8,0.9,1.3c0.2,3.1,0.4,6.3,0.3,9.4
		c-0.1,3.8-2.5,6.4-5.3,8.7c-0.4,0.4-1.5,0.4-2,0.2c-3.2-1.4-6.2-1.1-9.4,0c-0.9,0.3-2.5,0.2-3.1-0.4C22.1,108.9,19.8,103.8,19.5,98
		z M23,133.5c-2.3-4.9-0.5-11.5,4.3-15.9c4.5-4.1,10.3-3.9,14.2,0.7c3.8,4.4,6.4,9.4,6.7,14.9c-0.4,7.1-2,9-8.6,10.2
		C33,144.5,26.1,140.2,23,133.5z M48.3,150.6c-3.3-1.3-3.8-2.9-1.8-5.7c2.9-4,3.6-5.9,4.3-11.7c0.2-0.2,0.5-0.4,0.7-0.5
		c2.2,2.4,4.5,4.7,6.5,7.2c0.5,0.7,0.4,2.3,0,3.1c-1.1,2.2-2.5,4.4-4,6.4C52.5,151.3,50.5,151.5,48.3,150.6z M58.7,153
		c-1.1,0.5-2.5,0.3-3.9,0.4c2.5-4.1,4.7-7.7,6.9-11.5c2.2,0.2,3.2,1.4,2.5,3.8C63.3,148.8,61.9,151.7,58.7,153z M61.4,155.6
		c2.1-3.6,4.1-7.1,6.4-11.1c1.2,0,2.1,0.7,1.7,2.8C68.7,151.9,65.1,155.5,61.4,155.6z M66.7,163.8c-1.7-0.3-3.2-1.2-3-2.9
		c0.2-1.3,1.2-2.8,2.3-3.5c1.3-0.8,3.1-0.8,4.6-1.2c0.6-0.1,1.2-0.3,1.7-0.5c0-0.2,0-0.5,0-0.7c-0.8-0.5-1.5-0.9-2.3-1.4
		c0.7-2,1.3-3.9,2.1-5.8c0.2-0.4,1.5-0.9,1.7-0.7c0.9,0.9,2.3,2.1,2.2,3c-0.3,3.3-0.9,6.7-2,9.9C72.9,163,69.6,164.3,66.7,163.8z
		 M75,164c0.6-1.1,1-2,1.7-3.3c0.8,1.2,1.4,2.1,2.3,3.3H75z M91.4,162.9c-6.3,2.2-13.1-2.7-13-9.3c0-1.4-0.2-2.9,0.3-4
		c0.6-1.2,1.9-2.3,3.1-2.8c1.5-0.6,2.3,0.5,2.6,2c0.1,0.2,0.2,0.5,0.3,0.7c0.5,1.1,1.6,2.4,1.4,3.4c-0.2,0.8-1.9,1.3-2.9,2
		c-0.2,0.2-0.3,0.5-0.9,1.5c1.7-0.2,2.7-0.3,3.8-0.5c2.7-0.4,5.1,0.1,6.7,2.6C94.2,160.4,93.6,162.2,91.4,162.9z M97,151.6
		c-2.7-1-5.3-4.9-5.3-7.8c0-1.9,0.7-3.5,3.3-4c-0.1,4.7,1.9,8.2,5.6,10.9C99.6,152.3,98.3,152.1,97,151.6z M108,147.6
		c-2.4,1.8-5.5,1.6-7.7-0.5c-2.5-2.4-4.1-7.8-1-11.4c1.9-2.2,3.8-4.5,5.6-6.8c0.2,0.1,0.4,0.2,0.7,0.3c0.2,6.1,1,12.1,5.2,16.7
		C109.7,146.6,108.8,147,108,147.6z M130.6,132.4c-3.5,4.9-8.1,8.3-14.1,9.3c-4.9,0.8-6.7-0.5-7.7-5.3c-0.4-2.1-0.6-4.2-0.9-6.1
		c0.3-6.9,3.6-11.7,9.4-14.7c3.9-2.1,8.2-1,11,2.4c1.3,1.6,2.4,3.3,3.2,5.2C132.9,126.4,132.7,129.5,130.6,132.4z"/>
	<path class="st0" d="M102.9,86.7c-0.4-0.4-1.4-0.5-1.9-0.3c-1.3,0.7-2.5,1.7-3.8,2.4c-0.6,0.3-1.2,0.5-1.9,0.7
		c0.1-0.7-0.1-1.6,0.3-2c1.2-1.3,2.6-2.3,4.3-3.8c-3-0.4-4.8,1-6.6,2.5c-0.7,0.6-1.6,0.8-2.4,1.2c0.4-0.9,0.5-2,1.1-2.7
		c1.3-1.2,2.8-2.2,4.7-3.7c-3.9-0.1-6.2,1.7-8.5,3.6c-0.5,0.4-1.4,0.4-2.1,0.6c0.3-0.7,0.3-1.7,0.8-2.1c1.9-1.5,4-2.9,6.2-4.4
		c-2.6-2.1-1.2-4.4,0-6.5c3.6-6.3,5.2-13,5-20.3c-0.1-3-1.3-4.9-4-5.9c-11.2-4.4-22.4-4.3-33.5,0.6c-2.5,1.1-3.7,3-3.6,5.9
		c0.3,12.7,5.3,23.1,16,30c4.5,2.9,9.8,4.8,14.7,7.1c3.8,1.8,7.8,3.4,11.5,5.5c4.4,2.6,6.9,6.8,7.4,11.9c0.5,4.9-2.7,8.6-7.8,8.8
		c-5.2,0.2-9-3.2-8.6-8.1c0.2-2.4,1.2-4.7,2-7.3c-0.1-0.1-0.5-0.7-1-1.6c2.7,0.3,5,0.5,7.7,0.7c-1.7-2.9-4.9-4.6-6.5-3.8
		c-3.7,2-6.7,4.8-7.7,9.1c-1.3,5.7,0,10.8,4.5,14.6c4.8,4.1,10.6,5.1,16.3,2.4c5-2.4,8.5-6.5,8.9-12.4
		C115.1,99.6,110,92.6,102.9,86.7z M76.2,46.1c0-0.5,0.9-1,1.4-1.5c0.5,0.5,1.2,1,1.3,1.5c0.2,1.3,0.1,2.7,0.1,4.1h0
		c0,1.4,0.1,2.9-0.1,4.3c-0.1,0.5-0.8,0.9-1.2,1.4c-0.5-0.5-1.4-0.9-1.4-1.4C76.1,51.7,76.1,48.9,76.2,46.1z M71.8,68.4
		c-1.3-0.3-2.7-0.9-4.1-1c-2.2-0.2-3.7-1.2-4.4-3.3c-0.6-1.9,0-3.4,1.7-4.6c0.5-0.4,0.6-1.9,0.3-2.5c-0.8-1.5-2.1-2.8-3.2-4.2
		C67.3,53.2,72.3,60.3,71.8,68.4z M77.6,60.6c-3.1,0-5.7-2.2-5.9-5.3c-0.2-2.7-0.1-5.5,0-8.2c0-0.5,0.8-1,1.2-1.6
		c0.4,0.6,1.1,1.1,1.1,1.7c0.1,2.3,0,4.6,0.1,6.9c0.1,2.5,1.3,3.9,3.4,3.9c2.1,0,3.4-1.4,3.5-3.9c0.1-2.3-0.1-4.6,0.1-6.9
		c0-0.6,0.9-1.2,1.3-1.7c0.4,0.6,0.9,1.1,1,1.8c0.2,1.3,0,2.7,0,4.1h0c0,1.3,0.1,2.6,0,3.8C83.1,58.4,80.7,60.6,77.6,60.6z M93,52.6
		c-1.2,1.5-2.5,2.9-3.4,4.4c-0.3,0.6-0.2,2.1,0.3,2.5c1.6,1.3,2.3,2.7,1.6,4.7c-0.7,2.1-2.2,3-4.4,3.2c-1.3,0.1-2.6,0.6-4,1
		C82.8,60.8,86.7,54.3,93,52.6z"/>
	<path class="st0" d="M92,128.6c-5.6-4.7-8.6-11-10.2-18c-0.5-2.1,0.2-4.5,0.4-6.8c0.1-0.7,0.3-1.4,0.5-2.2c-4.7,3-9.2,5.7-13.5,8.7
		c-6.9,4.7-12.4,10.7-15.6,18.5c-0.3,0.7-0.7,2-0.4,2.3c2.2,2.2,4.4,4.7,7,6.2c8.6,4.8,17.7,4.3,26.6,1c2.4-0.9,4.3-3.4,6.1-5.5
		C94,131.4,93.5,129.9,92,128.6z M79.2,136.1c-1.9-1.5-3.4-1.4-4.1,1c-1.6-1.2-1.8-2.7-0.7-3.8c0.7-0.7,2.5-1.3,3.3-0.9
		c1,0.4,1.4,2,2.1,3C79.6,135.7,79.4,135.9,79.2,136.1z"/>
	<path class="st0" d="M48.2,133.2c-0.4,7.1-2,9-8.6,10.2c-6.6,1.2-13.5-3.2-16.6-9.8c-2.3-4.9-0.5-11.5,4.3-15.9
		c4.5-4.1,10.3-3.9,14.2,0.7C45.3,122.7,47.9,127.7,48.2,133.2z"/>
	<path class="st0" d="M107.9,130.4c0.3-6.9,3.7-11.7,9.4-14.7c3.9-2.1,8.2-1,11,2.4c1.3,1.6,2.4,3.3,3.2,5.2
		c1.4,3.2,1.2,6.3-0.9,9.2c-3.5,4.9-8.1,8.3-14.1,9.3c-4.9,0.8-6.7-0.5-7.7-5.3C108.4,134.4,108.2,132.2,107.9,130.4z"/>
	<path class="st0" d="M47.4,54.7c2.6,1.7,4.7,3,7.2,4.6c-2.6,1.9-5,3.7-7.3,5.5c0.1,0.1,0.1,0.3,0.2,0.4c2.3-0.4,4.6-0.8,6.9-1.2
		c0.2,0.2,0.4,0.4,0.5,0.5c-2.4,2.6-4.7,5.2-7.1,7.8c0.1,0.2,0.3,0.5,0.4,0.7c3-1.6,6-3.1,9.1-4.8c1.4,1.4,1.1,2.8-0.8,4.3
		c-5.1,4.3-11,6.7-18,7c0.2-1,0.4-1.8,0.6-2.6c2.4-8.3,3.7-16.8,2.7-25.5c-0.2-1.9-0.9-3.8-1.9-5.4c-1.8-3.2-0.8-5.7,2.8-6
		c2.1-0.1,4.4,0.4,6.4,1.1c2.3,0.8,3.4,2.6,2.8,5.3c-1.7,0-3.4,0-5.4,0c2.6,2.4,4.9,4.6,7.3,6.8c-0.1,0.3-0.2,0.6-0.3,0.9
		C51.8,54.3,50,54.4,47.4,54.7z"/>
	<path class="st0" d="M99.6,68.2c3.3,2,6.2,3.7,9.2,5.5c0.1-0.2,0.2-0.4,0.3-0.6c-2.5-2.8-5-5.7-7.5-8.5c0.1-0.2,0.2-0.3,0.3-0.5
		c2,0.9,4,1.7,6,2.6c0.1-0.1,0.1-0.3,0.2-0.4c-1.8-1.8-3.5-3.6-5.4-5.4c-1.2-1.2-1.2-2.1,0.2-3.1c1.8-1.3,3.5-2.7,5-4.5
		c-1.6,0.2-3.2,0.4-4.7,0.6c-0.1-0.2-0.3-0.3-0.4-0.5c2.3-2.7,4.5-5.4,6.8-8.1c-0.1-0.2-0.2-0.3-0.3-0.5c-1.6,0.7-3.1,1.3-4.8,2.1
		c-0.2-1.7-0.3-3.1-0.4-4.6c0-0.2,0-0.7,0.1-0.7c2.3-1,4.5-2.3,6.9-2.8c2-0.5,3.6,0.9,4.3,2.9c0.3,1,0.4,2.3,0,3.2
		c-3.1,5.7-2.5,11.8-1.4,17.8c1,5.5,2.7,10.9,4,16.4c0.1,0.4,0.1,0.8,0.3,1.5c-7.5-0.3-13.7-3.1-18.7-8.4
		C98.8,71.5,99.5,69.6,99.6,68.2z"/>
	<path class="st0" d="M27.1,107.4c2.7,0.5,5.3,1,7.7,1.5c1.9-1.7,4.2-3.1,5.7-5.1c1.1-1.5,1.3-3.7,1.9-5.6c0.4-1.3,0.7-2.7,1.3-4
		c0.2-0.4,1-0.7,1.4-0.6c0.4,0.1,0.9,0.8,0.9,1.3c0.2,3.1,0.4,6.3,0.3,9.4c-0.1,3.8-2.5,6.4-5.3,8.7c-0.4,0.4-1.5,0.4-2,0.2
		c-3.2-1.4-6.2-1.1-9.4,0c-0.9,0.3-2.5,0.2-3.1-0.4c-4.4-3.9-6.7-8.9-7-14.8c-0.1-1.1,0.8-2.2,1.2-3.3c0.3,0.1,0.6,0.1,1,0.2
		c0.8,2.1,1.6,4.2,2.4,6.3c-0.5,0.3-0.9,0.5-1.1,0.8c-0.4,0.5-0.6,1-0.8,1.6c0.6,0.1,1.3,0.3,1.8,0.2c2.8-0.8,5.5-1.9,8.2-2.7
		c1.7-0.5,3.5-0.6,5.3-0.9c0.5-0.1,1-0.5,1.4-0.8c-0.3-0.4-0.7-0.8-0.8-1.2c-0.2-2.9-0.4-5.8-0.5-8.8c0-0.1,1-0.5,1.3-0.4
		c0.6,0.3,1.4,0.9,1.4,1.3c0,3.7-0.1,7.5-0.5,11.1c-0.1,0.9-2.1,1.4-2.8,2.4c-1.9,2.7-4.4,2.9-7.2,2.4c-0.8-0.1-1.7,0.4-2.6,0.6
		C27.1,107,27.1,107.2,27.1,107.4z"/>
	<path class="st0" d="M78.6,92.5c-1.7,4.8-7.5,5.9-15.5,6.8c0.5-2.6,0.3-2.7-2.2-2c-0.9,0.3-1.9,0-3.2,0c0.3,0.8,0.5,1.5,0.8,2.1
		c-4.6,1.2-7.7-1-7.9-5.7c-0.2-4.9,3.8-10.3,9.6-12.2c-0.9,0.8-2,1.6-2.7,2.6c-0.8,1.2-1.8,2.7-1.6,3.9c0.1,0.9,2,1.5,3.1,2.3
		c4.2,3.1,8.3,1,12.5-0.1C74.2,89.5,76.7,90.4,78.6,92.5z"/>
	<path class="st0" d="M43.2,90.7c-1.7-4.1-3-4.9-7-4c-3.4-4-5.4-4-8.6,0c-5.5-1.4-7.2-6.6-3.5-11c0.4-0.5,1.6-0.9,2.1-0.6
		c2.9,1.2,5.8,2.5,8.5,4c0.5,0.3,0.5,1.5,0.9,2.6c0.9,0.1,2.1,0.3,3.4,0.4c-0.1,0.2-0.2,0.4-0.3,0.6c0.8,0.5,1.6,1.3,2.4,1.3
		c3.3,0.1,6.6,0.1,9.7,0.1C50,86,49,88.1,47.9,90.2c-0.3,0.5-1.2,0.9-1.8,0.9C45.2,91.1,44.3,90.8,43.2,90.7z"/>
	<path class="st0" d="M48.1,123.1c-3.3-4.3-2.6-12.2,1.8-16.1c2.6-2.3,5.9-4,9.2-5.1c3.1-1.1,6.7-1.1,10.3-1.2
		C60.1,106.3,52.5,113.2,48.1,123.1z"/>
	<path class="st0" d="M120.9,108c0-0.8,0-1.7,0-2.5c-0.1-2.2-0.4-4.4-0.1-6.6c0.1-0.9,1.3-1.7,2-2.5c0.5,0.9,1.3,1.7,1.5,2.6
		c0.3,2.4,0.3,4.7,0.5,7.1c0.1,0.8,0.2,1.5,0.4,2.3c0.3,0,0.6,0,0.8,0c0.2-0.8,0.6-1.6,0.6-2.4c0.1-2.6-0.1-5.1,0.1-7.7
		c0-0.7,0.7-1.4,1-2.1c0.8,0.5,2.2,1,2.2,1.6c0.3,2.6,0.2,5.2,0.3,7.8c0,0.8,0.3,1.6,0.5,2.4c0.5-0.7,1.3-1.3,1.5-2
		c0.3-1.7,0.3-3.4,0.5-5.1c0.1-0.7,0.5-1.4,0.8-2.1c0.5,0.6,1.5,1.2,1.5,1.7c0,2.5-0.2,5-0.7,7.4c-0.1,0.5-1.6,0.9-2.5,1.2
		c-1,0.3-2,0.8-3.1,0.8c-2.5,0-5-0.2-7.5-0.4c-0.2,0-0.4-0.1-0.5-0.1c-3.9,1.8-3.3-0.9-3.4-3.2c-0.1-2.1-0.8-4.2-1-6.3
		c-0.1-0.7,0.2-1.5,0.4-2.2c0.5,0.7,1.3,1.2,1.5,2c0.5,2.1,0.6,4.2,1.1,6.3c0.1,0.7,0.7,1.4,1,2.1
		C120.4,108.2,120.7,108.1,120.9,108z"/>
	<path class="st0" d="M105.5,129.2c0.2,6.2,1,12.1,5.2,16.7c-1,0.6-2,1-2.8,1.7c-2.4,1.8-5.5,1.6-7.7-0.5c-2.5-2.4-4.1-7.8-1-11.4
		c1.9-2.2,3.8-4.5,5.6-6.8C105.1,129,105.3,129.1,105.5,129.2z"/>
	<path class="st0" d="M82.4,156.4c1.7-0.2,2.7-0.3,3.8-0.5c2.7-0.4,5.1,0.2,6.7,2.6c1.3,1.9,0.6,3.7-1.5,4.4
		c-6.3,2.2-13.1-2.7-13-9.3c0-1.4-0.2-2.9,0.3-4c0.6-1.2,1.9-2.3,3.1-2.8c1.5-0.6,2.3,0.5,2.6,2c0,0.2,0.2,0.5,0.3,0.7
		c0.5,1.1,1.6,2.4,1.4,3.4c-0.2,0.8-1.9,1.3-2.9,2C83.1,155.1,83,155.4,82.4,156.4z"/>
	<path class="st0" d="M51.5,132.6c2.2,2.4,4.5,4.7,6.5,7.2c0.5,0.7,0.4,2.3,0,3.1c-1.1,2.2-2.5,4.4-4,6.4c-1.5,1.9-3.5,2-5.8,1.2
		c-3.3-1.3-3.8-2.9-1.8-5.7c2.9-4,3.6-5.9,4.3-11.7C51,133,51.3,132.8,51.5,132.6z"/>
	<path class="st0" d="M121.6,80.6c-0.9-3.5-2-6.9-2.7-10.5c-0.2-0.9,1-2,1.6-3c0.2-0.3,0.7-0.5,1.1-0.6c2.1-0.5,4.6-3.4,6.3-0.7
		c3.1,5.1,3.2,8.8,0.2,11.1c-1.7,1.3-3.6,2.5-5.4,3.8C122.3,80.8,121.9,80.7,121.6,80.6z"/>
	<path class="st0" d="M49.7,128.7c0.1-1.3-0.2-2.7,0.3-3.7c3.5-8.1,9-14.6,16.7-19.1c5.3-3.1,10.5-6.4,14.1-11.5
		c0.3-0.5,1.6-0.4,2.4-0.5c-0.1,0.7,0.1,1.6-0.2,2.2c-1.8,3.1-4.1,5.6-7.3,7.4c-3.5,2-6.9,4.2-10.1,6.5c-6.2,4.5-10.9,10.2-14,17.3
		c-0.3,0.6-0.6,1.2-0.9,1.7C50.3,128.7,50,128.7,49.7,128.7z"/>
	<path class="st0" d="M131.4,90.8c-1.2-0.7-2.4-1.4-4.3-2.4c0.4,2.1,0.7,3.4,1,5.1c-4.5,0.8-8.9,1.5-13.3,2.2
		c-1.7-2.5,0.1-6.7,3.9-8.8C123.4,84.4,129.2,86.2,131.4,90.8z"/>
	<path class="st0" d="M72.3,155c-0.8-0.5-1.5-0.9-2.3-1.4c0.7-2,1.3-3.9,2.1-5.8c0.2-0.4,1.5-0.9,1.7-0.7c0.9,0.9,2.3,2.1,2.2,3
		c-0.3,3.3-0.9,6.7-2,9.9c-1.1,3-4.4,4.3-7.4,3.9c-1.7-0.3-3.2-1.2-3-2.9c0.2-1.3,1.2-2.8,2.3-3.5c1.3-0.8,3.1-0.8,4.6-1.2
		c0.6-0.1,1.2-0.3,1.7-0.5C72.3,155.5,72.3,155.3,72.3,155z"/>
	<path class="st0" d="M36.8,74.3c-1.3,0.2-2.8,0.7-4,0.5c-2.4-0.5-4.8-1.1-7-2.2c-0.8-0.4-1.6-1.9-1.6-2.9c0-0.5,1.7-1.6,2.5-1.5
		c3.8,0.6,7.3,2.1,10,5C36.7,73.6,36.8,74,36.8,74.3z"/>
	<path class="st0" d="M61.7,141.9c2.2,0.2,3.2,1.4,2.5,3.8c-0.9,3.1-2.2,6-5.5,7.3c-1.1,0.5-2.5,0.3-3.9,0.4
		C57.3,149.2,59.4,145.6,61.7,141.9z"/>
	<path class="st0" d="M35.4,98.2c-1.6,0.3-2.7,0.5-4.2,0.8c-0.4-3.5-0.9-6.8-1-10c0-0.9,1.1-1.8,1.7-2.7c0.6,0.8,1.7,1.5,1.9,2.3
		C34.4,91.6,34.8,94.7,35.4,98.2z"/>
	<path class="st0" d="M95,139.7c-0.1,4.7,1.9,8.2,5.6,10.9c-1,1.7-2.2,1.5-3.6,1c-2.7-1-5.3-4.9-5.3-7.9
		C91.8,141.8,92.5,140.3,95,139.7z"/>
	<path class="st0" d="M98,113.2c-0.6-0.2-1.5-0.3-2.2-0.7c-1.5-0.8-3.1-2-2.2-3.7c0.5-0.9,2.5-1.1,3.8-1.5c0.4-0.1,1.1,0.3,1.5,0.2
		c2.7-0.9,3.4,0.8,3.7,2.8c0.3,2.3-1.8,2.2-3.3,2.7C99,113.1,98.6,113.1,98,113.2z"/>
	<path class="st0" d="M128.7,62.3c-2.6,0.8-5.2,1.6-7.8,2.3c-0.9,0.2-1.9,0.2-2.7-0.2c-1.2-0.6-1.7-1.8-0.2-2.5
		c2.4-1.2,4.9-2.3,7.5-3C127.6,58.4,128.6,59.8,128.7,62.3z"/>
	<path class="st0" d="M37.9,52.9c1.5,1.7,1.9,3.3,0.7,5.1c-0.3,0.6-0.5,1.3-0.6,1.9c-0.2,1.4-0.5,2.8-2.5,2.4
		c-1.8-0.4-3.4-0.9-2.7-3.5C33.6,56,35.3,54.3,37.9,52.9z"/>
	<path class="st0" d="M81.3,29.7c-2.7,0-4.7,0-7.1,0c0.6-3.2,0.9-6.4,3.1-8.8c0.3,0,0.7-0.1,1-0.1C79.2,23.6,80.2,26.4,81.3,29.7z"
		/>
	<path class="st0" d="M68.9,83.3c-3,3.5-6.4,4.7-10.8,4.5c2.9-2.2,5.5-4.2,8.1-6.2c-0.4-0.6-0.8-1.1-1.2-1.7
		C66.2,80.9,67.4,82,68.9,83.3z"/>
	<path class="st0" d="M29.3,99.5c-1.1,0.4-2,0.6-3.4,1.1c-0.8-3-1.7-5.9-2.3-8.9c-0.1-0.7,0.8-1.6,1.3-2.4c0.7,0.6,1.8,1.1,2.1,1.8
		C27.8,93.8,28.4,96.5,29.3,99.5z"/>
	<path class="st0" d="M61.5,155.6c2-3.6,4.1-7.1,6.4-11.1c1.2,0,2.1,0.7,1.8,2.8C68.7,151.9,65.1,155.5,61.5,155.6z"/>
	<path class="st0" d="M79.8,36.3c0,2.9-0.9,3.9-3.3,3.5c-0.7-0.1-1.5-1.1-1.8-1.8c-0.3-0.9-0.1-2,0-3c0.1-1.5,0.3-2.7,2.4-2.8
		c2.1,0,2.3,1.3,2.5,2.7C79.8,35.5,79.8,36.1,79.8,36.3z"/>
	<path class="st0" d="M38.8,67.4c-1.6,0.4-2.7,1-3.6,0.8c-2.1-0.3-4.1-0.9-6.1-1.6c-0.5-0.2-1.1-1.4-0.9-1.7
		c0.5-0.8,1.4-1.8,2.1-1.8C33.3,63.3,36.1,64.4,38.8,67.4z"/>
	<path class="st0" d="M89.6,30.9c-1.9-0.3-3.4-0.3-4.7-0.7c-0.6-0.1-1.3-0.8-1.5-1.3c-0.7-2.2-1.1-4.5-1.7-7.3
		C85.6,23.7,87.9,26.7,89.6,30.9z"/>
	<path class="st0" d="M93.3,153.2c-2.1,0.5-5.4-2.1-6.6-5.6c-0.8-2.3-0.2-3.6,1.8-4.4C90,146.4,91.6,149.8,93.3,153.2z"/>
	<path class="st0" d="M65.6,30.7c1.8-4.1,4-7.1,7.9-9.1c-0.6,2.7-1.1,5-1.8,7.3c-0.1,0.5-0.8,1-1.3,1.2C69,30.3,67.6,30.4,65.6,30.7
		z"/>
	<path class="st0" d="M125.4,56.4c-2.2,0.8-4.3,1.8-6.5,2.3c-0.8,0.2-1.8-0.7-2.7-1.1c0.4-0.6,0.7-1.5,1.3-1.8
		c1.4-0.8,2.9-1.4,4.4-1.8C123.9,53.4,125,54.4,125.4,56.4z"/>
	<path class="st0" d="M81.8,32.1c1.3,0.5,3.2,0.8,3.5,1.6c0.6,1.9,0.4,4,0.3,6c0,0.2-1.7,0.6-2.5,0.5c-0.5-0.1-1.2-0.9-1.2-1.5
		C81.7,36.6,81.8,34.7,81.8,32.1z"/>
	<path class="st0" d="M72.9,32.7c-0.1,1.9-0.3,3.6-0.2,5.3c0.1,1.9-1,2-2.4,2.2c-1.7,0.2-1.7-0.9-1.7-2.1c0-0.7,0-1.4,0-2
		C68.8,32.8,69.4,32.3,72.9,32.7z"/>
	<path class="st0" d="M83.8,17.6c-1.1,0.2-2.2,0.5-3.3,0.6c-2.9,0.2-5.8,0.4-8.6,0.5c-0.6,0-1.3-0.4-1.9-0.7
		c0.4-0.4,0.8-1.1,1.3-1.3c4.2-1.3,8.3-1.3,12.4,0C83.7,17,83.8,17.3,83.8,17.6z"/>
	<path class="st0" d="M66.6,33.3c0,2.2,0,4.2,0,6.2c0,2.1-1.4,2.1-2.9,2.2C62.1,37.3,63.3,33.7,66.6,33.3z"/>
	<path class="st0" d="M88,33.5c3,0,4.1,2.8,3,7.4c-1.9,0.2-3.3-0.1-3.1-2.6C88.2,36.7,88,35.1,88,33.5z"/>
	<path class="st0" d="M76.8,10.7c-1.2-1.2-1.9-1.9-2.7-2.6C75.2,7,76.2,6,77.3,4.9c1,1,2,2,3,3C79.3,8.7,78.3,9.6,76.8,10.7z"/>
	<path class="st0" d="M61.3,34.8c0,2.5,0.1,4.9-0.1,7.4c-0.1,0.7-1.1,1.3-1.7,1.9c-0.4-0.6-1.3-1.2-1.3-1.8c0.1-2,0.3-4,0.7-6
		c0.2-0.9,0.8-1.7,1.2-2.5C60.5,34.2,60.9,34.5,61.3,34.8z"/>
	<path class="st0" d="M65.9,24.5c-2.4,2.3-1.5,7.3-6.2,7.8C58.7,29.5,61.2,26.3,65.9,24.5z"/>
	<path class="st0" d="M116.2,53.4c0.5-2.8,1-5.3,1.6-8.3C121.9,50.3,121.6,52.1,116.2,53.4z"/>
	<path class="st0" d="M95.3,32.6c-4.7-1.2-3.7-6.2-6.5-8.3C92.1,25.1,95.1,28.8,95.3,32.6z"/>
	<path class="st0" d="M93.5,35c2.5,0.7,3.4,3.5,2.5,8.1c-1.9,0.1-2.7-0.6-2.6-2.6C93.6,38.6,93.5,36.8,93.5,35z"/>
	<path class="st0" d="M113.3,84.7c-5.7,1.8-7.5,1.3-11.1-2.9C105.8,82.8,109.4,83.7,113.3,84.7z"/>
	<path class="st0" d="M72.6,13.5c2.3-2.1,6.5-2.3,9.9,0C78.8,13.5,75.8,13.5,72.6,13.5z"/>
	<path class="st0" d="M56,45.1c-1.2-2.6-1.8-4.7,0-7.7C56,40.2,56,42.4,56,45.1z"/>
	<path class="st0" d="M76.7,160.6c0.8,1.2,1.4,2.1,2.3,3.3c-1.4,0-2.5,0-4,0C75.6,162.9,76,161.9,76.7,160.6z"/>
	<path d="M83.4,51.5c0,1.3,0.1,2.6,0,3.8c-0.3,3.1-2.8,5.3-5.8,5.3c-3.1,0-5.7-2.2-5.9-5.3c-0.2-2.7-0.1-5.5,0-8.2
		c0-0.5,0.8-1,1.2-1.6c0.4,0.6,1.1,1.1,1.1,1.7c0.1,2.3,0,4.6,0.1,6.9c0.1,2.5,1.3,3.9,3.4,3.9c2.1,0,3.4-1.4,3.5-3.9
		c0.1-2.3-0.1-4.6,0.1-6.9c0-0.6,0.9-1.2,1.3-1.7c0.4,0.6,0.9,1.1,1,1.8C83.6,48.7,83.5,50.1,83.4,51.5
		C83.4,51.5,83.4,51.5,83.4,51.5z"/>
	<path d="M83.2,68.4c-0.4-7.6,3.4-14.1,9.8-15.8c-1.2,1.5-2.5,2.9-3.4,4.4c-0.3,0.6-0.2,2.1,0.3,2.5c1.6,1.3,2.3,2.7,1.6,4.6
		c-0.7,2.1-2.2,3-4.4,3.2C85.9,67.5,84.7,68,83.2,68.4z"/>
	<path d="M62.2,52.8c5.1,0.4,10.1,7.5,9.7,15.6c-1.3-0.3-2.7-0.9-4.1-1c-2.2-0.2-3.7-1.2-4.4-3.3c-0.6-1.9,0-3.4,1.7-4.6
		c0.5-0.4,0.6-1.9,0.3-2.5C64.5,55.5,63.3,54.2,62.2,52.8z"/>
	<path d="M78.9,50.2c0,1.4,0.1,2.9-0.1,4.3c-0.1,0.5-0.8,0.9-1.2,1.4c-0.5-0.5-1.4-0.9-1.4-1.4c-0.1-2.8-0.1-5.6,0-8.4
		c0-0.5,0.9-1,1.4-1.5c0.5,0.5,1.2,1,1.3,1.5C79.1,47.5,78.9,48.9,78.9,50.2C78.9,50.2,78.9,50.2,78.9,50.2z"/>
	<path d="M79.2,136.1c-1.9-1.5-3.4-1.4-4.1,1c-1.6-1.2-1.8-2.7-0.7-3.8c0.7-0.7,2.5-1.3,3.3-0.9c1,0.4,1.4,2,2.1,3
		C79.6,135.7,79.4,135.9,79.2,136.1z"/>
</g>
<text transform="matrix(1 0 0 1 156.5678 98.267)" class="st1 st2 st3">SHREE GANESH</text>
<text transform="matrix(1 0 0 1 162.355 142.0606)" class="st1 st2 st4 st5">Co-operative Group Housing Society Ltd</text>
</svg>
