<?xml version="1.0" encoding="utf-8"?>
<!-- Generator: Adobe Illustrator 27.3.1, SVG Export Plug-In . SVG Version: 6.00 Build 0)  -->
<svg version="1.1" id="Layer_1" xmlns="http://www.w3.org/2000/svg" xmlns:xlink="http://www.w3.org/1999/xlink" x="0px" y="0px"
	 viewBox="0 0 1505.1 283.4" style="enable-background:new 0 0 1505.1 283.4;" xml:space="preserve">
<style type="text/css">
	.st0{fill:#FFFFFF;}
	.st1{stroke:#FFFFFF;stroke-width:2;stroke-miterlimit:10;}
</style>
<g>
	<path d="M196.9,190.1c1-0.6,1.9-1.1,2.8-1.7c7.4-4.8,11.9-13.5,9.6-21.2c-1.7-5.5-3.1-11-4.7-16.5c-1.8-6-6.7-9.7-12.4-11.8
		c0.2-0.6,0.2-0.9,0.4-1c9.6-7.3,10.7-16.3,5.8-26.8c-0.4-0.9-0.6-2.2-0.3-3c1.6-4.2-0.1-7.3-2.9-10.3c-0.7-0.7-1.2-1.7-1.9-2.5
		c-1.8-2.2-3.6-4.4-5.4-6.7c-0.5-0.6-1.4-1.1-1.5-1.7c-1.2-6.5-5.1-11.5-8.9-16.7c-4.6-6.1-8.4-7.7-15.8-5.5
		c-2.9,0.9-5.6,2.3-8.6,3.6c-1.5-12-7.2-21.1-17.3-27.4c-2.7-1.7-5.8-2.7-5.9-6.8c0-1-1.6-2-2.5-3.1c-2.5-3-4.9-6.1-4.7-10.3
		c0.2-4.6-3.8-9.9-8.3-10.9c-3.5-0.8-7.9,2.1-9.7,6.5c-0.6,1.5-0.6,3.2-0.8,4.7c-0.1,0.9,0.2,2-0.3,2.7c-1.9,3-4,5.8-5.9,8.8
		c-0.6,0.9-0.7,2-1.3,2.9c-0.9,1.4-1.7,3.3-3,4.1c-9.8,5.7-16.4,13.6-18.7,24.9c-0.3,1.5-0.9,3-1,3.4c-5.8-0.8-11.1-2.4-16.3-2
		c-8.3,0.6-11.4,8.3-6.9,15.3c0.8,1.3,1.5,2.7,2.2,4.2c-1.8,0.8-3.2,1.4-4.5,2.1c-4.2,2.5-8,5.4-8.8,10.6c-1,6.2-8.5,7.3-9.9,13.1
		c0,0.1-0.3,0.1-0.4,0.1c-3.7,1.9-4.7,4.6-4,8.8c0.3,1.6,0,3.7-0.7,5.1c-3.3,6.2-3.9,12.3-0.3,18.6c1,1.8-0.3,8.6-2,9.4
		c-5,2.3-5.4,6.5-4.8,11c1.3,10.2,5.7,18.8,13.6,25.7c-0.6,0.7-1.1,1.4-1.6,2c-15,17-6.1,45.1,15.8,51.5c6.3,1.8,12,5.5,18,8.3
		c0.4,0.2,0.8,0.8,1,1.2c2,4.3,5.8,5.3,10,5.7c3,0.3,6,0.9,8.9,1.4c-0.2,1-0.3,1.9-0.4,2.7c0.6,1,1,2.2,1.1,3.4
		c0.7,0.8,1.4,1.7,1.9,2.7c0.6,0.3,1.2,0.7,1.7,1.2c0.2,0,0.4,0,0.6,0c1,0,1.7,0.3,2.3,0.7c5.9,0.1,11.7,0.2,17.6,0.2
		c3.5,0,7.1,0,10.6,0c6.6-0.4,13.1-1.2,19.7-1.9c2.2-2,3.8-4.6,4.8-8.1c0.1-1.7,0.2-3.3,0.2-5.1c3.2-0.5,6.6-0.8,9.9-1.7
		c3-0.9,5.8-2.6,8.6-4c0.9-0.5,1.7-1.3,2.7-1.7c6.6-2.4,13.3-4.6,19.8-7.1c2.3-0.9,4.5-2.1,6.4-3.5c14.8-11.1,17.7-32.2,6.7-46.8
		C197.1,191,197,190.6,196.9,190.1z M201.3,167.1c0.2-1.2,0.9-2.3,1.3-3.4c0.8,0.9,2.4,1.9,2.4,2.8c0,4-0.3,8-1.1,11.9
		c-0.2,0.9-2.6,1.4-4,1.9c-1.6,0.6-3.3,1.3-4.9,1.3c-4,0-8-0.4-12-0.6c-0.3,0-0.6-0.2-0.8-0.1c-6.1,2.8-5.2-1.5-5.5-5.1
		c-0.2-3.3-1.2-6.7-1.7-10c-0.1-1.1,0.4-2.3,0.6-3.5c0.8,1,2,2,2.3,3.1c0.8,3.3,1,6.7,1.7,10c0.2,1.1,1.1,2.2,1.6,3.3
		c0.4-0.1,0.8-0.2,1.2-0.3c0-1.3,0-2.6,0-4c-0.1-3.5-0.6-7-0.2-10.5c0.2-1.4,2.1-2.7,3.2-4c0.8,1.4,2.1,2.7,2.3,4.2
		c0.5,3.7,0.5,7.6,0.8,11.4c0.1,1.2,0.4,2.4,0.6,3.6c0.4,0,0.9,0,1.3,0.1c0.3-1.3,0.9-2.5,1-3.8c0.1-4.1-0.1-8.2,0.1-12.2
		c0.1-1.1,1.1-2.2,1.7-3.3c1.2,0.8,3.5,1.6,3.6,2.6c0.5,4.1,0.3,8.3,0.5,12.4c0.1,1.3,0.5,2.5,0.8,3.8c0.8-1.1,2.1-2.1,2.3-3.3
		C201.1,172.5,200.9,169.8,201.3,167.1z M199.2,150.8c-1.9-1.1-3.9-2.2-6.8-3.8c0.7,3.3,1.1,5.5,1.7,8.1c-7.2,1.2-14.2,2.4-21.2,3.6
		c-2.8-4,0.2-10.7,6.2-14.1C186.5,140.6,195.8,143.4,199.2,150.8z M193.9,129c-2.7,2.1-5.7,4-8.6,6c-0.6-0.1-1.2-0.2-1.8-0.3
		c-1.5-5.5-3.2-11-4.3-16.7c-0.3-1.4,1.5-3.2,2.6-4.7c0.3-0.5,1.1-0.8,1.8-0.9c3.4-0.7,7.3-5.4,10-1.1
		C198.5,119.3,198.7,125.3,193.9,129z M195,105.4c-4.2,1.2-8.3,2.6-12.4,3.6c-1.4,0.3-3.1,0.3-4.3-0.3c-2-0.9-2.7-2.8-0.4-4
		c3.8-1.9,7.9-3.7,12-4.7C193.1,99.1,194.8,101.4,195,105.4z M189.8,96c-3.6,1.3-6.9,2.8-10.3,3.7c-1.3,0.3-2.9-1.1-4.4-1.8
		c0.7-1,1.1-2.4,2.1-2.9c2.2-1.2,4.6-2.2,7-2.9C187.4,91.1,189.1,92.8,189.8,96z M177.6,77.9c6.5,8.4,6,11.2-2.6,13.2
		C175.9,86.7,176.7,82.8,177.6,77.9z M148.5,114.8c5.3,3.2,10,6,14.6,8.7c0.2-0.3,0.4-0.6,0.5-0.9c-4-4.5-8-9.1-12-13.6
		c0.2-0.3,0.4-0.5,0.5-0.8c3.2,1.4,6.4,2.7,9.6,4.1c0.1-0.2,0.2-0.4,0.3-0.6c-2.9-2.9-5.7-5.8-8.6-8.5c-2-1.9-1.9-3.3,0.3-4.9
		c2.8-2.1,5.5-4.3,8-7.2c-2.5,0.3-5,0.7-7.6,1c-0.2-0.2-0.4-0.5-0.6-0.7c3.6-4.3,7.2-8.6,10.8-12.9c-0.2-0.2-0.4-0.5-0.6-0.7
		c-2.5,1.1-4.9,2.1-7.6,3.3c-0.2-2.7-0.5-5-0.6-7.3c0-0.4-0.1-1.1,0.1-1.1c3.6-1.6,7.2-3.6,11-4.5c3.2-0.7,5.8,1.5,6.8,4.6
		c0.5,1.5,0.7,3.7-0.1,5.1c-4.9,9.1-4,18.8-2.3,28.3c1.6,8.8,4.2,17.4,6.4,26.1c0.2,0.6,0.2,1.3,0.4,2.4c-12-0.4-21.9-4.9-29.8-13.3
		C147.3,120,148.4,117,148.5,114.8z M170.4,141.1c-9,2.9-11.9,2.1-17.7-4.7C158.5,138,164.2,139.5,170.4,141.1z M142.9,74.7
		c-3,0.2-4.4-1-4.1-4.2c0.2-2.9,0-5.9,0-8.7C142.9,63,144.3,67.3,142.9,74.7z M141.8,58.1c-7.5-1.9-5.9-9.9-10.4-13.3
		C136.7,46.1,141.4,52,141.8,58.1z M130.2,59.5c4.7,0,6.6,4.5,4.8,11.8c-3.1,0.4-5.3-0.1-4.9-4.2C130.4,64.6,130.2,62.1,130.2,59.5z
		 M132.7,55.3c-3.1-0.4-5.3-0.5-7.5-1.1c-0.9-0.2-2.1-1.2-2.4-2.1c-1-3.6-1.8-7.3-2.8-11.7C126.4,43.8,129.9,48.7,132.7,55.3z
		 M126.3,69.1c0,0.4-2.6,0.9-4,0.8c-0.8-0.1-1.9-1.5-2-2.4c-0.2-3.1-0.1-6.1-0.1-10.4c2.1,0.9,5.2,1.3,5.5,2.5
		C126.7,62.6,126.5,66,126.3,69.1z M113.1,13.9c1.6,1.6,3.2,3.2,4.8,4.8c-1.7,1.3-3.3,2.6-5.6,4.4c-1.9-1.9-3.1-3-4.2-4.1
		C109.7,17.3,111.4,15.6,113.1,13.9z M121.3,27.6h-15.7C109.2,24.2,115.9,24,121.3,27.6z M103.5,32.6c6.6-2.1,13.3-2.1,19.8,0.1
		c0,0.5,0.1,0.9,0.1,1.4c-1.8,0.3-3.5,0.7-5.3,0.9c-4.6,0.4-9.2,0.6-13.8,0.8c-1,0-2-0.7-3-1.1C102,34,102.6,32.9,103.5,32.6z
		 M108.1,53.4c1-5.2,1.4-10.1,4.9-14c0.5-0.1,1.1-0.2,1.6-0.2c1.5,4.5,3,9,4.7,14.3H108.1z M117.1,64c0,4.6-1.4,6.2-5.2,5.5
		c-1.1-0.2-2.5-1.7-2.9-2.9c-0.5-1.5-0.2-3.2,0-4.8c0.2-2.3,0.5-4.4,3.9-4.4c3.4-0.1,3.7,2,4,4.3C117,62.7,117.1,63.6,117.1,64z
		 M107,40.5c-1,4.3-1.8,8-2.8,11.6c-0.2,0.8-1.3,1.7-2.1,1.9c-2.2,0.5-4.5,0.6-7.7,1C97.3,48.4,100.8,43.7,107,40.5z M105.7,66.5
		c0.2,3-1.7,3.3-3.8,3.5c-2.7,0.3-2.7-1.5-2.8-3.4c0-1.1,0-2.2,0-3.3c0.4-5.1,1.4-5.9,6.8-5.3C105.9,61.1,105.5,63.9,105.7,66.5z
		 M96,69c0,3.3-2.3,3.4-4.6,3.6c-2.6-7.1-0.6-12.8,4.6-13.5C96,62.6,96,65.8,96,69z M95,45.1c-3.9,3.7-2.3,11.7-9.9,12.4
		C83.5,53.2,87.4,48,95,45.1z M83.8,64c0.3-1.4,1.2-2.6,1.9-3.9c0.6,0.5,1.2,1,1.8,1.6c0,3.9,0.2,7.8-0.1,11.7
		c-0.1,1.1-1.7,2-2.6,3.1c-0.7-0.9-2-1.9-2-2.8C82.9,70.4,83.3,67.2,83.8,64z M86.7,80.5c17.7-7.8,35.5-7.9,53.4-0.9
		c4.2,1.6,6.2,4.6,6.3,9.4c0.4,11.6-2.1,22.3-7.9,32.4c-2,3.4-4.2,7.1-0.1,10.4c-3.5,2.5-6.8,4.6-9.8,7c-0.8,0.6-0.9,2.2-1.3,3.3
		c1.1-0.3,2.6-0.3,3.4-1c3.6-3.1,7.3-5.9,13.5-5.8c-3.1,2.3-5.5,3.9-7.5,5.8c-1,1-1.2,2.8-1.8,4.3c1.3-0.6,2.8-1,3.9-1.9
		c2.8-2.5,5.7-4.6,10.6-4.1c-2.8,2.4-5,4.1-6.9,6.1c-0.6,0.6-0.4,2.1-0.5,3.2c1-0.4,2.1-0.6,3-1.2c2-1.2,3.9-2.8,6-3.9
		c0.7-0.4,2.3-0.1,3,0.4c11.3,9.4,19.4,20.6,18.4,36.2c-0.6,9.4-6.2,16-14.2,19.8c-9.1,4.3-18.3,2.7-25.9-3.8
		c-7.1-6.1-9.2-14.2-7.1-23.3c1.6-6.9,6.3-11.3,12.3-14.4c2.5-1.3,7.6,1.4,10.4,6c-4.3-0.4-8.1-0.8-12.3-1.2
		c0.8,1.3,1.5,2.2,1.6,2.5c-1.2,4.2-2.9,7.9-3.1,11.7c-0.6,7.9,5.4,13.3,13.7,13c8-0.3,13.2-6.2,12.4-14c-0.8-8.2-4.7-14.9-11.8-19
		c-5.8-3.4-12.2-5.9-18.3-8.8c-7.8-3.7-16.2-6.6-23.4-11.3c-17.1-11.1-25-27.6-25.5-47.8C80.8,85.3,82.7,82.2,86.7,80.5z
		 M128.3,226.3c-14.2,5.3-28.7,6-42.4-1.6c-4.3-2.4-7.7-6.4-11.2-9.9c-0.5-0.5,0.1-2.5,0.6-3.7c5.1-12.5,13.7-22,24.8-29.4
		c6.9-4.7,14.1-9,21.5-13.8c-0.3,1.3-0.7,2.4-0.7,3.5c-0.3,3.6-1.3,7.4-0.6,10.9c2.5,11.1,7.2,21.2,16.2,28.7
		c2.5,2.1,3.3,4.4,1.5,6.6C135.1,220.9,132.1,224.9,128.3,226.3z M138.5,250.2c-3.4,0.8-8.7-3.4-10.5-9c-1.2-3.7-0.3-5.7,2.8-7.1
		C133.4,239.4,135.9,244.7,138.5,250.2z M69.6,205.2c5.6-12.9,14.4-23.3,26.6-30.5c8.5-5,16.7-10.1,22.5-18.4
		c0.6-0.8,2.5-0.6,3.7-0.9c-0.1,1.2,0.2,2.6-0.4,3.5c-2.8,4.9-6.6,8.9-11.6,11.7c-5.5,3.2-10.9,6.6-16.1,10.4
		c-9.9,7.1-17.4,16.3-22.3,27.5c-0.4,1-1,1.9-1.5,2.8c-0.5,0-1-0.1-1.4-0.2C69.3,209.1,68.8,206.9,69.6,205.2z M93.5,133.3
		c1.9,1.7,3.9,3.5,6.2,5.5c-4.7,5.5-10.2,7.5-17.2,7.1c4.6-3.5,8.8-6.7,13-9.9C94.8,135.1,94.2,134.2,93.5,133.3z M81.5,140
		c-1.3,1.9-2.9,4.3-2.6,6.2c0.2,1.5,3.2,2.5,4.9,3.7c6.7,5,13.3,1.6,19.9-0.1c4.3-1.1,8.3,0.2,11.3,3.6c-2.8,7.7-11.9,9.4-24.7,10.8
		c0.8-4.2,0.5-4.4-3.6-3.2c-1.4,0.4-3.1,0.1-5.1,0.1c0.5,1.3,0.9,2.3,1.3,3.3c-7.3,1.9-12.2-1.6-12.6-9.1
		c-0.4-7.8,6.1-16.4,15.4-19.4C84.4,137.3,82.6,138.4,81.5,140z M83.9,168.5c5-1.7,10.6-1.8,16.3-1.9c-14.5,8.9-26.6,19.9-33.8,35.7
		c-5.3-6.9-4.2-19.4,2.8-25.7C73.4,173,78.7,170.3,83.9,168.5z M153.4,181.9c0.4,3.7-2.9,3.6-5.2,4.3c-0.5,0.2-1.1,0.1-2,0.2
		c-0.9-0.3-2.3-0.5-3.5-1c-2.4-1.2-4.9-3.2-3.6-5.9c0.7-1.5,3.9-1.8,6.1-2.4c0.7-0.2,1.7,0.5,2.4,0.3
		C151.8,176,153,178.7,153.4,181.9z M79.2,65.7V78C77.3,73.9,76.3,70.4,79.2,65.7z M56.7,88.1c-0.3-3-1.5-6-3-8.7
		c-2.8-5.1-1.3-9.1,4.5-9.5c3.4-0.2,6.9,0.7,10.2,1.8c3.7,1.2,5.5,4.2,4.5,8.4h-8.6c4.1,3.8,7.8,7.4,11.6,10.9
		c-0.1,0.5-0.3,0.9-0.4,1.4c-2.9,0.3-5.9,0.5-10,0.9c4.2,2.7,7.5,4.8,11.5,7.3c-4.1,3.1-7.9,5.9-11.7,8.7l0.3,0.6
		c3.7-0.6,7.4-1.3,11-1.9c0.3,0.3,0.6,0.6,0.9,0.9c-3.8,4.1-7.5,8.3-11.3,12.4c0.2,0.4,0.4,0.7,0.6,1.1c4.8-2.5,9.5-5,14.5-7.6
		c2.3,2.3,1.7,4.5-1.2,6.9c-8.2,6.9-17.5,10.6-28.7,11.2c0.4-1.6,0.6-2.9,1-4.1C56.1,115.4,58.2,101.9,56.7,88.1z M42.2,99.7
		c1.2-4.4,4-7.2,8-9.4c2.3,2.8,2.9,5.3,1.2,8.2c-0.6,0.9-0.8,2-1,3.1c-0.4,2.3-0.8,4.5-4,3.8C43.6,104.7,41.1,103.9,42.2,99.7z
		 M34.8,109.5c0.8-1.2,2.2-2.9,3.3-2.8c4.9,0.3,9.4,2,13.6,6.8c-2.5,0.6-4.2,1.5-5.8,1.3c-3.3-0.5-6.6-1.5-9.8-2.6
		C35.4,111.9,34.5,109.9,34.8,109.5z M32.5,114.8c6.1,1,11.6,3.3,15.9,8c0.1,0.6,0.1,1.1,0.2,1.7c-2.1,0.3-4.4,1.1-6.4,0.8
		c-3.8-0.7-7.7-1.8-11.2-3.4c-1.4-0.6-2.5-3-2.5-4.6C28.4,116.4,31.2,114.6,32.5,114.8z M28.4,126.8c0.7-0.8,2.5-1.4,3.4-1
		c4.6,1.9,9.2,4,13.6,6.3c0.8,0.4,0.8,2.4,1.4,4.1c1.4,0.2,3.4,0.4,5.4,0.7c-0.1,0.3-0.3,0.7-0.4,1c1.3,0.7,2.5,2,3.8,2.1
		c5.2,0.2,10.5,0.1,15.5,0.1c-1.4,3-2.9,6.5-4.7,9.7c-0.4,0.8-1.9,1.4-2.9,1.4c-1.4,0.1-2.9-0.3-4.7-0.6c-2.7-6.6-4.8-7.7-11.1-6.3
		c-5.4-6.4-8.6-6.4-13.7,0C25.2,141.9,22.5,133.7,28.4,126.8z M46.3,162.5c-2.5,0.5-4.3,0.8-6.7,1.3c-0.6-5.6-1.4-10.8-1.6-16
		c-0.1-1.4,1.7-2.8,2.7-4.3c1,1.2,2.7,2.3,3,3.7C44.8,152.1,45.4,157.1,46.3,162.5z M36.5,164.7c-1.8,0.6-3.2,1-5.5,1.7
		c-1.3-4.8-2.7-9.4-3.7-14.1c-0.2-1.1,1.4-2.6,2.1-3.9c1.1,1,2.9,1.7,3.3,2.9C34.2,155.5,35.2,159.9,36.5,164.7z M21,162.2
		c-0.1-1.7,1.2-3.5,1.9-5.3c0.5,0.1,1,0.2,1.5,0.3c1.3,3.3,2.5,6.7,3.8,10.1c-0.7,0.5-1.4,0.7-1.8,1.2c-0.6,0.7-0.9,1.7-1.3,2.5
		c1,0.1,2,0.5,2.9,0.3c4.4-1.3,8.7-3,13.1-4.3c2.7-0.8,5.6-0.9,8.4-1.5c0.8-0.2,1.5-0.8,2.3-1.3c-0.4-0.6-1.2-1.2-1.2-1.9
		c-0.4-4.6-0.6-9.3-0.7-13.9c0-0.2,1.5-0.9,2-0.6c0.9,0.4,2.2,1.4,2.2,2.1c-0.1,5.9-0.1,11.9-0.9,17.8c-0.2,1.4-3.3,2.2-4.4,3.8
		c-3,4.3-6.9,4.6-11.5,3.8c-1.3-0.2-2.8,0.6-4.2,0.9c0,0.4,0,0.7,0.1,1.1c4.2,0.8,8.5,1.6,12.3,2.3c3.1-2.7,6.6-4.9,9-8.1
		c1.8-2.4,2.1-5.9,3.1-8.9c0.7-2.2,1.1-4.4,2-6.4c0.2-0.6,1.7-1.1,2.3-1c0.7,0.2,1.5,1.3,1.5,2.1c0.3,5,0.6,10,0.5,15
		c-0.2,6.1-4,10.2-8.4,13.8c-0.7,0.6-2.3,0.7-3.2,0.3c-5.1-2.3-9.9-1.8-15,0c-1.4,0.5-3.9,0.3-5-0.7C25.2,179.5,21.5,171.6,21,162.2
		z M26.5,218.8c-3.7-7.8-0.8-18.3,6.9-25.4c7.2-6.6,16.3-6.3,22.6,1.1c6,7.1,10.2,15,10.6,23.7c-0.6,11.4-3.2,14.4-13.7,16.3
		C42.6,236.4,31.5,229.5,26.5,218.8z M66.8,246.1c-5.2-2-6.1-4.6-2.8-9.1c4.6-6.4,5.8-9.4,6.9-18.7c0.4-0.3,0.7-0.6,1.1-0.8
		c3.5,3.8,7.2,7.5,10.4,11.5c0.8,1.1,0.6,3.6-0.1,5c-1.8,3.6-3.9,7-6.4,10.2C73.6,247.2,70.4,247.4,66.8,246.1z M83.4,249.8
		c-1.8,0.7-4.1,0.4-6.3,0.6c4-6.6,7.4-12.3,11.1-18.3c3.6,0.3,5,2.2,3.9,6.1C90.7,243.2,88.6,247.8,83.4,249.8z M87.8,254
		c3.3-5.7,6.6-11.4,10.2-17.7c1.9,0.1,3.4,1.1,2.8,4.4C99.5,248.1,93.7,253.9,87.8,254z M96.1,267.1c-2.7-0.4-5-1.9-4.7-4.6
		c0.3-2,1.9-4.5,3.6-5.6c2-1.3,4.9-1.3,7.4-1.9c0.9-0.2,1.9-0.5,2.8-0.8c0-0.4,0-0.8,0-1.2c-1.2-0.7-2.4-1.5-3.7-2.3
		c1.1-3.2,2-6.2,3.3-9.2c0.3-0.7,2.4-1.4,2.8-1.1c1.4,1.4,3.7,3.3,3.6,4.8c-0.6,5.3-1.4,10.7-3.2,15.7
		C106,265.8,100.9,267.9,96.1,267.1z M109.4,267.3c0.9-1.7,1.6-3.2,2.7-5.3c1.3,2,2.3,3.4,3.6,5.3H109.4z M135.5,265.7
		c-10.1,3.5-20.9-4.3-20.7-14.8c0-2.2-0.4-4.6,0.6-6.4c1-1.9,3-3.6,5-4.4c2.3-1,3.7,0.8,4.1,3.1c0.1,0.4,0.3,0.7,0.5,1.1
		c0.8,1.8,2.6,3.8,2.2,5.4c-0.3,1.3-3,2.1-4.6,3.2c-0.4,0.3-0.5,0.8-1.5,2.4c2.7-0.3,4.4-0.5,6-0.7c4.3-0.6,8.1,0.2,10.7,4.1
		C140,261.7,139,264.5,135.5,265.7z M144.5,247.7c-4.3-1.6-8.5-7.8-8.4-12.5c0.1-3,1.1-5.5,5.2-6.4c-0.1,7.5,3,13.1,8.9,17.3
		C148.6,248.7,146.6,248.5,144.5,247.7z M161.9,241.3c-3.8,2.8-8.7,2.5-12.3-0.8c-4.1-3.7-6.5-12.5-1.6-18.1c3.1-3.5,6-7.2,9-10.9
		c0.4,0.2,0.7,0.3,1,0.5c0.3,9.8,1.6,19.3,8.4,26.7C164.8,239.7,163.3,240.4,161.9,241.3z M198,217.1c-5.6,7.8-12.9,13.2-22.5,14.8
		c-7.8,1.3-10.7-0.7-12.3-8.4c-0.7-3.3-1-6.7-1.4-9.7c0.6-11,5.8-18.6,15-23.4c6.3-3.3,13.1-1.7,17.6,3.8c2,2.5,3.8,5.3,5.1,8.2
		C201.7,207.5,201.4,212.5,198,217.1z"/>
	<path class="st0" d="M153.9,144.2c-0.7-0.6-2.2-0.8-3-0.4c-2.1,1.1-4,2.6-6,3.9c-0.9,0.5-2,0.8-3,1.2c0.1-1.1-0.1-2.5,0.5-3.2
		c1.9-2,4.1-3.7,6.9-6.1c-4.8-0.6-7.7,1.5-10.6,4.1c-1,0.9-2.6,1.3-3.9,1.9c0.6-1.4,0.8-3.3,1.8-4.3c2-2,4.5-3.5,7.5-5.8
		c-6.2-0.1-9.9,2.6-13.5,5.8c-0.8,0.7-2.2,0.7-3.4,1c0.4-1.1,0.5-2.7,1.3-3.3c3-2.4,6.3-4.6,9.8-7c-4.1-3.4-1.9-7,0.1-10.4
		c5.8-10,8.3-20.8,7.9-32.4c-0.2-4.8-2.1-7.8-6.3-9.4c-17.9-7-35.8-6.9-53.4,0.9c-4,1.8-5.9,4.8-5.8,9.3
		c0.5,20.3,8.4,36.8,25.5,47.8c7.2,4.7,15.6,7.6,23.4,11.3c6.1,2.9,12.5,5.4,18.3,8.8c7.1,4.1,11,10.8,11.8,19
		c0.8,7.8-4.3,13.7-12.4,14c-8.3,0.4-14.3-5-13.7-13c0.3-3.8,1.9-7.5,3.1-11.7c-0.2-0.2-0.8-1.2-1.6-2.5c4.2,0.4,7.9,0.7,12.3,1.2
		c-2.7-4.6-7.8-7.4-10.4-6c-6,3.2-10.7,7.6-12.3,14.4c-2.1,9.1,0,17.2,7.1,23.3c7.7,6.5,16.9,8.1,25.9,3.8
		c8-3.8,13.6-10.4,14.2-19.8C173.3,164.8,165.2,153.6,153.9,144.2z M111.4,79.6c0-0.8,1.4-1.6,2.2-2.4c0.7,0.8,1.9,1.5,2.1,2.4
		c0.3,2.1,0.1,4.3,0.1,6.5h0c0,2.3,0.2,4.6-0.1,6.9c-0.1,0.8-1.3,1.4-1.9,2.2c-0.8-0.7-2.2-1.5-2.2-2.2
		C111.2,88.5,111.2,84,111.4,79.6z M104.4,115c-2.1-0.5-4.3-1.4-6.5-1.6c-3.5-0.4-5.9-1.9-7-5.2c-1-3.1,0-5.4,2.7-7.4
		c0.8-0.6,1-3,0.5-4c-1.4-2.4-3.3-4.4-5.1-6.7C97.1,90.9,105.1,102.1,104.4,115z M113.5,102.7c-4.9,0-9-3.5-9.4-8.4
		c-0.3-4.3-0.2-8.7,0-13c0-0.9,1.3-1.7,2-2.5c0.6,0.9,1.7,1.8,1.8,2.7c0.2,3.7,0,7.3,0.1,11c0.1,4,2,6.2,5.4,6.2
		c3.3,0,5.4-2.2,5.5-6.2c0.1-3.7-0.1-7.3,0.2-11c0.1-1,1.4-1.8,2.1-2.8c0.6,0.9,1.5,1.8,1.6,2.8c0.2,2.1,0.1,4.3,0.1,6.5h0
		c0,2,0.2,4.1,0,6.1C122.4,99.2,118.4,102.7,113.5,102.7z M138.2,89.9c-1.9,2.4-4,4.5-5.4,7c-0.6,0.9-0.3,3.3,0.5,3.9
		c2.6,2,3.7,4.3,2.6,7.4c-1.1,3.3-3.6,4.8-7,5.1c-2.1,0.2-4.1,1-6.3,1.7C121.8,102.9,128,92.6,138.2,89.9z"/>
	<path class="st0" d="M136.4,211c-9-7.4-13.7-17.5-16.2-28.7c-0.7-3.4,0.3-7.2,0.6-10.9c0.1-1.1,0.4-2.2,0.7-3.5
		c-7.5,4.8-14.6,9.1-21.5,13.8c-11.1,7.4-19.7,17-24.8,29.4c-0.5,1.1-1.1,3.1-0.6,3.7c3.5,3.5,6.9,7.5,11.2,9.9
		c13.7,7.6,28.2,6.9,42.4,1.6c3.8-1.4,6.9-5.4,9.7-8.7C139.7,215.4,138.9,213.1,136.4,211z M116.1,223c-3.1-2.4-5.4-2.3-6.6,1.6
		c-2.5-1.9-2.9-4.3-1-6.1c1.2-1.2,3.9-2,5.2-1.4c1.5,0.7,2.3,3.1,3.3,4.8C116.7,222.3,116.4,222.7,116.1,223z"/>
	<path class="st0" d="M66.7,218.3c-0.6,11.4-3.2,14.4-13.7,16.3c-10.5,1.9-21.6-5-26.5-15.7c-3.7-7.8-0.8-18.3,6.9-25.4
		c7.2-6.6,16.4-6.3,22.6,1.1C62.1,201.6,66.2,209.6,66.7,218.3z"/>
	<path class="st0" d="M161.9,213.8c0.6-11,5.8-18.6,15-23.4c6.3-3.3,13.1-1.7,17.6,3.8c2,2.5,3.8,5.3,5.1,8.2c2.2,5,1.9,10-1.5,14.6
		c-5.6,7.8-12.9,13.2-22.5,14.8c-7.8,1.3-10.7-0.7-12.3-8.4C162.6,220.2,162.3,216.8,161.9,213.8z"/>
	<path class="st0" d="M65.5,93.2c4.2,2.7,7.5,4.8,11.5,7.3c-4.1,3.1-7.9,5.9-11.7,8.8c0.1,0.2,0.2,0.4,0.3,0.6
		c3.7-0.6,7.4-1.3,11-1.9c0.3,0.3,0.6,0.6,0.9,0.9c-3.8,4.1-7.5,8.3-11.3,12.4c0.2,0.4,0.4,0.7,0.6,1.1c4.8-2.5,9.5-5,14.5-7.6
		c2.3,2.3,1.7,4.5-1.2,6.9c-8.2,6.9-17.5,10.6-28.7,11.2c0.4-1.6,0.6-2.9,1-4.1c3.8-13.3,5.9-26.8,4.3-40.6c-0.3-3-1.5-6-3-8.7
		c-2.8-5.1-1.3-9.1,4.5-9.5c3.4-0.2,6.9,0.7,10.2,1.8c3.7,1.3,5.5,4.2,4.5,8.4c-2.7,0-5.5,0-8.6,0c4.1,3.8,7.8,7.4,11.6,10.9
		c-0.1,0.5-0.3,0.9-0.4,1.4C72.5,92.6,69.6,92.9,65.5,93.2z"/>
	<path class="st0" d="M148.6,114.8c5.3,3.2,10,6,14.6,8.7c0.2-0.3,0.4-0.6,0.5-0.9c-4-4.5-8-9.1-12-13.6c0.2-0.3,0.4-0.5,0.6-0.8
		c3.2,1.4,6.4,2.7,9.6,4.1c0.1-0.2,0.2-0.4,0.3-0.6c-2.9-2.9-5.7-5.8-8.6-8.5c-2-1.9-1.9-3.3,0.3-4.9c2.8-2.1,5.5-4.3,8-7.2
		c-2.5,0.3-5,0.7-7.6,1c-0.2-0.2-0.4-0.5-0.6-0.7c3.6-4.3,7.2-8.6,10.8-12.9c-0.2-0.3-0.4-0.5-0.6-0.8c-2.5,1.1-4.9,2.1-7.6,3.3
		c-0.2-2.7-0.5-5-0.6-7.3c0-0.4-0.1-1.1,0.1-1.1c3.6-1.6,7.2-3.6,11-4.5c3.2-0.7,5.8,1.5,6.8,4.6c0.5,1.5,0.7,3.7-0.1,5.1
		c-4.9,9.1-4,18.8-2.3,28.3c1.6,8.8,4.2,17.4,6.4,26.1c0.2,0.6,0.2,1.3,0.4,2.4c-12-0.5-21.9-4.9-29.8-13.3
		C147.3,120,148.4,117,148.6,114.8z"/>
	<path class="st0" d="M33.1,177.3c4.2,0.8,8.5,1.6,12.3,2.3c3.1-2.7,6.6-4.9,9-8.1c1.8-2.4,2.1-5.9,3.1-8.9c0.7-2.1,1.2-4.4,2-6.4
		c0.2-0.6,1.7-1.2,2.3-1c0.7,0.2,1.5,1.3,1.5,2.1c0.3,5,0.6,10,0.5,15c-0.2,6.1-4,10.2-8.4,13.8c-0.7,0.6-2.3,0.7-3.2,0.3
		c-5.1-2.3-10-1.8-15,0c-1.4,0.5-3.9,0.3-5-0.7c-7-6.2-10.7-14.2-11.2-23.6c-0.1-1.7,1.2-3.5,1.9-5.3c0.5,0.1,1,0.2,1.5,0.3
		c1.3,3.3,2.5,6.7,3.8,10.1c-0.7,0.5-1.4,0.7-1.8,1.2c-0.6,0.7-0.9,1.7-1.3,2.5c1,0.1,2,0.5,2.9,0.3c4.4-1.4,8.7-3,13.1-4.3
		c2.7-0.8,5.6-0.9,8.4-1.5c0.8-0.2,1.5-0.8,2.3-1.3c-0.4-0.6-1.2-1.2-1.2-1.9c-0.4-4.6-0.6-9.3-0.7-13.9c0-0.2,1.5-0.9,2-0.6
		c0.9,0.4,2.2,1.4,2.2,2.1c-0.1,5.9-0.1,11.9-0.9,17.8c-0.2,1.4-3.3,2.2-4.4,3.8c-3,4.3-6.9,4.6-11.5,3.8c-1.3-0.2-2.8,0.6-4.2,0.9
		C33,176.6,33.1,176.9,33.1,177.3z"/>
	<path class="st0" d="M115.1,153.5c-2.8,7.7-11.9,9.4-24.7,10.8c0.8-4.2,0.5-4.4-3.6-3.2c-1.4,0.4-3.1,0.1-5.1,0.1
		c0.5,1.3,0.9,2.3,1.3,3.3c-7.3,1.9-12.2-1.6-12.6-9.1c-0.4-7.8,6.1-16.4,15.4-19.4c-1.5,1.3-3.3,2.5-4.3,4.1
		c-1.3,1.9-2.9,4.3-2.6,6.2c0.2,1.5,3.2,2.5,4.9,3.7c6.7,5,13.2,1.6,19.9-0.1C108.2,148.7,112.1,150.1,115.1,153.5z"/>
	<path class="st0" d="M58.7,150.6c-2.7-6.6-4.8-7.7-11.1-6.3c-5.4-6.4-8.6-6.4-13.7,0c-8.7-2.3-11.4-10.6-5.5-17.5
		c0.7-0.8,2.5-1.4,3.4-1c4.6,1.9,9.2,4,13.6,6.3c0.8,0.4,0.8,2.4,1.4,4.1c1.4,0.2,3.4,0.4,5.4,0.7c-0.1,0.3-0.3,0.7-0.4,1
		c1.3,0.7,2.5,2,3.8,2.1c5.2,0.2,10.5,0.1,15.5,0.1c-1.4,3-2.9,6.5-4.7,9.7c-0.4,0.8-1.9,1.4-2.9,1.4
		C61.9,151.3,60.5,150.9,58.7,150.6z"/>
	<path class="st0" d="M66.5,202.3c-5.3-6.9-4.2-19.4,2.8-25.7c4.1-3.7,9.4-6.4,14.6-8.2c5-1.7,10.6-1.8,16.4-1.9
		C85.7,175.5,73.6,186.5,66.5,202.3z"/>
	<path class="st0" d="M182.6,178.2c0-1.3,0-2.6,0-4c-0.1-3.5-0.6-7-0.2-10.5c0.2-1.4,2.1-2.7,3.2-4c0.8,1.4,2.1,2.7,2.3,4.2
		c0.5,3.7,0.5,7.6,0.8,11.4c0.1,1.2,0.4,2.4,0.6,3.6c0.4,0,0.9,0.1,1.3,0.1c0.3-1.3,1-2.5,1-3.8c0.1-4.1-0.1-8.1,0.1-12.2
		c0.1-1.1,1.1-2.2,1.7-3.3c1.2,0.8,3.5,1.6,3.6,2.5c0.5,4.1,0.3,8.3,0.5,12.4c0.1,1.3,0.5,2.5,0.8,3.8c0.8-1.1,2.1-2.1,2.3-3.3
		c0.5-2.6,0.4-5.4,0.8-8.1c0.2-1.2,0.9-2.3,1.3-3.4c0.8,0.9,2.4,1.8,2.4,2.8c0,4-0.3,8-1,11.9c-0.2,0.9-2.6,1.4-4,1.9
		c-1.6,0.6-3.3,1.3-4.9,1.3c-4,0-8-0.4-12-0.6c-0.3,0-0.6-0.2-0.8-0.1c-6.1,2.8-5.2-1.5-5.5-5.1c-0.2-3.4-1.2-6.6-1.7-10
		c-0.1-1.1,0.4-2.3,0.6-3.5c0.8,1,2.1,2,2.3,3.1c0.8,3.3,1,6.7,1.7,10c0.2,1.2,1.1,2.2,1.6,3.3C181.8,178.5,182.2,178.3,182.6,178.2
		z"/>
	<path class="st0" d="M158.1,212c0.3,9.8,1.6,19.3,8.4,26.7c-1.7,1-3.2,1.7-4.5,2.6c-3.8,2.8-8.7,2.5-12.3-0.8
		c-4-3.8-6.5-12.5-1.6-18.1c3.1-3.5,6-7.2,9-10.9C157.4,211.7,157.7,211.9,158.1,212z"/>
	<path class="st0" d="M121.2,255.3c2.7-0.3,4.4-0.5,6-0.7c4.3-0.6,8.1,0.2,10.7,4.1c2.1,3.1,1,5.9-2.4,7
		c-10.1,3.5-20.9-4.3-20.7-14.8c0-2.2-0.3-4.6,0.6-6.4c1-1.9,3-3.6,5-4.4c2.3-1,3.7,0.8,4.1,3.1c0.1,0.4,0.3,0.8,0.5,1.1
		c0.8,1.8,2.6,3.8,2.2,5.4c-0.3,1.3-3,2.1-4.6,3.2C122.3,253.2,122.2,253.7,121.2,255.3z"/>
	<path class="st0" d="M72,217.4c3.5,3.8,7.2,7.5,10.4,11.5c0.8,1.1,0.6,3.6-0.1,5c-1.8,3.6-3.9,7-6.4,10.2c-2.3,3-5.6,3.3-9.2,1.9
		c-5.2-2-6.1-4.6-2.8-9.1c4.6-6.4,5.8-9.4,6.9-18.7C71.3,218,71.6,217.7,72,217.4z"/>
	<path class="st0" d="M183.6,134.6c-1.5-5.5-3.2-11-4.3-16.7c-0.3-1.4,1.5-3.2,2.6-4.7c0.3-0.5,1.1-0.8,1.8-0.9
		c3.4-0.7,7.3-5.4,10-1.1c5,8.1,5.1,14.1,0.4,17.8c-2.7,2.1-5.7,4-8.6,6C184.8,134.8,184.2,134.7,183.6,134.6z"/>
	<path class="st0" d="M69.2,211.1c0.1-2-0.3-4.2,0.4-5.9c5.6-12.9,14.4-23.3,26.6-30.5c8.5-5,16.7-10.1,22.5-18.4
		c0.6-0.8,2.5-0.6,3.8-0.9c-0.1,1.2,0.2,2.6-0.4,3.5c-2.8,4.9-6.6,8.8-11.6,11.7c-5.5,3.2-10.9,6.6-16.1,10.4
		c-9.9,7.1-17.4,16.3-22.3,27.5c-0.4,1-1,1.9-1.5,2.8C70.1,211.2,69.7,211.2,69.2,211.1z"/>
	<path class="st0" d="M199.2,150.8c-1.9-1.1-3.9-2.2-6.8-3.8c0.7,3.3,1.1,5.5,1.7,8.1c-7.2,1.2-14.2,2.4-21.2,3.6
		c-2.8-4,0.2-10.7,6.2-14.1C186.5,140.6,195.8,143.4,199.2,150.8z"/>
	<path class="st0" d="M105.2,253.1c-1.2-0.7-2.4-1.5-3.7-2.3c1.1-3.2,2-6.2,3.3-9.2c0.3-0.7,2.4-1.4,2.8-1.1
		c1.4,1.4,3.7,3.3,3.6,4.8c-0.6,5.3-1.4,10.7-3.2,15.7c-1.8,4.8-6.9,6.9-11.7,6.1c-2.7-0.4-5-1.9-4.7-4.6c0.3-2,1.9-4.5,3.6-5.6
		c2-1.3,4.9-1.3,7.4-1.9c0.9-0.2,1.9-0.5,2.8-0.8C105.2,253.9,105.2,253.5,105.2,253.1z"/>
	<path class="st0" d="M48.6,124.5c-2.1,0.3-4.4,1.1-6.4,0.8c-3.8-0.7-7.7-1.8-11.2-3.4c-1.3-0.6-2.5-3-2.5-4.6c0-0.8,2.8-2.6,4-2.4
		c6.1,1,11.6,3.3,15.9,8C48.5,123.4,48.5,123.9,48.6,124.5z"/>
	<path class="st0" d="M88.2,232.1c3.6,0.3,5,2.2,3.9,6.1c-1.4,5-3.6,9.5-8.7,11.6c-1.8,0.7-4.1,0.4-6.3,0.6
		C81.2,243.8,84.6,238.1,88.2,232.1z"/>
	<path class="st0" d="M46.3,162.5c-2.5,0.5-4.3,0.8-6.6,1.3c-0.6-5.6-1.4-10.8-1.6-16c-0.1-1.4,1.7-2.8,2.7-4.3c1,1.2,2.7,2.3,3,3.7
		C44.8,152.1,45.4,157.1,46.3,162.5z"/>
	<path class="st0" d="M141.3,228.8c-0.1,7.5,3,13.1,8.9,17.3c-1.6,2.7-3.6,2.4-5.7,1.6c-4.3-1.6-8.5-7.8-8.4-12.5
		C136.2,232.1,137.2,229.6,141.3,228.8z"/>
	<path class="st0" d="M146.1,186.4c-0.9-0.3-2.3-0.5-3.5-1c-2.4-1.2-4.9-3.2-3.6-5.8c0.7-1.5,3.9-1.8,6.1-2.4
		c0.7-0.2,1.7,0.5,2.4,0.3c4.2-1.4,5.5,1.3,5.9,4.5c0.4,3.7-2.9,3.6-5.2,4.3C147.6,186.3,147.1,186.3,146.1,186.4z"/>
	<path class="st0" d="M195,105.4c-4.2,1.2-8.3,2.6-12.4,3.6c-1.4,0.3-3.1,0.3-4.3-0.3c-2-0.9-2.7-2.8-0.4-4c3.8-1.9,7.9-3.7,12-4.7
		C193.1,99.1,194.8,101.4,195,105.4z"/>
	<path class="st0" d="M50.2,90.3c2.3,2.8,2.9,5.3,1.2,8.2c-0.6,0.9-0.8,2-1,3.1c-0.4,2.3-0.8,4.5-4,3.8c-2.9-0.7-5.4-1.4-4.3-5.6
		C43.4,95.3,46.2,92.6,50.2,90.3z"/>
	<path class="st0" d="M119.4,53.4c-4.4,0-7.6,0-11.3,0c1-5.2,1.4-10.1,4.9-14c0.5-0.1,1.1-0.2,1.6-0.2
		C116.2,43.7,117.7,48.2,119.4,53.4z"/>
	<path class="st0" d="M99.7,138.8c-4.7,5.5-10.2,7.5-17.2,7.1c4.6-3.6,8.8-6.7,13-9.9c-0.6-0.9-1.3-1.8-1.9-2.7
		C95.4,135,97.4,136.8,99.7,138.8z"/>
	<path class="st0" d="M36.5,164.7c-1.8,0.6-3.2,1-5.5,1.7c-1.3-4.8-2.7-9.4-3.7-14.1c-0.2-1.1,1.4-2.6,2.1-3.9
		c1.1,1,2.9,1.7,3.3,2.9C34.2,155.5,35.2,159.9,36.5,164.7z"/>
	<path class="st0" d="M87.8,254c3.3-5.7,6.6-11.4,10.2-17.7c1.9,0.1,3.4,1.1,2.8,4.4C99.5,248.1,93.7,253.9,87.8,254z"/>
	<path class="st0" d="M117.1,64c0,4.6-1.4,6.2-5.2,5.5c-1.1-0.2-2.5-1.7-2.9-2.9c-0.5-1.4-0.2-3.2,0-4.8c0.2-2.3,0.5-4.4,3.9-4.4
		c3.4-0.1,3.7,2,4,4.3C117,62.7,117.1,63.6,117.1,64z"/>
	<path class="st0" d="M51.7,113.5c-2.5,0.6-4.2,1.5-5.8,1.3c-3.3-0.5-6.6-1.5-9.8-2.6c-0.7-0.3-1.7-2.2-1.4-2.7
		c0.8-1.2,2.2-2.9,3.3-2.8C43,107,47.4,108.7,51.7,113.5z"/>
	<path class="st0" d="M132.7,55.3c-3.1-0.4-5.3-0.5-7.5-1.1c-0.9-0.2-2.1-1.2-2.4-2.1c-1-3.6-1.8-7.2-2.8-11.7
		C126.4,43.8,129.9,48.7,132.7,55.3z"/>
	<path class="st0" d="M138.5,250.2c-3.4,0.8-8.7-3.4-10.5-9c-1.2-3.7-0.3-5.7,2.8-7.1C133.4,239.4,135.9,244.7,138.5,250.2z"/>
	<path class="st0" d="M94.4,55c2.9-6.6,6.4-11.3,12.6-14.5c-1,4.3-1.8,8-2.8,11.6c-0.2,0.8-1.3,1.7-2.1,1.9
		C99.8,54.5,97.5,54.6,94.4,55z"/>
	<path class="st0" d="M189.8,96c-3.6,1.3-6.9,2.8-10.3,3.6c-1.3,0.3-2.9-1.1-4.4-1.8c0.7-1,1.1-2.4,2.1-2.9c2.2-1.2,4.6-2.2,7-2.9
		C187.4,91.1,189.1,92.8,189.8,96z"/>
	<path class="st0" d="M120.3,57.2c2.1,0.9,5.2,1.3,5.5,2.5c0.9,3,0.7,6.3,0.5,9.5c0,0.4-2.7,0.9-4,0.8c-0.8-0.1-1.9-1.5-2-2.4
		C120.1,64.5,120.3,61.4,120.3,57.2z"/>
	<path class="st0" d="M106,58.2c-0.1,3-0.5,5.7-0.3,8.4c0.2,3-1.7,3.3-3.8,3.5c-2.7,0.3-2.7-1.5-2.8-3.4c0-1.1,0-2.2,0-3.3
		C99.6,58.3,100.6,57.6,106,58.2z"/>
	<path class="st0" d="M123.4,34.1c-1.8,0.3-3.5,0.7-5.3,0.9c-4.6,0.4-9.2,0.6-13.8,0.8c-1,0-2-0.7-3-1.1c0.7-0.7,1.3-1.8,2.1-2
		c6.6-2.1,13.3-2.1,19.8,0.1C123.3,33.2,123.4,33.6,123.4,34.1z"/>
	<path class="st0" d="M96,59.1c0,3.5,0,6.7,0,9.9c0,3.3-2.3,3.4-4.6,3.6C88.8,65.5,90.8,59.8,96,59.1z"/>
	<path class="st0" d="M130.2,59.5c4.7,0,6.6,4.5,4.8,11.8c-3.1,0.4-5.3-0.1-4.9-4.2C130.4,64.6,130.2,62.1,130.2,59.5z"/>
	<path class="st0" d="M112.3,23.2c-1.9-1.9-3.1-3-4.2-4.1c1.7-1.7,3.4-3.4,5-5.1c1.6,1.6,3.2,3.2,4.9,4.8
		C116.3,20,114.6,21.3,112.3,23.2z"/>
	<path class="st0" d="M87.5,61.6c0,3.9,0.2,7.8-0.1,11.7c-0.1,1.1-1.7,2-2.6,3.1c-0.7-0.9-2-1.9-2-2.8c0.1-3.2,0.5-6.4,1.1-9.6
		c0.3-1.4,1.2-2.6,1.9-3.9C86.3,60.6,86.9,61.1,87.5,61.6z"/>
	<path class="st0" d="M95,45.1c-3.9,3.6-2.3,11.7-9.9,12.4C83.5,53.2,87.4,48,95,45.1z"/>
	<path class="st0" d="M175.1,91.2c0.9-4.5,1.6-8.4,2.6-13.2C184.2,86.3,183.7,89.1,175.1,91.2z"/>
	<path class="st0" d="M141.8,58.1c-7.5-1.8-5.9-9.9-10.4-13.3C136.7,46.1,141.4,52,141.8,58.1z"/>
	<path class="st0" d="M138.8,61.8c4,1.2,5.5,5.5,4,12.9c-3,0.2-4.4-1-4.1-4.2C139,67.6,138.8,64.7,138.8,61.8z"/>
	<path class="st0" d="M170.4,141.1c-9,2.9-11.9,2.1-17.7-4.7C158.5,138,164.2,139.5,170.4,141.1z"/>
	<path class="st0" d="M105.6,27.6c3.6-3.4,10.3-3.6,15.7,0C115.5,27.6,110.6,27.6,105.6,27.6z"/>
	<path class="st0" d="M79.2,78c-1.9-4.1-2.9-7.6,0-12.3C79.2,70.2,79.2,73.7,79.2,78z"/>
	<path class="st0" d="M112.2,262c1.3,2,2.3,3.4,3.6,5.3c-2.2,0-4,0-6.3,0C110.3,265.6,111.1,264.1,112.2,262z"/>
	<path d="M122.8,88.1c0,2,0.2,4.1,0,6.1c-0.4,4.9-4.4,8.4-9.3,8.5c-4.9,0-9-3.5-9.4-8.4c-0.3-4.3-0.2-8.7,0-13c0-0.9,1.3-1.7,2-2.5
		c0.6,0.9,1.7,1.8,1.8,2.7c0.2,3.7,0,7.3,0.1,11c0.1,4,2,6.2,5.4,6.2c3.3,0,5.4-2.2,5.5-6.2c0.1-3.7-0.1-7.3,0.2-11
		c0.1-1,1.4-1.8,2.1-2.8c0.6,0.9,1.5,1.8,1.6,2.8C123.1,83.8,122.9,86,122.8,88.1C122.9,88.1,122.9,88.1,122.8,88.1z"/>
	<path d="M122.5,115.1c-0.7-12.1,5.5-22.5,15.6-25.2c-1.9,2.4-4,4.6-5.4,7c-0.6,0.9-0.3,3.3,0.5,3.9c2.6,2,3.7,4.3,2.6,7.4
		c-1.1,3.3-3.6,4.8-7,5.1C126.8,113.6,124.8,114.5,122.5,115.1z"/>
	<path d="M89,90.2c8.1,0.7,16.1,11.9,15.4,24.8c-2.1-0.5-4.3-1.4-6.5-1.6c-3.5-0.4-5.9-1.9-7-5.2c-1-3.1,0-5.4,2.7-7.4
		c0.8-0.6,1-3,0.5-4C92.7,94.5,90.7,92.5,89,90.2z"/>
	<path d="M115.7,86.1c0,2.3,0.2,4.6-0.1,6.9c-0.1,0.8-1.3,1.4-1.9,2.2c-0.8-0.7-2.2-1.5-2.3-2.2c-0.2-4.4-0.2-8.9,0-13.4
		c0-0.8,1.4-1.6,2.2-2.4c0.7,0.8,2,1.5,2.1,2.4C115.9,81.8,115.7,84,115.7,86.1C115.7,86.1,115.7,86.1,115.7,86.1z"/>
	<path d="M116.1,223c-3-2.4-5.4-2.3-6.6,1.6c-2.5-1.9-2.8-4.3-1-6.1c1.2-1.2,3.9-2,5.2-1.4c1.5,0.7,2.3,3.1,3.3,4.8
		C116.7,222.3,116.4,222.7,116.1,223z"/>
</g>
<g>
	<path class="st1" d="M244.2,129.5l29.5-1.8c0.6,4.8,1.9,8.4,3.9,11c3.2,4.1,7.8,6.1,13.7,6.1c4.4,0,7.8-1,10.2-3.1
		c2.4-2.1,3.6-4.5,3.6-7.2c0-2.6-1.1-4.9-3.4-7c-2.3-2.1-7.6-4-15.9-5.8c-13.6-3.1-23.3-7.1-29.1-12.2c-5.8-5.1-8.8-11.5-8.8-19.4
		c0-5.2,1.5-10,4.5-14.6c3-4.6,7.5-8.2,13.5-10.8c6-2.6,14.2-3.9,24.7-3.9c12.8,0,22.6,2.4,29.3,7.2c6.7,4.8,10.7,12.4,12,22.8
		l-29.2,1.7c-0.8-4.5-2.4-7.8-4.9-9.9c-2.5-2.1-5.9-3.1-10.3-3.1c-3.6,0-6.3,0.8-8.1,2.3c-1.8,1.5-2.7,3.4-2.7,5.6
		c0,1.6,0.8,3,2.3,4.3c1.5,1.3,4.9,2.6,10.4,3.7c13.6,2.9,23.3,5.9,29.1,8.9c5.9,3,10.1,6.7,12.8,11.1c2.7,4.4,4,9.4,4,14.9
		c0,6.4-1.8,12.4-5.3,17.8c-3.6,5.4-8.5,9.6-14.9,12.4c-6.4,2.8-14.4,4.2-24.2,4.2c-17.1,0-28.9-3.3-35.5-9.9
		C248.8,148,245.1,139.6,244.2,129.5z"/>
	<path class="st1" d="M351.5,62.3h31v35.1h33.9V62.3h31.1v100.4h-31.1v-40.6h-33.9v40.6h-31V62.3z"/>
	<path class="st1" d="M468.9,162.7V62.3h51.7c9.6,0,16.9,0.8,22,2.5s9.2,4.7,12.3,9.1c3.1,4.4,4.7,9.9,4.7,16.3
		c0,5.6-1.2,10.4-3.6,14.4s-5.6,7.3-9.8,9.8c-2.6,1.6-6.3,2.9-10.9,4c3.7,1.2,6.4,2.5,8.1,3.7c1.1,0.8,2.8,2.6,5,5.3
		c2.2,2.7,3.6,4.8,4.3,6.2l15,29.1h-35L516,132c-2.1-4-4-6.5-5.6-7.7c-2.2-1.6-4.8-2.3-7.6-2.3h-2.7v40.7H468.9z M500.1,103h13.1
		c1.4,0,4.2-0.5,8.2-1.4c2.1-0.4,3.7-1.5,5-3.1c1.3-1.7,2-3.6,2-5.8c0-3.2-1-5.7-3.1-7.5c-2.1-1.7-5.9-2.6-11.6-2.6h-13.6V103z"/>
	<path class="st1" d="M577.9,62.3H661v21.4h-52v16h48.3v20.5H609v19.8h53.5v22.7h-84.6V62.3z"/>
	<path class="st1" d="M679.6,62.3h83.1v21.4h-52v16H759v20.5h-48.3v19.8h53.5v22.7h-84.6V62.3z"/>
	<path class="st1" d="M879,126.3v-20.9h47.9v42.8c-9.2,6.3-17.3,10.5-24.3,12.8s-15.4,3.4-25.1,3.4c-11.9,0-21.6-2-29.1-6.1
		c-7.5-4.1-13.3-10.1-17.5-18.1c-4.1-8-6.2-17.3-6.2-27.7c0-11,2.3-20.5,6.8-28.6c4.5-8.1,11.1-14.3,19.9-18.5
		c6.8-3.2,16-4.9,27.5-4.9c11.1,0,19.4,1,24.9,3c5.5,2,10.1,5.1,13.7,9.3c3.6,4.2,6.4,9.6,8.2,16.1l-29.9,5.3
		c-1.2-3.8-3.3-6.7-6.3-8.7c-2.9-2-6.7-3-11.3-3c-6.8,0-12.2,2.4-16.3,7.1c-4,4.7-6.1,12.2-6.1,22.4c0,10.9,2,18.6,6.1,23.3
		c4.1,4.7,9.8,7,17.1,7c3.5,0,6.8-0.5,9.9-1.5c3.1-1,6.8-2.7,10.8-5.1v-9.4H879z"/>
	<path class="st1" d="M1007.4,146.1h-35.2l-4.9,16.6h-31.7l37.7-100.4h33.8l37.7,100.4h-32.5L1007.4,146.1z M1001,124.4l-11.1-36.1
		l-11,36.1H1001z"/>
	<path class="st1" d="M1055.4,62.3h29l37.8,55.5V62.3h29.2v100.4h-29.2l-37.6-55.1v55.1h-29.2V62.3z"/>
	<path class="st1" d="M1172.4,62.3h83.1v21.4h-52v16h48.3v20.5h-48.3v19.8h53.5v22.7h-84.6V62.3z"/>
	<path class="st1" d="M1268.7,129.5l29.5-1.8c0.6,4.8,1.9,8.4,3.9,11c3.2,4.1,7.8,6.1,13.7,6.1c4.4,0,7.8-1,10.2-3.1
		c2.4-2.1,3.6-4.5,3.6-7.2c0-2.6-1.1-4.9-3.4-7c-2.3-2.1-7.6-4-15.9-5.8c-13.6-3.1-23.3-7.1-29.1-12.2c-5.8-5.1-8.8-11.5-8.8-19.4
		c0-5.2,1.5-10,4.5-14.6c3-4.6,7.5-8.2,13.5-10.8c6-2.6,14.2-3.9,24.7-3.9c12.8,0,22.6,2.4,29.3,7.2c6.7,4.8,10.7,12.4,12,22.8
		l-29.2,1.7c-0.8-4.5-2.4-7.8-4.9-9.9c-2.5-2.1-5.9-3.1-10.3-3.1c-3.6,0-6.3,0.8-8.1,2.3c-1.8,1.5-2.7,3.4-2.7,5.6
		c0,1.6,0.8,3,2.3,4.3c1.5,1.3,4.9,2.6,10.4,3.7c13.6,2.9,23.3,5.9,29.1,8.9c5.9,3,10.1,6.7,12.8,11.1c2.7,4.4,4,9.4,4,14.9
		c0,6.4-1.8,12.4-5.3,17.8c-3.6,5.4-8.5,9.6-14.9,12.4c-6.4,2.8-14.4,4.2-24.2,4.2c-17.1,0-28.9-3.3-35.5-9.9
		C1273.3,148,1269.6,139.6,1268.7,129.5z"/>
	<path class="st1" d="M1375.9,62.3h31v35.1h33.9V62.3h31.1v100.4h-31.1v-40.6h-33.9v40.6h-31V62.3z"/>
</g>
<g>
	<path class="st1" d="M277.5,217l10.2,3.1c-0.7,2.9-1.8,5.2-3.2,7.2s-3.3,3.4-5.5,4.3c-2.2,1-5,1.5-8.3,1.5c-4.1,0-7.4-0.6-10-1.8
		s-4.8-3.3-6.7-6.3c-1.9-3-2.8-6.8-2.8-11.5c0-6.2,1.7-11,5-14.4c3.3-3.3,8-5,14.1-5c4.7,0,8.5,1,11.2,2.9c2.7,1.9,4.7,4.9,6,8.8
		l-10.3,2.3c-0.4-1.1-0.7-2-1.1-2.5c-0.7-0.9-1.4-1.6-2.4-2.1c-0.9-0.5-2-0.7-3.2-0.7c-2.6,0-4.7,1.1-6.1,3.2
		c-1.1,1.6-1.6,4-1.6,7.4c0,4.2,0.6,7,1.9,8.6s3,2.3,5.3,2.3c2.2,0,3.9-0.6,5-1.9C276.2,221.2,277,219.4,277.5,217z"/>
	<path class="st1" d="M293.4,218.9c0-4.2,1.4-7.6,4.2-10.3s6.6-4,11.4-4c5.5,0,9.6,1.6,12.4,4.7c2.2,2.6,3.4,5.7,3.4,9.4
		c0,4.2-1.4,7.6-4.2,10.3s-6.6,4-11.5,4c-4.4,0-7.9-1.1-10.6-3.3C295.1,227,293.4,223.4,293.4,218.9z M303.9,218.9
		c0,2.4,0.5,4.2,1.5,5.4s2.2,1.7,3.7,1.7c1.5,0,2.7-0.6,3.7-1.7c1-1.1,1.5-3,1.5-5.5c0-2.4-0.5-4.1-1.5-5.3s-2.2-1.7-3.6-1.7
		c-1.5,0-2.8,0.6-3.8,1.8C304.4,214.7,303.9,216.5,303.9,218.9z"/>
	<path class="st1" d="M329.8,214.7H345v8.1h-15.2V214.7z"/>
	<path class="st1" d="M350.1,218.9c0-4.2,1.4-7.6,4.2-10.3s6.6-4,11.4-4c5.5,0,9.6,1.6,12.4,4.7c2.2,2.6,3.4,5.7,3.4,9.4
		c0,4.2-1.4,7.6-4.2,10.3s-6.6,4-11.5,4c-4.4,0-7.9-1.1-10.6-3.3C351.8,227,350.1,223.4,350.1,218.9z M360.6,218.9
		c0,2.4,0.5,4.2,1.5,5.4s2.2,1.7,3.7,1.7c1.5,0,2.7-0.6,3.7-1.7c1-1.1,1.5-3,1.5-5.5c0-2.4-0.5-4.1-1.5-5.3s-2.2-1.7-3.6-1.7
		c-1.5,0-2.8,0.6-3.8,1.8C361.1,214.7,360.6,216.5,360.6,218.9z"/>
	<path class="st1" d="M388.5,242.8v-37.6h9.8v4c1.4-1.7,2.6-2.8,3.7-3.4c1.5-0.8,3.2-1.2,5.1-1.2c3.6,0,6.5,1.4,8.5,4.2
		c2,2.8,3,6.2,3,10.3c0,4.5-1.1,8-3.3,10.4c-2.2,2.4-4.9,3.6-8.2,3.6c-1.6,0-3.1-0.3-4.4-0.8c-1.3-0.5-2.5-1.4-3.6-2.4v13H388.5z
		 M399,218.9c0,2.2,0.5,3.8,1.4,4.8s2.1,1.6,3.4,1.6c1.2,0,2.2-0.5,3.1-1.5c0.8-1,1.2-2.7,1.2-5.1c0-2.2-0.4-3.8-1.3-4.9
		c-0.9-1-1.9-1.6-3.1-1.6c-1.3,0-2.4,0.5-3.3,1.6C399.5,214.9,399,216.6,399,218.9z"/>
	<path class="st1" d="M455.9,221.4h-20.9c0.2,1.7,0.6,2.9,1.4,3.7c1,1.2,2.3,1.8,4,1.8c1,0,2-0.3,2.9-0.8c0.6-0.3,1.2-0.9,1.8-1.7
		l10.3,1c-1.6,2.7-3.5,4.7-5.7,5.9s-5.4,1.8-9.6,1.8c-3.6,0-6.5-0.5-8.5-1.5c-2.1-1-3.8-2.6-5.1-4.9c-1.4-2.2-2-4.8-2-7.8
		c0-4.3,1.4-7.7,4.1-10.3c2.7-2.6,6.5-4,11.3-4c3.9,0,7,0.6,9.2,1.8c2.3,1.2,4,2.9,5.2,5.1c1.2,2.2,1.8,5.2,1.8,8.8V221.4z
		 M445.3,216.4c-0.2-2-0.7-3.5-1.6-4.3c-0.9-0.9-2-1.3-3.5-1.3c-1.7,0-3,0.7-4,2c-0.6,0.8-1,2-1.2,3.7H445.3z"/>
	<path class="st1" d="M462.8,205.2h9.8v4.5c0.9-1.9,1.9-3.3,2.9-4c1-0.7,2.2-1.1,3.7-1.1c1.5,0,3.2,0.5,5.1,1.4l-3.2,7.4
		c-1.2-0.5-2.2-0.8-2.9-0.8c-1.4,0-2.4,0.6-3.2,1.7c-1.1,1.6-1.6,4.6-1.6,8.9v9.1h-10.5V205.2z"/>
	<path class="st1" d="M498.5,214l-10-1.1c0.4-1.7,0.9-3.1,1.6-4.1c0.7-1,1.7-1.9,3.1-2.6c1-0.5,2.3-0.9,4-1.2
		c1.7-0.3,3.5-0.4,5.4-0.4c3.1,0,5.6,0.2,7.5,0.5c1.9,0.4,3.5,1.1,4.7,2.2c0.9,0.8,1.6,1.9,2.1,3.3c0.5,1.4,0.8,2.8,0.8,4v12
		c0,1.3,0.1,2.3,0.2,3c0.2,0.7,0.5,1.7,1.1,2.8h-9.8c-0.4-0.7-0.7-1.2-0.8-1.6s-0.2-0.9-0.4-1.7c-1.4,1.3-2.7,2.3-4.1,2.8
		c-1.8,0.8-4,1.1-6.4,1.1c-3.3,0-5.7-0.8-7.4-2.3c-1.7-1.5-2.5-3.4-2.5-5.6c0-2.1,0.6-3.8,1.8-5.1c1.2-1.3,3.5-2.3,6.7-3
		c3.9-0.8,6.5-1.3,7.6-1.7c1.2-0.3,2.4-0.7,3.7-1.2c0-1.3-0.3-2.2-0.8-2.7c-0.5-0.5-1.5-0.8-2.8-0.8c-1.7,0-3,0.3-3.9,0.8
		C499.5,212,499,212.8,498.5,214z M507.6,219.5c-1.4,0.5-2.9,1-4.5,1.4c-2.1,0.6-3.5,1.1-4,1.7c-0.6,0.6-0.9,1.2-0.9,1.9
		c0,0.8,0.3,1.5,0.9,2c0.6,0.5,1.4,0.8,2.5,0.8c1.2,0,2.2-0.3,3.2-0.8c1-0.6,1.7-1.3,2.1-2.1c0.4-0.8,0.6-1.9,0.6-3.2V219.5z"/>
	<path class="st1" d="M537.8,194.8v10.4h5.8v7.7h-5.8v9.7c0,1.2,0.1,1.9,0.3,2.3c0.3,0.6,0.9,0.9,1.8,0.9c0.8,0,1.8-0.2,3.2-0.7
		l0.8,7.2c-2.6,0.6-5,0.8-7.2,0.8c-2.6,0-4.5-0.3-5.8-1s-2.1-1.7-2.7-3c-0.6-1.4-0.9-3.6-0.9-6.6v-9.6h-3.9v-7.7h3.9v-5L537.8,194.8
		z"/>
	<path class="st1" d="M551,194.8h10.4v7.1H551V194.8z M551,205.2h10.4v27.3H551V205.2z"/>
	<path class="st1" d="M567.1,205.2H578l5.3,17.3l5.5-17.3h10.5l-11.6,27.3h-9.3L567.1,205.2z"/>
	<path class="st1" d="M633.3,221.4h-20.9c0.2,1.7,0.6,2.9,1.4,3.7c1,1.2,2.3,1.8,4,1.8c1,0,2-0.3,2.9-0.8c0.6-0.3,1.2-0.9,1.8-1.7
		l10.3,1c-1.6,2.7-3.5,4.7-5.7,5.9s-5.4,1.8-9.6,1.8c-3.6,0-6.5-0.5-8.5-1.5c-2.1-1-3.8-2.6-5.1-4.9c-1.4-2.2-2-4.8-2-7.8
		c0-4.3,1.4-7.7,4.1-10.3c2.7-2.6,6.5-4,11.3-4c3.9,0,7,0.6,9.2,1.8c2.3,1.2,4,2.9,5.2,5.1c1.2,2.2,1.8,5.2,1.8,8.8V221.4z
		 M622.6,216.4c-0.2-2-0.7-3.5-1.6-4.3c-0.9-0.9-2-1.3-3.5-1.3c-1.7,0-3,0.7-4,2c-0.6,0.8-1,2-1.2,3.7H622.6z"/>
	<path class="st1" d="M679.3,218.8V211h18v16c-3.4,2.3-6.5,3.9-9.1,4.8c-2.6,0.8-5.8,1.3-9.4,1.3c-4.5,0-8.1-0.8-10.9-2.3
		s-5-3.8-6.5-6.8c-1.5-3-2.3-6.5-2.3-10.4c0-4.1,0.8-7.7,2.5-10.7s4.2-5.3,7.4-6.9c2.6-1.2,6-1.8,10.3-1.8c4.2,0,7.3,0.4,9.3,1.1
		s3.8,1.9,5.1,3.5c1.4,1.6,2.4,3.6,3.1,6l-11.2,2c-0.5-1.4-1.2-2.5-2.3-3.3c-1.1-0.8-2.5-1.1-4.2-1.1c-2.5,0-4.6,0.9-6.1,2.7
		s-2.3,4.6-2.3,8.4c0,4.1,0.8,7,2.3,8.7c1.5,1.7,3.7,2.6,6.4,2.6c1.3,0,2.5-0.2,3.7-0.6c1.2-0.4,2.5-1,4.1-1.9v-3.5H679.3z"/>
	<path class="st1" d="M705.6,205.2h9.8v4.5c0.9-1.9,1.9-3.3,2.9-4c1-0.7,2.2-1.1,3.7-1.1c1.5,0,3.2,0.5,5.1,1.4l-3.2,7.4
		c-1.2-0.5-2.2-0.8-2.9-0.8c-1.4,0-2.4,0.6-3.2,1.7c-1.1,1.6-1.6,4.6-1.6,8.9v9.1h-10.5V205.2z"/>
	<path class="st1" d="M730.5,218.9c0-4.2,1.4-7.6,4.2-10.3s6.6-4,11.4-4c5.5,0,9.6,1.6,12.4,4.7c2.2,2.6,3.4,5.7,3.4,9.4
		c0,4.2-1.4,7.6-4.2,10.3s-6.6,4-11.5,4c-4.4,0-7.9-1.1-10.6-3.3C732.2,227,730.5,223.4,730.5,218.9z M741,218.9
		c0,2.4,0.5,4.2,1.5,5.4s2.2,1.7,3.7,1.7c1.5,0,2.7-0.6,3.7-1.7c1-1.1,1.5-3,1.5-5.5c0-2.4-0.5-4.1-1.5-5.3s-2.2-1.7-3.6-1.7
		c-1.5,0-2.8,0.6-3.8,1.8C741.5,214.7,741,216.5,741,218.9z"/>
	<path class="st1" d="M797.6,232.5h-9.8V228c-1.5,1.8-2.9,3.1-4.4,3.9s-3.3,1.2-5.5,1.2c-2.9,0-5.1-0.9-6.8-2.6
		c-1.6-1.7-2.5-4.4-2.5-7.9v-17.4h10.5v15c0,1.7,0.3,2.9,1,3.6c0.6,0.7,1.5,1.1,2.7,1.1c1.2,0,2.3-0.5,3.1-1.4
		c0.8-1,1.2-2.7,1.2-5.2v-13.1h10.4V232.5z"/>
	<path class="st1" d="M806.1,242.8v-37.6h9.8v4c1.4-1.7,2.6-2.8,3.7-3.4c1.5-0.8,3.2-1.2,5.1-1.2c3.6,0,6.5,1.4,8.5,4.2
		c2,2.8,3,6.2,3,10.3c0,4.5-1.1,8-3.3,10.4c-2.2,2.4-4.9,3.6-8.2,3.6c-1.6,0-3.1-0.3-4.4-0.8c-1.3-0.5-2.5-1.4-3.6-2.4v13H806.1z
		 M816.5,218.9c0,2.2,0.5,3.8,1.4,4.8s2.1,1.6,3.4,1.6c1.2,0,2.2-0.5,3.1-1.5c0.8-1,1.2-2.7,1.2-5.1c0-2.2-0.4-3.8-1.3-4.9
		c-0.9-1-1.9-1.6-3.1-1.6c-1.3,0-2.4,0.5-3.3,1.6C817,214.9,816.5,216.6,816.5,218.9z"/>
	<path class="st1" d="M863.5,194.8h11.6V208h12.7v-13.2h11.7v37.6h-11.7v-15.2h-12.7v15.2h-11.6V194.8z"/>
	<path class="st1" d="M907.3,218.9c0-4.2,1.4-7.6,4.2-10.3s6.6-4,11.4-4c5.5,0,9.6,1.6,12.4,4.7c2.2,2.6,3.4,5.7,3.4,9.4
		c0,4.2-1.4,7.6-4.2,10.3s-6.6,4-11.5,4c-4.4,0-7.9-1.1-10.6-3.3C908.9,227,907.3,223.4,907.3,218.9z M917.8,218.9
		c0,2.4,0.5,4.2,1.5,5.4s2.2,1.7,3.7,1.7c1.5,0,2.7-0.6,3.7-1.7c1-1.1,1.5-3,1.5-5.5c0-2.4-0.5-4.1-1.5-5.3s-2.2-1.7-3.6-1.7
		c-1.5,0-2.8,0.6-3.8,1.8C918.3,214.7,917.8,216.5,917.8,218.9z"/>
	<path class="st1" d="M974.4,232.5h-9.8V228c-1.5,1.8-2.9,3.1-4.4,3.9s-3.3,1.2-5.5,1.2c-2.9,0-5.1-0.9-6.8-2.6
		c-1.6-1.7-2.5-4.4-2.5-7.9v-17.4h10.5v15c0,1.7,0.3,2.9,1,3.6c0.6,0.7,1.5,1.1,2.7,1.1c1.2,0,2.3-0.5,3.1-1.4
		c0.8-1,1.2-2.7,1.2-5.2v-13.1h10.4V232.5z"/>
	<path class="st1" d="M981,224.9l10.4-1c0.4,1.2,1,2.1,1.8,2.6c0.8,0.5,1.8,0.8,3.1,0.8c1.4,0,2.5-0.3,3.3-0.9
		c0.6-0.4,0.9-1,0.9-1.7c0-0.8-0.4-1.3-1.2-1.7c-0.6-0.3-2.1-0.6-4.5-1.1c-3.6-0.6-6.1-1.2-7.6-1.8s-2.6-1.4-3.6-2.7
		c-1-1.3-1.5-2.7-1.5-4.4c0-1.8,0.5-3.3,1.6-4.6c1-1.3,2.5-2.3,4.3-2.9c1.8-0.6,4.3-1,7.4-1c3.3,0,5.7,0.2,7.2,0.7
		c1.5,0.5,2.8,1.3,3.9,2.3s1.9,2.5,2.6,4.2l-9.9,1c-0.3-0.9-0.7-1.5-1.3-1.9c-0.8-0.5-1.8-0.8-3-0.8c-1.2,0-2,0.2-2.6,0.6
		c-0.5,0.4-0.8,0.9-0.8,1.5c0,0.7,0.3,1.2,1,1.5s2.2,0.6,4.5,0.9c3.5,0.4,6.1,0.9,7.8,1.6s3,1.7,3.9,3c0.9,1.3,1.3,2.7,1.3,4.3
		c0,1.6-0.5,3.1-1.4,4.6c-1,1.5-2.4,2.7-4.5,3.6c-2,0.9-4.8,1.3-8.4,1.3c-5,0-8.5-0.7-10.6-2.1C982.9,229.5,981.6,227.5,981,224.9z"
		/>
	<path class="st1" d="M1017.4,194.8h10.4v7.1h-10.4V194.8z M1017.4,205.2h10.4v27.3h-10.4V205.2z"/>
	<path class="st1" d="M1036.5,205.2h9.7v4.4c1.5-1.8,2.9-3.1,4.4-3.9c1.5-0.8,3.3-1.2,5.4-1.2c2.9,0,5.2,0.9,6.8,2.6s2.5,4.4,2.5,8
		v17.3h-10.5v-15c0-1.7-0.3-2.9-1-3.6c-0.6-0.7-1.5-1.1-2.7-1.1c-1.3,0-2.3,0.5-3.1,1.4s-1.2,2.7-1.2,5.2v13.1h-10.4V205.2z"/>
	<path class="st1" d="M1092.6,205.2h9.8v25.7l0,1.2c0,1.7-0.4,3.3-1.1,4.9c-0.7,1.5-1.7,2.8-2.9,3.8c-1.2,1-2.7,1.7-4.6,2.1
		c-1.9,0.4-4,0.6-6.4,0.6c-5.5,0-9.2-0.8-11.3-2.5c-2-1.6-3.1-3.8-3.1-6.6c0-0.3,0-0.8,0.1-1.4l10.1,1.2c0.3,0.9,0.7,1.6,1.2,2
		c0.8,0.5,1.7,0.8,2.9,0.8c1.5,0,2.6-0.4,3.4-1.2s1.1-2.2,1.1-4.2v-4.1c-1,1.2-2.1,2.1-3.1,2.6c-1.6,0.9-3.3,1.3-5.2,1.3
		c-3.6,0-6.6-1.6-8.8-4.8c-1.6-2.3-2.4-5.2-2.4-9c0-4.2,1-7.5,3.1-9.7c2.1-2.2,4.7-3.3,8.1-3.3c2.1,0,3.9,0.4,5.2,1.1
		s2.7,1.9,3.9,3.6V205.2z M1082.8,218.4c0,2,0.4,3.4,1.3,4.4c0.8,1,1.9,1.4,3.3,1.4c1.3,0,2.4-0.5,3.3-1.5c0.9-1,1.3-2.5,1.3-4.5
		c0-2-0.5-3.5-1.4-4.6c-0.9-1.1-2.1-1.6-3.4-1.6s-2.4,0.5-3.2,1.5C1083.2,214.6,1082.8,216.2,1082.8,218.4z"/>
	<path class="st1" d="M1129,220l11.1-0.7c0.2,1.8,0.7,3.2,1.5,4.1c1.2,1.5,2.9,2.3,5.1,2.3c1.7,0,2.9-0.4,3.8-1.2
		c0.9-0.8,1.3-1.7,1.3-2.7c0-1-0.4-1.8-1.3-2.6c-0.9-0.8-2.8-1.5-6-2.2c-5.1-1.1-8.7-2.7-10.9-4.6c-2.2-1.9-3.3-4.3-3.3-7.3
		c0-1.9,0.6-3.8,1.7-5.5c1.1-1.7,2.8-3.1,5.1-4.1c2.3-1,5.3-1.5,9.3-1.5c4.8,0,8.5,0.9,11,2.7s4,4.6,4.5,8.5l-11,0.6
		c-0.3-1.7-0.9-2.9-1.8-3.7c-0.9-0.8-2.2-1.2-3.9-1.2c-1.4,0-2.4,0.3-3.1,0.9c-0.7,0.6-1,1.3-1,2.1c0,0.6,0.3,1.1,0.8,1.6
		c0.5,0.5,1.8,1,3.9,1.4c5.1,1.1,8.7,2.2,10.9,3.3c2.2,1.1,3.8,2.5,4.8,4.2c1,1.7,1.5,3.5,1.5,5.6c0,2.4-0.7,4.6-2,6.7
		c-1.3,2-3.2,3.6-5.6,4.6c-2.4,1.1-5.4,1.6-9.1,1.6c-6.4,0-10.8-1.2-13.3-3.7C1130.7,226.9,1129.3,223.8,1129,220z"/>
	<path class="st1" d="M1169.1,218.9c0-4.2,1.4-7.6,4.2-10.3s6.6-4,11.4-4c5.5,0,9.6,1.6,12.4,4.7c2.2,2.6,3.4,5.7,3.4,9.4
		c0,4.2-1.4,7.6-4.2,10.3s-6.6,4-11.5,4c-4.4,0-7.9-1.1-10.6-3.3C1170.8,227,1169.1,223.4,1169.1,218.9z M1179.6,218.9
		c0,2.4,0.5,4.2,1.5,5.4s2.2,1.7,3.7,1.7c1.5,0,2.7-0.6,3.7-1.7c1-1.1,1.5-3,1.5-5.5c0-2.4-0.5-4.1-1.5-5.3s-2.2-1.7-3.6-1.7
		c-1.5,0-2.8,0.6-3.8,1.8C1180.1,214.7,1179.6,216.5,1179.6,218.9z"/>
	<path class="st1" d="M1227.8,221.8l9.9,1.1c-0.5,2.1-1.4,3.9-2.7,5.4c-1.2,1.5-2.8,2.7-4.8,3.5c-1.9,0.8-4.4,1.3-7.4,1.3
		c-2.9,0-5.3-0.3-7.2-0.8c-1.9-0.5-3.6-1.4-5-2.6c-1.4-1.2-2.5-2.6-3.3-4.2c-0.8-1.6-1.2-3.8-1.2-6.5c0-2.8,0.5-5.1,1.4-7
		c0.7-1.4,1.7-2.6,2.9-3.7c1.2-1.1,2.5-1.9,3.7-2.4c2-0.8,4.6-1.3,7.8-1.3c4.5,0,7.8,0.8,10.2,2.4c2.3,1.6,4,3.9,4.9,7l-9.8,1.3
		c-0.3-1.2-0.9-2-1.7-2.6s-1.9-0.9-3.3-0.9c-1.7,0-3.1,0.6-4.2,1.9c-1.1,1.2-1.6,3.1-1.6,5.6c0,2.2,0.5,3.9,1.6,5.1
		c1.1,1.2,2.4,1.7,4.1,1.7c1.4,0,2.5-0.4,3.5-1.1C1226.7,224.3,1227.4,223.2,1227.8,221.8z"/>
	<path class="st1" d="M1245,194.8h10.4v7.1H1245V194.8z M1245,205.2h10.4v27.3H1245V205.2z"/>
	<path class="st1" d="M1294.4,221.4h-20.9c0.2,1.7,0.6,2.9,1.4,3.7c1,1.2,2.3,1.8,4,1.8c1,0,2-0.3,2.9-0.8c0.6-0.3,1.2-0.9,1.8-1.7
		l10.3,1c-1.6,2.7-3.5,4.7-5.7,5.9s-5.4,1.8-9.6,1.8c-3.6,0-6.5-0.5-8.5-1.5c-2.1-1-3.8-2.6-5.1-4.9c-1.4-2.2-2-4.8-2-7.8
		c0-4.3,1.4-7.7,4.1-10.3c2.7-2.6,6.5-4,11.3-4c3.9,0,7,0.6,9.2,1.8c2.3,1.2,4,2.9,5.2,5.1c1.2,2.2,1.8,5.2,1.8,8.8V221.4z
		 M1283.8,216.4c-0.2-2-0.7-3.5-1.6-4.3c-0.9-0.9-2-1.3-3.5-1.3c-1.7,0-3,0.7-4,2c-0.6,0.8-1,2-1.2,3.7H1283.8z"/>
	<path class="st1" d="M1313.9,194.8v10.4h5.8v7.7h-5.8v9.7c0,1.2,0.1,1.9,0.3,2.3c0.3,0.6,0.9,0.9,1.8,0.9c0.8,0,1.8-0.2,3.2-0.7
		l0.8,7.2c-2.6,0.6-5,0.8-7.2,0.8c-2.6,0-4.5-0.3-5.8-1s-2.1-1.7-2.7-3c-0.6-1.4-0.9-3.6-0.9-6.6v-9.6h-3.9v-7.7h3.9v-5
		L1313.9,194.8z"/>
	<path class="st1" d="M1323.7,205.2h11l5.6,18.2l5.2-18.2h10.3l-10.8,29.1c-1.2,3.3-2.5,5.6-3.8,6.7c-1.8,1.6-4.6,2.5-8.3,2.5
		c-1.5,0-3.8-0.2-7-0.6l-0.8-7.3c1.5,0.5,3.2,0.7,5,0.7c1.2,0,2.2-0.3,3-0.8s1.4-1.6,1.9-3L1323.7,205.2z"/>
	<path class="st1" d="M1381.1,194.8h11.6v28.4h18.2v9.3h-29.8V194.8z"/>
	<path class="st1" d="M1430.2,194.8v10.4h5.8v7.7h-5.8v9.7c0,1.2,0.1,1.9,0.3,2.3c0.3,0.6,0.9,0.9,1.8,0.9c0.8,0,1.8-0.2,3.2-0.7
		l0.8,7.2c-2.6,0.6-5,0.8-7.2,0.8c-2.6,0-4.5-0.3-5.8-1s-2.1-1.7-2.7-3c-0.6-1.4-0.9-3.6-0.9-6.6v-9.6h-3.9v-7.7h3.9v-5
		L1430.2,194.8z"/>
	<path class="st1" d="M1471.6,194.8v37.6h-9.8v-4c-1.4,1.7-2.6,2.9-3.7,3.5c-1.5,0.8-3.2,1.2-5,1.2c-3.7,0-6.6-1.4-8.5-4.2
		c-2-2.8-2.9-6.3-2.9-10.3c0-4.5,1.1-8,3.2-10.4c2.2-2.4,4.9-3.6,8.3-3.6c1.6,0,3.1,0.3,4.4,0.8s2.5,1.4,3.5,2.5v-13H1471.6z
		 M1461.2,218.7c0-2.1-0.5-3.7-1.4-4.8s-2.1-1.6-3.4-1.6c-1.2,0-2.2,0.5-3.1,1.5s-1.2,2.7-1.2,5.1c0,2.2,0.4,3.9,1.3,4.9
		c0.8,1,1.9,1.6,3.1,1.6c1.3,0,2.4-0.5,3.3-1.6C1460.7,222.8,1461.2,221.1,1461.2,218.7z"/>
</g>
</svg>
