<?xml version="1.0" encoding="utf-8"?>
<!-- Generator: Adobe Illustrator 27.3.1, SVG Export Plug-In . SVG Version: 6.00 Build 0)  -->
<svg version="1.1" id="Layer_1" xmlns="http://www.w3.org/2000/svg" xmlns:xlink="http://www.w3.org/1999/xlink" x="0px" y="0px"
	 viewBox="0 0 2035.9 383.3" style="enable-background:new 0 0 2035.9 383.3;" xml:space="preserve">
<style type="text/css">
	.st0{fill:#FFFFFF;}
	.st1{stroke:#FFFFFF;stroke-width:2;stroke-miterlimit:10;}
</style>
<g>
	<path d="M264.5,259.6c1.3-0.8,2.6-1.5,3.9-2.3c10.3-6.5,16.4-18.5,13.2-29.1c-2.3-7.5-4.3-15.2-6.5-22.7
		c-2.5-8.3-9.2-13.3-17.1-16.3c0.2-0.8,0.2-1.3,0.5-1.4c13.1-10,14.8-22.5,8-36.8c-0.6-1.2-0.9-3-0.4-4.2c2.2-5.8-0.2-10.1-4-14.1
		c-1-1-1.7-2.3-2.6-3.5c-2.4-3.1-4.9-6.1-7.4-9.2c-0.7-0.8-1.9-1.5-2-2.4c-1.6-9-7-15.9-12.3-22.9c-6.3-8.3-11.6-10.7-21.7-7.5
		c-4,1.2-7.7,3.2-11.8,5c-2-16.6-9.9-29.1-23.8-37.7c-3.7-2.3-8-3.7-8.1-9.4c0-1.4-2.2-2.8-3.4-4.2c-3.4-4.2-6.7-8.4-6.5-14.2
		c0.2-6.4-5.2-13.6-11.4-15c-4.8-1.1-10.9,2.9-13.3,9c-0.8,2-0.8,4.3-1.1,6.5c-0.2,1.3,0.2,2.8-0.4,3.7c-2.6,4.1-5.5,8-8.1,12.1
		c-0.8,1.2-1,2.8-1.7,4c-1.2,2-2.3,4.5-4.1,5.6c-13.5,7.8-22.6,18.7-25.8,34.2c-0.4,2.1-1.2,4.2-1.4,4.7c-8-1.1-15.3-3.3-22.4-2.8
		c-11.4,0.8-15.7,11.4-9.5,21c1.1,1.8,2,3.8,3.1,5.8c-2.5,1.2-4.4,1.9-6.1,2.9c-5.7,3.4-11,7.5-12.1,14.5
		c-1.4,8.5-11.7,10.1-13.6,18.1c0,0.1-0.3,0.1-0.5,0.2c-5.1,2.7-6.5,6.3-5.5,12.1c0.4,2.3,0,5.1-1,7.1c-4.6,8.5-5.4,17-0.4,25.6
		c1.4,2.4-0.4,11.8-2.8,12.9c-6.9,3.1-7.4,9-6.6,15.1c1.8,14,7.9,25.9,18.8,35.4c-0.9,1-1.5,1.9-2.3,2.7
		c-20.6,23.4-8.4,62.1,21.8,70.8c8.6,2.5,16.5,7.5,24.7,11.4c0.6,0.3,1.1,1.1,1.4,1.7c2.7,5.9,8,7.2,13.8,7.9
		c4.1,0.5,8.2,1.2,12.3,1.9c-0.2,1.3-0.4,2.6-0.6,3.8c0.9,1.4,1.4,3,1.5,4.7c1,1.1,1.9,2.4,2.6,3.8c0.9,0.4,1.7,1,2.3,1.7
		c0.3,0,0.6-0.1,0.8-0.1c1.3,0,2.4,0.4,3.2,1c8.1,0.2,16.1,0.3,24.2,0.3c4.9,0,9.8,0,14.6,0c9.1-0.6,18.1-1.6,27.1-2.5
		c3-2.7,5.3-6.4,6.7-11.1c0.1-2.3,0.2-4.6,0.3-7.1c4.4-0.7,9.1-1,13.6-2.4c4.1-1.3,7.9-3.6,11.8-5.6c1.3-0.7,2.4-1.8,3.7-2.3
		c9.1-3.3,18.2-6.3,27.3-9.8c3.1-1.2,6.1-2.8,8.8-4.8c20.3-15.3,24.4-44.3,9.2-64.4C264.8,260.8,264.7,260.2,264.5,259.6z
		 M270.6,227.8c0.2-1.6,1.2-3.1,1.8-4.7c1.2,1.3,3.3,2.5,3.3,3.8c-0.1,5.5-0.4,11-1.4,16.3c-0.2,1.2-3.5,2-5.5,2.6
		c-2.2,0.8-4.5,1.7-6.7,1.7c-5.5,0-11-0.5-16.5-0.8c-0.4,0-0.8-0.3-1.1-0.2c-8.4,3.9-7.2-2-7.5-7.1c-0.3-4.6-1.7-9.2-2.3-13.8
		c-0.2-1.5,0.5-3.2,0.8-4.8c1.1,1.4,2.8,2.7,3.2,4.3c1.1,4.5,1.4,9.2,2.3,13.7c0.3,1.6,1.4,3,2.2,4.5c0.6-0.1,1.1-0.3,1.7-0.4
		c0-1.8,0.1-3.6,0-5.4c-0.1-4.8-0.8-9.7-0.3-14.4c0.2-2,2.9-3.7,4.4-5.6c1.1,1.9,2.9,3.7,3.2,5.7c0.7,5.2,0.7,10.4,1.1,15.6
		c0.1,1.7,0.5,3.3,0.8,4.9c0.6,0,1.2,0.1,1.8,0.1c0.5-1.7,1.3-3.4,1.4-5.2c0.2-5.6-0.1-11.2,0.1-16.8c0.1-1.6,1.5-3.1,2.3-4.6
		c1.7,1.2,4.8,2.2,4.9,3.5c0.7,5.6,0.4,11.4,0.7,17.1c0.1,1.8,0.7,3.5,1,5.2c1.1-1.5,2.9-2.8,3.2-4.5
		C270.3,235.3,270.1,231.5,270.6,227.8z M267.7,205.5c-2.6-1.5-5.4-3-9.3-5.2c0.9,4.5,1.5,7.5,2.3,11.2c-9.9,1.7-19.6,3.3-29.2,4.9
		c-3.8-5.5,0.3-14.7,8.6-19.3C250.3,191.3,263.1,195.3,267.7,205.5z M260.5,175.4c-3.8,2.9-7.8,5.5-11.8,8.2
		c-0.8-0.1-1.7-0.3-2.5-0.4c-2.1-7.6-4.4-15.2-5.9-22.9c-0.4-1.9,2.1-4.4,3.5-6.5c0.5-0.7,1.6-1.1,2.4-1.3c4.6-1,10.1-7.4,13.7-1.5
		C266.8,162,267,170.3,260.5,175.4z M261.9,142.9c-5.8,1.7-11.4,3.5-17.1,5c-1.9,0.5-4.2,0.4-6-0.4c-2.7-1.2-3.7-3.9-0.5-5.4
		c5.3-2.6,10.8-5,16.5-6.5C259.4,134.3,261.7,137.4,261.9,142.9z M254.8,130.1c-4.9,1.8-9.5,3.9-14.2,5c-1.7,0.4-4-1.6-6-2.4
		c0.9-1.4,1.5-3.3,2.8-4c3-1.7,6.3-3.1,9.6-4C251.4,123.3,253.8,125.6,254.8,130.1z M238.1,105.1c9,11.6,8.3,15.4-3.5,18.2
		C235.7,117.2,236.8,111.8,238.1,105.1z M198,155.8c7.3,4.4,13.7,8.2,20.1,12c0.3-0.4,0.5-0.8,0.8-1.2c-5.5-6.2-11-12.5-16.5-18.7
		c0.2-0.4,0.5-0.7,0.8-1.1c4.4,1.9,8.8,3.7,13.2,5.6c0.1-0.3,0.3-0.6,0.4-0.8c-3.9-3.9-7.8-7.9-11.8-11.7c-2.7-2.6-2.6-4.5,0.4-6.8
		c3.9-2.8,7.6-6,11-10c-3.5,0.5-6.9,0.9-10.4,1.4c-0.3-0.3-0.6-0.7-0.9-1c4.9-5.9,9.9-11.9,14.8-17.8c-0.3-0.3-0.5-0.7-0.8-1
		c-3.4,1.5-6.8,2.9-10.5,4.5c-0.3-3.8-0.6-6.9-0.9-10c0-0.5-0.1-1.5,0.2-1.6c5-2.2,9.9-4.9,15.2-6.1c4.4-1,8,2.1,9.4,6.3
		c0.7,2.1,0.9,5.1-0.1,7c-6.7,12.6-5.5,25.9-3.2,38.9c2.2,12.1,5.8,23.9,8.8,35.9c0.2,0.9,0.3,1.7,0.6,3.3
		c-16.5-0.6-30.1-6.8-41-18.3C196.3,163.1,197.8,158.9,198,155.8z M228.1,192.1c-12.4,4-16.4,2.9-24.4-6.4
		C211.7,187.8,219.6,189.9,228.1,192.1z M190.2,100.8c-4.2,0.3-6-1.3-5.6-5.8c0.3-4,0.1-8.1,0.1-12
		C190.2,84.6,192.2,90.6,190.2,100.8z M188.7,77.9c-10.3-2.5-8.1-13.6-14.3-18.2C181.7,61.3,188.2,69.5,188.7,77.9z M172.7,79.9
		c6.5,0,9.1,6.1,6.6,16.2c-4.3,0.5-7.2-0.2-6.7-5.7C173,86.9,172.7,83.4,172.7,79.9z M176.2,74c-4.2-0.6-7.3-0.7-10.4-1.5
		c-1.3-0.3-2.9-1.6-3.3-2.8c-1.4-4.9-2.4-10-3.8-16C167.5,58.3,172.4,65,176.2,74z M167.4,93.1c0,0.5-3.6,1.3-5.5,1
		c-1.1-0.1-2.6-2-2.7-3.2c-0.3-4.2-0.1-8.5-0.1-14.3c2.9,1.2,7.1,1.7,7.6,3.4C168,84.1,167.7,88.7,167.4,93.1z M149.2,17
		c2.2,2.2,4.4,4.4,6.7,6.7c-2.3,1.8-4.6,3.6-7.8,6.1c-2.6-2.6-4.2-4.1-5.8-5.7C144.6,21.8,146.9,19.4,149.2,17z M160.5,36h-21.6
		C143.9,31.3,153.1,31,160.5,36z M136,42.8c9.1-2.8,18.3-2.9,27.3,0.1c0,0.7,0.1,1.3,0.1,1.9c-2.4,0.4-4.8,1-7.3,1.2
		c-6.3,0.5-12.6,0.9-19,1.1c-1.4,0-2.8-1-4.1-1.5C134,44.7,134.8,43.2,136,42.8z M142.4,71.4c1.3-7.1,2-14,6.8-19.3
		c0.7-0.1,1.5-0.2,2.2-0.3c2.1,6.2,4.1,12.4,6.5,19.6H142.4z M154.7,86c0,6.4-1.9,8.5-7.1,7.6c-1.5-0.3-3.4-2.3-3.9-4
		c-0.7-2-0.2-4.4,0-6.6c0.3-3.2,0.7-6,5.3-6.1c4.7-0.1,5,2.7,5.5,5.9C154.7,84.1,154.7,85.4,154.7,86z M140.9,53.7
		c-1.4,6-2.4,11-3.9,16c-0.3,1.1-1.8,2.3-2.9,2.5c-3.1,0.7-6.2,0.9-10.5,1.4C127.5,64.5,132.3,58.1,140.9,53.7z M139,89.5
		c0.3,4.1-2.3,4.5-5.2,4.8c-3.7,0.4-3.8-2.1-3.8-4.6c0-1.5,0-3,0.1-4.5c0.5-7,1.9-8.1,9.4-7.2C139.3,82.1,138.8,85.8,139,89.5z
		 M125.7,92.9c0,4.6-3.1,4.7-6.4,4.9c-3.5-9.8-0.8-17.7,6.4-18.6C125.7,84.1,125.7,88.5,125.7,92.9z M124.3,60
		c-5.4,5-3.2,16-13.6,17C108.5,71.1,113.9,64,124.3,60z M109,86c0.3-1.9,1.7-3.6,2.6-5.4c0.8,0.7,1.6,1.4,2.5,2.1
		c0,5.4,0.3,10.8-0.2,16.2c-0.1,1.5-2.4,2.8-3.6,4.2c-1-1.3-2.8-2.6-2.8-3.9C107.6,94.8,108.2,90.3,109,86z M112.9,108.7
		c24.3-10.7,48.9-10.8,73.5-1.2c5.8,2.2,8.5,6.4,8.7,12.9c0.6,16-2.9,30.7-10.9,44.6c-2.7,4.7-5.8,9.7-0.1,14.4
		c-4.8,3.4-9.3,6.3-13.5,9.7c-1.1,0.9-1.2,3-1.8,4.5c1.6-0.4,3.6-0.4,4.7-1.3c5-4.3,10-8.1,18.6-7.9c-4.2,3.2-7.6,5.3-10.4,8
		c-1.4,1.4-1.7,3.9-2.5,5.9c1.8-0.9,3.9-1.4,5.3-2.7c3.9-3.5,7.9-6.3,14.5-5.6c-3.8,3.4-6.9,5.7-9.5,8.4c-0.8,0.9-0.5,2.9-0.7,4.4
		c1.4-0.5,2.9-0.9,4.1-1.6c2.8-1.7,5.4-3.8,8.3-5.3c1-0.5,3.1-0.2,4.1,0.6c15.6,13,26.8,28.3,25.4,49.9c-0.8,13-8.5,22-19.5,27.3
		c-12.5,5.9-25.1,3.7-35.7-5.2c-9.8-8.3-12.6-19.6-9.8-32c2.2-9.4,8.6-15.5,16.9-19.9c3.5-1.8,10.5,2,14.2,8.3
		c-6-0.6-11.1-1-16.9-1.6c1.2,1.8,2,3.1,2.2,3.4c-1.6,5.8-3.9,10.9-4.3,16.1c-0.8,10.9,7.5,18.3,18.9,17.9c11-0.5,18.1-8.5,17-19.3
		c-1.2-11.3-6.5-20.4-16.2-26.2c-8-4.7-16.7-8.2-25.2-12.1c-10.8-5.1-22.3-9.1-32.2-15.5c-23.6-15.3-34.5-38-35.1-65.8
		C104.9,115.3,107.4,111.1,112.9,108.7z M170.1,309.3c-19.5,7.3-39.5,8.3-58.4-2.2c-5.9-3.3-10.5-8.8-15.4-13.6
		c-0.7-0.7,0.1-3.5,0.8-5c7-17.1,18.9-30.3,34.1-40.5c9.6-6.4,19.4-12.4,29.6-19c-0.4,1.8-0.9,3.3-1,4.8c-0.4,5-1.8,10.2-0.8,14.9
		c3.4,15.3,9.9,29.2,22.3,39.4c3.5,2.9,4.6,6.1,2.1,9C179.5,301.8,175.3,307.4,170.1,309.3z M184.2,342.2
		c-4.7,1.1-11.9-4.7-14.5-12.4c-1.7-5-0.4-7.8,3.9-9.7C177.1,327.4,180.6,334.7,184.2,342.2z M89.4,280.2
		c7.8-17.8,19.8-32.1,36.6-42c11.7-6.9,23-14,31-25.3c0.8-1.1,3.4-0.8,5.2-1.2c-0.1,1.6,0.2,3.5-0.5,4.8c-3.9,6.7-9,12.2-15.9,16.1
		c-7.6,4.4-15,9.1-22.1,14.3c-13.6,9.8-23.9,22.4-30.7,37.8c-0.6,1.3-1.3,2.5-2,3.8c-0.7-0.1-1.3-0.1-2-0.2
		C88.9,285.7,88.3,282.6,89.4,280.2z M122.3,181.4c2.7,2.4,5.3,4.8,8.5,7.6c-6.5,7.6-14,10.4-23.7,9.8c6.4-4.9,12.1-9.3,17.8-13.7
		C124.1,183.8,123.2,182.6,122.3,181.4z M105.8,190.6c-1.7,2.6-3.9,5.9-3.5,8.6c0.3,2,4.4,3.4,6.8,5.1c9.2,6.9,18.2,2.2,27.4-0.2
		c6-1.6,11.4,0.3,15.6,4.9c-3.8,10.5-16.3,13-34,14.8c1.1-5.8,0.7-6-4.9-4.4c-2,0.6-4.2,0.1-7,0.1c0.7,1.7,1.2,3.2,1.7,4.6
		c-10.1,2.6-16.8-2.2-17.3-12.6c-0.5-10.7,8.4-22.5,21.1-26.7C109.8,186.9,107.3,188.4,105.8,190.6z M109.1,229.7
		c6.9-2.4,14.6-2.4,22.5-2.6c-20,12.3-36.6,27.4-46.5,49.2c-7.2-9.4-5.8-26.7,3.9-35.3C94.6,236,101.9,232.2,109.1,229.7z
		 M204.7,248.2c0.6,5.1-4,4.9-7.2,5.9c-0.7,0.2-1.5,0.2-2.8,0.3c-1.3-0.4-3.2-0.6-4.8-1.4c-3.3-1.6-6.8-4.4-4.9-8.1
		c1-2,5.4-2.4,8.4-3.3c1-0.3,2.3,0.7,3.3,0.4C202.5,240.1,204.2,243.8,204.7,248.2z M102.6,88.3v16.9C100,99.6,98.6,94.8,102.6,88.3
		z M71.6,119.1c-0.4-4.1-2.1-8.3-4.1-11.9c-3.9-7-1.8-12.5,6.2-13.1c4.6-0.3,9.6,0.9,14,2.4c5.1,1.7,7.5,5.8,6.2,11.6H82.1
		c5.6,5.3,10.8,10.1,16,15c-0.2,0.6-0.4,1.3-0.6,1.9c-4,0.4-8.1,0.7-13.7,1.2c5.8,3.7,10.4,6.6,15.9,10.1c-5.7,4.2-10.9,8.1-16.1,12
		l0.4,0.8c5.1-0.9,10.1-1.8,15.2-2.7c0.4,0.4,0.8,0.8,1.2,1.2c-5.2,5.7-10.4,11.4-15.6,17c0.3,0.5,0.6,1,0.9,1.5
		c6.6-3.4,13.1-6.9,19.9-10.4c3.1,3.1,2.3,6.1-1.7,9.5c-11.3,9.4-24.1,14.6-39.5,15.4c0.5-2.3,0.9-4,1.3-5.7
		C70.8,156.7,73.7,138.1,71.6,119.1z M51.7,135.2c1.7-6.1,5.5-9.9,11.1-12.9c3.2,3.8,4,7.2,1.6,11.2c-0.8,1.2-1.1,2.8-1.3,4.2
		c-0.5,3.2-1.2,6.1-5.4,5.2C53.6,141.9,50.2,140.9,51.7,135.2z M41.4,148.6c1.1-1.6,3.1-3.9,4.6-3.9c6.8,0.4,12.9,2.8,18.8,9.4
		c-3.5,0.8-5.8,2.1-8,1.8c-4.6-0.7-9.1-2-13.4-3.5C42.3,151.9,41,149.2,41.4,148.6z M38.3,155.9c8.3,1.4,16,4.6,21.9,11
		c0.1,0.8,0.1,1.5,0.2,2.3c-2.9,0.4-6,1.6-8.8,1.1c-5.3-1-10.5-2.5-15.4-4.7c-1.9-0.8-3.4-4.1-3.5-6.4
		C32.7,158.1,36.6,155.7,38.3,155.9z M32.7,172.4c0.9-1.1,3.5-1.9,4.7-1.4c6.4,2.6,12.7,5.5,18.7,8.7c1.1,0.6,1.1,3.3,1.9,5.7
		c2,0.2,4.7,0.6,7.4,0.9c-0.2,0.4-0.4,0.9-0.6,1.4c1.7,1,3.5,2.7,5.2,2.8c7.2,0.3,14.4,0.1,21.3,0.1c-2,4.2-4,8.9-6.4,13.4
		c-0.6,1.1-2.6,1.9-4,2c-2,0.1-4-0.5-6.4-0.8c-3.8-9-6.6-10.6-15.3-8.7c-7.4-8.8-11.8-8.8-18.8-0.1
		C28.3,193.2,24.6,181.9,32.7,172.4z M57.3,221.5c-3.4,0.7-5.9,1.2-9.2,1.8c-0.9-7.7-2-14.8-2.2-22c-0.1-1.9,2.4-3.9,3.7-5.9
		c1.4,1.7,3.7,3.2,4.1,5.1C55.2,207.2,56.1,214.1,57.3,221.5z M43.9,224.5c-2.5,0.8-4.4,1.4-7.6,2.4c-1.8-6.7-3.8-13-5-19.4
		c-0.3-1.5,1.9-3.6,2.9-5.4c1.6,1.3,4,2.4,4.6,4C40.7,211.9,42.1,217.9,43.9,224.5z M22.5,221.1c-0.1-2.4,1.7-4.9,2.6-7.3
		c0.7,0.1,1.4,0.3,2.1,0.4c1.7,4.6,3.5,9.2,5.3,13.9c-1,0.7-2,1-2.5,1.7c-0.8,1-1.2,2.3-1.8,3.4c1.3,0.1,2.8,0.7,3.9,0.3
		c6.1-1.9,12-4.2,18.1-5.9c3.7-1.1,7.7-1.2,11.6-2c1.1-0.2,2.1-1.2,3.1-1.8c-0.6-0.9-1.6-1.7-1.7-2.6c-0.5-6.4-0.8-12.8-1-19.2
		c0-0.3,2.1-1.2,2.7-0.9c1.2,0.6,3,1.9,3,2.9c-0.1,8.2-0.2,16.4-1.2,24.4c-0.2,2-4.6,3.1-6.1,5.2c-4.1,6-9.5,6.3-15.9,5.2
		c-1.8-0.3-3.8,0.8-5.8,1.2c0,0.5,0.1,1,0.1,1.4C45,242.9,50.8,244,56,245c4.2-3.7,9.1-6.8,12.4-11.1c2.5-3.3,2.9-8.1,4.3-12.2
		c0.9-3,1.6-6,2.8-8.9c0.3-0.8,2.3-1.6,3.2-1.3c0.9,0.3,2,1.8,2.1,2.9c0.4,6.9,0.9,13.8,0.7,20.7c-0.2,8.4-5.5,14-11.5,19
		c-1,0.8-3.2,1-4.4,0.4c-7-3.1-13.7-2.5-20.7,0.1c-2,0.7-5.4,0.4-6.9-0.9C28.3,245,23.2,234,22.5,221.1z M30.1,299
		c-5-10.8-1.1-25.2,9.5-34.9c9.9-9,22.5-8.6,31.1,1.5c8.3,9.7,14,20.7,14.6,32.7c-0.8,15.7-4.3,19.8-18.8,22.4
		C52.2,323.2,36.9,313.7,30.1,299z M85.5,336.5c-7.2-2.8-8.4-6.3-3.9-12.5c6.4-8.7,7.9-12.9,9.5-25.7c0.5-0.4,1-0.8,1.5-1.2
		c4.8,5.2,9.9,10.3,14.3,15.9c1.1,1.4,0.9,5-0.1,6.9c-2.5,4.9-5.4,9.7-8.8,14C94.9,338.1,90.4,338.4,85.5,336.5z M108.4,341.7
		c-2.5,1-5.6,0.6-8.6,0.8c5.5-9.1,10.2-16.9,15.2-25.1c4.9,0.4,6.9,3,5.4,8.4C118.4,332.5,115.5,338.8,108.4,341.7z M114.5,347.4
		c4.5-7.8,9-15.7,14-24.3c2.6,0.1,4.7,1.5,3.8,6C130.5,339.4,122.6,347.3,114.5,347.4z M125.9,365.5c-3.7-0.6-6.9-2.6-6.5-6.4
		c0.3-2.8,2.6-6.2,5-7.7c2.8-1.8,6.7-1.8,10.1-2.6c1.3-0.3,2.6-0.7,3.8-1c0-0.5,0-1.1,0-1.6c-1.7-1-3.3-2-5.1-3.1
		c1.5-4.3,2.8-8.6,4.6-12.6c0.4-1,3.4-2,3.8-1.6c2,1.9,5.1,4.5,4.9,6.6c-0.8,7.3-1.9,14.8-4.4,21.6
		C139.5,363.7,132.4,366.5,125.9,365.5z M144.2,365.8c1.2-2.4,2.3-4.4,3.8-7.3c1.9,2.7,3.2,4.7,5,7.3H144.2z M180.1,363.5
		c-13.9,4.8-28.8-5.9-28.4-20.4c0.1-3-0.5-6.4,0.8-8.8c1.3-2.6,4.1-4.9,6.8-6.1c3.2-1.4,5.1,1.1,5.7,4.3c0.1,0.5,0.4,1,0.7,1.5
		c1.1,2.5,3.6,5.3,3.1,7.4c-0.4,1.9-4.1,2.9-6.3,4.5c-0.5,0.4-0.7,1.2-2,3.3c3.7-0.4,6-0.7,8.3-1c6-0.9,11.2,0.3,14.7,5.6
		C186.3,358,184.9,361.9,180.1,363.5z M192.5,338.7c-5.9-2.2-11.7-10.7-11.6-17.2c0.1-4.2,1.5-7.6,7.2-8.8
		c-0.2,10.4,4.1,18.1,12.2,23.8C198.1,340.2,195.4,339.8,192.5,338.7z M216.4,330c-5.3,3.9-12,3.4-16.9-1.1
		c-5.6-5.2-9-17.2-2.2-24.9c4.3-4.8,8.2-10,12.3-14.9c0.5,0.2,1,0.4,1.4,0.7c0.4,13.5,2.2,26.5,11.5,36.7
		C220.3,327.7,218.3,328.7,216.4,330z M266.1,296.7c-7.7,10.8-17.7,18.2-30.9,20.4c-10.7,1.8-14.7-1-16.9-11.6
		c-1-4.6-1.3-9.2-1.9-13.3c0.8-15.1,8-25.6,20.6-32.2c8.6-4.5,18.1-2.3,24.2,5.2c2.8,3.4,5.2,7.3,7,11.3
		C271.2,283.4,270.7,290.3,266.1,296.7z"/>
	<path class="st0" d="M205.4,196.3c-0.9-0.8-3-1.1-4.1-0.6c-2.9,1.5-5.5,3.6-8.3,5.3c-1.2,0.8-2.7,1.1-4.1,1.6
		c0.2-1.5-0.1-3.5,0.7-4.4c2.6-2.7,5.6-5.1,9.5-8.4c-6.7-0.8-10.6,2.1-14.5,5.6c-1.4,1.3-3.5,1.8-5.3,2.7c0.8-2,1.1-4.5,2.5-5.9
		c2.8-2.7,6.1-4.8,10.4-8c-8.5-0.2-13.6,3.6-18.6,7.9c-1.1,1-3.1,0.9-4.7,1.3c0.6-1.5,0.7-3.7,1.8-4.5c4.2-3.3,8.7-6.3,13.5-9.7
		c-5.7-4.6-2.6-9.7,0.1-14.4c8-13.8,11.5-28.6,10.9-44.6c-0.2-6.6-2.9-10.7-8.7-12.9c-24.7-9.6-49.2-9.5-73.5,1.2
		c-5.5,2.4-8.1,6.6-7.9,12.9c0.7,27.9,11.5,50.6,35.1,65.8c9.9,6.4,21.4,10.4,32.2,15.5c8.4,4,17.2,7.4,25.2,12.1
		c9.7,5.7,15.1,14.8,16.2,26.2c1.1,10.8-6,18.8-17,19.3c-11.4,0.5-19.7-6.9-18.9-17.9c0.4-5.2,2.7-10.3,4.3-16.1
		c-0.2-0.3-1-1.6-2.2-3.4c5.8,0.5,10.9,1,16.9,1.6c-3.7-6.4-10.8-10.2-14.2-8.3c-8.2,4.4-14.7,10.4-16.9,19.9
		c-2.8,12.5,0,23.7,9.8,32c10.6,8.9,23.2,11.1,35.7,5.2c11-5.2,18.7-14.3,19.5-27.3C232.1,224.6,221,209.3,205.4,196.3z
		 M146.9,107.4c0-1.1,1.9-2.2,3-3.2c1,1.1,2.7,2.1,2.9,3.4c0.4,2.9,0.1,5.9,0.1,8.9h-0.1c0,3.2,0.2,6.3-0.1,9.5
		c-0.1,1.1-1.7,2-2.7,3c-1.1-1-3-2-3.1-3.1C146.6,119.7,146.6,113.6,146.9,107.4z M137.3,156.2c-2.9-0.8-5.9-1.9-8.9-2.2
		c-4.8-0.5-8.2-2.6-9.6-7.2c-1.3-4.2,0-7.4,3.7-10.2c1.1-0.8,1.4-4.1,0.6-5.5c-1.9-3.3-4.6-6.1-7-9.2
		C127.2,123,138.2,138.5,137.3,156.2z M149.8,139.3c-6.7,0-12.4-4.8-12.9-11.5c-0.4-6-0.2-12,0-17.9c0.1-1.2,1.7-2.3,2.7-3.4
		c0.9,1.2,2.4,2.4,2.4,3.7c0.3,5,0.1,10.1,0.2,15.1c0.1,5.5,2.8,8.6,7.4,8.6c4.6,0,7.4-3,7.6-8.5c0.1-5-0.1-10.1,0.2-15.1
		c0.1-1.3,1.9-2.5,2.9-3.8c0.8,1.3,2.1,2.5,2.2,3.8c0.3,2.9,0.1,6,0.1,8.9h-0.1c0,2.8,0.2,5.6,0,8.4
		C162,134.4,156.6,139.2,149.8,139.3z M183.7,121.7c-2.7,3.4-5.5,6.3-7.4,9.6c-0.8,1.3-0.4,4.6,0.7,5.4c3.6,2.8,5,6,3.6,10.2
		c-1.5,4.5-4.9,6.6-9.7,7.1c-2.8,0.3-5.6,1.4-8.7,2.3C161.3,139.6,169.8,125.4,183.7,121.7z"/>
	<path class="st0" d="M181.3,288.3c-12.3-10.3-18.9-24.1-22.3-39.4c-1-4.7,0.4-9.9,0.8-14.9c0.1-1.5,0.6-3,1-4.8
		c-10.3,6.5-20.1,12.6-29.6,19c-15.2,10.2-27.1,23.4-34.1,40.5c-0.7,1.6-1.5,4.3-0.8,5c4.9,4.8,9.5,10.3,15.4,13.6
		c18.9,10.5,38.9,9.4,58.4,2.2c5.2-2,9.4-7.5,13.3-12C185.9,294.3,184.8,291.1,181.3,288.3z M153.4,304.8c-4.2-3.3-7.4-3.1-9.1,2.2
		c-3.4-2.6-3.9-5.9-1.4-8.4c1.6-1.6,5.4-2.8,7.2-2c2.1,1,3.1,4.3,4.6,6.6C154.2,303.8,153.8,304.3,153.4,304.8z"/>
	<path class="st0" d="M85.4,298.3c-0.8,15.7-4.3,19.8-18.8,22.4c-14.4,2.6-29.7-6.9-36.5-21.6c-5-10.8-1.1-25.2,9.5-34.9
		c9.9-9,22.5-8.6,31.1,1.5C79,275.3,84.7,286.3,85.4,298.3z"/>
	<path class="st0" d="M216.3,292.1c0.8-15.1,8-25.6,20.6-32.2c8.6-4.5,18.1-2.3,24.2,5.2c2.8,3.4,5.2,7.3,7,11.3
		c3,6.9,2.6,13.8-2,20.2c-7.7,10.8-17.7,18.2-30.9,20.4c-10.7,1.8-14.7-1-16.9-11.6C217.3,300.9,216.9,296.3,216.3,292.1z"/>
	<path class="st0" d="M83.7,126.2c5.7,3.6,10.4,6.6,15.9,10.1c-5.6,4.2-10.9,8.1-16.1,12c0.1,0.3,0.2,0.6,0.4,0.8
		c5.1-0.9,10.1-1.8,15.2-2.7c0.4,0.4,0.8,0.8,1.2,1.2c-5.2,5.7-10.4,11.4-15.6,17c0.3,0.5,0.6,1,0.9,1.5c6.6-3.4,13.1-6.9,19.9-10.4
		c3.1,3.1,2.3,6.1-1.7,9.5c-11.3,9.4-24.1,14.6-39.6,15.4c0.5-2.3,0.9-4,1.3-5.7c5.2-18.3,8.1-36.9,6-55.9
		c-0.5-4.1-2.1-8.3-4.1-11.9c-3.9-7-1.8-12.6,6.2-13.1c4.6-0.3,9.6,0.9,14,2.4c5.1,1.7,7.5,5.8,6.2,11.6c-3.7,0-7.5,0-11.8,0
		c5.6,5.3,10.8,10.1,16,15c-0.2,0.6-0.4,1.3-0.6,1.9C93.4,125.3,89.4,125.7,83.7,126.2z"/>
	<path class="st0" d="M198,155.8c7.3,4.4,13.7,8.2,20.1,12c0.2-0.4,0.5-0.8,0.7-1.2c-5.5-6.2-11-12.5-16.5-18.7
		c0.3-0.4,0.5-0.7,0.8-1.1c4.4,1.9,8.8,3.7,13.2,5.6c0.1-0.3,0.3-0.6,0.4-0.8c-3.9-3.9-7.8-7.9-11.8-11.7c-2.7-2.6-2.6-4.5,0.4-6.8
		c3.9-2.8,7.6-6,11-10c-3.5,0.5-6.9,0.9-10.4,1.4c-0.3-0.3-0.6-0.7-0.9-1c4.9-5.9,9.9-11.9,14.8-17.8c-0.3-0.3-0.5-0.7-0.8-1
		c-3.4,1.5-6.8,2.9-10.5,4.5c-0.3-3.8-0.6-6.9-0.9-10c0-0.5-0.1-1.5,0.2-1.6c5-2.2,9.9-5,15.2-6.2c4.4-1,8,2.1,9.4,6.3
		c0.7,2.1,0.9,5.1-0.1,7c-6.7,12.6-5.5,25.9-3.2,38.9c2.2,12.1,5.8,23.9,8.8,35.9c0.2,0.9,0.3,1.7,0.6,3.3
		c-16.5-0.6-30.1-6.8-41-18.3C196.3,163.1,197.8,158.9,198,155.8z"/>
	<path class="st0" d="M39.1,241.8C45,242.9,50.8,244,56,245c4.2-3.7,9.1-6.8,12.4-11.1c2.5-3.3,2.9-8.1,4.2-12.2
		c0.9-3,1.6-6,2.8-8.9c0.3-0.8,2.3-1.6,3.2-1.3c0.9,0.3,2,1.8,2.1,2.9c0.4,6.9,0.9,13.8,0.7,20.7c-0.2,8.4-5.5,14-11.5,19
		c-1,0.8-3.2,1-4.4,0.4c-7-3.1-13.7-2.5-20.7,0.1c-2,0.7-5.4,0.4-6.9-0.9c-9.6-8.6-14.7-19.6-15.4-32.4c-0.1-2.4,1.7-4.9,2.6-7.3
		c0.7,0.1,1.4,0.2,2.1,0.4c1.7,4.6,3.5,9.2,5.3,13.9c-1,0.7-2,1-2.5,1.7c-0.8,1-1.2,2.3-1.8,3.4c1.3,0.1,2.8,0.7,3.9,0.3
		c6.1-1.9,12-4.2,18.1-5.9c3.7-1.1,7.7-1.2,11.6-2c1.1-0.2,2.1-1.2,3.1-1.8c-0.6-0.9-1.6-1.7-1.7-2.6c-0.5-6.4-0.8-12.8-1-19.2
		c0-0.3,2.1-1.2,2.8-0.9c1.2,0.6,3,1.9,3,2.9c-0.1,8.2-0.2,16.4-1.2,24.4c-0.2,2-4.6,3.1-6.1,5.2c-4.1,6-9.5,6.4-15.9,5.2
		c-1.8-0.3-3.8,0.8-5.8,1.2C39.1,240.9,39.1,241.4,39.1,241.8z"/>
	<path class="st0" d="M152.1,209.1c-3.8,10.5-16.3,13-34,14.9c1.1-5.8,0.7-6-4.9-4.4c-2,0.6-4.2,0.1-7,0.1c0.7,1.7,1.2,3.2,1.7,4.6
		c-10.1,2.6-16.8-2.2-17.3-12.6c-0.5-10.7,8.4-22.5,21.1-26.7c-2,1.9-4.5,3.4-6,5.6c-1.8,2.6-3.9,5.9-3.5,8.6c0.3,2,4.4,3.4,6.8,5.1
		c9.2,6.9,18.2,2.2,27.4-0.2C142.5,202.6,147.8,204.5,152.1,209.1z"/>
	<path class="st0" d="M74.4,205.2c-3.8-9-6.6-10.6-15.3-8.7c-7.4-8.8-11.8-8.8-18.8-0.1c-12-3.2-15.7-14.5-7.6-24
		c0.9-1.1,3.5-1.9,4.7-1.4c6.4,2.6,12.6,5.5,18.7,8.7c1.1,0.6,1.1,3.3,1.9,5.7c2,0.2,4.7,0.6,7.4,0.9c-0.2,0.5-0.4,0.9-0.6,1.4
		c1.7,1,3.5,2.7,5.3,2.8c7.2,0.3,14.4,0.1,21.3,0.1c-2,4.2-4,8.9-6.4,13.4c-0.6,1.1-2.6,1.9-4,2C78.9,206.1,76.8,205.5,74.4,205.2z"
		/>
	<path class="st0" d="M85.1,276.3c-7.2-9.4-5.8-26.7,3.9-35.3c5.6-5,12.9-8.8,20.1-11.3c6.9-2.4,14.6-2.4,22.5-2.6
		C111.6,239.4,94.9,254.5,85.1,276.3z"/>
	<path class="st0" d="M244.9,243.2c0-1.8,0-3.6,0-5.4c-0.2-4.8-0.8-9.7-0.3-14.4c0.2-2,2.9-3.7,4.4-5.6c1.1,1.9,2.9,3.7,3.2,5.7
		c0.7,5.2,0.7,10.4,1.1,15.6c0.1,1.7,0.5,3.3,0.8,4.9c0.6,0,1.2,0.1,1.8,0.1c0.5-1.7,1.3-3.4,1.4-5.2c0.2-5.6-0.1-11.2,0.1-16.8
		c0.1-1.6,1.5-3.1,2.3-4.6c1.7,1.2,4.7,2.2,4.9,3.5c0.7,5.6,0.4,11.4,0.7,17.1c0.1,1.8,0.7,3.5,1,5.2c1.1-1.5,2.9-2.8,3.2-4.5
		c0.7-3.6,0.6-7.4,1-11.1c0.2-1.6,1.2-3.1,1.8-4.7c1.2,1.3,3.3,2.5,3.3,3.8c-0.1,5.5-0.4,11-1.4,16.3c-0.2,1.2-3.5,2-5.5,2.6
		c-2.2,0.8-4.5,1.7-6.7,1.7c-5.5,0-11-0.5-16.5-0.8c-0.4,0-0.8-0.3-1.1-0.1c-8.4,3.9-7.2-2-7.5-7.1c-0.3-4.6-1.7-9.1-2.3-13.8
		c-0.2-1.5,0.5-3.2,0.8-4.8c1.1,1.4,2.8,2.7,3.2,4.3c1,4.5,1.4,9.2,2.3,13.7c0.3,1.6,1.5,3,2.2,4.5
		C243.7,243.5,244.3,243.3,244.9,243.2z"/>
	<path class="st0" d="M211.1,289.7c0.4,13.5,2.2,26.5,11.5,36.7c-2.3,1.3-4.4,2.3-6.2,3.6c-5.3,3.9-12,3.4-16.9-1.1
		c-5.6-5.2-9-17.2-2.2-24.9c4.3-4.8,8.2-10,12.3-14.9C210.2,289.2,210.7,289.5,211.1,289.7z"/>
	<path class="st0" d="M160.4,349.2c3.7-0.4,6-0.7,8.3-1c6-0.8,11.2,0.3,14.7,5.6c2.8,4.2,1.4,8.1-3.3,9.7
		c-13.9,4.8-28.8-5.9-28.4-20.4c0.1-3-0.5-6.4,0.8-8.8c1.3-2.6,4.1-4.9,6.8-6.1c3.2-1.4,5.1,1.1,5.7,4.3c0.1,0.5,0.4,1,0.6,1.5
		c1.2,2.5,3.6,5.3,3.1,7.4c-0.4,1.9-4.1,2.9-6.3,4.5C161.9,346.3,161.7,347.1,160.4,349.2z"/>
	<path class="st0" d="M92.7,297.1c4.8,5.2,9.9,10.3,14.3,15.9c1.1,1.4,0.9,5-0.1,6.9c-2.5,4.9-5.4,9.7-8.8,14
		c-3.2,4.2-7.7,4.5-12.6,2.6c-7.2-2.8-8.4-6.3-3.9-12.5c6.4-8.8,7.9-12.9,9.5-25.7C91.7,297.9,92.2,297.5,92.7,297.1z"/>
	<path class="st0" d="M246.2,183.2c-2.1-7.6-4.4-15.2-5.9-22.9c-0.4-1.9,2.1-4.4,3.5-6.5c0.5-0.7,1.6-1.1,2.4-1.3
		c4.6-1,10.1-7.4,13.7-1.5c6.8,11.1,7,19.3,0.5,24.4c-3.8,3-7.8,5.5-11.8,8.2C247.9,183.5,247.1,183.3,246.2,183.2z"/>
	<path class="st0" d="M88.8,288.4c0.1-2.7-0.5-5.8,0.6-8.2c7.8-17.8,19.8-32.1,36.6-42c11.7-6.9,23-14,31-25.3
		c0.8-1.1,3.4-0.8,5.2-1.2c-0.1,1.6,0.2,3.5-0.5,4.8c-3.9,6.7-9,12.2-15.9,16.1c-7.6,4.4-15,9.1-22.1,14.3
		c-13.6,9.8-23.9,22.4-30.7,37.8c-0.6,1.3-1.3,2.5-2,3.8C90.1,288.5,89.5,288.5,88.8,288.4z"/>
	<path class="st0" d="M267.7,205.5c-2.6-1.4-5.4-3-9.3-5.2c0.9,4.5,1.5,7.5,2.3,11.2c-9.9,1.7-19.6,3.3-29.2,4.9
		c-3.8-5.5,0.3-14.7,8.6-19.3C250.3,191.3,263.1,195.3,267.7,205.5z"/>
	<path class="st0" d="M138.3,346.2c-1.7-1-3.3-2-5.1-3.1c1.5-4.3,2.8-8.6,4.5-12.6c0.4-1,3.4-2,3.8-1.6c2,1.9,5.1,4.5,4.9,6.6
		c-0.8,7.3-1.9,14.8-4.4,21.6c-2.5,6.6-9.6,9.5-16.1,8.4c-3.7-0.6-6.9-2.6-6.5-6.4c0.3-2.8,2.6-6.2,5-7.7c2.8-1.8,6.7-1.8,10.1-2.6
		c1.3-0.3,2.6-0.7,3.8-1C138.3,347.2,138.3,346.7,138.3,346.2z"/>
	<path class="st0" d="M60.5,169.3c-2.9,0.4-6,1.6-8.8,1.1c-5.3-1-10.5-2.5-15.4-4.7c-1.9-0.8-3.4-4.1-3.5-6.4c0-1.1,3.8-3.6,5.5-3.3
		c8.3,1.4,16,4.6,21.9,11C60.3,167.7,60.4,168.5,60.5,169.3z"/>
	<path class="st0" d="M115,317.3c4.9,0.5,6.9,3,5.4,8.4c-2,6.8-4.9,13.1-12,16c-2.5,1-5.6,0.6-8.6,0.8
		C105.3,333.4,110,325.6,115,317.3z"/>
	<path class="st0" d="M57.3,221.6c-3.4,0.7-5.9,1.1-9.2,1.8c-0.9-7.7-2-14.8-2.2-22c-0.1-1.9,2.4-3.9,3.7-5.9
		c1.4,1.7,3.7,3.2,4.1,5.1C55.2,207.2,56.1,214.1,57.3,221.6z"/>
	<path class="st0" d="M188.1,312.7c-0.2,10.4,4.1,18.1,12.2,23.8c-2.2,3.7-4.9,3.3-7.8,2.2c-5.9-2.2-11.7-10.7-11.6-17.2
		C181,317.3,182.4,313.9,188.1,312.7z"/>
	<path class="st0" d="M194.7,254.4c-1.3-0.4-3.2-0.6-4.8-1.4c-3.3-1.6-6.8-4.4-4.9-8c1-2,5.4-2.4,8.4-3.3c1-0.3,2.3,0.7,3.3,0.4
		c5.8-1.9,7.6,1.8,8.1,6.2c0.6,5.1-4,4.9-7.2,5.9C196.8,254.3,196,254.3,194.7,254.4z"/>
	<path class="st0" d="M261.9,142.9c-5.8,1.7-11.4,3.5-17.1,5c-1.9,0.5-4.2,0.4-6-0.4c-2.7-1.2-3.7-3.9-0.5-5.4
		c5.3-2.6,10.8-5,16.5-6.5C259.4,134.3,261.7,137.4,261.9,142.9z"/>
	<path class="st0" d="M62.7,122.2c3.2,3.8,4.1,7.2,1.6,11.2c-0.8,1.2-1.1,2.8-1.3,4.2c-0.5,3.2-1.2,6.2-5.4,5.2
		c-4-0.9-7.4-2-5.9-7.7C53.4,129.1,57.2,125.3,62.7,122.2z"/>
	<path class="st0" d="M157.9,71.4c-6,0-10.4,0-15.5,0c1.3-7.1,2-14,6.8-19.3c0.7-0.1,1.5-0.2,2.2-0.3
		C153.5,58,155.5,64.3,157.9,71.4z"/>
	<path class="st0" d="M130.8,189c-6.5,7.6-14,10.4-23.7,9.8c6.4-4.9,12.1-9.3,17.8-13.7c-0.9-1.2-1.8-2.5-2.7-3.7
		C124.9,183.8,127.6,186.1,130.8,189z"/>
	<path class="st0" d="M43.9,224.5c-2.5,0.8-4.4,1.4-7.6,2.4c-1.8-6.7-3.8-13-5-19.4c-0.3-1.5,1.9-3.6,2.9-5.4c1.6,1.3,4,2.3,4.6,4
		C40.7,211.9,42.1,217.9,43.9,224.5z"/>
	<path class="st0" d="M114.5,347.4c4.5-7.8,9-15.7,14-24.3c2.6,0.1,4.7,1.5,3.8,6C130.5,339.4,122.6,347.3,114.5,347.4z"/>
	<path class="st0" d="M154.7,86c0,6.4-1.9,8.5-7.1,7.6c-1.5-0.3-3.4-2.3-3.9-4c-0.7-2-0.2-4.4,0-6.6c0.3-3.2,0.7-6,5.4-6.1
		c4.7-0.1,5,2.7,5.5,5.9C154.7,84.1,154.7,85.4,154.7,86z"/>
	<path class="st0" d="M64.7,154.1c-3.5,0.8-5.8,2.1-8,1.8c-4.6-0.7-9.1-2-13.4-3.5c-1-0.4-2.3-3.1-1.9-3.7c1.1-1.7,3.1-4,4.6-3.9
		C52.8,145.1,58.9,147.5,64.7,154.1z"/>
	<path class="st0" d="M176.2,74c-4.2-0.6-7.4-0.7-10.4-1.5c-1.3-0.3-2.9-1.7-3.3-2.9c-1.4-4.9-2.4-10-3.8-16
		C167.5,58.3,172.4,65,176.2,74z"/>
	<path class="st0" d="M184.2,342.2c-4.7,1.1-11.9-4.7-14.5-12.4c-1.7-5-0.4-7.8,3.9-9.7C177.1,327.4,180.6,334.7,184.2,342.2z"/>
	<path class="st0" d="M123.5,73.6c4-9.1,8.8-15.5,17.3-19.9c-1.4,6-2.4,11-3.9,16c-0.3,1.1-1.8,2.3-3,2.5
		C131,72.9,127.8,73.1,123.5,73.6z"/>
	<path class="st0" d="M254.8,130.1c-4.9,1.8-9.5,3.9-14.2,5c-1.7,0.4-4-1.6-6-2.4c0.9-1.4,1.5-3.3,2.8-4c3-1.7,6.3-3.1,9.6-4
		C251.4,123.3,253.8,125.6,254.8,130.1z"/>
	<path class="st0" d="M159.1,76.6c2.9,1.2,7.1,1.7,7.6,3.4c1.2,4.1,0.9,8.7,0.7,13c0,0.5-3.6,1.3-5.5,1c-1.1-0.1-2.6-2-2.7-3.2
		C158.9,86.7,159.1,82.4,159.1,76.6z"/>
	<path class="st0" d="M139.5,78c-0.2,4.1-0.7,7.8-0.5,11.5c0.3,4.2-2.3,4.5-5.2,4.8c-3.7,0.4-3.8-2.1-3.8-4.6c0-1.5-0.1-3,0.1-4.5
		C130.7,78.2,132,77.1,139.5,78z"/>
	<path class="st0" d="M163.4,44.9c-2.4,0.4-4.8,1-7.3,1.2c-6.3,0.5-12.6,0.9-19,1.1c-1.4,0-2.8-1-4.2-1.5c1-1,1.8-2.5,3-2.8
		c9.1-2.8,18.2-2.9,27.3,0.1C163.3,43.6,163.4,44.2,163.4,44.9z"/>
	<path class="st0" d="M125.7,79.2c0,4.8,0,9.2,0,13.7c0,4.6-3.1,4.7-6.4,4.9C115.8,88.1,118.6,80.2,125.7,79.2z"/>
	<path class="st0" d="M172.7,79.9c6.5,0,9.1,6.1,6.6,16.2c-4.3,0.5-7.2-0.2-6.7-5.7C173,86.9,172.7,83.4,172.7,79.9z"/>
	<path class="st0" d="M148.1,29.8c-2.6-2.6-4.2-4.1-5.8-5.7c2.3-2.4,4.6-4.7,6.9-7.1c2.2,2.2,4.5,4.4,6.7,6.7
		C153.6,25.5,151.3,27.3,148.1,29.8z"/>
	<path class="st0" d="M114.1,82.7c0,5.4,0.3,10.8-0.2,16.1c-0.1,1.5-2.4,2.8-3.6,4.2c-1-1.3-2.8-2.6-2.8-3.9
		c0.1-4.4,0.7-8.9,1.5-13.2c0.4-1.9,1.7-3.6,2.6-5.4C112.4,81.3,113.2,82,114.1,82.7z"/>
	<path class="st0" d="M124.3,60c-5.4,5-3.2,16-13.7,17C108.5,71.1,113.9,64,124.3,60z"/>
	<path class="st0" d="M234.5,123.4c1.2-6.1,2.2-11.5,3.5-18.2C247,116.7,246.3,120.5,234.5,123.4z"/>
	<path class="st0" d="M188.7,77.9c-10.3-2.5-8.1-13.6-14.3-18.2C181.7,61.3,188.2,69.5,188.7,77.9z"/>
	<path class="st0" d="M184.6,83c5.5,1.6,7.5,7.6,5.6,17.8c-4.2,0.3-6-1.3-5.6-5.8C184.9,91,184.6,86.9,184.6,83z"/>
	<path class="st0" d="M228.1,192.1c-12.4,4-16.4,2.9-24.4-6.4C211.7,187.8,219.6,189.9,228.1,192.1z"/>
	<path class="st0" d="M138.9,36c5-4.7,14.2-4.9,21.6,0C152.5,36,145.9,36,138.9,36z"/>
	<path class="st0" d="M102.6,105.2c-2.6-5.6-4-10.4,0-16.9C102.6,94.6,102.6,99.4,102.6,105.2z"/>
	<path class="st0" d="M147.9,358.4c1.8,2.7,3.2,4.7,5,7.3c-3.1,0-5.5,0-8.7,0C145.4,363.4,146.4,361.4,147.9,358.4z"/>
	<path d="M162.6,119.2c0,2.8,0.2,5.6,0,8.4c-0.6,6.8-6,11.6-12.8,11.7c-6.7,0-12.4-4.8-12.9-11.5c-0.4-6-0.2-12,0-17.9
		c0.1-1.2,1.7-2.3,2.7-3.4c0.9,1.2,2.4,2.4,2.4,3.7c0.3,5,0.1,10.1,0.2,15.1c0.1,5.5,2.8,8.6,7.4,8.6c4.6,0,7.4-3,7.6-8.5
		c0.1-5-0.1-10.1,0.2-15.1c0.1-1.3,1.9-2.5,2.9-3.8c0.8,1.3,2.1,2.5,2.2,3.8C162.9,113.2,162.7,116.2,162.6,119.2
		C162.7,119.2,162.7,119.2,162.6,119.2z"/>
	<path d="M162.2,156.3c-1-16.7,7.5-30.9,21.5-34.6c-2.7,3.4-5.4,6.3-7.4,9.6c-0.8,1.3-0.4,4.6,0.7,5.4c3.6,2.8,5,6,3.6,10.2
		c-1.5,4.5-4.9,6.6-9.7,7.1C168.1,154.3,165.3,155.4,162.2,156.3z"/>
	<path d="M116.1,122.1c11.1,0.9,22.1,16.4,21.2,34.1c-2.9-0.7-5.9-1.9-8.9-2.2c-4.8-0.5-8.2-2.6-9.6-7.2c-1.3-4.2,0-7.4,3.7-10.2
		c1.1-0.8,1.4-4.1,0.6-5.5C121.2,128,118.5,125.1,116.1,122.1z"/>
	<path d="M152.8,116.5c0,3.2,0.2,6.3-0.1,9.5c-0.1,1.1-1.7,2-2.7,3c-1.1-1-3-2-3.1-3.1c-0.3-6.1-0.3-12.3,0-18.4
		c0.1-1.1,1.9-2.2,3-3.2c1,1.1,2.7,2.1,2.9,3.4C153.1,110.5,152.8,113.5,152.8,116.5C152.8,116.5,152.8,116.5,152.8,116.5z"/>
	<path d="M153.4,304.8c-4.2-3.3-7.4-3.1-9.1,2.2c-3.4-2.6-3.9-5.9-1.4-8.4c1.6-1.6,5.4-2.8,7.2-1.9c2.1,1,3.1,4.3,4.6,6.6
		C154.2,303.8,153.8,304.3,153.4,304.8z"/>
</g>
<g>
	<path class="st1" d="M329.7,176.1l40.6-2.5c0.9,6.6,2.7,11.6,5.4,15.1c4.4,5.6,10.7,8.4,18.8,8.4c6.1,0,10.8-1.4,14.1-4.3
		c3.3-2.9,4.9-6.2,4.9-9.9c0-3.6-1.6-6.8-4.7-9.6c-3.1-2.8-10.4-5.5-21.9-8c-18.7-4.2-32.1-9.8-40-16.8c-8-7-12.1-15.9-12.1-26.7
		c0-7.1,2.1-13.8,6.2-20.1c4.1-6.3,10.3-11.3,18.6-14.9c8.3-3.6,19.6-5.4,34-5.4c17.6,0,31.1,3.3,40.4,9.8
		c9.3,6.6,14.8,17,16.5,31.3l-40.2,2.4c-1.1-6.2-3.3-10.7-6.7-13.6c-3.4-2.8-8.1-4.2-14.2-4.2c-5,0-8.7,1.1-11.2,3.2
		c-2.5,2.1-3.8,4.7-3.8,7.7c0,2.2,1,4.2,3.1,5.9c2,1.8,6.8,3.5,14.3,5.1c18.7,4,32,8.1,40.1,12.2c8.1,4.1,13.9,9.2,17.6,15.3
		c3.7,6.1,5.5,12.9,5.5,20.4c0,8.9-2.4,17-7.3,24.5c-4.9,7.5-11.7,13.1-20.5,17c-8.8,3.9-19.9,5.8-33.3,5.8
		c-23.5,0-39.8-4.5-48.8-13.6C336,201.5,330.9,190,329.7,176.1z"/>
	<path class="st1" d="M477.2,83.7h42.7V132h46.6V83.7h42.9v138.1h-42.9v-55.9h-46.6v55.9h-42.7V83.7z"/>
	<path class="st1" d="M638.9,221.8V83.7H710c13.2,0,23.3,1.1,30.2,3.4c7,2.3,12.6,6.5,16.9,12.6c4.3,6.1,6.4,13.6,6.4,22.4
		c0,7.7-1.6,14.3-4.9,19.8c-3.3,5.6-7.8,10.1-13.5,13.5c-3.6,2.2-8.6,4-15,5.5c5.1,1.7,8.8,3.4,11.1,5.1c1.6,1.1,3.8,3.6,6.8,7.3
		c3,3.7,5,6.6,6,8.6l20.7,40h-48.2l-22.8-42.2c-2.9-5.5-5.5-9-7.7-10.6c-3.1-2.1-6.6-3.2-10.5-3.2h-3.8v56.1H638.9z M681.7,139.6h18
		c1.9,0,5.7-0.6,11.3-1.9c2.8-0.6,5.1-2,6.9-4.3c1.8-2.3,2.7-5,2.7-8c0-4.5-1.4-7.9-4.2-10.3c-2.8-2.4-8.1-3.6-15.9-3.6h-18.7V139.6
		z"/>
	<path class="st1" d="M788.9,83.7h114.4v29.5h-71.6v21.9H898v28.2h-66.4v27.2h73.7v31.3H788.9V83.7z"/>
	<path class="st1" d="M928.8,83.7h114.4v29.5h-71.6v21.9h66.4v28.2h-66.4v27.2h73.7v31.3H928.8V83.7z"/>
	<path class="st1" d="M1203.1,171.8V143h65.9v58.9c-12.6,8.6-23.8,14.5-33.5,17.6s-21.2,4.7-34.5,4.7c-16.4,0-29.8-2.8-40.1-8.4
		c-10.3-5.6-18.3-13.9-24-25c-5.7-11.1-8.5-23.7-8.5-38.1c0-15.1,3.1-28.2,9.3-39.3c6.2-11.1,15.3-19.6,27.3-25.4
		c9.4-4.5,21.9-6.7,37.8-6.7c15.3,0,26.7,1.4,34.2,4.1c7.6,2.8,13.8,7.1,18.8,12.9c5,5.8,8.7,13.2,11.3,22.1l-41.2,7.3
		c-1.7-5.2-4.6-9.2-8.6-12c-4.1-2.8-9.2-4.1-15.5-4.1c-9.4,0-16.8,3.2-22.4,9.7c-5.6,6.5-8.3,16.8-8.3,30.9c0,14.9,2.8,25.6,8.4,32
		c5.6,6.4,13.5,9.6,23.5,9.6c4.8,0,9.3-0.7,13.7-2.1c4.3-1.4,9.3-3.7,14.9-7.1v-13H1203.1z"/>
	<path class="st1" d="M1379.9,199h-48.4l-6.7,22.8h-43.6L1333,83.7h46.5l51.9,138.1h-44.7L1379.9,199z M1371,169.1l-15.2-49.6
		l-15.1,49.6H1371z"/>
	<path class="st1" d="M1445.9,83.7h39.8l52,76.4V83.7h40.2v138.1h-40.2l-51.7-75.8v75.8h-40.1V83.7z"/>
	<path class="st1" d="M1606.8,83.7h114.4v29.5h-71.6v21.9h66.4v28.2h-66.4v27.2h73.7v31.3h-116.4V83.7z"/>
	<path class="st1" d="M1739.4,176.1l40.6-2.5c0.9,6.6,2.7,11.6,5.4,15.1c4.4,5.6,10.7,8.4,18.8,8.4c6.1,0,10.8-1.4,14.1-4.3
		c3.3-2.9,4.9-6.2,4.9-9.9c0-3.6-1.6-6.8-4.7-9.6c-3.1-2.8-10.4-5.5-21.9-8c-18.7-4.2-32.1-9.8-40-16.8c-8-7-12.1-15.9-12.1-26.7
		c0-7.1,2.1-13.8,6.2-20.1c4.1-6.3,10.3-11.3,18.6-14.9c8.3-3.6,19.6-5.4,34-5.4c17.6,0,31.1,3.3,40.4,9.8
		c9.3,6.6,14.8,17,16.5,31.3l-40.2,2.4c-1.1-6.2-3.3-10.7-6.7-13.6c-3.4-2.8-8.1-4.2-14.2-4.2c-5,0-8.7,1.1-11.2,3.2
		c-2.5,2.1-3.8,4.7-3.8,7.7c0,2.2,1,4.2,3.1,5.9c2,1.8,6.8,3.5,14.3,5.1c18.7,4,32,8.1,40.1,12.2c8.1,4.1,13.9,9.2,17.6,15.3
		c3.7,6.1,5.5,12.9,5.5,20.4c0,8.9-2.4,17-7.3,24.5c-4.9,7.5-11.7,13.1-20.5,17c-8.8,3.9-19.9,5.8-33.3,5.8
		c-23.5,0-39.8-4.5-48.8-13.6C1745.7,201.5,1740.6,190,1739.4,176.1z"/>
	<path class="st1" d="M1886.9,83.7h42.7V132h46.6V83.7h42.9v138.1h-42.9v-55.9h-46.6v55.9h-42.7V83.7z"/>
</g>
<g>
	<path class="st1" d="M375.5,296.6l14,4.2c-0.9,3.9-2.4,7.2-4.5,9.9s-4.5,4.6-7.5,6c-3,1.3-6.8,2-11.5,2c-5.6,0-10.2-0.8-13.8-2.5
		c-3.6-1.6-6.6-4.5-9.2-8.6c-2.6-4.1-3.9-9.4-3.9-15.8c0-8.6,2.3-15.2,6.8-19.8c4.6-4.6,11-6.9,19.3-6.9c6.5,0,11.7,1.3,15.4,4
		c3.7,2.6,6.5,6.7,8.3,12.2l-14.1,3.1c-0.5-1.6-1-2.7-1.6-3.5c-0.9-1.2-2-2.2-3.3-2.8c-1.3-0.7-2.7-1-4.3-1c-3.6,0-6.4,1.5-8.3,4.4
		c-1.5,2.2-2.2,5.6-2.2,10.2c0,5.7,0.9,9.7,2.6,11.8c1.7,2.1,4.2,3.2,7.3,3.2c3.1,0,5.4-0.9,6.9-2.6
		C373.6,302.4,374.8,299.9,375.5,296.6z"/>
	<path class="st1" d="M397.4,299.1c0-5.7,1.9-10.4,5.8-14.1c3.9-3.7,9.1-5.6,15.6-5.6c7.5,0,13.2,2.2,17,6.5c3.1,3.5,4.6,7.8,4.6,13
		c0,5.8-1.9,10.5-5.7,14.2s-9.1,5.5-15.9,5.5c-6,0-10.9-1.5-14.6-4.6C399.6,310.3,397.4,305.3,397.4,299.1z M411.8,299.1
		c0,3.3,0.7,5.8,2,7.4c1.4,1.6,3.1,2.4,5.1,2.4c2.1,0,3.8-0.8,5.1-2.4c1.3-1.6,2-4.1,2-7.6c0-3.2-0.7-5.7-2-7.3
		c-1.3-1.6-3-2.4-5-2.4c-2.1,0-3.8,0.8-5.2,2.4C412.5,293.3,411.8,295.8,411.8,299.1z"/>
	<path class="st1" d="M447.4,293.3h20.9v11.1h-20.9V293.3z"/>
	<path class="st1" d="M475.3,299.1c0-5.7,1.9-10.4,5.8-14.1c3.9-3.7,9.1-5.6,15.6-5.6c7.5,0,13.2,2.2,17,6.5c3.1,3.5,4.6,7.8,4.6,13
		c0,5.8-1.9,10.5-5.7,14.2c-3.8,3.7-9.1,5.5-15.9,5.5c-6,0-10.9-1.5-14.6-4.6C477.6,310.3,475.3,305.3,475.3,299.1z M489.8,299.1
		c0,3.3,0.7,5.8,2,7.4c1.4,1.6,3.1,2.4,5.1,2.4c2.1,0,3.8-0.8,5.1-2.4c1.3-1.6,2-4.1,2-7.6c0-3.2-0.7-5.7-2-7.3
		c-1.3-1.6-3-2.4-5-2.4c-2.1,0-3.8,0.8-5.2,2.4C490.4,293.3,489.8,295.8,489.8,299.1z"/>
	<path class="st1" d="M528.3,332.1v-51.8h13.5v5.5c1.9-2.3,3.6-3.9,5.1-4.7c2.1-1.1,4.4-1.7,7-1.7c5,0,8.9,1.9,11.6,5.8
		c2.7,3.8,4.1,8.6,4.1,14.2c0,6.2-1.5,11-4.5,14.3c-3,3.3-6.8,4.9-11.3,4.9c-2.2,0-4.2-0.4-6.1-1.1c-1.8-0.8-3.5-1.9-4.9-3.4v17.9
		H528.3z M542.7,299.1c0,3,0.6,5.2,1.9,6.6c1.2,1.4,2.8,2.2,4.7,2.2c1.7,0,3.1-0.7,4.2-2.1c1.1-1.4,1.7-3.7,1.7-7
		c0-3-0.6-5.3-1.8-6.7c-1.2-1.4-2.6-2.1-4.3-2.1c-1.8,0-3.4,0.7-4.6,2.2C543.3,293.6,542.7,295.9,542.7,299.1z"/>
	<path class="st1" d="M620.9,302.6h-28.8c0.3,2.3,0.9,4,1.9,5.2c1.4,1.6,3.2,2.4,5.4,2.4c1.4,0,2.8-0.4,4-1.1
		c0.8-0.4,1.6-1.2,2.5-2.4l14.2,1.3c-2.2,3.8-4.8,6.5-7.8,8.1c-3.1,1.6-7.5,2.5-13.2,2.5c-5,0-8.9-0.7-11.7-2.1
		c-2.9-1.4-5.2-3.6-7.1-6.7c-1.9-3-2.8-6.6-2.8-10.8c0-5.9,1.9-10.6,5.6-14.2c3.8-3.6,8.9-5.4,15.6-5.4c5.4,0,9.6,0.8,12.7,2.4
		c3.1,1.6,5.5,4,7.1,7.1c1.6,3.1,2.4,7.1,2.4,12V302.6z M606.3,295.7c-0.3-2.8-1-4.8-2.2-6c-1.2-1.2-2.8-1.8-4.8-1.8
		c-2.3,0-4.1,0.9-5.5,2.7c-0.9,1.1-1.4,2.8-1.7,5.1H606.3z"/>
	<path class="st1" d="M630.5,280.3h13.5v6.1c1.3-2.7,2.6-4.5,4-5.5c1.4-1,3.1-1.5,5.1-1.5c2.1,0,4.4,0.7,7,2l-4.5,10.2
		c-1.7-0.7-3-1.1-4-1.1c-1.9,0-3.3,0.8-4.4,2.3c-1.5,2.2-2.2,6.3-2.2,12.3v12.6h-14.4V280.3z"/>
	<path class="st1" d="M679.6,292.4l-13.7-1.4c0.5-2.4,1.3-4.3,2.2-5.7c1-1.4,2.4-2.6,4.2-3.6c1.3-0.7,3.1-1.3,5.4-1.7
		c2.3-0.4,4.8-0.6,7.5-0.6c4.3,0,7.8,0.2,10.4,0.7c2.6,0.5,4.8,1.5,6.5,3c1.2,1.1,2.2,2.6,2.9,4.5c0.7,1.9,1.1,3.8,1.1,5.6v16.6
		c0,1.8,0.1,3.1,0.3,4.2c0.2,1,0.7,2.3,1.5,3.8h-13.5c-0.5-1-0.9-1.7-1.1-2.2c-0.2-0.5-0.3-1.3-0.5-2.4c-1.9,1.8-3.8,3.1-5.6,3.9
		c-2.5,1-5.5,1.6-8.9,1.6c-4.5,0-7.9-1-10.2-3.1c-2.3-2.1-3.5-4.6-3.5-7.7c0-2.8,0.8-5.2,2.5-7c1.7-1.8,4.8-3.2,9.3-4.1
		c5.4-1.1,8.9-1.8,10.5-2.3c1.6-0.4,3.3-1,5.1-1.7c0-1.8-0.4-3-1.1-3.7c-0.7-0.7-2-1.1-3.9-1.1c-2.4,0-4.1,0.4-5.3,1.1
		C680.9,289.7,680.2,290.8,679.6,292.4z M692.1,300c-2,0.7-4,1.3-6.2,1.9c-2.9,0.8-4.8,1.5-5.5,2.3c-0.8,0.8-1.2,1.7-1.2,2.6
		c0,1.1,0.4,2.1,1.2,2.8c0.8,0.7,1.9,1.1,3.5,1.1c1.6,0,3.1-0.4,4.5-1.2c1.4-0.8,2.4-1.7,2.9-2.8c0.6-1.1,0.9-2.6,0.9-4.4V300z"/>
	<path class="st1" d="M733.7,266v14.3h7.9v10.5h-7.9v13.3c0,1.6,0.2,2.7,0.5,3.2c0.5,0.8,1.3,1.2,2.5,1.2c1.1,0,2.5-0.3,4.5-0.9
		l1.1,9.9c-3.6,0.8-6.9,1.2-10,1.2c-3.6,0-6.2-0.5-7.9-1.4c-1.7-0.9-2.9-2.3-3.8-4.2c-0.8-1.9-1.2-4.9-1.2-9.1v-13.2H714v-10.5h5.3
		v-6.9L733.7,266z"/>
	<path class="st1" d="M751.8,266h14.4v9.8h-14.4V266z M751.8,280.3h14.4v37.5h-14.4V280.3z"/>
	<path class="st1" d="M774,280.3h15l7.3,23.8l7.6-23.8h14.5l-15.9,37.5h-12.8L774,280.3z"/>
	<path class="st1" d="M865,302.6h-28.8c0.3,2.3,0.9,4,1.9,5.2c1.4,1.6,3.2,2.4,5.4,2.4c1.4,0,2.8-0.4,4-1.1c0.8-0.4,1.6-1.2,2.5-2.4
		l14.2,1.3c-2.2,3.8-4.8,6.5-7.8,8.1c-3.1,1.6-7.5,2.5-13.2,2.5c-5,0-8.9-0.7-11.7-2.1c-2.9-1.4-5.2-3.6-7.1-6.7
		c-1.9-3-2.8-6.6-2.8-10.8c0-5.9,1.9-10.6,5.6-14.2c3.8-3.6,8.9-5.4,15.6-5.4c5.4,0,9.6,0.8,12.7,2.4c3.1,1.6,5.5,4,7.1,7.1
		c1.6,3.1,2.4,7.1,2.4,12V302.6z M850.4,295.7c-0.3-2.8-1-4.8-2.2-6c-1.2-1.2-2.8-1.8-4.8-1.8c-2.3,0-4.1,0.9-5.5,2.7
		c-0.9,1.1-1.4,2.8-1.7,5.1H850.4z"/>
	<path class="st1" d="M928.4,299v-10.8h24.7v22.1c-4.7,3.2-8.9,5.4-12.6,6.6c-3.6,1.2-8,1.7-12.9,1.7c-6.1,0-11.2-1-15-3.1
		c-3.9-2.1-6.9-5.2-9-9.4c-2.1-4.1-3.2-8.9-3.2-14.3c0-5.7,1.2-10.6,3.5-14.7c2.3-4.2,5.7-7.4,10.2-9.5c3.5-1.7,8.2-2.5,14.2-2.5
		c5.7,0,10,0.5,12.8,1.6c2.8,1,5.2,2.6,7.1,4.8c1.9,2.2,3.3,4.9,4.2,8.3l-15.4,2.8c-0.6-2-1.7-3.5-3.2-4.5c-1.5-1-3.5-1.6-5.8-1.6
		c-3.5,0-6.3,1.2-8.4,3.7c-2.1,2.4-3.1,6.3-3.1,11.6c0,5.6,1.1,9.6,3.2,12c2.1,2.4,5,3.6,8.8,3.6c1.8,0,3.5-0.3,5.1-0.8
		c1.6-0.5,3.5-1.4,5.6-2.6V299H928.4z"/>
	<path class="st1" d="M964.6,280.3h13.5v6.1c1.3-2.7,2.6-4.5,4-5.5c1.4-1,3.1-1.5,5.1-1.5c2.1,0,4.4,0.7,7,2l-4.5,10.2
		c-1.7-0.7-3-1.1-4-1.1c-1.9,0-3.3,0.8-4.4,2.3c-1.5,2.2-2.2,6.3-2.2,12.3v12.6h-14.4V280.3z"/>
	<path class="st1" d="M998.8,299.1c0-5.7,1.9-10.4,5.8-14.1c3.9-3.7,9.1-5.6,15.6-5.6c7.5,0,13.2,2.2,17,6.5c3.1,3.5,4.6,7.8,4.6,13
		c0,5.8-1.9,10.5-5.7,14.2s-9.1,5.5-15.9,5.5c-6,0-10.9-1.5-14.6-4.6C1001.1,310.3,998.8,305.3,998.8,299.1z M1013.2,299.1
		c0,3.3,0.7,5.8,2,7.4c1.4,1.6,3.1,2.4,5.1,2.4c2.1,0,3.8-0.8,5.1-2.4c1.3-1.6,2-4.1,2-7.6c0-3.2-0.7-5.7-2-7.3
		c-1.3-1.6-3-2.4-5-2.4c-2.1,0-3.8,0.8-5.2,2.4C1013.9,293.3,1013.2,295.8,1013.2,299.1z"/>
	<path class="st1" d="M1091.2,317.8h-13.4v-6.1c-2,2.5-4,4.3-6.1,5.3c-2,1.1-4.5,1.6-7.5,1.6c-4,0-7.1-1.2-9.3-3.6
		c-2.2-2.4-3.4-6-3.4-10.9v-23.9h14.4v20.6c0,2.4,0.4,4,1.3,5c0.9,1,2.1,1.5,3.7,1.5c1.7,0,3.1-0.7,4.2-2c1.1-1.3,1.6-3.7,1.6-7.1
		v-18.1h14.4V317.8z"/>
	<path class="st1" d="M1102.8,332.1v-51.8h13.5v5.5c1.9-2.3,3.6-3.9,5.1-4.7c2.1-1.1,4.4-1.7,7-1.7c5,0,8.9,1.9,11.6,5.8
		c2.7,3.8,4.1,8.6,4.1,14.2c0,6.2-1.5,11-4.5,14.3c-3,3.3-6.8,4.9-11.3,4.9c-2.2,0-4.2-0.4-6.1-1.1c-1.8-0.8-3.5-1.9-4.9-3.4v17.9
		H1102.8z M1117.2,299.1c0,3,0.6,5.2,1.9,6.6c1.2,1.4,2.8,2.2,4.7,2.2c1.7,0,3.1-0.7,4.2-2.1c1.1-1.4,1.7-3.7,1.7-7
		c0-3-0.6-5.3-1.8-6.7c-1.2-1.4-2.6-2.1-4.3-2.1c-1.8,0-3.4,0.7-4.6,2.2C1117.8,293.6,1117.2,295.9,1117.2,299.1z"/>
	<path class="st1" d="M1181.8,266h16v18.1h17.5V266h16.1v51.8h-16.1v-20.9h-17.5v20.9h-16V266z"/>
	<path class="st1" d="M1242.1,299.1c0-5.7,1.9-10.4,5.8-14.1c3.9-3.7,9.1-5.6,15.6-5.6c7.5,0,13.2,2.2,17,6.5
		c3.1,3.5,4.6,7.8,4.6,13c0,5.8-1.9,10.5-5.7,14.2c-3.8,3.7-9.1,5.5-15.9,5.5c-6,0-10.9-1.5-14.6-4.6
		C1244.3,310.3,1242.1,305.3,1242.1,299.1z M1256.5,299.1c0,3.3,0.7,5.8,2,7.4c1.4,1.6,3.1,2.4,5.1,2.4c2.1,0,3.8-0.8,5.1-2.4
		c1.3-1.6,2-4.1,2-7.6c0-3.2-0.7-5.7-2-7.3c-1.3-1.6-3-2.4-5-2.4c-2.1,0-3.8,0.8-5.2,2.4C1257.1,293.3,1256.5,295.8,1256.5,299.1z"
		/>
	<path class="st1" d="M1334.4,317.8H1321v-6.1c-2,2.5-4,4.3-6.1,5.3c-2,1.1-4.5,1.6-7.5,1.6c-4,0-7.1-1.2-9.3-3.6
		c-2.2-2.4-3.4-6-3.4-10.9v-23.9h14.4v20.6c0,2.4,0.4,4,1.3,5c0.9,1,2.1,1.5,3.7,1.5c1.7,0,3.1-0.7,4.2-2c1.1-1.3,1.6-3.7,1.6-7.1
		v-18.1h14.4V317.8z"/>
	<path class="st1" d="M1343.4,307.4l14.3-1.3c0.6,1.7,1.4,2.9,2.5,3.6c1.1,0.7,2.5,1.1,4.2,1.1c1.9,0,3.4-0.4,4.5-1.2
		c0.8-0.6,1.2-1.4,1.2-2.3c0-1-0.5-1.8-1.6-2.4c-0.8-0.4-2.8-0.9-6.2-1.5c-5-0.9-8.5-1.7-10.4-2.4s-3.6-2-4.9-3.8
		c-1.3-1.8-2-3.8-2-6c0-2.5,0.7-4.6,2.2-6.4c1.4-1.8,3.4-3.1,5.9-4c2.5-0.9,5.9-1.3,10.1-1.3c4.5,0,7.8,0.3,9.9,1
		c2.1,0.7,3.9,1.7,5.3,3.2c1.4,1.4,2.6,3.4,3.6,5.8l-13.6,1.3c-0.4-1.2-0.9-2.1-1.8-2.6c-1.1-0.8-2.5-1.1-4.1-1.1
		c-1.6,0-2.8,0.3-3.6,0.9c-0.7,0.6-1.1,1.3-1.1,2.1c0,0.9,0.5,1.6,1.4,2.1c0.9,0.5,3,0.9,6.1,1.3c4.8,0.5,8.3,1.3,10.7,2.3
		s4.1,2.3,5.4,4.1c1.2,1.8,1.9,3.8,1.9,5.9c0,2.2-0.7,4.3-2,6.3c-1.3,2-3.4,3.7-6.2,4.9c-2.8,1.2-6.6,1.8-11.5,1.8
		c-6.9,0-11.7-1-14.6-2.9C1346.1,313.7,1344.3,311,1343.4,307.4z"/>
	<path class="st1" d="M1393.5,266h14.4v9.8h-14.4V266z M1393.5,280.3h14.4v37.5h-14.4V280.3z"/>
	<path class="st1" d="M1419.9,280.3h13.4v6.1c2-2.5,4-4.3,6.1-5.4c2-1.1,4.5-1.6,7.5-1.6c4,0,7.1,1.2,9.3,3.6c2.2,2.4,3.4,6,3.4,11
		v23.8h-14.4v-20.6c0-2.4-0.4-4-1.3-5c-0.9-1-2.1-1.5-3.7-1.5c-1.7,0-3.2,0.7-4.2,2c-1.1,1.3-1.6,3.7-1.6,7.1v18h-14.4V280.3z"/>
	<path class="st1" d="M1497.1,280.3h13.5v35.4l0,1.7c0,2.4-0.5,4.6-1.5,6.7c-1,2.1-2.3,3.9-4,5.2c-1.7,1.3-3.8,2.3-6.3,2.9
		c-2.6,0.6-5.5,0.9-8.8,0.9c-7.5,0-12.7-1.1-15.5-3.4c-2.8-2.3-4.2-5.3-4.2-9.1c0-0.5,0-1.1,0.1-1.9l14,1.6c0.4,1.3,0.9,2.2,1.6,2.7
		c1.1,0.7,2.4,1.1,4,1.1c2.1,0,3.6-0.6,4.6-1.7c1-1.1,1.5-3,1.5-5.8v-5.7c-1.4,1.7-2.8,2.9-4.2,3.6c-2.2,1.2-4.6,1.8-7.2,1.8
		c-5,0-9.1-2.2-12.2-6.6c-2.2-3.1-3.3-7.2-3.3-12.3c0-5.8,1.4-10.3,4.2-13.4c2.8-3.1,6.5-4.6,11.1-4.6c2.9,0,5.3,0.5,7.2,1.5
		c1.9,1,3.7,2.6,5.3,4.9V280.3z M1483.6,298.5c0,2.7,0.6,4.7,1.7,6c1.2,1.3,2.7,2,4.6,2c1.8,0,3.3-0.7,4.5-2
		c1.2-1.4,1.8-3.4,1.8-6.1c0-2.7-0.6-4.8-1.9-6.3c-1.3-1.4-2.8-2.2-4.7-2.2s-3.3,0.7-4.4,2C1484.1,293.2,1483.6,295.4,1483.6,298.5z
		"/>
	<path class="st1" d="M1547.2,300.7l15.2-1c0.3,2.5,1,4.4,2,5.7c1.6,2.1,4,3.1,7.1,3.1c2.3,0,4-0.5,5.3-1.6c1.2-1.1,1.9-2.3,1.9-3.7
		c0-1.3-0.6-2.5-1.8-3.6c-1.2-1.1-3.9-2.1-8.2-3c-7-1.6-12-3.7-15-6.3c-3-2.6-4.5-5.9-4.5-10c0-2.7,0.8-5.2,2.3-7.5
		c1.5-2.4,3.9-4.2,7-5.6c3.1-1.4,7.3-2,12.7-2c6.6,0,11.7,1.2,15.1,3.7c3.5,2.5,5.5,6.4,6.2,11.7l-15.1,0.9c-0.4-2.3-1.2-4-2.5-5.1
		c-1.3-1.1-3.1-1.6-5.3-1.6c-1.9,0-3.3,0.4-4.2,1.2c-0.9,0.8-1.4,1.7-1.4,2.9c0,0.8,0.4,1.6,1.2,2.2c0.8,0.7,2.5,1.3,5.4,1.9
		c7,1.5,12,3,15,4.6c3,1.5,5.2,3.5,6.6,5.7c1.4,2.3,2.1,4.8,2.1,7.7c0,3.3-0.9,6.4-2.8,9.2c-1.8,2.8-4.4,4.9-7.7,6.4
		c-3.3,1.4-7.5,2.2-12.5,2.2c-8.8,0-14.9-1.7-18.3-5.1C1549.5,310.2,1547.6,305.9,1547.2,300.7z"/>
	<path class="st1" d="M1602.3,299.1c0-5.7,1.9-10.4,5.8-14.1c3.9-3.7,9.1-5.6,15.6-5.6c7.5,0,13.2,2.2,17,6.5
		c3.1,3.5,4.6,7.8,4.6,13c0,5.8-1.9,10.5-5.7,14.2s-9.1,5.5-15.9,5.5c-6,0-10.9-1.5-14.6-4.6
		C1604.6,310.3,1602.3,305.3,1602.3,299.1z M1616.7,299.1c0,3.3,0.7,5.8,2,7.4c1.4,1.6,3.1,2.4,5.1,2.4c2.1,0,3.8-0.8,5.1-2.4
		c1.3-1.6,2-4.1,2-7.6c0-3.2-0.7-5.7-2-7.3c-1.3-1.6-3-2.4-5-2.4c-2.1,0-3.8,0.8-5.2,2.4C1617.4,293.3,1616.7,295.8,1616.7,299.1z"
		/>
	<path class="st1" d="M1683.1,303.1l13.7,1.6c-0.8,2.8-2,5.3-3.7,7.4c-1.7,2.1-3.9,3.7-6.6,4.9c-2.7,1.2-6.1,1.7-10.2,1.7
		c-4,0-7.3-0.4-9.9-1.1c-2.6-0.7-4.9-1.9-6.8-3.6c-1.9-1.7-3.4-3.6-4.5-5.8c-1.1-2.2-1.6-5.2-1.6-8.9c0-3.9,0.7-7.1,2-9.6
		c1-1.9,2.3-3.6,4-5.1c1.7-1.5,3.4-2.6,5.2-3.3c2.8-1.2,6.4-1.7,10.8-1.7c6.1,0,10.8,1.1,14,3.3c3.2,2.2,5.5,5.4,6.8,9.6l-13.5,1.8
		c-0.4-1.6-1.2-2.8-2.3-3.6c-1.1-0.8-2.6-1.2-4.5-1.2c-2.4,0-4.3,0.9-5.8,2.6c-1.5,1.7-2.2,4.3-2.2,7.7c0,3.1,0.7,5.4,2.2,7
		c1.5,1.6,3.3,2.4,5.6,2.4c1.9,0,3.5-0.5,4.8-1.4C1681.5,306.6,1682.5,305.1,1683.1,303.1z"/>
	<path class="st1" d="M1706.8,266h14.4v9.8h-14.4V266z M1706.8,280.3h14.4v37.5h-14.4V280.3z"/>
	<path class="st1" d="M1774.8,302.6H1746c0.3,2.3,0.9,4,1.9,5.2c1.4,1.6,3.2,2.4,5.4,2.4c1.4,0,2.8-0.4,4-1.1
		c0.8-0.4,1.6-1.2,2.5-2.4l14.2,1.3c-2.2,3.8-4.8,6.5-7.8,8.1c-3.1,1.6-7.5,2.5-13.2,2.5c-5,0-8.9-0.7-11.7-2.1
		c-2.9-1.4-5.2-3.6-7.1-6.7c-1.9-3-2.8-6.6-2.8-10.8c0-5.9,1.9-10.6,5.6-14.2c3.8-3.6,8.9-5.4,15.6-5.4c5.4,0,9.6,0.8,12.7,2.4
		c3.1,1.6,5.5,4,7.1,7.1c1.6,3.1,2.4,7.1,2.4,12V302.6z M1760.2,295.7c-0.3-2.8-1-4.8-2.2-6c-1.2-1.2-2.8-1.8-4.8-1.8
		c-2.3,0-4.1,0.9-5.5,2.7c-0.9,1.1-1.4,2.8-1.7,5.1H1760.2z"/>
	<path class="st1" d="M1801.6,266v14.3h7.9v10.5h-7.9v13.3c0,1.6,0.2,2.7,0.5,3.2c0.5,0.8,1.3,1.2,2.5,1.2c1.1,0,2.5-0.3,4.5-0.9
		l1.1,9.9c-3.6,0.8-6.9,1.2-10,1.2c-3.6,0-6.2-0.5-7.9-1.4c-1.7-0.9-2.9-2.3-3.8-4.2c-0.8-1.9-1.2-4.9-1.2-9.1v-13.2h-5.3v-10.5h5.3
		v-6.9L1801.6,266z"/>
	<path class="st1" d="M1815,280.3h15.2l7.7,25l7.2-25h14.2l-14.9,40.1c-1.7,4.6-3.4,7.7-5.2,9.3c-2.5,2.3-6.3,3.4-11.4,3.4
		c-2.1,0-5.3-0.3-9.6-0.8l-1.1-10c2.1,0.7,4.4,1,6.9,1c1.7,0,3.1-0.4,4.1-1.2c1-0.8,1.9-2.2,2.7-4.2L1815,280.3z"/>
	<path class="st1" d="M1894.1,266h16v39h25v12.8h-41V266z"/>
	<path class="st1" d="M1961.5,266v14.3h7.9v10.5h-7.9v13.3c0,1.6,0.2,2.7,0.5,3.2c0.5,0.8,1.3,1.2,2.5,1.2c1.1,0,2.5-0.3,4.5-0.9
		l1.1,9.9c-3.6,0.8-6.9,1.2-10,1.2c-3.6,0-6.2-0.5-7.9-1.4c-1.7-0.9-2.9-2.3-3.8-4.2c-0.8-1.9-1.2-4.9-1.2-9.1v-13.2h-5.3v-10.5h5.3
		v-6.9L1961.5,266z"/>
	<path class="st1" d="M2018.6,266v51.8h-13.5v-5.5c-1.9,2.4-3.6,3.9-5.2,4.8c-2.1,1.1-4.4,1.6-6.9,1.6c-5.1,0-9-1.9-11.7-5.8
		c-2.7-3.9-4-8.6-4-14.2c0-6.2,1.5-11,4.5-14.3c3-3.3,6.8-4.9,11.4-4.9c2.2,0,4.3,0.4,6.1,1.1s3.4,1.9,4.9,3.4V266H2018.6z
		 M2004.2,298.9c0-2.9-0.6-5.1-1.9-6.6c-1.2-1.4-2.8-2.2-4.7-2.2c-1.7,0-3.1,0.7-4.2,2.1c-1.1,1.4-1.7,3.7-1.7,7
		c0,3.1,0.6,5.3,1.7,6.7c1.2,1.4,2.6,2.1,4.3,2.1c1.8,0,3.4-0.7,4.6-2.2C2003.6,304.5,2004.2,302.2,2004.2,298.9z"/>
</g>
</svg>
