<?xml version="1.0" encoding="utf-8"?>
<!-- Generator: Adobe Illustrator 27.3.1, SVG Export Plug-In . SVG Version: 6.00 Build 0)  -->
<svg version="1.1" id="Layer_1" xmlns="http://www.w3.org/2000/svg" xmlns:xlink="http://www.w3.org/1999/xlink" x="0px" y="0px"
	 viewBox="0 0 160 120" style="enable-background:new 0 0 160 120;" xml:space="preserve">
<style type="text/css">
	.st0{fill:#FFFFFF;}
</style>
<g>
	<path d="M117.1,82.5c0.4-0.2,0.8-0.5,1.2-0.7c3.2-2.1,5.2-5.9,4.2-9.2c-0.7-2.4-1.4-4.8-2.1-7.2c-0.8-2.6-2.9-4.2-5.4-5.1
		c0.1-0.2,0.1-0.4,0.2-0.5c4.2-3.2,4.7-7.1,2.5-11.7c-0.2-0.4-0.3-0.9-0.1-1.3c0.7-1.8-0.1-3.2-1.3-4.5c-0.3-0.3-0.5-0.7-0.8-1.1
		c-0.8-1-1.6-1.9-2.3-2.9c-0.2-0.3-0.6-0.5-0.6-0.7c-0.5-2.9-2.2-5-3.9-7.3c-2-2.6-3.7-3.4-6.9-2.4c-1.3,0.4-2.4,1-3.7,1.6
		c-0.6-5.2-3.1-9.2-7.5-11.9c-1.2-0.7-2.5-1.2-2.6-3c0-0.5-0.7-0.9-1.1-1.3c-1.1-1.3-2.1-2.6-2.1-4.5c0.1-2-1.7-4.3-3.6-4.8
		C79.7,3.7,77.7,5,77,6.9c-0.3,0.6-0.3,1.4-0.4,2.1c-0.1,0.4,0.1,0.9-0.1,1.2c-0.8,1.3-1.7,2.5-2.6,3.8c-0.2,0.4-0.3,0.9-0.6,1.3
		C73,15.9,72.6,16.7,72,17c-4.3,2.5-7.2,5.9-8.2,10.8c-0.1,0.7-0.4,1.3-0.5,1.5c-2.5-0.3-4.9-1-7.1-0.9c-3.6,0.3-5,3.6-3,6.7
		c0.4,0.6,0.6,1.2,1,1.8c-0.8,0.4-1.4,0.6-1.9,0.9c-1.8,1.1-3.5,2.4-3.8,4.6c-0.4,2.7-3.7,3.2-4.3,5.7c0,0-0.1,0-0.2,0.1
		c-1.6,0.8-2.1,2-1.7,3.8c0.1,0.7,0,1.6-0.3,2.2c-1.4,2.7-1.7,5.4-0.1,8.1c0.5,0.8-0.1,3.7-0.9,4.1c-2.2,1-2.3,2.9-2.1,4.8
		c0.6,4.4,2.5,8.2,5.9,11.2c-0.3,0.3-0.5,0.6-0.7,0.9c-6.5,7.4-2.7,19.7,6.9,22.4c2.7,0.8,5.2,2.4,7.8,3.6c0.2,0.1,0.3,0.3,0.4,0.5
		c0.9,1.9,2.5,2.3,4.4,2.5c1.3,0.1,2.6,0.4,3.9,0.6c-0.1,0.4-0.1,0.8-0.2,1.2c0.3,0.4,0.4,1,0.5,1.5c0.3,0.4,0.6,0.8,0.8,1.2
		c0.3,0.1,0.5,0.3,0.7,0.5c0.1,0,0.2,0,0.3,0c0.4,0,0.8,0.1,1,0.3c2.6,0.1,5.1,0.1,7.7,0.1c1.5,0,3.1,0,4.6,0
		c2.9-0.2,5.7-0.5,8.6-0.8c0.9-0.9,1.7-2,2.1-3.5c0-0.7,0.1-1.5,0.1-2.2c1.4-0.2,2.9-0.3,4.3-0.8c1.3-0.4,2.5-1.1,3.7-1.8
		c0.4-0.2,0.8-0.6,1.2-0.7c2.9-1,5.8-2,8.6-3.1c1-0.4,1.9-0.9,2.8-1.5c6.4-4.8,7.7-14,2.9-20.4C117.2,82.9,117.2,82.7,117.1,82.5z
		 M119.1,72.5c0.1-0.5,0.4-1,0.6-1.5c0.4,0.4,1.1,0.8,1,1.2c0,1.7-0.1,3.5-0.5,5.2c-0.1,0.4-1.1,0.6-1.7,0.8
		c-0.7,0.2-1.4,0.5-2.1,0.5c-1.7,0-3.5-0.2-5.2-0.3c-0.1,0-0.3-0.1-0.3,0c-2.7,1.2-2.3-0.6-2.4-2.2c-0.1-1.5-0.5-2.9-0.7-4.4
		c-0.1-0.5,0.2-1,0.3-1.5c0.3,0.5,0.9,0.9,1,1.4c0.3,1.4,0.4,2.9,0.7,4.3c0.1,0.5,0.5,1,0.7,1.4c0.2,0,0.4-0.1,0.5-0.1
		c0-0.6,0-1.1,0-1.7c0-1.5-0.3-3.1-0.1-4.6c0.1-0.6,0.9-1.2,1.4-1.8c0.4,0.6,0.9,1.2,1,1.8c0.2,1.6,0.2,3.3,0.3,4.9
		c0,0.5,0.2,1,0.3,1.6c0.2,0,0.4,0,0.6,0c0.1-0.5,0.4-1.1,0.4-1.6c0-1.8,0-3.6,0-5.3c0-0.5,0.5-1,0.7-1.5c0.5,0.4,1.5,0.7,1.6,1.1
		c0.2,1.8,0.1,3.6,0.2,5.4c0,0.6,0.2,1.1,0.3,1.7c0.4-0.5,0.9-0.9,1-1.4C119,74.9,118.9,73.7,119.1,72.5z M118.2,65.4
		c-0.8-0.5-1.7-0.9-3-1.6c0.3,1.4,0.5,2.4,0.7,3.5c-3.1,0.5-6.2,1-9.2,1.6c-1.2-1.8,0.1-4.7,2.7-6.1
		C112.6,60.9,116.7,62.2,118.2,65.4z M115.9,55.9c-1.2,0.9-2.5,1.7-3.7,2.6c-0.3,0-0.5-0.1-0.8-0.1c-0.6-2.4-1.4-4.8-1.9-7.3
		c-0.1-0.6,0.7-1.4,1.1-2.1c0.1-0.2,0.5-0.3,0.8-0.4c1.5-0.3,3.2-2.3,4.3-0.5C117.9,51.7,117.9,54.3,115.9,55.9z M116.3,45.6
		c-1.8,0.5-3.6,1.1-5.4,1.6c-0.6,0.1-1.3,0.1-1.9-0.1c-0.9-0.4-1.2-1.2-0.2-1.7c1.7-0.8,3.4-1.6,5.2-2.1
		C115.5,42.9,116.3,43.9,116.3,45.6z M114.1,41.5c-1.6,0.6-3,1.2-4.5,1.6c-0.5,0.1-1.3-0.5-1.9-0.8c0.3-0.4,0.5-1.1,0.9-1.3
		c1-0.5,2-1,3.1-1.3C113,39.4,113.8,40.1,114.1,41.5z M108.8,33.6c2.8,3.7,2.6,4.9-1.1,5.8C108,37.5,108.4,35.8,108.8,33.6z
		 M96.1,49.7c2.3,1.4,4.3,2.6,6.4,3.8c0.1-0.1,0.2-0.3,0.2-0.4c-1.7-2-3.5-3.9-5.2-5.9c0.1-0.1,0.2-0.2,0.2-0.3
		c1.4,0.6,2.8,1.2,4.2,1.8c0-0.1,0.1-0.2,0.1-0.3c-1.2-1.2-2.5-2.5-3.7-3.7c-0.9-0.8-0.8-1.4,0.1-2.1c1.2-0.9,2.4-1.9,3.5-3.2
		c-1.1,0.1-2.2,0.3-3.3,0.4c-0.1-0.1-0.2-0.2-0.3-0.3c1.6-1.9,3.1-3.8,4.7-5.6c-0.1-0.1-0.2-0.2-0.2-0.3c-1.1,0.5-2.2,0.9-3.3,1.4
		c-0.1-1.2-0.2-2.2-0.3-3.2c0-0.2,0-0.5,0.1-0.5c1.6-0.7,3.1-1.6,4.8-1.9c1.4-0.3,2.5,0.7,3,2c0.2,0.7,0.3,1.6,0,2.2
		c-2.1,4-1.7,8.2-1,12.3c0.7,3.8,1.8,7.6,2.8,11.4c0.1,0.3,0.1,0.6,0.2,1c-5.2-0.2-9.5-2.1-13-5.8C95.6,52,96,50.7,96.1,49.7z
		 M105.6,61.2c-3.9,1.3-5.2,0.9-7.7-2C100.4,59.8,102.9,60.5,105.6,61.2z M93.6,32.3c-1.3,0.1-1.9-0.4-1.8-1.8c0.1-1.3,0-2.5,0-3.8
		C93.6,27.1,94.3,29,93.6,32.3z M93.1,25c-3.3-0.8-2.6-4.3-4.5-5.8C90.9,19.8,93,22.3,93.1,25z M88.1,25.6c2.1,0,2.9,1.9,2.1,5.1
		c-1.3,0.2-2.3-0.1-2.1-1.8C88.2,27.9,88.1,26.7,88.1,25.6z M89.2,23.8c-1.3-0.2-2.3-0.2-3.3-0.5c-0.4-0.1-0.9-0.5-1-0.9
		c-0.5-1.6-0.8-3.2-1.2-5.1C86.4,18.8,88,20.9,89.2,23.8z M86.4,29.8c0,0.2-1.2,0.4-1.7,0.3c-0.3,0-0.8-0.6-0.9-1
		c-0.1-1.3,0-2.7,0-4.5c0.9,0.4,2.2,0.6,2.4,1.1C86.6,27,86.5,28.4,86.4,29.8z M80.6,5.8c0.7,0.7,1.4,1.4,2.1,2.1
		C82,8.4,81.3,9,80.3,9.8C79.5,9,79,8.5,78.5,8C79.2,7.2,79.9,6.5,80.6,5.8z M84.2,11.7h-6.8C79,10.3,81.9,10.2,84.2,11.7z
		 M76.5,13.9c2.9-0.9,5.8-0.9,8.6,0c0,0.2,0,0.4,0,0.6c-0.8,0.1-1.5,0.3-2.3,0.4c-2,0.2-4,0.3-6,0.3c-0.4,0-0.9-0.3-1.3-0.5
		C75.8,14.5,76.1,14,76.5,13.9z M78.5,23c0.4-2.3,0.6-4.4,2.2-6.1c0.2,0,0.5-0.1,0.7-0.1c0.7,2,1.3,3.9,2.1,6.2H78.5z M82.4,27.6
		c0,2-0.6,2.7-2.3,2.4c-0.5-0.1-1.1-0.7-1.2-1.3c-0.2-0.6-0.1-1.4,0-2.1c0.1-1,0.2-1.9,1.7-1.9c1.5,0,1.6,0.9,1.7,1.9
		C82.4,27,82.4,27.4,82.4,27.6z M78,17.3c-0.4,1.9-0.8,3.5-1.2,5.1c-0.1,0.3-0.6,0.7-0.9,0.8c-1,0.2-2,0.3-3.3,0.4
		C73.8,20.8,75.3,18.8,78,17.3z M77.4,28.7c0.1,1.3-0.7,1.4-1.6,1.5c-1.2,0.1-1.2-0.7-1.2-1.5c0-0.5,0-0.9,0-1.4
		c0.2-2.2,0.6-2.5,3-2.3C77.5,26.3,77.3,27.5,77.4,28.7z M73.2,29.8c0,1.5-1,1.5-2,1.6c-1.1-3.1-0.2-5.6,2-5.9
		C73.2,27,73.2,28.4,73.2,29.8z M72.8,19.4c-1.7,1.6-1,5.1-4.3,5.4C67.8,22.9,69.5,20.6,72.8,19.4z M67.9,27.6
		c0.1-0.6,0.5-1.1,0.8-1.7c0.3,0.2,0.5,0.5,0.8,0.7c0,1.7,0.1,3.4-0.1,5.1c0,0.5-0.7,0.9-1.1,1.3c-0.3-0.4-0.9-0.8-0.9-1.2
		C67.5,30.4,67.7,29,67.9,27.6z M69.2,34.8c7.7-3.4,15.5-3.4,23.3-0.4c1.8,0.7,2.7,2,2.8,4.1c0.2,5.1-0.9,9.7-3.5,14.1
		c-0.9,1.5-1.8,3.1,0,4.5c-1.5,1.1-3,2-4.3,3.1c-0.3,0.3-0.4,0.9-0.6,1.4c0.5-0.1,1.1-0.1,1.5-0.4c1.6-1.4,3.2-2.6,5.9-2.5
		c-1.3,1-2.4,1.7-3.3,2.5c-0.4,0.4-0.5,1.2-0.8,1.9c0.6-0.3,1.2-0.4,1.7-0.8c1.2-1.1,2.5-2,4.6-1.8c-1.2,1.1-2.2,1.8-3,2.7
		c-0.3,0.3-0.2,0.9-0.2,1.4c0.4-0.2,0.9-0.3,1.3-0.5c0.9-0.5,1.7-1.2,2.6-1.7c0.3-0.2,1-0.1,1.3,0.2c4.9,4.1,8.5,9,8,15.8
		c-0.3,4.1-2.7,7-6.2,8.6c-4,1.9-8,1.2-11.3-1.6c-3.1-2.6-4-6.2-3.1-10.1c0.7-3,2.7-4.9,5.3-6.3c1.1-0.6,3.3,0.6,4.5,2.6
		c-1.9-0.2-3.5-0.3-5.4-0.5c0.4,0.6,0.6,1,0.7,1.1c-0.5,1.8-1.2,3.4-1.4,5.1c-0.3,3.5,2.4,5.8,6,5.7c3.5-0.1,5.7-2.7,5.4-6.1
		c-0.4-3.6-2.1-6.5-5.1-8.3c-2.5-1.5-5.3-2.6-8-3.8c-3.4-1.6-7.1-2.9-10.2-4.9c-7.5-4.8-10.9-12-11.1-20.8
		C66.6,36.9,67.4,35.5,69.2,34.8z M87.3,98.3c-6.2,2.3-12.5,2.6-18.5-0.7c-1.9-1-3.3-2.8-4.9-4.3c-0.2-0.2,0-1.1,0.3-1.6
		c2.2-5.4,6-9.6,10.8-12.8c3-2,6.1-3.9,9.4-6c-0.1,0.6-0.3,1.1-0.3,1.5c-0.1,1.6-0.6,3.2-0.2,4.7c1.1,4.8,3.1,9.2,7.1,12.5
		c1.1,0.9,1.4,1.9,0.6,2.9C90.2,95.9,88.9,97.7,87.3,98.3z M91.7,108.7c-1.5,0.4-3.8-1.5-4.6-3.9c-0.5-1.6-0.1-2.5,1.2-3.1
		C89.5,104,90.6,106.3,91.7,108.7z M61.7,89.1c2.5-5.6,6.3-10.2,11.6-13.3c3.7-2.2,7.3-4.4,9.8-8c0.2-0.3,1.1-0.3,1.6-0.4
		c0,0.5,0.1,1.1-0.2,1.5c-1.2,2.1-2.9,3.9-5,5.1c-2.4,1.4-4.8,2.9-7,4.5c-4.3,3.1-7.6,7.1-9.7,12c-0.2,0.4-0.4,0.8-0.6,1.2
		c-0.2,0-0.4,0-0.6-0.1C61.6,90.8,61.4,89.8,61.7,89.1z M72.1,57.8c0.8,0.8,1.7,1.5,2.7,2.4c-2.1,2.4-4.4,3.3-7.5,3.1
		c2-1.5,3.8-2.9,5.6-4.3C72.7,58.6,72.4,58.2,72.1,57.8z M66.9,60.7c-0.6,0.8-1.2,1.9-1.1,2.7c0.1,0.6,1.4,1.1,2.1,1.6
		c2.9,2.2,5.8,0.7,8.7-0.1c1.9-0.5,3.6,0.1,4.9,1.6c-1.2,3.3-5.2,4.1-10.8,4.7c0.3-1.8,0.2-1.9-1.6-1.4c-0.6,0.2-1.3,0-2.2,0
		c0.2,0.5,0.4,1,0.5,1.5c-3.2,0.8-5.3-0.7-5.5-4c-0.2-3.4,2.6-7.1,6.7-8.4C68.2,59.5,67.4,60,66.9,60.7z M67.9,73.1
		c2.2-0.8,4.6-0.8,7.1-0.8c-6.3,3.9-11.6,8.7-14.7,15.6c-2.3-3-1.8-8.5,1.2-11.2C63.4,75.1,65.7,73.9,67.9,73.1z M98.2,78.9
		c0.2,1.6-1.3,1.6-2.3,1.9c-0.2,0.1-0.5,0-0.9,0.1c-0.4-0.1-1-0.2-1.5-0.5c-1-0.5-2.1-1.4-1.6-2.5c0.3-0.6,1.7-0.8,2.7-1
		c0.3-0.1,0.7,0.2,1,0.1C97.5,76.4,98,77.5,98.2,78.9z M65.9,28.3v5.3C65.1,31.9,64.6,30.4,65.9,28.3z M56.1,38.1
		c-0.1-1.3-0.7-2.6-1.3-3.8c-1.2-2.2-0.6-4,2-4.1c1.5-0.1,3,0.3,4.4,0.8c1.6,0.5,2.4,1.8,2,3.7h-3.8c1.8,1.7,3.4,3.2,5.1,4.7
		c-0.1,0.2-0.1,0.4-0.2,0.6c-1.3,0.1-2.6,0.2-4.4,0.4c1.8,1.2,3.3,2.1,5,3.2c-1.8,1.3-3.4,2.6-5.1,3.8l0.1,0.3
		c1.6-0.3,3.2-0.6,4.8-0.8c0.1,0.1,0.3,0.3,0.4,0.4c-1.6,1.8-3.3,3.6-4.9,5.4c0.1,0.2,0.2,0.3,0.3,0.5c2.1-1.1,4.2-2.2,6.3-3.3
		c1,1,0.7,1.9-0.5,3c-3.6,3-7.6,4.6-12.5,4.9c0.2-0.7,0.3-1.3,0.4-1.8C55.8,50,56.7,44.1,56.1,38.1z M49.8,43.2
		c0.5-1.9,1.7-3.1,3.5-4.1c1,1.2,1.3,2.3,0.5,3.6c-0.2,0.4-0.3,0.9-0.4,1.3c-0.2,1-0.4,1.9-1.7,1.6C50.4,45.3,49.3,45,49.8,43.2z
		 M46.5,47.4c0.3-0.5,1-1.2,1.4-1.2c2.1,0.1,4.1,0.9,5.9,3c-1.1,0.3-1.8,0.7-2.5,0.6c-1.4-0.2-2.9-0.6-4.3-1.1
		C46.8,48.5,46.4,47.6,46.5,47.4z M45.5,49.7c2.6,0.4,5.1,1.5,6.9,3.5c0,0.2,0,0.5,0.1,0.7c-0.9,0.1-1.9,0.5-2.8,0.3
		c-1.7-0.3-3.3-0.8-4.9-1.5c-0.6-0.3-1.1-1.3-1.1-2C43.8,50.4,45,49.6,45.5,49.7z M43.7,54.9c0.3-0.3,1.1-0.6,1.5-0.4
		c2,0.8,4,1.7,5.9,2.8c0.4,0.2,0.4,1,0.6,1.8c0.6,0.1,1.5,0.2,2.3,0.3c-0.1,0.1-0.1,0.3-0.2,0.4c0.6,0.3,1.1,0.9,1.7,0.9
		c2.3,0.1,4.6,0,6.7,0c-0.6,1.3-1.3,2.8-2,4.2c-0.2,0.3-0.8,0.6-1.3,0.6c-0.6,0-1.3-0.1-2-0.3c-1.2-2.9-2.1-3.4-4.8-2.8
		c-2.3-2.8-3.7-2.8-6,0C42.4,61.5,41.2,57.9,43.7,54.9z M51.6,70.5c-1.1,0.2-1.9,0.4-2.9,0.6c-0.3-2.4-0.6-4.7-0.7-7
		c0-0.6,0.8-1.2,1.2-1.9c0.5,0.5,1.2,1,1.3,1.6C50.9,66,51.2,68.1,51.6,70.5z M47.3,71.4c-0.8,0.2-1.4,0.4-2.4,0.8
		c-0.6-2.1-1.2-4.1-1.6-6.1c-0.1-0.5,0.6-1.1,0.9-1.7c0.5,0.4,1.3,0.7,1.4,1.3C46.3,67.4,46.7,69.3,47.3,71.4z M40.5,70.4
		c0-0.8,0.5-1.5,0.8-2.3c0.2,0,0.4,0.1,0.7,0.1c0.6,1.5,1.1,2.9,1.7,4.4c-0.3,0.2-0.6,0.3-0.8,0.5c-0.2,0.3-0.4,0.7-0.6,1.1
		c0.4,0,0.9,0.2,1.2,0.1c1.9-0.6,3.8-1.3,5.7-1.9c1.2-0.3,2.4-0.4,3.7-0.6c0.4-0.1,0.7-0.4,1-0.6c-0.2-0.3-0.5-0.5-0.5-0.8
		c-0.2-2-0.3-4-0.3-6.1c0-0.1,0.7-0.4,0.9-0.3c0.4,0.2,0.9,0.6,0.9,0.9c0,2.6-0.1,5.2-0.4,7.7c-0.1,0.6-1.4,1-1.9,1.7
		c-1.3,1.9-3,2-5,1.7c-0.6-0.1-1.2,0.2-1.8,0.4c0,0.2,0,0.3,0,0.5c1.8,0.3,3.7,0.7,5.3,1c1.3-1.2,2.9-2.1,3.9-3.5
		c0.8-1,0.9-2.6,1.3-3.9c0.3-0.9,0.5-1.9,0.9-2.8c0.1-0.3,0.7-0.5,1-0.4c0.3,0.1,0.6,0.6,0.7,0.9c0.1,2.2,0.3,4.4,0.2,6.5
		c-0.1,2.6-1.8,4.4-3.7,6c-0.3,0.3-1,0.3-1.4,0.1c-2.2-1-4.3-0.8-6.5,0c-0.6,0.2-1.7,0.1-2.2-0.3C42.4,77.9,40.7,74.4,40.5,70.4z
		 M42.9,95c-1.6-3.4-0.3-8,3-11.1c3.1-2.9,7.1-2.7,9.9,0.5c2.6,3.1,4.4,6.6,4.6,10.3c-0.3,5-1.4,6.3-5.9,7.1
		C49.9,102.7,45.1,99.7,42.9,95z M60.5,106.9c-2.3-0.9-2.7-2-1.2-4c2-2.8,2.5-4.1,3-8.1c0.2-0.1,0.3-0.2,0.5-0.4
		c1.5,1.7,3.1,3.3,4.5,5c0.4,0.5,0.3,1.6,0,2.2c-0.8,1.6-1.7,3.1-2.8,4.4C63.5,107.4,62,107.5,60.5,106.9z M67.7,108.5
		c-0.8,0.3-1.8,0.2-2.7,0.3c1.7-2.9,3.2-5.3,4.8-8c1.6,0.1,2.2,0.9,1.7,2.7C70.9,105.6,70,107.6,67.7,108.5z M69.6,110.3
		c1.4-2.5,2.9-5,4.4-7.7c0.8,0,1.5,0.5,1.2,1.9C74.7,107.8,72.2,110.3,69.6,110.3z M73.3,116.1c-1.2-0.2-2.2-0.8-2.1-2
		c0.1-0.9,0.8-2,1.6-2.4c0.9-0.6,2.1-0.6,3.2-0.8c0.4-0.1,0.8-0.2,1.2-0.3c0-0.2,0-0.3,0-0.5c-0.5-0.3-1.1-0.6-1.6-1
		c0.5-1.4,0.9-2.7,1.4-4c0.1-0.3,1.1-0.6,1.2-0.5c0.6,0.6,1.6,1.4,1.6,2.1c-0.2,2.3-0.6,4.7-1.4,6.8
		C77.6,115.5,75.3,116.4,73.3,116.1z M79.1,116.2c0.4-0.8,0.7-1.4,1.2-2.3c0.6,0.9,1,1.5,1.6,2.3H79.1z M90.4,115.5
		c-4.4,1.5-9.1-1.9-9-6.5c0-0.9-0.2-2,0.2-2.8c0.4-0.8,1.3-1.6,2.2-1.9c1-0.4,1.6,0.3,1.8,1.4c0,0.2,0.1,0.3,0.2,0.5
		c0.4,0.8,1.1,1.7,1,2.3c-0.1,0.6-1.3,0.9-2,1.4c-0.2,0.1-0.2,0.4-0.6,1c1.2-0.1,1.9-0.2,2.6-0.3c1.9-0.3,3.5,0.1,4.7,1.8
		C92.4,113.7,91.9,114.9,90.4,115.5z M94.3,107.6c-1.9-0.7-3.7-3.4-3.7-5.4c0-1.3,0.5-2.4,2.3-2.8c-0.1,3.3,1.3,5.7,3.9,7.5
		C96.1,108.1,95.3,107.9,94.3,107.6z M101.9,104.8c-1.7,1.2-3.8,1.1-5.3-0.4c-1.8-1.6-2.9-5.4-0.7-7.9c1.4-1.5,2.6-3.2,3.9-4.7
		c0.2,0.1,0.3,0.1,0.5,0.2c0.1,4.3,0.7,8.4,3.6,11.6C103.2,104.1,102.5,104.4,101.9,104.8z M117.7,94.3c-2.4,3.4-5.6,5.8-9.8,6.5
		c-3.4,0.6-4.7-0.3-5.4-3.7c-0.3-1.4-0.4-2.9-0.6-4.2c0.2-4.8,2.5-8.1,6.5-10.2c2.7-1.4,5.7-0.7,7.7,1.7c0.9,1.1,1.7,2.3,2.2,3.6
		C119.3,90.1,119.1,92.3,117.7,94.3z"/>
	<path class="st0" d="M98.4,62.5c-0.3-0.2-1-0.4-1.3-0.2c-0.9,0.5-1.7,1.2-2.6,1.7c-0.4,0.2-0.9,0.3-1.3,0.5c0.1-0.5,0-1.1,0.2-1.4
		c0.8-0.9,1.8-1.6,3-2.7c-2.1-0.2-3.4,0.7-4.6,1.8c-0.5,0.4-1.1,0.6-1.7,0.8c0.3-0.6,0.3-1.4,0.8-1.9c0.9-0.9,1.9-1.5,3.3-2.5
		c-2.7-0.1-4.3,1.2-5.9,2.5c-0.4,0.3-1,0.3-1.5,0.4c0.2-0.5,0.2-1.2,0.6-1.4c1.3-1.1,2.8-2,4.3-3.1c-1.8-1.5-0.8-3.1,0-4.5
		c2.5-4.4,3.6-9.1,3.5-14.1c-0.1-2.1-0.9-3.4-2.8-4.1c-7.8-3-15.6-3-23.3,0.4c-1.8,0.8-2.6,2.1-2.5,4.1c0.2,8.8,3.7,16,11.1,20.8
		c3.1,2,6.8,3.3,10.2,4.9c2.7,1.3,5.4,2.4,8,3.8c3.1,1.8,4.8,4.7,5.1,8.3c0.4,3.4-1.9,6-5.4,6.1c-3.6,0.2-6.2-2.2-6-5.7
		c0.1-1.6,0.8-3.2,1.4-5.1C91,72,90.7,71.6,90.4,71c1.8,0.2,3.5,0.3,5.4,0.5c-1.2-2-3.4-3.2-4.5-2.6c-2.6,1.4-4.7,3.3-5.3,6.3
		c-0.9,3.9,0,7.5,3.1,10.1c3.3,2.8,7.4,3.5,11.3,1.6c3.5-1.7,5.9-4.5,6.2-8.6C106.9,71.5,103.4,66.6,98.4,62.5z M79.9,34.4
		c0-0.4,0.6-0.7,0.9-1c0.3,0.4,0.8,0.7,0.9,1.1c0.1,0.9,0,1.9,0,2.8h0c0,1,0.1,2,0,3c0,0.3-0.5,0.6-0.8,0.9c-0.3-0.3-1-0.6-1-1
		C79.8,38.3,79.8,36.3,79.9,34.4z M76.9,49.8c-0.9-0.2-1.9-0.6-2.8-0.7c-1.5-0.2-2.6-0.8-3-2.3c-0.4-1.3,0-2.4,1.2-3.2
		c0.3-0.2,0.4-1.3,0.2-1.7c-0.6-1-1.4-1.9-2.2-2.9C73.7,39.3,77.2,44.2,76.9,49.8z M80.8,44.4c-2.1,0-3.9-1.5-4.1-3.6
		c-0.1-1.9-0.1-3.8,0-5.7c0-0.4,0.6-0.7,0.9-1.1c0.3,0.4,0.7,0.8,0.8,1.2c0.1,1.6,0,3.2,0.1,4.8c0,1.8,0.9,2.7,2.4,2.7
		c1.5,0,2.4-1,2.4-2.7c0-1.6,0-3.2,0.1-4.8c0-0.4,0.6-0.8,0.9-1.2c0.2,0.4,0.7,0.8,0.7,1.2c0.1,0.9,0,1.9,0,2.8h0
		c0,0.9,0.1,1.8,0,2.7C84.7,42.9,83,44.4,80.8,44.4z M91.6,38.9c-0.8,1.1-1.7,2-2.3,3.1c-0.2,0.4-0.1,1.4,0.2,1.7
		c1.1,0.9,1.6,1.9,1.1,3.2c-0.5,1.4-1.6,2.1-3.1,2.2c-0.9,0.1-1.8,0.5-2.8,0.7C84.5,44.5,87.2,40.1,91.6,38.9z"/>
	<path class="st0" d="M90.8,91.6c-3.9-3.2-6-7.6-7.1-12.5c-0.3-1.5,0.1-3.1,0.2-4.7c0-0.5,0.2-1,0.3-1.5c-3.2,2.1-6.4,4-9.4,6
		c-4.8,3.2-8.6,7.4-10.8,12.8c-0.2,0.5-0.5,1.4-0.3,1.6c1.5,1.5,3,3.3,4.9,4.3c6,3.3,12.3,3,18.5,0.7c1.7-0.6,3-2.4,4.2-3.8
		C92.3,93.5,91.9,92.5,90.8,91.6z M82,96.9c-1.3-1.1-2.4-1-2.9,0.7c-1.1-0.8-1.2-1.9-0.5-2.7c0.5-0.5,1.7-0.9,2.3-0.6
		c0.7,0.3,1,1.4,1.5,2.1C82.2,96.5,82.1,96.7,82,96.9z"/>
	<path class="st0" d="M60.4,94.8c-0.3,5-1.4,6.3-5.9,7.1c-4.6,0.8-9.4-2.2-11.5-6.8c-1.6-3.4-0.3-8,3-11.1c3.1-2.9,7.1-2.7,9.9,0.5
		C58.4,87.5,60.2,91,60.4,94.8z"/>
	<path class="st0" d="M101.9,92.9c0.2-4.8,2.5-8.1,6.5-10.2c2.7-1.4,5.7-0.7,7.7,1.7c0.9,1.1,1.7,2.3,2.2,3.6c1,2.2,0.8,4.4-0.6,6.4
		c-2.4,3.4-5.6,5.8-9.8,6.5c-3.4,0.6-4.7-0.3-5.4-3.7C102.2,95.6,102.1,94.2,101.9,92.9z"/>
	<path class="st0" d="M59.9,40.3c1.8,1.2,3.3,2.1,5,3.2c-1.8,1.3-3.4,2.6-5.1,3.8c0,0.1,0.1,0.2,0.1,0.3c1.6-0.3,3.2-0.6,4.8-0.8
		c0.1,0.1,0.3,0.3,0.4,0.4c-1.6,1.8-3.3,3.6-4.9,5.4c0.1,0.2,0.2,0.3,0.3,0.5c2.1-1.1,4.2-2.2,6.3-3.3c1,1,0.7,1.9-0.5,3
		c-3.6,3-7.6,4.6-12.5,4.9c0.2-0.7,0.3-1.3,0.4-1.8c1.6-5.8,2.6-11.7,1.9-17.7c-0.1-1.3-0.7-2.6-1.3-3.8c-1.2-2.2-0.6-4,2-4.1
		c1.5-0.1,3,0.3,4.4,0.8c1.6,0.5,2.4,1.8,2,3.7c-1.2,0-2.4,0-3.8,0c1.8,1.7,3.4,3.2,5.1,4.7c-0.1,0.2-0.1,0.4-0.2,0.6
		C63,40,61.7,40.2,59.9,40.3z"/>
	<path class="st0" d="M96.1,49.7c2.3,1.4,4.3,2.6,6.4,3.8c0.1-0.1,0.2-0.3,0.2-0.4c-1.7-2-3.5-3.9-5.2-5.9c0.1-0.1,0.2-0.2,0.2-0.4
		c1.4,0.6,2.8,1.2,4.2,1.8c0-0.1,0.1-0.2,0.1-0.3c-1.2-1.2-2.5-2.5-3.7-3.7c-0.9-0.8-0.8-1.4,0.1-2.1c1.2-0.9,2.4-1.9,3.5-3.2
		c-1.1,0.1-2.2,0.3-3.3,0.4c-0.1-0.1-0.2-0.2-0.3-0.3c1.6-1.9,3.1-3.8,4.7-5.6c-0.1-0.1-0.2-0.2-0.2-0.3c-1.1,0.5-2.2,0.9-3.3,1.4
		c-0.1-1.2-0.2-2.2-0.3-3.2c0-0.2,0-0.5,0.1-0.5c1.6-0.7,3.1-1.6,4.8-1.9c1.4-0.3,2.5,0.7,3,2c0.2,0.7,0.3,1.6,0,2.2
		c-2.1,4-1.7,8.2-1,12.3c0.7,3.8,1.8,7.6,2.8,11.4c0.1,0.3,0.1,0.6,0.2,1c-5.2-0.2-9.5-2.1-13-5.8C95.6,52,96,50.7,96.1,49.7z"/>
	<path class="st0" d="M45.8,76.9c1.8,0.3,3.7,0.7,5.3,1c1.3-1.2,2.9-2.2,3.9-3.5c0.8-1,0.9-2.6,1.3-3.9c0.3-0.9,0.5-1.9,0.9-2.8
		c0.1-0.3,0.7-0.5,1-0.4c0.3,0.1,0.6,0.6,0.7,0.9c0.1,2.2,0.3,4.4,0.2,6.5c-0.1,2.6-1.8,4.4-3.7,6c-0.3,0.3-1,0.3-1.4,0.1
		c-2.2-1-4.3-0.8-6.5,0c-0.6,0.2-1.7,0.1-2.2-0.3c-3-2.7-4.7-6.2-4.9-10.3c0-0.8,0.5-1.5,0.8-2.3c0.2,0,0.4,0.1,0.7,0.1
		c0.6,1.5,1.1,2.9,1.7,4.4c-0.3,0.2-0.6,0.3-0.8,0.5c-0.2,0.3-0.4,0.7-0.6,1.1c0.4,0,0.9,0.2,1.2,0.1c1.9-0.6,3.8-1.3,5.7-1.9
		c1.2-0.3,2.4-0.4,3.7-0.6c0.4-0.1,0.7-0.4,1-0.6c-0.2-0.3-0.5-0.5-0.5-0.8c-0.2-2-0.3-4-0.3-6.1c0-0.1,0.7-0.4,0.9-0.3
		c0.4,0.2,0.9,0.6,0.9,0.9c0,2.6-0.1,5.2-0.4,7.7c-0.1,0.6-1.4,1-1.9,1.7c-1.3,1.9-3,2-5,1.7c-0.6-0.1-1.2,0.2-1.8,0.4
		C45.8,76.6,45.8,76.8,45.8,76.9z"/>
	<path class="st0" d="M81.5,66.6c-1.2,3.3-5.2,4.1-10.8,4.7c0.3-1.8,0.2-1.9-1.6-1.4c-0.6,0.2-1.3,0-2.2,0c0.2,0.5,0.4,1,0.5,1.5
		c-3.2,0.8-5.3-0.7-5.5-4c-0.2-3.4,2.7-7.1,6.7-8.4c-0.6,0.6-1.4,1.1-1.9,1.8c-0.6,0.8-1.2,1.9-1.1,2.7c0.1,0.6,1.4,1.1,2.1,1.6
		c2.9,2.2,5.8,0.7,8.7-0.1C78.5,64.5,80.2,65.1,81.5,66.6z"/>
	<path class="st0" d="M57,65.3c-1.2-2.9-2.1-3.4-4.8-2.8c-2.3-2.8-3.7-2.8-6,0c-3.8-1-5-4.6-2.4-7.6c0.3-0.3,1.1-0.6,1.5-0.4
		c2,0.8,4,1.7,5.9,2.8c0.4,0.2,0.4,1,0.6,1.8c0.6,0.1,1.5,0.2,2.3,0.3c-0.1,0.1-0.1,0.3-0.2,0.4c0.6,0.3,1.1,0.9,1.7,0.9
		c2.3,0.1,4.6,0,6.7,0c-0.6,1.3-1.3,2.8-2,4.2c-0.2,0.3-0.8,0.6-1.3,0.6C58.4,65.6,57.7,65.4,57,65.3z"/>
	<path class="st0" d="M60.4,87.8c-2.3-3-1.8-8.5,1.2-11.2c1.8-1.6,4.1-2.8,6.4-3.6c2.2-0.8,4.6-0.8,7.1-0.8
		C68.7,76.1,63.5,80.9,60.4,87.8z"/>
	<path class="st0" d="M110.9,77.4c0-0.6,0-1.1,0-1.7c0-1.5-0.3-3.1-0.1-4.6c0.1-0.6,0.9-1.2,1.4-1.8c0.4,0.6,0.9,1.2,1,1.8
		c0.2,1.6,0.2,3.3,0.3,4.9c0,0.5,0.2,1,0.3,1.6c0.2,0,0.4,0,0.6,0c0.2-0.5,0.4-1.1,0.4-1.6c0.1-1.8,0-3.5,0-5.3c0-0.5,0.5-1,0.7-1.5
		c0.5,0.4,1.5,0.7,1.6,1.1c0.2,1.8,0.1,3.6,0.2,5.4c0,0.6,0.2,1.1,0.3,1.7c0.4-0.5,0.9-0.9,1-1.4c0.2-1.1,0.2-2.3,0.3-3.5
		c0.1-0.5,0.4-1,0.6-1.5c0.4,0.4,1.1,0.8,1,1.2c0,1.7-0.1,3.5-0.5,5.2c-0.1,0.4-1.1,0.6-1.7,0.8c-0.7,0.2-1.4,0.5-2.1,0.5
		c-1.7,0-3.5-0.2-5.2-0.3c-0.1,0-0.3-0.1-0.3,0c-2.7,1.2-2.3-0.6-2.4-2.2c-0.1-1.5-0.5-2.9-0.7-4.4c-0.1-0.5,0.2-1,0.3-1.5
		c0.3,0.5,0.9,0.9,1,1.4c0.3,1.4,0.4,2.9,0.7,4.3c0.1,0.5,0.5,1,0.7,1.4C110.6,77.4,110.7,77.4,110.9,77.4z"/>
	<path class="st0" d="M100.3,92.1c0.1,4.3,0.7,8.4,3.6,11.6c-0.7,0.4-1.4,0.7-2,1.1c-1.7,1.2-3.8,1.1-5.3-0.4
		c-1.8-1.6-2.9-5.4-0.7-7.9c1.4-1.5,2.6-3.2,3.9-4.7C99.9,91.9,100.1,92,100.3,92.1z"/>
	<path class="st0" d="M84.2,110.9c1.2-0.1,1.9-0.2,2.6-0.3c1.9-0.3,3.5,0.1,4.7,1.8c0.9,1.3,0.4,2.6-1,3.1c-4.4,1.5-9.1-1.9-9-6.5
		c0-0.9-0.2-2,0.2-2.8c0.4-0.8,1.3-1.6,2.2-1.9c1-0.4,1.6,0.3,1.8,1.4c0,0.2,0.1,0.3,0.2,0.5c0.4,0.8,1.1,1.7,1,2.3
		c-0.1,0.6-1.3,0.9-2,1.4C84.7,110,84.6,110.2,84.2,110.9z"/>
	<path class="st0" d="M62.8,94.4c1.5,1.7,3.1,3.3,4.5,5c0.4,0.5,0.3,1.6,0,2.2c-0.8,1.6-1.7,3.1-2.8,4.4c-1,1.3-2.4,1.4-4,0.8
		c-2.3-0.9-2.7-2-1.2-4c2-2.8,2.5-4.1,3-8.1C62.4,94.7,62.6,94.6,62.8,94.4z"/>
	<path class="st0" d="M111.4,58.3c-0.7-2.4-1.4-4.8-1.9-7.3c-0.1-0.6,0.7-1.4,1.1-2.1c0.1-0.2,0.5-0.3,0.8-0.4
		c1.5-0.3,3.2-2.3,4.3-0.5c2.2,3.5,2.2,6.1,0.2,7.7c-1.2,0.9-2.5,1.7-3.7,2.6C111.9,58.4,111.6,58.4,111.4,58.3z"/>
	<path class="st0" d="M61.5,91.7c0-0.9-0.2-1.8,0.2-2.6c2.5-5.6,6.3-10.2,11.6-13.3c3.7-2.2,7.3-4.4,9.8-8c0.2-0.3,1.1-0.3,1.6-0.4
		c0,0.5,0.1,1.1-0.2,1.5c-1.2,2.1-2.9,3.9-5,5.1c-2.4,1.4-4.8,2.9-7,4.5c-4.3,3.1-7.6,7.1-9.7,12c-0.2,0.4-0.4,0.8-0.6,1.2
		C61.9,91.7,61.7,91.7,61.5,91.7z"/>
	<path class="st0" d="M118.2,65.4c-0.8-0.5-1.7-0.9-3-1.6c0.3,1.4,0.5,2.4,0.7,3.5c-3.1,0.5-6.2,1-9.2,1.6c-1.2-1.8,0.1-4.7,2.7-6.1
		C112.6,60.9,116.7,62.2,118.2,65.4z"/>
	<path class="st0" d="M77.2,110c-0.5-0.3-1.1-0.6-1.6-1c0.5-1.4,0.9-2.7,1.4-4c0.1-0.3,1.1-0.6,1.2-0.5c0.6,0.6,1.6,1.4,1.6,2.1
		c-0.2,2.3-0.6,4.7-1.4,6.8c-0.8,2.1-3,3-5.1,2.7c-1.2-0.2-2.2-0.8-2.1-2c0.1-0.9,0.8-2,1.6-2.4c0.9-0.6,2.1-0.6,3.2-0.8
		c0.4-0.1,0.8-0.2,1.2-0.3C77.2,110.3,77.2,110.1,77.2,110z"/>
	<path class="st0" d="M52.5,53.9c-0.9,0.1-1.9,0.5-2.8,0.3c-1.7-0.3-3.3-0.8-4.9-1.5c-0.6-0.3-1.1-1.3-1.1-2c0-0.3,1.2-1.1,1.8-1
		c2.6,0.4,5.1,1.5,6.9,3.5C52.5,53.5,52.5,53.7,52.5,53.9z"/>
	<path class="st0" d="M69.8,100.8c1.6,0.1,2.2,0.9,1.7,2.7c-0.6,2.2-1.6,4.2-3.8,5.1c-0.8,0.3-1.8,0.2-2.7,0.3
		C66.7,105.9,68.2,103.4,69.8,100.8z"/>
	<path class="st0" d="M51.6,70.5c-1.1,0.2-1.9,0.4-2.9,0.6c-0.3-2.4-0.6-4.7-0.7-7c0-0.6,0.8-1.2,1.2-1.9c0.5,0.5,1.2,1,1.3,1.6
		C50.9,66,51.2,68.1,51.6,70.5z"/>
	<path class="st0" d="M93,99.4c-0.1,3.3,1.3,5.7,3.9,7.5c-0.7,1.2-1.6,1.1-2.5,0.7c-1.9-0.7-3.7-3.4-3.7-5.4
		C90.7,100.8,91.2,99.7,93,99.4z"/>
	<path class="st0" d="M95,80.9c-0.4-0.1-1-0.2-1.5-0.5c-1-0.5-2.1-1.4-1.6-2.5c0.3-0.6,1.7-0.8,2.7-1c0.3-0.1,0.7,0.2,1,0.1
		c1.8-0.6,2.4,0.6,2.5,2c0.2,1.6-1.3,1.6-2.3,1.9C95.7,80.9,95.5,80.9,95,80.9z"/>
	<path class="st0" d="M116.3,45.6c-1.8,0.5-3.6,1.1-5.4,1.6c-0.6,0.1-1.3,0.1-1.9-0.1c-0.9-0.4-1.2-1.2-0.2-1.7
		c1.7-0.8,3.4-1.6,5.2-2.1C115.5,42.9,116.3,43.9,116.3,45.6z"/>
	<path class="st0" d="M53.3,39.1c1,1.2,1.3,2.3,0.5,3.6c-0.2,0.4-0.3,0.9-0.4,1.3c-0.2,1-0.4,1.9-1.7,1.6c-1.3-0.3-2.3-0.6-1.9-2.4
		C50.3,41.2,51.5,40,53.3,39.1z"/>
	<path class="st0" d="M83.4,23c-1.9,0-3.3,0-4.9,0c0.4-2.3,0.6-4.4,2.2-6.1c0.2,0,0.5-0.1,0.7-0.1C82,18.7,82.7,20.7,83.4,23z"/>
	<path class="st0" d="M74.8,60.2c-2.1,2.4-4.4,3.3-7.5,3.1c2-1.5,3.8-2.9,5.7-4.3c-0.3-0.4-0.6-0.8-0.8-1.2
		C73,58.5,73.8,59.3,74.8,60.2z"/>
	<path class="st0" d="M47.3,71.4c-0.8,0.2-1.4,0.4-2.4,0.8c-0.6-2.1-1.2-4.1-1.6-6.1c-0.1-0.5,0.6-1.1,0.9-1.7
		c0.5,0.4,1.3,0.7,1.4,1.3C46.3,67.4,46.7,69.3,47.3,71.4z"/>
	<path class="st0" d="M69.6,110.3c1.4-2.5,2.9-5,4.4-7.7c0.8,0,1.5,0.5,1.2,1.9C74.7,107.8,72.2,110.3,69.6,110.3z"/>
	<path class="st0" d="M82.4,27.6c0,2-0.6,2.7-2.3,2.4c-0.5-0.1-1.1-0.7-1.2-1.3c-0.2-0.6-0.1-1.4,0-2.1c0.1-1,0.2-1.9,1.7-1.9
		c1.5,0,1.6,0.9,1.7,1.9C82.4,27,82.4,27.4,82.4,27.6z"/>
	<path class="st0" d="M53.9,49.1c-1.1,0.3-1.8,0.7-2.5,0.6c-1.4-0.2-2.9-0.6-4.2-1.1c-0.3-0.1-0.7-1-0.6-1.2c0.3-0.5,1-1.3,1.4-1.2
		C50.1,46.3,52,47.1,53.9,49.1z"/>
	<path class="st0" d="M89.2,23.8c-1.3-0.2-2.3-0.2-3.3-0.5c-0.4-0.1-0.9-0.5-1-0.9c-0.5-1.6-0.8-3.2-1.2-5.1
		C86.4,18.8,88,20.9,89.2,23.8z"/>
	<path class="st0" d="M91.7,108.7c-1.5,0.4-3.8-1.5-4.6-3.9c-0.5-1.6-0.1-2.5,1.2-3.1C89.5,104,90.6,106.3,91.7,108.7z"/>
	<path class="st0" d="M72.5,23.7c1.3-2.9,2.8-4.9,5.5-6.3c-0.4,1.9-0.8,3.5-1.2,5.1c-0.1,0.3-0.6,0.7-0.9,0.8
		C74.9,23.4,73.9,23.5,72.5,23.7z"/>
	<path class="st0" d="M114.1,41.5c-1.6,0.6-3,1.2-4.5,1.6c-0.5,0.1-1.3-0.5-1.9-0.8c0.3-0.4,0.5-1.1,0.9-1.3c1-0.5,2-1,3.1-1.3
		C113,39.4,113.8,40.1,114.1,41.5z"/>
	<path class="st0" d="M83.8,24.6c0.9,0.4,2.3,0.6,2.4,1.1c0.4,1.3,0.3,2.7,0.2,4.1c0,0.2-1.2,0.4-1.7,0.3c-0.3,0-0.8-0.6-0.9-1
		C83.7,27.8,83.8,26.4,83.8,24.6z"/>
	<path class="st0" d="M77.6,25c-0.1,1.3-0.2,2.5-0.1,3.6c0.1,1.3-0.7,1.4-1.6,1.5c-1.2,0.1-1.2-0.7-1.2-1.5c0-0.5,0-0.9,0-1.4
		C74.8,25.1,75.2,24.8,77.6,25z"/>
	<path class="st0" d="M85.1,14.6c-0.8,0.1-1.5,0.3-2.3,0.4c-2,0.2-4,0.3-6,0.3c-0.4,0-0.9-0.3-1.3-0.5c0.3-0.3,0.6-0.8,0.9-0.9
		c2.9-0.9,5.8-0.9,8.6,0C85.1,14.2,85.1,14.4,85.1,14.6z"/>
	<path class="st0" d="M73.2,25.4c0,1.5,0,2.9,0,4.3c0,1.5-1,1.5-2,1.6C70.1,28.2,70.9,25.7,73.2,25.4z"/>
	<path class="st0" d="M88.1,25.6c2.1,0,2.9,1.9,2.1,5.1c-1.3,0.2-2.3-0.1-2.1-1.8C88.2,27.9,88.1,26.7,88.1,25.6z"/>
	<path class="st0" d="M80.3,9.8C79.5,9,79,8.5,78.5,8c0.7-0.7,1.5-1.5,2.2-2.2c0.7,0.7,1.4,1.4,2.1,2.1C82,8.4,81.3,9,80.3,9.8z"/>
	<path class="st0" d="M69.5,26.5c0,1.7,0.1,3.4-0.1,5.1c0,0.5-0.7,0.9-1.1,1.3c-0.3-0.4-0.9-0.8-0.9-1.2c0-1.4,0.2-2.8,0.5-4.2
		c0.1-0.6,0.5-1.1,0.8-1.7C69,26.1,69.3,26.3,69.5,26.5z"/>
	<path class="st0" d="M72.8,19.4c-1.7,1.6-1,5.1-4.3,5.4C67.8,22.9,69.5,20.6,72.8,19.4z"/>
	<path class="st0" d="M107.7,39.4c0.4-1.9,0.7-3.7,1.1-5.8C111.6,37.3,111.4,38.5,107.7,39.4z"/>
	<path class="st0" d="M93.1,25c-3.3-0.8-2.6-4.3-4.5-5.8C90.9,19.8,93,22.3,93.1,25z"/>
	<path class="st0" d="M91.9,26.6c1.8,0.5,2.4,2.4,1.8,5.6c-1.3,0.1-1.9-0.4-1.8-1.8C92,29.2,91.9,27.9,91.9,26.6z"/>
	<path class="st0" d="M105.6,61.2c-3.9,1.3-5.2,0.9-7.7-2C100.4,59.8,102.9,60.5,105.6,61.2z"/>
	<path class="st0" d="M77.4,11.7c1.6-1.5,4.5-1.6,6.8,0C81.7,11.7,79.6,11.7,77.4,11.7z"/>
	<path class="st0" d="M65.9,33.7c-0.8-1.8-1.3-3.3,0-5.3C65.9,30.3,65.9,31.8,65.9,33.7z"/>
	<path class="st0" d="M80.2,113.8c0.6,0.9,1,1.5,1.6,2.3c-1,0-1.7,0-2.8,0C79.4,115.4,79.8,114.8,80.2,113.8z"/>
	<path d="M84.9,38.1c0,0.9,0.1,1.8,0,2.7c-0.2,2.1-1.9,3.7-4,3.7c-2.1,0-3.9-1.5-4.1-3.6c-0.1-1.9-0.1-3.8,0-5.7
		c0-0.4,0.6-0.7,0.9-1.1c0.3,0.4,0.7,0.8,0.8,1.2c0.1,1.6,0,3.2,0.1,4.8c0,1.8,0.9,2.7,2.4,2.7c1.5,0,2.4-1,2.4-2.7
		c0-1.6,0-3.2,0.1-4.8c0-0.4,0.6-0.8,0.9-1.2c0.2,0.4,0.7,0.8,0.7,1.2C85,36.2,84.9,37.1,84.9,38.1C84.9,38.1,84.9,38.1,84.9,38.1z"
		/>
	<path d="M84.8,49.8c-0.3-5.3,2.4-9.8,6.8-11c-0.8,1.1-1.7,2-2.3,3.1c-0.2,0.4-0.1,1.4,0.2,1.7c1.1,0.9,1.6,1.9,1.1,3.2
		c-0.5,1.4-1.6,2.1-3.1,2.2C86.6,49.2,85.8,49.6,84.8,49.8z"/>
	<path d="M70.2,39c3.5,0.3,7,5.2,6.7,10.8c-0.9-0.2-1.9-0.6-2.8-0.7c-1.5-0.2-2.6-0.8-3-2.3c-0.4-1.3,0-2.4,1.2-3.2
		c0.3-0.2,0.4-1.3,0.2-1.7C71.8,40.9,70.9,40,70.2,39z"/>
	<path d="M81.8,37.2c0,1,0.1,2,0,3c0,0.3-0.5,0.6-0.8,0.9c-0.3-0.3-1-0.6-1-1c-0.1-1.9-0.1-3.9,0-5.8c0-0.4,0.6-0.7,0.9-1
		c0.3,0.4,0.9,0.7,0.9,1.1C81.9,35.3,81.8,36.3,81.8,37.2C81.8,37.2,81.8,37.2,81.8,37.2z"/>
	<path d="M82,96.9c-1.3-1-2.4-1-2.9,0.7c-1.1-0.8-1.2-1.9-0.5-2.7c0.5-0.5,1.7-0.9,2.3-0.6c0.7,0.3,1,1.4,1.5,2.1
		C82.2,96.5,82.1,96.7,82,96.9z"/>
</g>
</svg>
